<svg width="300" height="277" viewBox="0 0 300 277" fill="none" xmlns="http://www.w3.org/2000/svg">
<rect y="3" width="300" height="274" rx="10" fill="white"/>
<path d="M28.8067 51.166C29.4667 51.25 30.2047 51.31 31.0207 51.346C31.8487 51.382 32.7187 51.4 33.6307 51.4C34.2187 51.4 34.8127 51.388 35.4127 51.364C36.0127 51.34 36.5887 51.31 37.1407 51.274C37.7047 51.226 38.2087 51.184 38.6527 51.148V53.02C38.2447 53.056 37.7527 53.092 37.1767 53.128C36.6127 53.164 36.0247 53.194 35.4127 53.218C34.8007 53.23 34.2127 53.236 33.6487 53.236C32.7247 53.236 31.8667 53.218 31.0747 53.182C30.2827 53.134 29.5267 53.086 28.8067 53.038V51.166ZM29.8867 58.582C29.7787 58.918 29.6947 59.248 29.6347 59.572C29.5747 59.896 29.5447 60.214 29.5447 60.526C29.5447 61.162 29.8687 61.684 30.5167 62.092C31.1767 62.5 32.1907 62.704 33.5587 62.704C34.3867 62.704 35.1787 62.674 35.9347 62.614C36.7027 62.554 37.4167 62.47 38.0767 62.362C38.7367 62.254 39.3067 62.128 39.7867 61.984L39.8047 63.964C39.3367 64.084 38.7787 64.192 38.1307 64.288C37.4947 64.384 36.7927 64.456 36.0247 64.504C35.2687 64.564 34.4707 64.594 33.6307 64.594C32.3467 64.594 31.2607 64.45 30.3727 64.162C29.4847 63.886 28.8127 63.478 28.3567 62.938C27.9007 62.398 27.6727 61.738 27.6727 60.958C27.6727 60.466 27.7147 60.01 27.7987 59.59C27.8827 59.158 27.9607 58.768 28.0327 58.42L29.8867 58.582ZM53.0887 51.688C52.9687 52.612 52.8127 53.59 52.6207 54.622C52.4407 55.642 52.1947 56.656 51.8827 57.664C51.5227 58.888 51.1147 59.926 50.6587 60.778C50.2147 61.618 49.7287 62.26 49.2007 62.704C48.6727 63.148 48.1147 63.37 47.5267 63.37C46.9267 63.37 46.3687 63.166 45.8527 62.758C45.3367 62.338 44.9167 61.756 44.5927 61.012C44.2687 60.256 44.1067 59.38 44.1067 58.384C44.1067 57.376 44.3107 56.422 44.7187 55.522C45.1387 54.622 45.7147 53.824 46.4467 53.128C47.1787 52.432 48.0307 51.886 49.0027 51.49C49.9747 51.094 51.0247 50.896 52.1527 50.896C53.2327 50.896 54.2047 51.07 55.0687 51.418C55.9447 51.766 56.6887 52.252 57.3007 52.876C57.9247 53.488 58.3987 54.208 58.7227 55.036C59.0467 55.864 59.2087 56.746 59.2087 57.682C59.2087 58.942 58.9447 60.064 58.4167 61.048C57.9007 62.02 57.1387 62.818 56.1307 63.442C55.1227 64.054 53.8867 64.468 52.4227 64.684L51.3607 62.992C51.6727 62.956 51.9607 62.92 52.2247 62.884C52.4887 62.836 52.7347 62.788 52.9627 62.74C53.5387 62.608 54.0847 62.404 54.6007 62.128C55.1287 61.852 55.5967 61.504 56.0047 61.084C56.4127 60.652 56.7307 60.148 56.9587 59.572C57.1987 58.996 57.3187 58.348 57.3187 57.628C57.3187 56.908 57.2047 56.242 56.9767 55.63C56.7487 55.006 56.4127 54.466 55.9687 54.01C55.5247 53.554 54.9787 53.2 54.3307 52.948C53.6827 52.684 52.9507 52.552 52.1347 52.552C51.1507 52.552 50.2747 52.726 49.5067 53.074C48.7387 53.422 48.0847 53.884 47.5447 54.46C47.0167 55.024 46.6147 55.636 46.3387 56.296C46.0627 56.956 45.9247 57.592 45.9247 58.204C45.9247 58.888 46.0087 59.458 46.1767 59.914C46.3447 60.358 46.5547 60.688 46.8067 60.904C47.0587 61.12 47.3167 61.228 47.5807 61.228C47.8447 61.228 48.1147 61.096 48.3907 60.832C48.6667 60.556 48.9427 60.124 49.2187 59.536C49.5067 58.948 49.7887 58.198 50.0647 57.286C50.3407 56.422 50.5687 55.504 50.7487 54.532C50.9407 53.548 51.0787 52.588 51.1627 51.652L53.0887 51.688ZM64.2667 50.662C64.5427 50.698 64.8307 50.728 65.1307 50.752C65.4307 50.764 65.7247 50.77 66.0127 50.77C66.2287 50.77 66.5407 50.77 66.9487 50.77C67.3687 50.77 67.8307 50.77 68.3347 50.77C68.8387 50.77 69.3367 50.77 69.8287 50.77C70.3327 50.77 70.7827 50.77 71.1787 50.77C71.5867 50.77 71.8927 50.77 72.0967 50.77C72.3727 50.77 72.6667 50.764 72.9787 50.752C73.3027 50.728 73.6087 50.698 73.8967 50.662V52.516C73.6087 52.492 73.3087 52.474 72.9967 52.462C72.6847 52.45 72.3847 52.444 72.0967 52.444C71.8927 52.444 71.5867 52.444 71.1787 52.444C70.7827 52.444 70.3327 52.444 69.8287 52.444C69.3367 52.444 68.8387 52.444 68.3347 52.444C67.8307 52.444 67.3747 52.444 66.9667 52.444C66.5587 52.444 66.2467 52.444 66.0307 52.444C65.7307 52.444 65.4247 52.45 65.1127 52.462C64.8007 52.474 64.5187 52.492 64.2667 52.516V50.662ZM62.1427 55.216C62.3947 55.24 62.6587 55.264 62.9347 55.288C63.2227 55.3 63.5047 55.306 63.7807 55.306C63.9367 55.306 64.2427 55.306 64.6987 55.306C65.1667 55.306 65.7307 55.306 66.3907 55.306C67.0627 55.306 67.7767 55.306 68.5327 55.306C69.3007 55.306 70.0687 55.306 70.8367 55.306C71.6047 55.306 72.3187 55.306 72.9787 55.306C73.6387 55.306 74.1967 55.306 74.6527 55.306C75.1207 55.306 75.4267 55.306 75.5707 55.306C75.7627 55.306 76.0027 55.3 76.2907 55.288C76.5907 55.276 76.8547 55.252 77.0827 55.216V57.07C76.8667 57.058 76.6147 57.052 76.3267 57.052C76.0507 57.04 75.7987 57.034 75.5707 57.034C75.4267 57.034 75.1207 57.034 74.6527 57.034C74.1967 57.034 73.6387 57.034 72.9787 57.034C72.3187 57.034 71.6047 57.034 70.8367 57.034C70.0687 57.034 69.3007 57.034 68.5327 57.034C67.7767 57.034 67.0627 57.034 66.3907 57.034C65.7307 57.034 65.1667 57.034 64.6987 57.034C64.2427 57.034 63.9367 57.034 63.7807 57.034C63.5167 57.034 63.2407 57.04 62.9527 57.052C62.6647 57.052 62.3947 57.064 62.1427 57.088V55.216ZM70.9447 56.17C70.9447 57.322 70.8547 58.366 70.6747 59.302C70.4947 60.238 70.2067 61.078 69.8107 61.822C69.5947 62.23 69.3067 62.644 68.9467 63.064C68.5867 63.472 68.1727 63.862 67.7047 64.234C67.2487 64.606 66.7567 64.924 66.2287 65.188L64.5727 63.964C65.2327 63.688 65.8627 63.31 66.4627 62.83C67.0747 62.35 67.5547 61.834 67.9027 61.282C68.3587 60.574 68.6527 59.794 68.7847 58.942C68.9167 58.078 68.9887 57.16 69.0007 56.188L70.9447 56.17ZM74.8867 49.294C75.0427 49.498 75.2107 49.75 75.3907 50.05C75.5707 50.35 75.7447 50.65 75.9127 50.95C76.0807 51.25 76.2247 51.52 76.3447 51.76L75.1567 52.264C74.9767 51.904 74.7547 51.484 74.4907 51.004C74.2267 50.524 73.9747 50.116 73.7347 49.78L74.8867 49.294ZM76.9207 48.52C77.0887 48.748 77.2627 49.012 77.4427 49.312C77.6347 49.612 77.8147 49.912 77.9827 50.212C78.1627 50.5 78.3067 50.752 78.4147 50.968L77.2447 51.49C77.0527 51.106 76.8187 50.68 76.5427 50.212C76.2787 49.744 76.0207 49.342 75.7687 49.006L76.9207 48.52ZM92.6167 49.834C92.7727 50.038 92.9347 50.29 93.1027 50.59C93.2827 50.89 93.4567 51.19 93.6247 51.49C93.7927 51.79 93.9367 52.06 94.0567 52.3L92.8867 52.804C92.7067 52.444 92.4787 52.024 92.2027 51.544C91.9387 51.064 91.6867 50.656 91.4467 50.32L92.6167 49.834ZM94.6507 49.06C94.8067 49.288 94.9747 49.552 95.1547 49.852C95.3467 50.152 95.5327 50.452 95.7127 50.752C95.8927 51.04 96.0367 51.292 96.1447 51.508L94.9747 52.03C94.7827 51.646 94.5487 51.22 94.2727 50.752C94.0087 50.284 93.7507 49.882 93.4987 49.546L94.6507 49.06ZM82.4467 58.51C82.6387 58.018 82.8247 57.496 83.0047 56.944C83.1967 56.392 83.3707 55.822 83.5267 55.234C83.6827 54.634 83.8147 54.04 83.9227 53.452C84.0427 52.864 84.1327 52.3 84.1927 51.76L86.2267 52.174C86.1907 52.33 86.1487 52.504 86.1007 52.696C86.0527 52.876 86.0047 53.056 85.9567 53.236C85.9207 53.416 85.8847 53.572 85.8487 53.704C85.7887 53.992 85.7047 54.364 85.5967 54.82C85.5007 55.264 85.3807 55.744 85.2367 56.26C85.0927 56.764 84.9367 57.28 84.7687 57.808C84.6127 58.324 84.4447 58.804 84.2647 59.248C84.0487 59.812 83.7967 60.394 83.5087 60.994C83.2207 61.582 82.9147 62.158 82.5907 62.722C82.2667 63.286 81.9427 63.802 81.6187 64.27L79.6567 63.442C80.2207 62.698 80.7487 61.882 81.2407 60.994C81.7327 60.094 82.1347 59.266 82.4467 58.51ZM91.3207 57.952C91.1407 57.484 90.9367 56.986 90.7087 56.458C90.4927 55.93 90.2647 55.402 90.0247 54.874C89.7967 54.334 89.5687 53.83 89.3407 53.362C89.1127 52.894 88.9027 52.492 88.7107 52.156L90.5647 51.544C90.7447 51.88 90.9487 52.282 91.1767 52.75C91.4167 53.218 91.6567 53.722 91.8967 54.262C92.1367 54.79 92.3707 55.318 92.5987 55.846C92.8267 56.374 93.0307 56.866 93.2107 57.322C93.3787 57.754 93.5587 58.24 93.7507 58.78C93.9547 59.32 94.1527 59.878 94.3447 60.454C94.5487 61.018 94.7347 61.57 94.9027 62.11C95.0707 62.638 95.2147 63.118 95.3347 63.55L93.2827 64.216C93.1267 63.556 92.9407 62.866 92.7247 62.146C92.5087 61.426 92.2807 60.706 92.0407 59.986C91.8127 59.266 91.5727 58.588 91.3207 57.952ZM98.0887 57.286C99.6727 56.866 101.125 56.368 102.445 55.792C103.777 55.204 104.941 54.598 105.937 53.974C106.573 53.59 107.191 53.158 107.791 52.678C108.403 52.198 108.979 51.7 109.519 51.184C110.059 50.668 110.533 50.17 110.941 49.69L112.453 51.13C111.925 51.67 111.355 52.204 110.743 52.732C110.131 53.26 109.483 53.77 108.799 54.262C108.127 54.742 107.437 55.198 106.729 55.63C106.069 56.038 105.319 56.452 104.479 56.872C103.639 57.28 102.751 57.676 101.815 58.06C100.879 58.432 99.9307 58.768 98.9707 59.068L98.0887 57.286ZM105.613 54.91L107.611 54.388V62.542C107.611 62.782 107.611 63.046 107.611 63.334C107.623 63.61 107.635 63.868 107.647 64.108C107.671 64.348 107.701 64.534 107.737 64.666H105.505C105.517 64.534 105.535 64.348 105.559 64.108C105.583 63.868 105.595 63.61 105.595 63.334C105.607 63.046 105.613 62.782 105.613 62.542V54.91ZM128.846 51.886C128.774 51.97 128.684 52.108 128.576 52.3C128.468 52.492 128.384 52.666 128.324 52.822C128.072 53.398 127.76 54.04 127.388 54.748C127.028 55.456 126.614 56.164 126.146 56.872C125.69 57.568 125.21 58.204 124.706 58.78C124.046 59.536 123.314 60.274 122.51 60.994C121.718 61.714 120.878 62.38 119.99 62.992C119.102 63.592 118.184 64.114 117.236 64.558L115.778 63.028C116.75 62.644 117.686 62.17 118.586 61.606C119.498 61.042 120.344 60.424 121.124 59.752C121.904 59.08 122.588 58.414 123.176 57.754C123.584 57.298 123.98 56.794 124.364 56.242C124.748 55.678 125.09 55.114 125.39 54.55C125.69 53.986 125.906 53.47 126.038 53.002C125.93 53.002 125.708 53.002 125.372 53.002C125.036 53.002 124.634 53.002 124.166 53.002C123.71 53.002 123.23 53.002 122.726 53.002C122.234 53.002 121.754 53.002 121.286 53.002C120.83 53.002 120.434 53.002 120.098 53.002C119.762 53.002 119.54 53.002 119.432 53.002C119.204 53.002 118.952 53.014 118.676 53.038C118.412 53.05 118.166 53.068 117.938 53.092C117.722 53.104 117.566 53.11 117.47 53.11V51.076C117.59 51.088 117.77 51.106 118.01 51.13C118.25 51.142 118.502 51.16 118.766 51.184C119.03 51.196 119.252 51.202 119.432 51.202C119.564 51.202 119.798 51.202 120.134 51.202C120.482 51.202 120.884 51.202 121.34 51.202C121.808 51.202 122.294 51.202 122.798 51.202C123.302 51.202 123.782 51.202 124.238 51.202C124.694 51.202 125.09 51.202 125.426 51.202C125.762 51.202 125.99 51.202 126.11 51.202C126.446 51.202 126.752 51.184 127.028 51.148C127.304 51.112 127.52 51.07 127.676 51.022L128.846 51.886ZM124.94 57.592C125.42 57.988 125.924 58.432 126.452 58.924C126.98 59.416 127.496 59.926 128 60.454C128.504 60.97 128.972 61.468 129.404 61.948C129.848 62.428 130.22 62.854 130.52 63.226L128.936 64.63C128.492 64.03 127.982 63.4 127.406 62.74C126.83 62.08 126.218 61.42 125.57 60.76C124.922 60.088 124.274 59.464 123.626 58.888L124.94 57.592ZM142.544 51.688C142.424 52.612 142.268 53.59 142.076 54.622C141.896 55.642 141.65 56.656 141.338 57.664C140.978 58.888 140.57 59.926 140.114 60.778C139.67 61.618 139.184 62.26 138.656 62.704C138.128 63.148 137.57 63.37 136.982 63.37C136.382 63.37 135.824 63.166 135.308 62.758C134.792 62.338 134.372 61.756 134.048 61.012C133.724 60.256 133.562 59.38 133.562 58.384C133.562 57.376 133.766 56.422 134.174 55.522C134.594 54.622 135.17 53.824 135.902 53.128C136.634 52.432 137.486 51.886 138.458 51.49C139.43 51.094 140.48 50.896 141.608 50.896C142.688 50.896 143.66 51.07 144.524 51.418C145.4 51.766 146.144 52.252 146.756 52.876C147.38 53.488 147.854 54.208 148.178 55.036C148.502 55.864 148.664 56.746 148.664 57.682C148.664 58.942 148.4 60.064 147.872 61.048C147.356 62.02 146.594 62.818 145.586 63.442C144.578 64.054 143.342 64.468 141.878 64.684L140.816 62.992C141.128 62.956 141.416 62.92 141.68 62.884C141.944 62.836 142.19 62.788 142.418 62.74C142.994 62.608 143.54 62.404 144.056 62.128C144.584 61.852 145.052 61.504 145.46 61.084C145.868 60.652 146.186 60.148 146.414 59.572C146.654 58.996 146.774 58.348 146.774 57.628C146.774 56.908 146.66 56.242 146.432 55.63C146.204 55.006 145.868 54.466 145.424 54.01C144.98 53.554 144.434 53.2 143.786 52.948C143.138 52.684 142.406 52.552 141.59 52.552C140.606 52.552 139.73 52.726 138.962 53.074C138.194 53.422 137.54 53.884 137 54.46C136.472 55.024 136.07 55.636 135.794 56.296C135.518 56.956 135.38 57.592 135.38 58.204C135.38 58.888 135.464 59.458 135.632 59.914C135.8 60.358 136.01 60.688 136.262 60.904C136.514 61.12 136.772 61.228 137.036 61.228C137.3 61.228 137.57 61.096 137.846 60.832C138.122 60.556 138.398 60.124 138.674 59.536C138.962 58.948 139.244 58.198 139.52 57.286C139.796 56.422 140.024 55.504 140.204 54.532C140.396 53.548 140.534 52.588 140.618 51.652L142.544 51.688ZM160.706 49.024H162.416V53.182H160.706V49.024ZM156.206 52.228H167.204V53.848H156.206V52.228ZM157.592 55.144L159.122 54.874C159.338 55.654 159.542 56.482 159.734 57.358C159.938 58.234 160.106 59.08 160.238 59.896C160.37 60.712 160.46 61.42 160.508 62.02L158.834 62.38C158.798 61.768 158.72 61.054 158.6 60.238C158.492 59.41 158.348 58.552 158.168 57.664C158 56.776 157.808 55.936 157.592 55.144ZM163.946 54.748L165.782 55.054C165.626 55.774 165.452 56.524 165.26 57.304C165.068 58.084 164.864 58.858 164.648 59.626C164.432 60.382 164.216 61.108 164 61.804C163.784 62.5 163.574 63.118 163.37 63.658L161.84 63.334C162.044 62.77 162.242 62.134 162.434 61.426C162.638 60.718 162.836 59.974 163.028 59.194C163.22 58.414 163.394 57.646 163.55 56.89C163.718 56.122 163.85 55.408 163.946 54.748ZM155.81 63.1H167.618V64.702H155.81V63.1ZM154.982 48.844L156.584 49.366C156.176 50.374 155.696 51.376 155.144 52.372C154.592 53.368 153.998 54.304 153.362 55.18C152.726 56.056 152.072 56.83 151.4 57.502C151.352 57.37 151.274 57.196 151.166 56.98C151.058 56.752 150.938 56.53 150.806 56.314C150.686 56.086 150.572 55.9 150.464 55.756C151.064 55.204 151.64 54.562 152.192 53.83C152.756 53.098 153.278 52.306 153.758 51.454C154.238 50.602 154.646 49.732 154.982 48.844ZM153.164 53.632L154.784 52.03L154.802 52.048V65.458H153.164V53.632ZM179.984 50.716V52.084H182.594V50.716H179.984ZM175.844 50.716V52.084H178.418V50.716H175.844ZM171.794 50.716V52.084H174.296V50.716H171.794ZM170.174 49.546H184.304V53.272H170.174V49.546ZM169.346 54.136H185.024V55.432H169.346V54.136ZM171.02 63.496H185.456V64.828H171.02V63.496ZM170.3 56.584H172.028V65.53H170.3V56.584ZM175.178 59.032V59.878H181.964V59.032H175.178ZM175.178 60.814V61.66H181.964V60.814H175.178ZM175.178 57.304V58.114H181.964V57.304H175.178ZM173.594 56.332H183.62V62.614H173.594V56.332ZM176.546 52.966L178.256 53.074C178.184 53.698 178.088 54.364 177.968 55.072C177.86 55.768 177.752 56.362 177.644 56.854H176.006C176.114 56.338 176.216 55.72 176.312 55C176.408 54.268 176.486 53.59 176.546 52.966ZM194.15 59.14H200.9V60.382H194.15V59.14ZM192.224 50.14H202.952V51.382H192.224V50.14ZM192.692 52.354H202.484V53.542H192.692V52.354ZM191.684 54.586H203.492V55.846H191.684V54.586ZM194.168 61.516H200.954V62.74H194.168V61.516ZM192.944 56.746H200.864V58.024H194.528V65.512H192.944V56.746ZM200.54 56.746H202.16V63.766C202.16 64.15 202.112 64.456 202.016 64.684C201.92 64.924 201.728 65.104 201.44 65.224C201.152 65.344 200.792 65.416 200.36 65.44C199.928 65.464 199.394 65.476 198.758 65.476C198.722 65.26 198.656 65.008 198.56 64.72C198.476 64.444 198.38 64.204 198.272 64C198.692 64.024 199.088 64.036 199.46 64.036C199.844 64.036 200.096 64.036 200.216 64.036C200.432 64.036 200.54 63.934 200.54 63.73V56.746ZM196.688 48.808H198.362V54.982H196.688V48.808ZM188.84 48.808H190.388V65.494H188.84V48.808ZM187.364 52.318L188.606 52.48C188.594 52.96 188.552 53.5 188.48 54.1C188.408 54.688 188.318 55.276 188.21 55.864C188.114 56.44 188 56.962 187.868 57.43L186.59 56.998C186.722 56.578 186.842 56.098 186.95 55.558C187.058 55.006 187.148 54.448 187.22 53.884C187.292 53.32 187.34 52.798 187.364 52.318ZM190.352 51.814L191.45 51.364C191.642 51.772 191.834 52.222 192.026 52.714C192.23 53.194 192.38 53.596 192.476 53.92L191.324 54.478C191.24 54.13 191.102 53.704 190.91 53.2C190.73 52.696 190.544 52.234 190.352 51.814ZM214.256 55.756H219.98V57.142H214.256V55.756ZM213.41 49.6H219.926V51.112H214.976V65.512H213.41V49.6ZM219.098 49.6H220.682V53.056C220.682 53.44 220.628 53.752 220.52 53.992C220.412 54.22 220.202 54.394 219.89 54.514C219.59 54.622 219.2 54.694 218.72 54.73C218.24 54.754 217.658 54.766 216.974 54.766C216.95 54.526 216.89 54.268 216.794 53.992C216.698 53.716 216.596 53.476 216.488 53.272C216.824 53.284 217.142 53.296 217.442 53.308C217.754 53.308 218.024 53.308 218.252 53.308C218.48 53.308 218.642 53.302 218.738 53.29C218.882 53.278 218.978 53.26 219.026 53.236C219.074 53.2 219.098 53.134 219.098 53.038V49.6ZM216.254 56.728C216.566 57.796 216.98 58.816 217.496 59.788C218.024 60.748 218.648 61.612 219.368 62.38C220.088 63.136 220.886 63.73 221.762 64.162C221.57 64.318 221.36 64.528 221.132 64.792C220.916 65.068 220.742 65.314 220.61 65.53C219.71 65.002 218.894 64.312 218.162 63.46C217.442 62.596 216.812 61.624 216.272 60.544C215.732 59.452 215.288 58.294 214.94 57.07L216.254 56.728ZM219.476 55.756H219.782L220.07 55.684L221.096 56.062C220.88 57.394 220.538 58.66 220.07 59.86C219.614 61.048 219.038 62.128 218.342 63.1C217.646 64.072 216.83 64.888 215.894 65.548C215.762 65.356 215.582 65.152 215.354 64.936C215.138 64.72 214.94 64.54 214.76 64.396C215.624 63.808 216.38 63.076 217.028 62.2C217.676 61.324 218.204 60.364 218.612 59.32C219.02 58.276 219.308 57.208 219.476 56.116V55.756ZM205.472 50.536H212.258V51.976H205.472V50.536ZM205.31 60.526H212.492V61.966H205.31V60.526ZM204.842 53.542H212.942V54.982H204.842V53.542ZM205.148 57.358H212.708V58.798H205.148V57.358ZM208.172 48.844H209.738V54.064H208.172V48.844ZM208.172 57.97H209.738V65.476H208.172V57.97ZM210.602 54.838L212.024 55.198C211.844 55.618 211.67 56.038 211.502 56.458C211.346 56.866 211.184 57.22 211.016 57.52L209.792 57.16C209.888 56.944 209.984 56.698 210.08 56.422C210.188 56.146 210.284 55.87 210.368 55.594C210.464 55.306 210.542 55.054 210.602 54.838ZM206.048 55.18L207.326 54.856C207.518 55.216 207.686 55.618 207.83 56.062C207.974 56.494 208.07 56.866 208.118 57.178L206.768 57.556C206.732 57.244 206.642 56.866 206.498 56.422C206.366 55.978 206.216 55.564 206.048 55.18ZM223.04 58.87C223.28 58.678 223.508 58.486 223.724 58.294C223.94 58.09 224.174 57.856 224.426 57.592C224.654 57.352 224.906 57.064 225.182 56.728C225.47 56.392 225.77 56.032 226.082 55.648C226.394 55.252 226.7 54.862 227 54.478C227.312 54.094 227.606 53.74 227.882 53.416C228.446 52.756 228.998 52.402 229.538 52.354C230.09 52.294 230.678 52.576 231.302 53.2C231.686 53.572 232.088 54.01 232.508 54.514C232.928 55.006 233.348 55.504 233.768 56.008C234.188 56.5 234.584 56.944 234.956 57.34C235.232 57.652 235.538 57.994 235.874 58.366C236.222 58.726 236.588 59.104 236.972 59.5C237.368 59.884 237.77 60.274 238.178 60.67C238.586 61.066 239 61.45 239.42 61.822L237.962 63.496C237.518 63.076 237.05 62.614 236.558 62.11C236.078 61.594 235.604 61.072 235.136 60.544C234.68 60.016 234.248 59.524 233.84 59.068C233.456 58.624 233.06 58.156 232.652 57.664C232.244 57.16 231.854 56.686 231.482 56.242C231.11 55.786 230.78 55.396 230.492 55.072C230.264 54.82 230.06 54.664 229.88 54.604C229.712 54.532 229.55 54.544 229.394 54.64C229.238 54.724 229.064 54.886 228.872 55.126C228.68 55.378 228.452 55.672 228.188 56.008C227.924 56.344 227.648 56.704 227.36 57.088C227.084 57.46 226.814 57.82 226.55 58.168C226.286 58.516 226.046 58.822 225.83 59.086C225.638 59.35 225.446 59.62 225.254 59.896C225.062 60.172 224.888 60.412 224.732 60.616L223.04 58.87ZM250.544 51.688C250.424 52.612 250.268 53.59 250.076 54.622C249.896 55.642 249.65 56.656 249.338 57.664C248.978 58.888 248.57 59.926 248.114 60.778C247.67 61.618 247.184 62.26 246.656 62.704C246.128 63.148 245.57 63.37 244.982 63.37C244.382 63.37 243.824 63.166 243.308 62.758C242.792 62.338 242.372 61.756 242.048 61.012C241.724 60.256 241.562 59.38 241.562 58.384C241.562 57.376 241.766 56.422 242.174 55.522C242.594 54.622 243.17 53.824 243.902 53.128C244.634 52.432 245.486 51.886 246.458 51.49C247.43 51.094 248.48 50.896 249.608 50.896C250.688 50.896 251.66 51.07 252.524 51.418C253.4 51.766 254.144 52.252 254.756 52.876C255.38 53.488 255.854 54.208 256.178 55.036C256.502 55.864 256.664 56.746 256.664 57.682C256.664 58.942 256.4 60.064 255.872 61.048C255.356 62.02 254.594 62.818 253.586 63.442C252.578 64.054 251.342 64.468 249.878 64.684L248.816 62.992C249.128 62.956 249.416 62.92 249.68 62.884C249.944 62.836 250.19 62.788 250.418 62.74C250.994 62.608 251.54 62.404 252.056 62.128C252.584 61.852 253.052 61.504 253.46 61.084C253.868 60.652 254.186 60.148 254.414 59.572C254.654 58.996 254.774 58.348 254.774 57.628C254.774 56.908 254.66 56.242 254.432 55.63C254.204 55.006 253.868 54.466 253.424 54.01C252.98 53.554 252.434 53.2 251.786 52.948C251.138 52.684 250.406 52.552 249.59 52.552C248.606 52.552 247.73 52.726 246.962 53.074C246.194 53.422 245.54 53.884 245 54.46C244.472 55.024 244.07 55.636 243.794 56.296C243.518 56.956 243.38 57.592 243.38 58.204C243.38 58.888 243.464 59.458 243.632 59.914C243.8 60.358 244.01 60.688 244.262 60.904C244.514 61.12 244.772 61.228 245.036 61.228C245.3 61.228 245.57 61.096 245.846 60.832C246.122 60.556 246.398 60.124 246.674 59.536C246.962 58.948 247.244 58.198 247.52 57.286C247.796 56.422 248.024 55.504 248.204 54.532C248.396 53.548 248.534 52.588 248.618 51.652L250.544 51.688ZM275.132 51.832C275.048 51.928 274.946 52.054 274.826 52.21C274.718 52.354 274.622 52.48 274.538 52.588C274.286 53.032 273.932 53.554 273.476 54.154C273.032 54.754 272.522 55.36 271.946 55.972C271.382 56.572 270.776 57.1 270.128 57.556L268.634 56.35C269.03 56.122 269.414 55.852 269.786 55.54C270.17 55.216 270.524 54.88 270.848 54.532C271.184 54.184 271.478 53.848 271.73 53.524C271.982 53.188 272.174 52.888 272.306 52.624C272.138 52.624 271.85 52.624 271.442 52.624C271.046 52.624 270.566 52.624 270.002 52.624C269.45 52.624 268.856 52.624 268.22 52.624C267.596 52.624 266.972 52.624 266.348 52.624C265.724 52.624 265.142 52.624 264.602 52.624C264.062 52.624 263.6 52.624 263.216 52.624C262.832 52.624 262.574 52.624 262.442 52.624C262.082 52.624 261.734 52.636 261.398 52.66C261.062 52.672 260.702 52.696 260.318 52.732V50.734C260.654 50.77 261.002 50.806 261.362 50.842C261.722 50.878 262.082 50.896 262.442 50.896C262.574 50.896 262.838 50.896 263.234 50.896C263.63 50.896 264.104 50.896 264.656 50.896C265.22 50.896 265.826 50.896 266.474 50.896C267.122 50.896 267.77 50.896 268.418 50.896C269.066 50.896 269.672 50.896 270.236 50.896C270.8 50.896 271.28 50.896 271.676 50.896C272.072 50.896 272.348 50.896 272.504 50.896C272.636 50.896 272.798 50.896 272.99 50.896C273.194 50.884 273.386 50.866 273.566 50.842C273.758 50.818 273.902 50.794 273.998 50.77L275.132 51.832ZM267.86 54.226C267.86 55.162 267.836 56.05 267.788 56.89C267.74 57.73 267.626 58.528 267.446 59.284C267.278 60.028 267.014 60.73 266.654 61.39C266.294 62.038 265.808 62.65 265.196 63.226C264.584 63.802 263.804 64.33 262.856 64.81L261.2 63.46C261.464 63.376 261.746 63.262 262.046 63.118C262.358 62.962 262.652 62.782 262.928 62.578C263.576 62.158 264.098 61.702 264.494 61.21C264.89 60.718 265.184 60.19 265.376 59.626C265.58 59.05 265.718 58.432 265.79 57.772C265.874 57.112 265.916 56.41 265.916 55.666C265.916 55.426 265.91 55.192 265.898 54.964C265.886 54.736 265.856 54.49 265.808 54.226H267.86ZM38.9979 77.768C38.9019 77.912 38.8119 78.086 38.7279 78.29C38.6439 78.494 38.5659 78.686 38.4939 78.866C38.3379 79.442 38.1159 80.078 37.8279 80.774C37.5399 81.47 37.1859 82.184 36.7659 82.916C36.3459 83.636 35.8659 84.326 35.3259 84.986C34.4979 86.006 33.5079 86.93 32.3559 87.758C31.2159 88.586 29.8059 89.324 28.1259 89.972L26.4519 88.478C27.6159 88.13 28.6359 87.728 29.5119 87.272C30.3999 86.804 31.1799 86.294 31.8519 85.742C32.5359 85.19 33.1419 84.602 33.6699 83.978C34.1259 83.462 34.5339 82.892 34.8939 82.268C35.2659 81.632 35.5839 81.002 35.8479 80.378C36.1239 79.742 36.3099 79.172 36.4059 78.668H29.9979L30.6819 77.048C30.8379 77.048 31.1019 77.048 31.4739 77.048C31.8579 77.048 32.2899 77.048 32.7699 77.048C33.2619 77.048 33.7419 77.048 34.2099 77.048C34.6899 77.048 35.1039 77.048 35.4519 77.048C35.8119 77.048 36.0519 77.048 36.1719 77.048C36.4239 77.048 36.6699 77.036 36.9099 77.012C37.1499 76.976 37.3539 76.928 37.5219 76.868L38.9979 77.768ZM33.0399 74.996C32.8599 75.26 32.6799 75.548 32.4999 75.86C32.3319 76.172 32.1999 76.418 32.1039 76.598C31.7319 77.282 31.2579 78.008 30.6819 78.776C30.1179 79.544 29.4639 80.3 28.7199 81.044C27.9759 81.776 27.1419 82.454 26.2179 83.078L24.6339 81.89C25.4139 81.422 26.1099 80.924 26.7219 80.396C27.3339 79.868 27.8619 79.34 28.3059 78.812C28.7619 78.272 29.1519 77.756 29.4759 77.264C29.7999 76.772 30.0699 76.328 30.2859 75.932C30.3939 75.752 30.5139 75.506 30.6459 75.194C30.7779 74.87 30.8799 74.576 30.9519 74.312L33.0399 74.996ZM46.3959 86.642C46.3959 86.39 46.3959 86.018 46.3959 85.526C46.3959 85.022 46.3959 84.464 46.3959 83.852C46.3959 83.228 46.3959 82.58 46.3959 81.908C46.3959 81.224 46.3959 80.558 46.3959 79.91C46.3959 79.25 46.3959 78.65 46.3959 78.11C46.3959 77.57 46.3959 77.132 46.3959 76.796C46.3959 76.604 46.3899 76.4 46.3779 76.184C46.3779 75.968 46.3659 75.752 46.3419 75.536C46.3299 75.32 46.3059 75.128 46.2699 74.96H48.4119C48.3639 75.224 48.3279 75.524 48.3039 75.86C48.2799 76.196 48.2679 76.508 48.2679 76.796C48.2679 77.132 48.2679 77.552 48.2679 78.056C48.2679 78.548 48.2679 79.094 48.2679 79.694C48.2679 80.294 48.2679 80.906 48.2679 81.53C48.2679 82.154 48.2679 82.76 48.2679 83.348C48.2679 83.936 48.2679 84.476 48.2679 84.968C48.2679 85.448 48.2679 85.844 48.2679 86.156C48.2679 86.552 48.3279 86.87 48.4479 87.11C48.5679 87.338 48.8079 87.5 49.1679 87.596C49.5279 87.692 50.0499 87.74 50.7339 87.74C51.4059 87.74 52.0599 87.722 52.6959 87.686C53.3319 87.638 53.9559 87.572 54.5679 87.488C55.1799 87.404 55.7859 87.302 56.3859 87.182L56.3139 89.126C55.7979 89.198 55.2399 89.264 54.6399 89.324C54.0399 89.384 53.4039 89.426 52.7319 89.45C52.0719 89.486 51.3939 89.504 50.6979 89.504C49.7739 89.504 49.0299 89.444 48.4659 89.324C47.9019 89.204 47.4699 89.03 47.1699 88.802C46.8699 88.562 46.6659 88.262 46.5579 87.902C46.4499 87.542 46.3959 87.122 46.3959 86.642ZM57.2319 78.668C57.1719 78.776 57.0879 78.908 56.9799 79.064C56.8839 79.22 56.7999 79.364 56.7279 79.496C56.5239 79.868 56.2779 80.288 55.9899 80.756C55.7139 81.212 55.4139 81.68 55.0899 82.16C54.7659 82.64 54.4239 83.102 54.0639 83.546C53.7159 83.99 53.3679 84.386 53.0199 84.734L51.4539 83.816C51.8859 83.42 52.2999 82.976 52.6959 82.484C53.1039 81.992 53.4639 81.506 53.7759 81.026C54.0999 80.546 54.3459 80.138 54.5139 79.802C54.4059 79.826 54.1419 79.88 53.7219 79.964C53.3139 80.048 52.7979 80.156 52.1739 80.288C51.5499 80.408 50.8659 80.546 50.1219 80.702C49.3779 80.846 48.6219 80.996 47.8539 81.152C47.0859 81.308 46.3479 81.458 45.6399 81.602C44.9319 81.734 44.2959 81.86 43.7319 81.98C43.1679 82.1 42.7299 82.196 42.4179 82.268L42.0759 80.378C42.4119 80.342 42.8619 80.282 43.4259 80.198C44.0019 80.102 44.6439 79.988 45.3519 79.856C46.0719 79.724 46.8219 79.586 47.6019 79.442C48.3819 79.286 49.1499 79.136 49.9059 78.992C50.6619 78.836 51.3699 78.692 52.0299 78.56C52.7019 78.428 53.2779 78.314 53.7579 78.218C54.2379 78.11 54.5799 78.032 54.7839 77.984C55.0119 77.936 55.2159 77.882 55.3959 77.822C55.5879 77.762 55.7499 77.69 55.8819 77.606L57.2319 78.668ZM73.7559 76.886C73.6839 76.97 73.5939 77.108 73.4859 77.3C73.3779 77.492 73.2939 77.666 73.2339 77.822C72.9819 78.398 72.6699 79.04 72.2979 79.748C71.9379 80.456 71.5239 81.164 71.0559 81.872C70.5999 82.568 70.1199 83.204 69.6159 83.78C68.9559 84.536 68.2239 85.274 67.4199 85.994C66.6279 86.714 65.7879 87.38 64.8999 87.992C64.0119 88.592 63.0939 89.114 62.1459 89.558L60.6879 88.028C61.6599 87.644 62.5959 87.17 63.4959 86.606C64.4079 86.042 65.2539 85.424 66.0339 84.752C66.8139 84.08 67.4979 83.414 68.0859 82.754C68.4939 82.298 68.8899 81.794 69.2739 81.242C69.6579 80.678 69.9999 80.114 70.2999 79.55C70.5999 78.986 70.8159 78.47 70.9479 78.002C70.8399 78.002 70.6179 78.002 70.2819 78.002C69.9459 78.002 69.5439 78.002 69.0759 78.002C68.6199 78.002 68.1399 78.002 67.6359 78.002C67.1439 78.002 66.6639 78.002 66.1959 78.002C65.7399 78.002 65.3439 78.002 65.0079 78.002C64.6719 78.002 64.4499 78.002 64.3419 78.002C64.1139 78.002 63.8619 78.014 63.5859 78.038C63.3219 78.05 63.0759 78.068 62.8479 78.092C62.6319 78.104 62.4759 78.11 62.3799 78.11V76.076C62.4999 76.088 62.6799 76.106 62.9199 76.13C63.1599 76.142 63.4119 76.16 63.6759 76.184C63.9399 76.196 64.1619 76.202 64.3419 76.202C64.4739 76.202 64.7079 76.202 65.0439 76.202C65.3919 76.202 65.7939 76.202 66.2499 76.202C66.7179 76.202 67.2039 76.202 67.7079 76.202C68.2119 76.202 68.6919 76.202 69.1479 76.202C69.6039 76.202 69.9999 76.202 70.3359 76.202C70.6719 76.202 70.8999 76.202 71.0199 76.202C71.3559 76.202 71.6619 76.184 71.9379 76.148C72.2139 76.112 72.4299 76.07 72.5859 76.022L73.7559 76.886ZM69.8499 82.592C70.3299 82.988 70.8339 83.432 71.3619 83.924C71.8899 84.416 72.4059 84.926 72.9099 85.454C73.4139 85.97 73.8819 86.468 74.3139 86.948C74.7579 87.428 75.1299 87.854 75.4299 88.226L73.8459 89.63C73.4019 89.03 72.8919 88.4 72.3159 87.74C71.7399 87.08 71.1279 86.42 70.4799 85.76C69.8319 85.088 69.1839 84.464 68.5359 83.888L69.8499 82.592ZM85.5819 74.672C85.5099 75.02 85.4079 75.446 85.2759 75.95C85.1559 76.442 84.9759 77 84.7359 77.624C84.5319 78.128 84.2799 78.644 83.9799 79.172C83.6919 79.7 83.3919 80.18 83.0799 80.612C83.2839 80.492 83.5179 80.396 83.7819 80.324C84.0579 80.24 84.3339 80.18 84.6099 80.144C84.8979 80.096 85.1559 80.072 85.3839 80.072C86.1039 80.072 86.7099 80.282 87.2019 80.702C87.6939 81.11 87.9399 81.704 87.9399 82.484C87.9399 82.724 87.9399 83.018 87.9399 83.366C87.9399 83.714 87.9459 84.08 87.9579 84.464C87.9699 84.848 87.9759 85.226 87.9759 85.598C87.9879 85.97 87.9939 86.294 87.9939 86.57H86.2839C86.2959 86.342 86.3079 86.078 86.3199 85.778C86.3319 85.466 86.3379 85.142 86.3379 84.806C86.3499 84.47 86.3559 84.146 86.3559 83.834C86.3559 83.522 86.3559 83.246 86.3559 83.006C86.3439 82.466 86.1819 82.076 85.8699 81.836C85.5579 81.596 85.1919 81.476 84.7719 81.476C84.2319 81.476 83.6919 81.602 83.1519 81.854C82.6239 82.106 82.1679 82.412 81.7839 82.772C81.5319 83.024 81.2679 83.312 80.9919 83.636C80.7279 83.96 80.4459 84.314 80.1459 84.698L78.5979 83.546C79.4259 82.766 80.1279 82.022 80.7039 81.314C81.2799 80.606 81.7539 79.934 82.1259 79.298C82.5099 78.65 82.8099 78.038 83.0259 77.462C83.2179 76.97 83.3739 76.472 83.4939 75.968C83.6139 75.452 83.6859 74.972 83.7099 74.528L85.5819 74.672ZM79.1379 76.49C79.6179 76.562 80.1459 76.616 80.7219 76.652C81.2979 76.676 81.8019 76.688 82.2339 76.688C83.0379 76.688 83.9079 76.67 84.8439 76.634C85.7799 76.598 86.7219 76.538 87.6699 76.454C88.6299 76.37 89.5359 76.25 90.3879 76.094V77.768C89.7519 77.852 89.0739 77.93 88.3539 78.002C87.6339 78.074 86.9019 78.134 86.1579 78.182C85.4139 78.218 84.6999 78.248 84.0159 78.272C83.3319 78.284 82.7079 78.29 82.1439 78.29C81.8919 78.29 81.5919 78.29 81.2439 78.29C80.9079 78.278 80.5539 78.26 80.1819 78.236C79.8219 78.212 79.4739 78.194 79.1379 78.182V76.49ZM93.1239 81.17C92.9559 81.23 92.7579 81.296 92.5299 81.368C92.3139 81.44 92.0979 81.518 91.8819 81.602C91.6659 81.686 91.4679 81.764 91.2879 81.836C90.6759 82.076 89.9619 82.364 89.1459 82.7C88.3419 83.036 87.5139 83.426 86.6619 83.87C86.0859 84.17 85.5879 84.47 85.1679 84.77C84.7479 85.07 84.4179 85.382 84.1779 85.706C83.9499 86.03 83.8359 86.384 83.8359 86.768C83.8359 87.08 83.9079 87.332 84.0519 87.524C84.1959 87.716 84.3939 87.866 84.6459 87.974C84.9099 88.07 85.2219 88.142 85.5819 88.19C85.9539 88.226 86.3679 88.244 86.8239 88.244C87.5439 88.244 88.3599 88.202 89.2719 88.118C90.1839 88.034 91.0359 87.92 91.8279 87.776L91.7739 89.594C91.3419 89.642 90.8379 89.69 90.2619 89.738C89.6859 89.798 89.0919 89.84 88.4799 89.864C87.8799 89.9 87.3099 89.918 86.7699 89.918C85.8699 89.918 85.0599 89.834 84.3399 89.666C83.6199 89.498 83.0499 89.21 82.6299 88.802C82.2099 88.382 81.9999 87.8 81.9999 87.056C81.9999 86.468 82.1319 85.94 82.3959 85.472C82.6719 84.992 83.0259 84.56 83.4579 84.176C83.9019 83.792 84.3939 83.438 84.9339 83.114C85.4739 82.79 86.0079 82.496 86.5359 82.232C87.0999 81.932 87.6219 81.674 88.1019 81.458C88.5939 81.23 89.0499 81.026 89.4699 80.846C89.9019 80.666 90.3039 80.486 90.6759 80.306C90.9879 80.174 91.2819 80.048 91.5579 79.928C91.8339 79.796 92.1099 79.658 92.3859 79.514L93.1239 81.17ZM106.714 73.736H112.51V75.284H108.388V85.31H106.714V73.736ZM120.394 89L116.506 78.074H116.434C116.446 78.314 116.464 78.638 116.488 79.046C116.512 79.454 116.53 79.892 116.542 80.36C116.554 80.828 116.56 81.29 116.56 81.746V89H114.796V76.148H117.568L121.258 86.462H121.33L125.128 76.148H127.9V89H126.01V81.638C126.01 81.218 126.016 80.786 126.028 80.342C126.052 79.886 126.07 79.46 126.082 79.064C126.106 78.668 126.124 78.344 126.136 78.092H126.064L122.068 89H120.394ZM129.627 79.298H131.679L133.695 84.806C133.803 85.082 133.899 85.352 133.983 85.616C134.067 85.88 134.139 86.144 134.199 86.408C134.271 86.66 134.325 86.912 134.361 87.164H134.433C134.493 86.852 134.589 86.486 134.721 86.066C134.853 85.634 134.991 85.208 135.135 84.788L137.043 79.298H139.095L134.937 90.314C134.709 90.938 134.427 91.472 134.091 91.916C133.755 92.372 133.353 92.72 132.885 92.96C132.429 93.2 131.889 93.32 131.265 93.32C130.965 93.32 130.707 93.302 130.491 93.266C130.275 93.242 130.089 93.212 129.933 93.176V91.664C130.065 91.688 130.221 91.712 130.401 91.736C130.593 91.76 130.791 91.772 130.995 91.772C131.367 91.772 131.685 91.7 131.949 91.556C132.225 91.412 132.453 91.208 132.633 90.944C132.825 90.68 132.987 90.38 133.119 90.044L133.515 89L129.627 79.298ZM146.41 89L142.522 78.074H142.45C142.462 78.314 142.48 78.638 142.504 79.046C142.528 79.454 142.546 79.892 142.558 80.36C142.57 80.828 142.576 81.29 142.576 81.746V89H140.812V76.148H143.584L147.274 86.462H147.346L151.144 76.148H153.916V89H152.026V81.638C152.026 81.218 152.032 80.786 152.044 80.342C152.068 79.886 152.086 79.46 152.098 79.064C152.122 78.668 152.14 78.344 152.152 78.092H152.08L148.084 89H146.41ZM167.307 84.464C167.307 85.352 167.121 86.156 166.749 86.876C166.389 87.584 165.831 88.148 165.075 88.568C164.319 88.976 163.365 89.18 162.213 89.18C160.581 89.18 159.339 88.748 158.487 87.884C157.647 87.008 157.227 85.856 157.227 84.428V76.148H159.171V84.338C159.171 85.394 159.429 86.192 159.945 86.732C160.461 87.26 161.247 87.524 162.303 87.524C163.023 87.524 163.611 87.392 164.067 87.128C164.523 86.864 164.853 86.498 165.057 86.03C165.273 85.55 165.381 84.98 165.381 84.32V76.148H167.307V84.464ZM175.286 90.584H169.49V89.036H173.612V79.01H175.286V90.584ZM195.05 76.652C195.578 76.736 196.172 76.796 196.832 76.832C197.504 76.868 198.194 76.88 198.902 76.868C199.61 76.856 200.288 76.832 200.936 76.796C201.584 76.76 202.142 76.712 202.61 76.652V78.488C202.094 78.536 201.512 78.578 200.864 78.614C200.216 78.638 199.544 78.65 198.848 78.65C198.164 78.65 197.492 78.638 196.832 78.614C196.172 78.578 195.584 78.536 195.068 78.488L195.05 76.652ZM196.076 84.14C196.004 84.452 195.944 84.734 195.896 84.986C195.86 85.238 195.842 85.49 195.842 85.742C195.842 85.946 195.884 86.138 195.968 86.318C196.064 86.498 196.214 86.654 196.418 86.786C196.634 86.918 196.922 87.026 197.282 87.11C197.654 87.182 198.11 87.218 198.65 87.218C199.466 87.218 200.228 87.182 200.936 87.11C201.656 87.026 202.388 86.9 203.132 86.732L203.168 88.658C202.604 88.766 201.944 88.856 201.188 88.928C200.444 88.988 199.586 89.018 198.614 89.018C197.09 89.018 195.962 88.772 195.23 88.28C194.51 87.776 194.15 87.086 194.15 86.21C194.15 85.886 194.174 85.55 194.222 85.202C194.27 84.842 194.348 84.44 194.456 83.996L196.076 84.14ZM191.918 75.356C191.882 75.464 191.834 75.608 191.774 75.788C191.726 75.956 191.678 76.13 191.63 76.31C191.594 76.478 191.564 76.616 191.54 76.724C191.48 77.024 191.408 77.39 191.324 77.822C191.252 78.242 191.174 78.704 191.09 79.208C191.018 79.7 190.946 80.204 190.874 80.72C190.814 81.224 190.76 81.716 190.712 82.196C190.676 82.676 190.658 83.114 190.658 83.51C190.658 83.822 190.664 84.14 190.676 84.464C190.7 84.776 190.73 85.1 190.766 85.436C190.874 85.196 190.982 84.944 191.09 84.68C191.198 84.404 191.306 84.134 191.414 83.87C191.522 83.606 191.624 83.366 191.72 83.15L192.62 83.87C192.464 84.314 192.296 84.806 192.116 85.346C191.936 85.886 191.774 86.402 191.63 86.894C191.498 87.374 191.402 87.764 191.342 88.064C191.318 88.184 191.294 88.328 191.27 88.496C191.246 88.652 191.24 88.784 191.252 88.892C191.252 88.976 191.252 89.078 191.252 89.198C191.264 89.33 191.276 89.45 191.288 89.558L189.65 89.666C189.47 89.042 189.314 88.22 189.182 87.2C189.05 86.18 188.984 85.064 188.984 83.852C188.984 83.18 189.014 82.502 189.074 81.818C189.134 81.122 189.206 80.45 189.29 79.802C189.374 79.154 189.458 78.56 189.542 78.02C189.638 77.48 189.71 77.03 189.758 76.67C189.794 76.442 189.824 76.196 189.848 75.932C189.884 75.668 189.908 75.416 189.92 75.176L191.918 75.356ZM214.688 76.418H221.924V77.984H214.688V76.418ZM212.654 81.926H222.302V83.546H212.654V81.926ZM216.668 77.084H218.378V90.494H216.668V77.084ZM214.724 73.754L216.416 74.096C216.212 74.96 215.96 75.812 215.66 76.652C215.372 77.492 215.042 78.272 214.67 78.992C214.31 79.7 213.92 80.33 213.5 80.882C213.392 80.786 213.248 80.678 213.068 80.558C212.888 80.438 212.702 80.324 212.51 80.216C212.318 80.096 212.15 80 212.006 79.928C212.426 79.436 212.81 78.86 213.158 78.2C213.506 77.54 213.812 76.832 214.076 76.076C214.34 75.32 214.556 74.546 214.724 73.754ZM206.408 79.28H212.114V80.594H206.408V79.28ZM206.498 74.402H212.132V75.734H206.498V74.402ZM206.408 81.71H212.114V83.024H206.408V81.71ZM205.544 76.796H212.798V78.164H205.544V76.796ZM207.182 84.176H212.06V89.522H207.182V88.154H210.548V85.544H207.182V84.176ZM206.372 84.176H207.866V90.296H206.372V84.176ZM236.09 75.536H237.872V88.226C237.872 88.778 237.794 89.204 237.638 89.504C237.482 89.804 237.212 90.026 236.828 90.17C236.432 90.326 235.91 90.416 235.262 90.44C234.614 90.476 233.84 90.494 232.94 90.494C232.904 90.314 232.844 90.11 232.76 89.882C232.688 89.666 232.604 89.444 232.508 89.216C232.412 89 232.316 88.814 232.22 88.658C232.688 88.682 233.144 88.7 233.588 88.712C234.044 88.712 234.446 88.712 234.794 88.712C235.154 88.712 235.406 88.712 235.55 88.712C235.742 88.7 235.88 88.664 235.964 88.604C236.048 88.532 236.09 88.4 236.09 88.208V75.536ZM225.632 79.136H227.288V87.398H225.632V79.136ZM226.334 79.136H233.138V85.976H226.334V84.356H231.446V80.756H226.334V79.136ZM223.85 75.05H240.032V76.76H223.85V75.05ZM247.286 74.87C247.238 75.194 247.196 75.542 247.16 75.914C247.124 76.274 247.1 76.616 247.088 76.94C247.064 77.432 247.04 78.044 247.016 78.776C246.992 79.496 246.968 80.264 246.944 81.08C246.92 81.884 246.902 82.682 246.89 83.474C246.878 84.254 246.872 84.956 246.872 85.58C246.872 86.216 246.986 86.72 247.214 87.092C247.454 87.464 247.784 87.734 248.204 87.902C248.624 88.058 249.092 88.136 249.608 88.136C250.4 88.136 251.114 88.034 251.75 87.83C252.386 87.626 252.956 87.35 253.46 87.002C253.976 86.654 254.438 86.258 254.846 85.814C255.254 85.37 255.62 84.908 255.944 84.428L257.222 85.994C256.922 86.426 256.544 86.876 256.088 87.344C255.632 87.812 255.086 88.25 254.45 88.658C253.826 89.066 253.106 89.396 252.29 89.648C251.486 89.9 250.58 90.026 249.572 90.026C248.66 90.026 247.862 89.888 247.178 89.612C246.494 89.336 245.96 88.892 245.576 88.28C245.192 87.668 245 86.864 245 85.868C245 85.352 245.006 84.77 245.018 84.122C245.03 83.474 245.042 82.808 245.054 82.124C245.078 81.428 245.096 80.75 245.108 80.09C245.132 79.43 245.15 78.824 245.162 78.272C245.174 77.72 245.18 77.276 245.18 76.94C245.18 76.556 245.162 76.19 245.126 75.842C245.102 75.482 245.054 75.152 244.982 74.852L247.286 74.87ZM269.408 74.6C269.396 74.768 269.378 74.954 269.354 75.158C269.342 75.35 269.33 75.572 269.318 75.824C269.306 76.028 269.294 76.322 269.282 76.706C269.282 77.09 269.276 77.516 269.264 77.984C269.264 78.44 269.264 78.902 269.264 79.37C269.264 79.826 269.264 80.246 269.264 80.63C269.264 81.182 269.276 81.782 269.3 82.43C269.336 83.066 269.372 83.696 269.408 84.32C269.444 84.944 269.474 85.52 269.498 86.048C269.534 86.576 269.552 87.008 269.552 87.344C269.552 87.8 269.438 88.226 269.21 88.622C268.982 89.018 268.622 89.336 268.13 89.576C267.638 89.828 266.996 89.954 266.204 89.954C264.848 89.954 263.816 89.708 263.108 89.216C262.4 88.736 262.046 88.046 262.046 87.146C262.046 86.57 262.214 86.066 262.55 85.634C262.898 85.202 263.39 84.866 264.026 84.626C264.674 84.374 265.442 84.248 266.33 84.248C267.29 84.248 268.19 84.356 269.03 84.572C269.882 84.788 270.656 85.064 271.352 85.4C272.06 85.736 272.684 86.09 273.224 86.462C273.764 86.822 274.22 87.146 274.592 87.434L273.548 89.036C273.128 88.652 272.654 88.262 272.126 87.866C271.598 87.47 271.016 87.11 270.38 86.786C269.744 86.462 269.066 86.204 268.346 86.012C267.638 85.82 266.888 85.724 266.096 85.724C265.328 85.724 264.74 85.856 264.332 86.12C263.936 86.372 263.738 86.678 263.738 87.038C263.738 87.29 263.816 87.518 263.972 87.722C264.14 87.914 264.386 88.07 264.71 88.19C265.034 88.298 265.454 88.352 265.97 88.352C266.306 88.352 266.606 88.31 266.87 88.226C267.146 88.142 267.362 87.998 267.518 87.794C267.674 87.578 267.752 87.278 267.752 86.894C267.752 86.582 267.74 86.162 267.716 85.634C267.692 85.106 267.668 84.536 267.644 83.924C267.632 83.3 267.614 82.7 267.59 82.124C267.566 81.536 267.554 81.038 267.554 80.63C267.554 80.21 267.554 79.778 267.554 79.334C267.566 78.878 267.572 78.434 267.572 78.002C267.572 77.558 267.572 77.144 267.572 76.76C267.572 76.364 267.572 76.022 267.572 75.734C267.572 75.578 267.566 75.386 267.554 75.158C267.542 74.918 267.518 74.732 267.482 74.6H269.408ZM262.28 76.436C262.58 76.484 262.928 76.532 263.324 76.58C263.732 76.628 264.146 76.676 264.566 76.724C264.998 76.76 265.406 76.79 265.79 76.814C266.174 76.826 266.51 76.832 266.798 76.832C267.986 76.832 269.18 76.79 270.38 76.706C271.58 76.622 272.792 76.478 274.016 76.274V77.93C273.368 78.002 272.648 78.074 271.856 78.146C271.064 78.218 270.236 78.278 269.372 78.326C268.52 78.374 267.668 78.398 266.816 78.398C266.42 78.398 265.94 78.38 265.376 78.344C264.824 78.308 264.272 78.266 263.72 78.218C263.168 78.17 262.694 78.122 262.298 78.074L262.28 76.436ZM262.19 80.288C262.49 80.336 262.838 80.384 263.234 80.432C263.63 80.468 264.038 80.498 264.458 80.522C264.878 80.546 265.274 80.57 265.646 80.594C266.03 80.606 266.36 80.612 266.636 80.612C267.608 80.612 268.52 80.594 269.372 80.558C270.236 80.51 271.064 80.45 271.856 80.378C272.66 80.294 273.44 80.204 274.196 80.108L274.178 81.782C273.566 81.866 272.966 81.938 272.378 81.998C271.79 82.046 271.196 82.088 270.596 82.124C270.008 82.16 269.384 82.184 268.724 82.196C268.076 82.208 267.368 82.214 266.6 82.214C266.228 82.214 265.778 82.208 265.25 82.196C264.722 82.172 264.188 82.142 263.648 82.106C263.108 82.07 262.628 82.028 262.208 81.98L262.19 80.288ZM134.502 99.636C134.49 99.708 134.472 99.834 134.448 100.014C134.436 100.194 134.424 100.374 134.412 100.554C134.4 100.734 134.394 100.866 134.394 100.95C134.382 101.178 134.37 101.496 134.358 101.904C134.358 102.3 134.358 102.738 134.358 103.218C134.358 103.698 134.358 104.184 134.358 104.676C134.37 105.156 134.376 105.612 134.376 106.044C134.388 106.464 134.394 106.818 134.394 107.106L132.648 106.386C132.648 106.194 132.648 105.924 132.648 105.576C132.648 105.216 132.642 104.814 132.63 104.37C132.63 103.914 132.624 103.464 132.612 103.02C132.612 102.576 132.606 102.168 132.594 101.796C132.594 101.424 132.588 101.142 132.576 100.95C132.552 100.662 132.522 100.392 132.486 100.14C132.462 99.888 132.444 99.72 132.432 99.636H134.502ZM124.656 102.03C125.172 102.018 125.748 102.006 126.384 101.994C127.032 101.982 127.716 101.97 128.436 101.958C129.156 101.934 129.87 101.916 130.578 101.904C131.298 101.88 131.982 101.868 132.63 101.868C133.278 101.856 133.854 101.85 134.358 101.85C134.874 101.85 135.402 101.85 135.942 101.85C136.482 101.85 136.998 101.85 137.49 101.85C137.982 101.85 138.426 101.85 138.822 101.85C139.23 101.85 139.548 101.85 139.776 101.85L139.74 103.542C139.224 103.518 138.522 103.5 137.634 103.488C136.758 103.464 135.654 103.452 134.322 103.452C133.53 103.452 132.714 103.458 131.874 103.47C131.034 103.482 130.188 103.506 129.336 103.542C128.496 103.566 127.68 103.596 126.888 103.632C126.108 103.668 125.382 103.71 124.71 103.758L124.656 102.03ZM134.232 107.286C134.232 108.174 134.112 108.912 133.872 109.5C133.644 110.076 133.314 110.514 132.882 110.814C132.45 111.102 131.928 111.246 131.316 111.246C130.944 111.246 130.578 111.18 130.218 111.048C129.87 110.916 129.546 110.718 129.246 110.454C128.958 110.178 128.724 109.848 128.544 109.464C128.376 109.068 128.292 108.618 128.292 108.114C128.292 107.478 128.442 106.92 128.742 106.44C129.054 105.948 129.462 105.564 129.966 105.288C130.482 105.012 131.04 104.874 131.64 104.874C132.384 104.874 133.002 105.042 133.494 105.378C133.998 105.714 134.376 106.17 134.628 106.746C134.88 107.31 135.006 107.952 135.006 108.672C135.006 109.26 134.916 109.872 134.736 110.508C134.556 111.132 134.256 111.738 133.836 112.326C133.416 112.914 132.846 113.454 132.126 113.946C131.418 114.426 130.53 114.822 129.462 115.134L127.932 113.622C128.736 113.454 129.462 113.232 130.11 112.956C130.758 112.668 131.316 112.32 131.784 111.912C132.252 111.492 132.612 111 132.864 110.436C133.128 109.86 133.26 109.194 133.26 108.438C133.26 107.718 133.098 107.196 132.774 106.872C132.462 106.548 132.078 106.386 131.622 106.386C131.346 106.386 131.082 106.452 130.83 106.584C130.578 106.716 130.374 106.908 130.218 107.16C130.062 107.412 129.984 107.718 129.984 108.078C129.984 108.582 130.146 108.978 130.47 109.266C130.806 109.542 131.19 109.68 131.622 109.68C131.97 109.68 132.264 109.584 132.504 109.392C132.756 109.188 132.93 108.876 133.026 108.456C133.122 108.024 133.098 107.478 132.954 106.818L134.232 107.286ZM149.064 99.888C149.028 100.068 148.986 100.272 148.938 100.5C148.89 100.728 148.848 100.938 148.812 101.13C148.764 101.37 148.704 101.67 148.632 102.03C148.572 102.378 148.506 102.744 148.434 103.128C148.362 103.5 148.284 103.86 148.2 104.208C148.08 104.712 147.93 105.294 147.75 105.954C147.57 106.614 147.36 107.322 147.12 108.078C146.892 108.822 146.628 109.584 146.328 110.364C146.04 111.132 145.722 111.888 145.374 112.632C145.038 113.364 144.672 114.048 144.276 114.684L142.422 113.946C142.842 113.382 143.232 112.758 143.592 112.074C143.952 111.378 144.282 110.664 144.582 109.932C144.882 109.188 145.152 108.456 145.392 107.736C145.632 107.016 145.836 106.35 146.004 105.738C146.184 105.114 146.322 104.58 146.418 104.136C146.586 103.368 146.718 102.6 146.814 101.832C146.922 101.064 146.97 100.344 146.958 99.672L149.064 99.888ZM155.274 101.706C155.55 102.078 155.844 102.546 156.156 103.11C156.468 103.674 156.774 104.274 157.074 104.91C157.386 105.546 157.662 106.158 157.902 106.746C158.154 107.334 158.352 107.838 158.496 108.258L156.714 109.086C156.594 108.606 156.42 108.066 156.192 107.466C155.976 106.854 155.724 106.236 155.436 105.612C155.16 104.988 154.86 104.4 154.536 103.848C154.224 103.284 153.912 102.81 153.6 102.426L155.274 101.706ZM142.224 103.722C142.524 103.734 142.812 103.74 143.088 103.74C143.376 103.74 143.67 103.734 143.97 103.722C144.258 103.71 144.612 103.692 145.032 103.668C145.452 103.632 145.902 103.596 146.382 103.56C146.874 103.512 147.36 103.47 147.84 103.434C148.332 103.386 148.782 103.35 149.19 103.326C149.598 103.302 149.928 103.29 150.18 103.29C150.768 103.29 151.29 103.386 151.746 103.578C152.202 103.758 152.562 104.082 152.826 104.55C153.102 105.018 153.24 105.672 153.24 106.512C153.24 107.22 153.21 107.988 153.15 108.816C153.09 109.632 152.982 110.418 152.826 111.174C152.682 111.918 152.478 112.542 152.214 113.046C151.926 113.67 151.548 114.084 151.08 114.288C150.624 114.504 150.078 114.612 149.442 114.612C149.106 114.612 148.74 114.588 148.344 114.54C147.948 114.492 147.6 114.432 147.3 114.36L147.012 112.488C147.252 112.548 147.51 112.608 147.786 112.668C148.074 112.728 148.344 112.776 148.596 112.812C148.848 112.836 149.052 112.848 149.208 112.848C149.532 112.848 149.814 112.794 150.054 112.686C150.306 112.566 150.516 112.332 150.684 111.984C150.864 111.612 151.014 111.132 151.134 110.544C151.254 109.956 151.344 109.326 151.404 108.654C151.464 107.982 151.494 107.334 151.494 106.71C151.494 106.182 151.416 105.792 151.26 105.54C151.116 105.288 150.906 105.12 150.63 105.036C150.354 104.94 150.03 104.892 149.658 104.892C149.37 104.892 148.974 104.916 148.47 104.964C147.978 105 147.45 105.048 146.886 105.108C146.322 105.168 145.8 105.228 145.32 105.288C144.84 105.336 144.462 105.378 144.186 105.414C143.958 105.438 143.664 105.474 143.304 105.522C142.956 105.57 142.656 105.618 142.404 105.666L142.224 103.722ZM166.848 109.536C166.764 109.044 166.788 108.612 166.92 108.24C167.064 107.856 167.274 107.514 167.55 107.214C167.826 106.902 168.126 106.62 168.45 106.368C168.786 106.104 169.098 105.852 169.386 105.612C169.686 105.36 169.932 105.102 170.124 104.838C170.328 104.562 170.43 104.268 170.43 103.956C170.43 103.56 170.334 103.218 170.142 102.93C169.95 102.642 169.662 102.42 169.278 102.264C168.906 102.096 168.444 102.012 167.892 102.012C167.304 102.012 166.746 102.138 166.218 102.39C165.702 102.642 165.204 103.026 164.724 103.542L163.536 102.444C164.112 101.796 164.778 101.28 165.534 100.896C166.29 100.5 167.154 100.302 168.126 100.302C168.978 100.302 169.728 100.44 170.376 100.716C171.024 100.98 171.528 101.37 171.888 101.886C172.26 102.402 172.446 103.032 172.446 103.776C172.446 104.22 172.344 104.616 172.14 104.964C171.948 105.3 171.696 105.606 171.384 105.882C171.084 106.158 170.76 106.428 170.412 106.692C170.076 106.944 169.764 107.208 169.476 107.484C169.2 107.748 168.984 108.048 168.828 108.384C168.672 108.708 168.624 109.092 168.684 109.536H166.848ZM167.784 114.126C167.4 114.126 167.082 114 166.83 113.748C166.578 113.496 166.452 113.166 166.452 112.758C166.452 112.35 166.578 112.02 166.83 111.768C167.094 111.516 167.412 111.39 167.784 111.39C168.156 111.39 168.474 111.516 168.738 111.768C169.002 112.02 169.134 112.35 169.134 112.758C169.134 113.166 169.002 113.496 168.738 113.748C168.474 114 168.156 114.126 167.784 114.126Z" fill="black"/>
<path d="M101.072 155.184C100.997 155.269 100.907 155.381 100.8 155.52C100.704 155.648 100.619 155.76 100.544 155.856C100.32 156.251 100.005 156.715 99.6 157.248C99.2053 157.781 98.752 158.32 98.24 158.864C97.7387 159.397 97.2 159.867 96.624 160.272L95.296 159.2C95.648 158.997 95.9893 158.757 96.32 158.48C96.6613 158.192 96.976 157.893 97.264 157.584C97.5627 157.275 97.824 156.976 98.048 156.688C98.272 156.389 98.4427 156.123 98.56 155.888C98.4107 155.888 98.1547 155.888 97.792 155.888C97.44 155.888 97.0133 155.888 96.512 155.888C96.0213 155.888 95.4933 155.888 94.928 155.888C94.3733 155.888 93.8187 155.888 93.264 155.888C92.7093 155.888 92.192 155.888 91.712 155.888C91.232 155.888 90.8213 155.888 90.48 155.888C90.1387 155.888 89.9093 155.888 89.792 155.888C89.472 155.888 89.1627 155.899 88.864 155.92C88.5653 155.931 88.2453 155.952 87.904 155.984V154.208C88.2027 154.24 88.512 154.272 88.832 154.304C89.152 154.336 89.472 154.352 89.792 154.352C89.9093 154.352 90.144 154.352 90.496 154.352C90.848 154.352 91.2693 154.352 91.76 154.352C92.2613 154.352 92.8 154.352 93.376 154.352C93.952 154.352 94.528 154.352 95.104 154.352C95.68 154.352 96.2187 154.352 96.72 154.352C97.2213 154.352 97.648 154.352 98 154.352C98.352 154.352 98.5973 154.352 98.736 154.352C98.8533 154.352 98.9973 154.352 99.168 154.352C99.3493 154.341 99.52 154.325 99.68 154.304C99.8507 154.283 99.9787 154.261 100.064 154.24L101.072 155.184ZM94.608 157.312C94.608 158.144 94.5867 158.933 94.544 159.68C94.5013 160.427 94.4 161.136 94.24 161.808C94.0907 162.469 93.856 163.093 93.536 163.68C93.216 164.256 92.784 164.8 92.24 165.312C91.696 165.824 91.0027 166.293 90.16 166.72L88.688 165.52C88.9227 165.445 89.1733 165.344 89.44 165.216C89.7173 165.077 89.9787 164.917 90.224 164.736C90.8 164.363 91.264 163.957 91.616 163.52C91.968 163.083 92.2293 162.613 92.4 162.112C92.5813 161.6 92.704 161.051 92.768 160.464C92.8427 159.877 92.88 159.253 92.88 158.592C92.88 158.379 92.8747 158.171 92.864 157.968C92.8533 157.765 92.8267 157.547 92.784 157.312H94.608ZM114.88 154.4C114.88 154.677 114.976 154.912 115.168 155.104C115.36 155.296 115.595 155.392 115.872 155.392C116.149 155.392 116.384 155.296 116.576 155.104C116.779 154.912 116.88 154.677 116.88 154.4C116.88 154.123 116.779 153.888 116.576 153.696C116.384 153.493 116.149 153.392 115.872 153.392C115.595 153.392 115.36 153.493 115.168 153.696C114.976 153.888 114.88 154.123 114.88 154.4ZM114.032 154.4C114.032 154.059 114.112 153.749 114.272 153.472C114.443 153.195 114.667 152.976 114.944 152.816C115.221 152.645 115.531 152.56 115.872 152.56C116.213 152.56 116.523 152.645 116.8 152.816C117.077 152.976 117.301 153.195 117.472 153.472C117.643 153.749 117.728 154.059 117.728 154.4C117.728 154.741 117.643 155.051 117.472 155.328C117.301 155.605 117.077 155.829 116.8 156C116.523 156.16 116.213 156.24 115.872 156.24C115.531 156.24 115.221 156.16 114.944 156C114.667 155.829 114.443 155.605 114.272 155.328C114.112 155.051 114.032 154.741 114.032 154.4ZM115.664 155.568C115.6 155.696 115.541 155.84 115.488 156C115.445 156.16 115.408 156.325 115.376 156.496C115.28 156.901 115.163 157.355 115.024 157.856C114.896 158.357 114.731 158.875 114.528 159.408C114.336 159.941 114.107 160.464 113.84 160.976C113.584 161.477 113.296 161.941 112.976 162.368C112.485 162.987 111.931 163.573 111.312 164.128C110.704 164.672 110.011 165.163 109.232 165.6C108.453 166.027 107.584 166.395 106.624 166.704L105.248 165.2C106.293 164.933 107.2 164.613 107.968 164.24C108.736 163.867 109.403 163.44 109.968 162.96C110.544 162.469 111.056 161.947 111.504 161.392C111.867 160.923 112.181 160.4 112.448 159.824C112.725 159.248 112.949 158.672 113.12 158.096C113.301 157.509 113.429 156.971 113.504 156.48C113.344 156.48 113.067 156.48 112.672 156.48C112.277 156.48 111.813 156.48 111.28 156.48C110.747 156.48 110.187 156.48 109.6 156.48C109.013 156.48 108.453 156.48 107.92 156.48C107.387 156.48 106.912 156.48 106.496 156.48C106.091 156.48 105.803 156.48 105.632 156.48C105.291 156.48 104.971 156.485 104.672 156.496C104.373 156.507 104.117 156.523 103.904 156.544V154.752C104.064 154.763 104.24 154.779 104.432 154.8C104.635 154.821 104.843 154.837 105.056 154.848C105.269 154.859 105.461 154.864 105.632 154.864C105.781 154.864 106.016 154.864 106.336 154.864C106.667 154.864 107.051 154.864 107.488 154.864C107.925 154.864 108.384 154.864 108.864 154.864C109.355 154.864 109.84 154.864 110.32 154.864C110.811 154.864 111.264 154.864 111.68 154.864C112.107 154.864 112.469 154.864 112.768 154.864C113.077 154.864 113.285 154.864 113.392 154.864C113.531 154.864 113.691 154.859 113.872 154.848C114.064 154.837 114.245 154.811 114.416 154.768L115.664 155.568ZM130.608 153.744C130.597 153.947 130.581 154.171 130.56 154.416C130.549 154.661 130.544 154.928 130.544 155.216C130.544 155.461 130.544 155.765 130.544 156.128C130.544 156.48 130.544 156.837 130.544 157.2C130.544 157.552 130.544 157.84 130.544 158.064C130.544 158.971 130.507 159.755 130.432 160.416C130.368 161.077 130.261 161.648 130.112 162.128C129.963 162.597 129.776 163.019 129.552 163.392C129.339 163.755 129.083 164.101 128.784 164.432C128.443 164.837 128.048 165.195 127.6 165.504C127.152 165.803 126.699 166.053 126.24 166.256C125.781 166.459 125.355 166.629 124.96 166.768L123.632 165.376C124.389 165.184 125.093 164.923 125.744 164.592C126.405 164.261 126.981 163.829 127.472 163.296C127.749 162.965 127.973 162.635 128.144 162.304C128.325 161.973 128.459 161.605 128.544 161.2C128.64 160.795 128.704 160.331 128.736 159.808C128.779 159.285 128.8 158.672 128.8 157.968C128.8 157.733 128.8 157.44 128.8 157.088C128.8 156.736 128.8 156.389 128.8 156.048C128.8 155.707 128.8 155.429 128.8 155.216C128.8 154.928 128.789 154.661 128.768 154.416C128.747 154.171 128.725 153.947 128.704 153.744H130.608ZM123.184 153.872C123.173 154.032 123.157 154.213 123.136 154.416C123.125 154.619 123.12 154.832 123.12 155.056C123.12 155.152 123.12 155.333 123.12 155.6C123.12 155.856 123.12 156.165 123.12 156.528C123.12 156.891 123.12 157.269 123.12 157.664C123.12 158.059 123.12 158.443 123.12 158.816C123.12 159.189 123.12 159.52 123.12 159.808C123.12 160.085 123.12 160.288 123.12 160.416C123.12 160.619 123.125 160.848 123.136 161.104C123.157 161.349 123.173 161.552 123.184 161.712H121.344C121.355 161.584 121.365 161.397 121.376 161.152C121.397 160.896 121.408 160.651 121.408 160.416C121.408 160.288 121.408 160.08 121.408 159.792C121.408 159.504 121.408 159.179 121.408 158.816C121.408 158.443 121.408 158.059 121.408 157.664C121.408 157.259 121.408 156.88 121.408 156.528C121.408 156.165 121.408 155.856 121.408 155.6C121.408 155.333 121.408 155.152 121.408 155.056C121.408 154.907 121.403 154.715 121.392 154.48C121.381 154.235 121.365 154.032 121.344 153.872H123.184ZM139.216 154.176H149.44V155.568H139.216V154.176ZM141.008 158.192V160.224H147.504V158.192H141.008ZM139.616 156.928H148.96V161.488H139.616V156.928ZM140.848 161.744C141.339 162.555 142.005 163.253 142.848 163.84C143.691 164.416 144.688 164.885 145.84 165.248C146.992 165.6 148.256 165.851 149.632 166C149.536 166.107 149.429 166.24 149.312 166.4C149.195 166.56 149.083 166.72 148.976 166.88C148.88 167.051 148.8 167.211 148.736 167.36C147.317 167.157 146.021 166.832 144.848 166.384C143.685 165.947 142.661 165.376 141.776 164.672C140.901 163.968 140.176 163.125 139.6 162.144L140.848 161.744ZM143.472 152.576H144.976V159.744C144.976 160.384 144.939 161.008 144.864 161.616C144.789 162.224 144.645 162.816 144.432 163.392C144.219 163.957 143.909 164.491 143.504 164.992C143.109 165.483 142.587 165.931 141.936 166.336C141.285 166.741 140.48 167.088 139.52 167.376C139.456 167.259 139.371 167.12 139.264 166.96C139.157 166.811 139.045 166.656 138.928 166.496C138.811 166.347 138.699 166.219 138.592 166.112C139.509 165.899 140.267 165.627 140.864 165.296C141.461 164.955 141.936 164.576 142.288 164.16C142.64 163.744 142.901 163.296 143.072 162.816C143.243 162.336 143.349 161.84 143.392 161.328C143.445 160.805 143.472 160.277 143.472 159.744V152.576ZM138.288 152.448L139.696 152.912C139.333 153.808 138.907 154.704 138.416 155.6C137.936 156.485 137.413 157.323 136.848 158.112C136.283 158.891 135.696 159.579 135.088 160.176C135.045 160.048 134.976 159.888 134.88 159.696C134.784 159.504 134.683 159.312 134.576 159.12C134.469 158.928 134.368 158.768 134.272 158.64C134.805 158.139 135.317 157.563 135.808 156.912C136.309 156.251 136.773 155.541 137.2 154.784C137.627 154.016 137.989 153.237 138.288 152.448ZM136.656 156.752L138.096 155.312L138.112 155.328V167.408H136.656V156.752ZM153.232 153.6H163.36V155.04H153.232V153.6ZM153.232 157.312H163.36V158.72H153.232V157.312ZM153.168 161.104H163.408V162.544H153.168V161.104ZM152.368 153.6H153.872V159.376C153.872 159.995 153.84 160.661 153.776 161.376C153.723 162.091 153.621 162.816 153.472 163.552C153.323 164.277 153.099 164.976 152.8 165.648C152.512 166.309 152.123 166.907 151.632 167.44C151.557 167.333 151.445 167.216 151.296 167.088C151.157 166.96 151.008 166.837 150.848 166.72C150.699 166.603 150.565 166.512 150.448 166.448C150.896 165.947 151.248 165.408 151.504 164.832C151.76 164.245 151.947 163.643 152.064 163.024C152.192 162.395 152.272 161.771 152.304 161.152C152.347 160.523 152.368 159.925 152.368 159.36V153.6ZM162.784 153.6H164.288V165.44C164.288 165.877 164.229 166.213 164.112 166.448C163.995 166.693 163.792 166.88 163.504 167.008C163.216 167.125 162.827 167.195 162.336 167.216C161.845 167.248 161.221 167.259 160.464 167.248C160.443 167.056 160.379 166.816 160.272 166.528C160.176 166.24 160.075 165.995 159.968 165.792C160.309 165.813 160.645 165.829 160.976 165.84C161.307 165.84 161.595 165.84 161.84 165.84C162.096 165.829 162.272 165.824 162.368 165.824C162.528 165.824 162.635 165.797 162.688 165.744C162.752 165.68 162.784 165.573 162.784 165.424V153.6ZM157.36 154.16H158.88V167.184H157.36V154.16ZM172.784 154.32H180.88V155.632H172.784V154.32ZM172.176 157.408H181.456V158.752H172.176V157.408ZM172.224 160.368H181.312V161.696H172.224V160.368ZM176.032 152.48H177.52V158.256H176.032V152.48ZM178.112 158.608H179.584V165.664C179.584 166.048 179.531 166.352 179.424 166.576C179.328 166.8 179.141 166.965 178.864 167.072C178.587 167.189 178.235 167.259 177.808 167.28C177.381 167.312 176.853 167.328 176.224 167.328C176.192 167.125 176.128 166.885 176.032 166.608C175.936 166.341 175.835 166.107 175.728 165.904C176.187 165.915 176.608 165.925 176.992 165.936C177.387 165.936 177.648 165.936 177.776 165.936C177.904 165.925 177.989 165.904 178.032 165.872C178.085 165.829 178.112 165.749 178.112 165.632V158.608ZM173.056 162.8L174.272 162.096C174.528 162.363 174.789 162.656 175.056 162.976C175.323 163.296 175.568 163.616 175.792 163.936C176.016 164.245 176.187 164.528 176.304 164.784L175.008 165.568C174.901 165.312 174.741 165.024 174.528 164.704C174.325 164.373 174.096 164.043 173.84 163.712C173.584 163.381 173.323 163.077 173.056 162.8ZM167.84 153.504H171.888V164.208H167.84V162.848H170.48V154.88H167.84V153.504ZM167.92 158.112H171.152V159.456H167.92V158.112ZM167.12 153.504H168.528V165.584H167.12V153.504ZM191.216 155.056C191.109 155.877 190.971 156.747 190.8 157.664C190.64 158.571 190.421 159.472 190.144 160.368C189.824 161.456 189.461 162.379 189.056 163.136C188.661 163.883 188.229 164.453 187.76 164.848C187.291 165.243 186.795 165.44 186.272 165.44C185.739 165.44 185.243 165.259 184.784 164.896C184.325 164.523 183.952 164.005 183.664 163.344C183.376 162.672 183.232 161.893 183.232 161.008C183.232 160.112 183.413 159.264 183.776 158.464C184.149 157.664 184.661 156.955 185.312 156.336C185.963 155.717 186.72 155.232 187.584 154.88C188.448 154.528 189.381 154.352 190.384 154.352C191.344 154.352 192.208 154.507 192.976 154.816C193.755 155.125 194.416 155.557 194.96 156.112C195.515 156.656 195.936 157.296 196.224 158.032C196.512 158.768 196.656 159.552 196.656 160.384C196.656 161.504 196.421 162.501 195.952 163.376C195.493 164.24 194.816 164.949 193.92 165.504C193.024 166.048 191.925 166.416 190.624 166.608L189.68 165.104C189.957 165.072 190.213 165.04 190.448 165.008C190.683 164.965 190.901 164.923 191.104 164.88C191.616 164.763 192.101 164.581 192.56 164.336C193.029 164.091 193.445 163.781 193.808 163.408C194.171 163.024 194.453 162.576 194.656 162.064C194.869 161.552 194.976 160.976 194.976 160.336C194.976 159.696 194.875 159.104 194.672 158.56C194.469 158.005 194.171 157.525 193.776 157.12C193.381 156.715 192.896 156.4 192.32 156.176C191.744 155.941 191.093 155.824 190.368 155.824C189.493 155.824 188.715 155.979 188.032 156.288C187.349 156.597 186.768 157.008 186.288 157.52C185.819 158.021 185.461 158.565 185.216 159.152C184.971 159.739 184.848 160.304 184.848 160.848C184.848 161.456 184.923 161.963 185.072 162.368C185.221 162.763 185.408 163.056 185.632 163.248C185.856 163.44 186.085 163.536 186.32 163.536C186.555 163.536 186.795 163.419 187.04 163.184C187.285 162.939 187.531 162.555 187.776 162.032C188.032 161.509 188.283 160.843 188.528 160.032C188.773 159.264 188.976 158.448 189.136 157.584C189.307 156.709 189.429 155.856 189.504 155.024L191.216 155.056ZM201.504 154.096C201.717 154.117 201.936 154.133 202.16 154.144C202.395 154.155 202.597 154.16 202.768 154.16C202.992 154.16 203.264 154.155 203.584 154.144C203.904 154.133 204.235 154.123 204.576 154.112C204.917 154.091 205.243 154.075 205.552 154.064C205.861 154.043 206.101 154.027 206.272 154.016C206.443 153.995 206.608 153.968 206.768 153.936C206.928 153.904 207.072 153.867 207.2 153.824L208.208 154.624C208.112 154.72 208.021 154.816 207.936 154.912C207.861 155.008 207.792 155.109 207.728 155.216C207.557 155.493 207.349 155.888 207.104 156.4C206.869 156.912 206.619 157.467 206.352 158.064C206.096 158.661 205.845 159.237 205.6 159.792C205.44 160.155 205.269 160.544 205.088 160.96C204.907 161.376 204.72 161.792 204.528 162.208C204.347 162.624 204.165 163.013 203.984 163.376C203.813 163.728 203.643 164.032 203.472 164.288C203.173 164.725 202.843 165.04 202.48 165.232C202.128 165.424 201.717 165.52 201.248 165.52C200.608 165.52 200.075 165.312 199.648 164.896C199.221 164.469 199.008 163.888 199.008 163.152C199.008 162.533 199.147 161.963 199.424 161.44C199.701 160.907 200.091 160.443 200.592 160.048C201.093 159.643 201.691 159.333 202.384 159.12C203.077 158.896 203.84 158.784 204.672 158.784C205.579 158.784 206.459 158.891 207.312 159.104C208.165 159.317 208.96 159.589 209.696 159.92C210.432 160.24 211.099 160.581 211.696 160.944C212.304 161.307 212.821 161.637 213.248 161.936L212.512 163.664C212.032 163.248 211.493 162.837 210.896 162.432C210.309 162.016 209.669 161.643 208.976 161.312C208.293 160.971 207.568 160.699 206.8 160.496C206.043 160.293 205.253 160.192 204.432 160.192C203.6 160.192 202.885 160.331 202.288 160.608C201.691 160.875 201.237 161.216 200.928 161.632C200.619 162.048 200.464 162.48 200.464 162.928C200.464 163.248 200.549 163.488 200.72 163.648C200.891 163.808 201.088 163.888 201.312 163.888C201.483 163.888 201.637 163.851 201.776 163.776C201.915 163.691 202.059 163.547 202.208 163.344C202.368 163.131 202.523 162.875 202.672 162.576C202.832 162.277 202.992 161.957 203.152 161.616C203.312 161.264 203.467 160.907 203.616 160.544C203.776 160.181 203.925 159.84 204.064 159.52C204.277 159.061 204.485 158.592 204.688 158.112C204.901 157.621 205.109 157.152 205.312 156.704C205.525 156.245 205.717 155.84 205.888 155.488C205.728 155.488 205.515 155.493 205.248 155.504C204.981 155.515 204.693 155.531 204.384 155.552C204.075 155.563 203.781 155.573 203.504 155.584C203.227 155.595 202.997 155.605 202.816 155.616C202.645 155.627 202.443 155.643 202.208 155.664C201.984 155.685 201.771 155.712 201.568 155.744L201.504 154.096ZM211.744 157.728C211.68 158.859 211.563 159.893 211.392 160.832C211.232 161.771 210.971 162.619 210.608 163.376C210.256 164.133 209.771 164.816 209.152 165.424C208.544 166.021 207.771 166.56 206.832 167.04L205.488 165.936C206.448 165.531 207.221 165.056 207.808 164.512C208.405 163.957 208.859 163.371 209.168 162.752C209.488 162.123 209.712 161.499 209.84 160.88C209.968 160.251 210.053 159.669 210.096 159.136C210.107 158.869 210.112 158.597 210.112 158.32C210.123 158.032 210.112 157.776 210.08 157.552L211.744 157.728Z" fill="#0872ED"/>
<path d="M125.936 201.92C125.605 202.411 125.205 202.923 124.736 203.456C124.267 203.979 123.749 204.501 123.184 205.024C122.619 205.547 122.016 206.053 121.376 206.544C120.747 207.024 120.101 207.467 119.44 207.872C119.376 207.755 119.285 207.621 119.168 207.472C119.061 207.323 118.944 207.179 118.816 207.04C118.699 206.891 118.587 206.768 118.48 206.672C119.163 206.277 119.835 205.829 120.496 205.328C121.157 204.827 121.776 204.299 122.352 203.744C122.939 203.179 123.467 202.613 123.936 202.048C124.405 201.483 124.789 200.939 125.088 200.416H126.608C127.045 201.024 127.531 201.621 128.064 202.208C128.597 202.795 129.168 203.355 129.776 203.888C130.395 204.421 131.024 204.912 131.664 205.36C132.315 205.797 132.949 206.176 133.568 206.496C133.376 206.677 133.195 206.885 133.024 207.12C132.853 207.355 132.699 207.584 132.56 207.808C131.941 207.445 131.317 207.029 130.688 206.56C130.059 206.08 129.445 205.579 128.848 205.056C128.251 204.533 127.701 204.005 127.2 203.472C126.709 202.939 126.288 202.421 125.936 201.92ZM122.528 205.488H129.44V206.896H122.528V205.488ZM120.4 208.688H129.92V210.128H120.4V208.688ZM129.648 208.688H129.872L130.128 208.608L131.328 208.976C131.072 209.595 130.779 210.277 130.448 211.024C130.117 211.76 129.771 212.507 129.408 213.264C129.045 214.021 128.699 214.736 128.368 215.408L126.768 214.96C127.024 214.469 127.285 213.947 127.552 213.392C127.829 212.827 128.096 212.267 128.352 211.712C128.619 211.157 128.864 210.635 129.088 210.144C129.312 209.653 129.499 209.232 129.648 208.88V208.688ZM140.208 206.208V209.488H143.632V206.208H140.208ZM138.768 204.864H145.136V210.816H138.768V204.864ZM135.232 201.088H148.784V215.328H147.136V202.64H136.8V215.328H135.232V201.088ZM136.128 213.056H148.08V214.48H136.128V213.056ZM159.216 203.056C159.109 203.877 158.971 204.747 158.8 205.664C158.64 206.571 158.421 207.472 158.144 208.368C157.824 209.456 157.461 210.379 157.056 211.136C156.661 211.883 156.229 212.453 155.76 212.848C155.291 213.243 154.795 213.44 154.272 213.44C153.739 213.44 153.243 213.259 152.784 212.896C152.325 212.523 151.952 212.005 151.664 211.344C151.376 210.672 151.232 209.893 151.232 209.008C151.232 208.112 151.413 207.264 151.776 206.464C152.149 205.664 152.661 204.955 153.312 204.336C153.963 203.717 154.72 203.232 155.584 202.88C156.448 202.528 157.381 202.352 158.384 202.352C159.344 202.352 160.208 202.507 160.976 202.816C161.755 203.125 162.416 203.557 162.96 204.112C163.515 204.656 163.936 205.296 164.224 206.032C164.512 206.768 164.656 207.552 164.656 208.384C164.656 209.504 164.421 210.501 163.952 211.376C163.493 212.24 162.816 212.949 161.92 213.504C161.024 214.048 159.925 214.416 158.624 214.608L157.68 213.104C157.957 213.072 158.213 213.04 158.448 213.008C158.683 212.965 158.901 212.923 159.104 212.88C159.616 212.763 160.101 212.581 160.56 212.336C161.029 212.091 161.445 211.781 161.808 211.408C162.171 211.024 162.453 210.576 162.656 210.064C162.869 209.552 162.976 208.976 162.976 208.336C162.976 207.696 162.875 207.104 162.672 206.56C162.469 206.005 162.171 205.525 161.776 205.12C161.381 204.715 160.896 204.4 160.32 204.176C159.744 203.941 159.093 203.824 158.368 203.824C157.493 203.824 156.715 203.979 156.032 204.288C155.349 204.597 154.768 205.008 154.288 205.52C153.819 206.021 153.461 206.565 153.216 207.152C152.971 207.739 152.848 208.304 152.848 208.848C152.848 209.456 152.923 209.963 153.072 210.368C153.221 210.763 153.408 211.056 153.632 211.248C153.856 211.44 154.085 211.536 154.32 211.536C154.555 211.536 154.795 211.419 155.04 211.184C155.285 210.939 155.531 210.555 155.776 210.032C156.032 209.509 156.283 208.843 156.528 208.032C156.773 207.264 156.976 206.448 157.136 205.584C157.307 204.709 157.429 203.856 157.504 203.024L159.216 203.056ZM169.504 202.096C169.717 202.117 169.936 202.133 170.16 202.144C170.395 202.155 170.597 202.16 170.768 202.16C170.992 202.16 171.264 202.155 171.584 202.144C171.904 202.133 172.235 202.123 172.576 202.112C172.917 202.091 173.243 202.075 173.552 202.064C173.861 202.043 174.101 202.027 174.272 202.016C174.443 201.995 174.608 201.968 174.768 201.936C174.928 201.904 175.072 201.867 175.2 201.824L176.208 202.624C176.112 202.72 176.021 202.816 175.936 202.912C175.861 203.008 175.792 203.109 175.728 203.216C175.557 203.493 175.349 203.888 175.104 204.4C174.869 204.912 174.619 205.467 174.352 206.064C174.096 206.661 173.845 207.237 173.6 207.792C173.44 208.155 173.269 208.544 173.088 208.96C172.907 209.376 172.72 209.792 172.528 210.208C172.347 210.624 172.165 211.013 171.984 211.376C171.813 211.728 171.643 212.032 171.472 212.288C171.173 212.725 170.843 213.04 170.48 213.232C170.128 213.424 169.717 213.52 169.248 213.52C168.608 213.52 168.075 213.312 167.648 212.896C167.221 212.469 167.008 211.888 167.008 211.152C167.008 210.533 167.147 209.963 167.424 209.44C167.701 208.907 168.091 208.443 168.592 208.048C169.093 207.643 169.691 207.333 170.384 207.12C171.077 206.896 171.84 206.784 172.672 206.784C173.579 206.784 174.459 206.891 175.312 207.104C176.165 207.317 176.96 207.589 177.696 207.92C178.432 208.24 179.099 208.581 179.696 208.944C180.304 209.307 180.821 209.637 181.248 209.936L180.512 211.664C180.032 211.248 179.493 210.837 178.896 210.432C178.309 210.016 177.669 209.643 176.976 209.312C176.293 208.971 175.568 208.699 174.8 208.496C174.043 208.293 173.253 208.192 172.432 208.192C171.6 208.192 170.885 208.331 170.288 208.608C169.691 208.875 169.237 209.216 168.928 209.632C168.619 210.048 168.464 210.48 168.464 210.928C168.464 211.248 168.549 211.488 168.72 211.648C168.891 211.808 169.088 211.888 169.312 211.888C169.483 211.888 169.637 211.851 169.776 211.776C169.915 211.691 170.059 211.547 170.208 211.344C170.368 211.131 170.523 210.875 170.672 210.576C170.832 210.277 170.992 209.957 171.152 209.616C171.312 209.264 171.467 208.907 171.616 208.544C171.776 208.181 171.925 207.84 172.064 207.52C172.277 207.061 172.485 206.592 172.688 206.112C172.901 205.621 173.109 205.152 173.312 204.704C173.525 204.245 173.717 203.84 173.888 203.488C173.728 203.488 173.515 203.493 173.248 203.504C172.981 203.515 172.693 203.531 172.384 203.552C172.075 203.563 171.781 203.573 171.504 203.584C171.227 203.595 170.997 203.605 170.816 203.616C170.645 203.627 170.443 203.643 170.208 203.664C169.984 203.685 169.771 203.712 169.568 203.744L169.504 202.096ZM179.744 205.728C179.68 206.859 179.563 207.893 179.392 208.832C179.232 209.771 178.971 210.619 178.608 211.376C178.256 212.133 177.771 212.816 177.152 213.424C176.544 214.021 175.771 214.56 174.832 215.04L173.488 213.936C174.448 213.531 175.221 213.056 175.808 212.512C176.405 211.957 176.859 211.371 177.168 210.752C177.488 210.123 177.712 209.499 177.84 208.88C177.968 208.251 178.053 207.669 178.096 207.136C178.107 206.869 178.112 206.597 178.112 206.32C178.123 206.032 178.112 205.776 178.08 205.552L179.744 205.728Z" fill="#0872ED"/>
<path d="M118.688 250.816H125.12V252.208H118.688V250.816ZM116.88 255.712H125.456V257.152H116.88V255.712ZM120.448 251.408H121.968V263.328H120.448V251.408ZM118.72 248.448L120.224 248.752C120.043 249.52 119.819 250.277 119.552 251.024C119.296 251.771 119.003 252.464 118.672 253.104C118.352 253.733 118.005 254.293 117.632 254.784C117.536 254.699 117.408 254.603 117.248 254.496C117.088 254.389 116.923 254.288 116.752 254.192C116.581 254.085 116.432 254 116.304 253.936C116.677 253.499 117.019 252.987 117.328 252.4C117.637 251.813 117.909 251.184 118.144 250.512C118.379 249.84 118.571 249.152 118.72 248.448ZM111.328 253.36H116.4V254.528H111.328V253.36ZM111.408 249.024H116.416V250.208H111.408V249.024ZM111.328 255.52H116.4V256.688H111.328V255.52ZM110.56 251.152H117.008V252.368H110.56V251.152ZM112.016 257.712H116.352V262.464H112.016V261.248H115.008V258.928H112.016V257.712ZM111.296 257.712H112.624V263.152H111.296V257.712ZM137.712 250.032H139.296V261.312C139.296 261.803 139.227 262.181 139.088 262.448C138.949 262.715 138.709 262.912 138.368 263.04C138.016 263.179 137.552 263.259 136.976 263.28C136.4 263.312 135.712 263.328 134.912 263.328C134.88 263.168 134.827 262.987 134.752 262.784C134.688 262.592 134.613 262.395 134.528 262.192C134.443 262 134.357 261.835 134.272 261.696C134.688 261.717 135.093 261.733 135.488 261.744C135.893 261.744 136.251 261.744 136.56 261.744C136.88 261.744 137.104 261.744 137.232 261.744C137.403 261.733 137.525 261.701 137.6 261.648C137.675 261.584 137.712 261.467 137.712 261.296V250.032ZM128.416 253.232H129.888V260.576H128.416V253.232ZM129.04 253.232H135.088V259.312H129.04V257.872H133.584V254.672H129.04V253.232ZM126.832 249.6H141.216V251.12H126.832V249.6ZM147.664 249.44C147.621 249.728 147.584 250.037 147.552 250.368C147.52 250.688 147.499 250.992 147.488 251.28C147.467 251.717 147.445 252.261 147.424 252.912C147.403 253.552 147.381 254.235 147.36 254.96C147.339 255.675 147.323 256.384 147.312 257.088C147.301 257.781 147.296 258.405 147.296 258.96C147.296 259.525 147.397 259.973 147.6 260.304C147.813 260.635 148.107 260.875 148.48 261.024C148.853 261.163 149.269 261.232 149.728 261.232C150.432 261.232 151.067 261.141 151.632 260.96C152.197 260.779 152.704 260.533 153.152 260.224C153.611 259.915 154.021 259.563 154.384 259.168C154.747 258.773 155.072 258.363 155.36 257.936L156.496 259.328C156.229 259.712 155.893 260.112 155.488 260.528C155.083 260.944 154.597 261.333 154.032 261.696C153.477 262.059 152.837 262.352 152.112 262.576C151.397 262.8 150.592 262.912 149.696 262.912C148.885 262.912 148.176 262.789 147.568 262.544C146.96 262.299 146.485 261.904 146.144 261.36C145.803 260.816 145.632 260.101 145.632 259.216C145.632 258.757 145.637 258.24 145.648 257.664C145.659 257.088 145.669 256.496 145.68 255.888C145.701 255.269 145.717 254.667 145.728 254.08C145.749 253.493 145.765 252.955 145.776 252.464C145.787 251.973 145.792 251.579 145.792 251.28C145.792 250.939 145.776 250.613 145.744 250.304C145.723 249.984 145.68 249.691 145.616 249.424L147.664 249.44ZM159.456 251.744C159.776 251.776 160.112 251.803 160.464 251.824C160.827 251.835 161.168 251.84 161.488 251.84C162.107 251.84 162.736 251.813 163.376 251.76C164.027 251.696 164.667 251.605 165.296 251.488C165.936 251.36 166.544 251.205 167.12 251.024L167.168 252.496C166.677 252.635 166.117 252.763 165.488 252.88C164.859 252.997 164.203 253.093 163.52 253.168C162.837 253.243 162.16 253.28 161.488 253.28C161.189 253.28 160.875 253.275 160.544 253.264C160.213 253.253 159.888 253.243 159.568 253.232L159.456 251.744ZM165.36 249.216C165.296 249.483 165.211 249.819 165.104 250.224C165.008 250.629 164.896 251.056 164.768 251.504C164.651 251.952 164.528 252.384 164.4 252.8C164.144 253.568 163.824 254.384 163.44 255.248C163.056 256.101 162.64 256.933 162.192 257.744C161.744 258.555 161.291 259.264 160.832 259.872L159.296 259.088C159.659 258.651 160.016 258.165 160.368 257.632C160.72 257.088 161.051 256.528 161.36 255.952C161.68 255.365 161.968 254.8 162.224 254.256C162.48 253.701 162.688 253.195 162.848 252.736C163.029 252.203 163.195 251.6 163.344 250.928C163.493 250.256 163.579 249.627 163.6 249.04L165.36 249.216ZM169.12 254.176C169.109 254.507 169.104 254.821 169.104 255.12C169.104 255.419 169.109 255.728 169.12 256.048C169.131 256.293 169.141 256.613 169.152 257.008C169.173 257.392 169.195 257.803 169.216 258.24C169.237 258.677 169.253 259.093 169.264 259.488C169.285 259.883 169.296 260.203 169.296 260.448C169.296 260.896 169.195 261.307 168.992 261.68C168.8 262.053 168.491 262.352 168.064 262.576C167.637 262.8 167.072 262.912 166.368 262.912C165.749 262.912 165.184 262.821 164.672 262.64C164.171 262.459 163.765 262.187 163.456 261.824C163.157 261.461 163.008 261.003 163.008 260.448C163.008 259.947 163.147 259.504 163.424 259.12C163.712 258.736 164.107 258.437 164.608 258.224C165.109 258 165.691 257.888 166.352 257.888C167.269 257.888 168.112 258.021 168.88 258.288C169.648 258.544 170.336 258.869 170.944 259.264C171.563 259.648 172.096 260.037 172.544 260.432L171.696 261.792C171.387 261.515 171.045 261.227 170.672 260.928C170.299 260.619 169.883 260.336 169.424 260.08C168.976 259.813 168.485 259.595 167.952 259.424C167.429 259.253 166.869 259.168 166.272 259.168C165.739 259.168 165.307 259.275 164.976 259.488C164.656 259.701 164.496 259.973 164.496 260.304C164.496 260.645 164.635 260.923 164.912 261.136C165.2 261.349 165.616 261.456 166.16 261.456C166.565 261.456 166.885 261.392 167.12 261.264C167.365 261.125 167.536 260.939 167.632 260.704C167.728 260.469 167.776 260.208 167.776 259.92C167.776 259.643 167.765 259.269 167.744 258.8C167.733 258.331 167.712 257.824 167.68 257.28C167.659 256.736 167.632 256.192 167.6 255.648C167.579 255.093 167.563 254.603 167.552 254.176H169.12ZM172.128 254.784C171.829 254.539 171.456 254.277 171.008 254C170.56 253.712 170.101 253.44 169.632 253.184C169.163 252.917 168.747 252.704 168.384 252.544L169.2 251.312C169.488 251.44 169.813 251.595 170.176 251.776C170.539 251.957 170.901 252.149 171.264 252.352C171.627 252.555 171.963 252.757 172.272 252.96C172.581 253.152 172.837 253.317 173.04 253.456L172.128 254.784ZM177.824 250.72C177.792 250.869 177.765 251.051 177.744 251.264C177.723 251.477 177.701 251.691 177.68 251.904C177.669 252.117 177.664 252.299 177.664 252.448C177.664 252.779 177.664 253.147 177.664 253.552C177.675 253.957 177.685 254.373 177.696 254.8C177.707 255.216 177.733 255.632 177.776 256.048C177.861 256.891 177.989 257.627 178.16 258.256C178.331 258.885 178.549 259.376 178.816 259.728C179.083 260.08 179.392 260.256 179.744 260.256C179.947 260.256 180.139 260.16 180.32 259.968C180.501 259.776 180.672 259.52 180.832 259.2C180.992 258.88 181.136 258.533 181.264 258.16C181.403 257.776 181.52 257.408 181.616 257.056L182.88 258.544C182.539 259.451 182.197 260.176 181.856 260.72C181.525 261.253 181.184 261.637 180.832 261.872C180.48 262.107 180.107 262.224 179.712 262.224C179.179 262.224 178.667 262.043 178.176 261.68C177.696 261.307 177.28 260.699 176.928 259.856C176.576 259.013 176.325 257.888 176.176 256.48C176.123 256.011 176.08 255.504 176.048 254.96C176.027 254.416 176.011 253.899 176 253.408C176 252.917 176 252.512 176 252.192C176 251.989 175.989 251.744 175.968 251.456C175.957 251.157 175.925 250.901 175.872 250.688L177.824 250.72ZM186.016 251.12C186.304 251.493 186.581 251.931 186.848 252.432C187.125 252.923 187.376 253.456 187.6 254.032C187.824 254.608 188.021 255.195 188.192 255.792C188.373 256.389 188.523 256.981 188.64 257.568C188.757 258.155 188.837 258.709 188.88 259.232L187.232 259.872C187.168 259.179 187.061 258.453 186.912 257.696C186.763 256.939 186.571 256.192 186.336 255.456C186.101 254.709 185.824 254.011 185.504 253.36C185.195 252.699 184.837 252.128 184.432 251.648L186.016 251.12Z" fill="#0872ED"/>
<line y1="136.5" x2="300" y2="136.5" stroke="#C8C8C8"/>
<line y1="183.5" x2="300" y2="183.5" stroke="#C8C8C8"/>
<line y1="230.5" x2="300" y2="230.5" stroke="#C8C8C8"/>
<path d="M154.818 25.6786C154.818 24.2294 154.258 22.8395 153.261 21.8147C152.263 20.79 150.91 20.2143 149.5 20.2143C148.09 20.2143 146.737 20.79 145.739 21.8147C144.742 22.8395 144.182 24.2294 144.182 25.6786C144.182 27.9201 145.927 30.8417 149.5 34.3413C153.073 30.8417 154.818 27.9201 154.818 25.6786ZM149.5 36C145.166 31.9528 143 28.5115 143 25.6786C143 23.9073 143.685 22.2086 144.904 20.9561C146.123 19.7036 147.776 19 149.5 19C151.224 19 152.877 19.7036 154.096 20.9561C155.315 22.2086 156 23.9073 156 25.6786C156 28.5115 153.834 31.9528 149.5 36Z" fill="#0872ED"/>
<circle cx="149.5" cy="25.5" r="2.5" fill="#0872ED"/>
<rect x="4.15" y="138.15" width="291.7" height="88.7" rx="4.15" stroke="#FF0000" stroke-width="8.3"/>
</svg>
