<svg width="122" height="82" viewBox="0 0 122 82" fill="none" xmlns="http://www.w3.org/2000/svg">
<path d="M18.5 1H52.5C55.81 1 58.5 3.68 58.5 6.99V75.01C58.5 78.32 55.81 81 52.5 81H18.5C15.19 81 12.5 78.32 12.5 75.01V6.99C12.5 3.68 15.19 1 18.5 1Z" fill="white"/>
<path d="M22 34H13V40H22V34Z" fill="#05C13F"/>
<path d="M18.5 1H52.5C55.81 1 58.5 3.68 58.5 6.99V75.01C58.5 78.32 55.81 81 52.5 81H18.5C15.19 81 12.5 78.32 12.5 75.01V6.99C12.5 3.68 15.19 1 18.5 1Z" stroke="#999999" stroke-miterlimit="10"/>
<path d="M71.67 41.14C71.2633 41.14 70.89 41.08 70.55 40.96C70.2167 40.84 69.93 40.65 69.69 40.39C69.45 40.13 69.2633 39.79 69.13 39.37C68.9967 38.95 68.93 38.44 68.93 37.84V33.63H70.09V37.91C70.09 38.4633 70.1567 38.9033 70.29 39.23C70.43 39.55 70.6167 39.78 70.85 39.92C71.09 40.0533 71.3633 40.12 71.67 40.12C71.9833 40.12 72.26 40.0533 72.5 39.92C72.74 39.78 72.93 39.55 73.07 39.23C73.21 38.9033 73.28 38.4633 73.28 37.91V33.63H74.4V37.84C74.4 38.44 74.3333 38.95 74.2 39.37C74.0733 39.79 73.89 40.13 73.65 40.39C73.41 40.65 73.12 40.84 72.78 40.96C72.4467 41.08 72.0767 41.14 71.67 41.14ZM76.304 41V33.63H77.494L79.934 37.96L80.704 39.51H80.754C80.7207 39.1367 80.684 38.7367 80.644 38.31C80.6107 37.8833 80.594 37.47 80.594 37.07V33.63H81.704V41H80.514L78.074 36.66L77.304 35.12H77.264C77.2907 35.5 77.3207 35.8967 77.354 36.31C77.3873 36.7233 77.404 37.1333 77.404 37.54V41H76.304ZM83.6477 41V33.63H84.8077V41H83.6477ZM88.2237 41V34.61H86.0737V33.63H91.5637V34.61H89.4037V41H88.2237ZM94.157 33.46C94.2903 33.4733 94.4403 33.4867 94.607 33.5C94.7803 33.5067 94.9503 33.51 95.117 33.51C95.2236 33.51 95.407 33.51 95.667 33.51C95.9336 33.51 96.2303 33.51 96.557 33.51C96.8903 33.51 97.2203 33.51 97.547 33.51C97.8803 33.51 98.177 33.51 98.437 33.51C98.7036 33.51 98.8936 33.51 99.007 33.51C99.167 33.51 99.337 33.5067 99.517 33.5C99.7036 33.4867 99.8603 33.4733 99.987 33.46V34.49C99.8603 34.4767 99.707 34.47 99.527 34.47C99.347 34.4633 99.1703 34.46 98.997 34.46C98.8836 34.46 98.697 34.46 98.437 34.46C98.177 34.46 97.8803 34.46 97.547 34.46C97.2203 34.46 96.8903 34.46 96.557 34.46C96.2303 34.46 95.937 34.46 95.677 34.46C95.417 34.46 95.2303 34.46 95.117 34.46C94.957 34.46 94.7903 34.4633 94.617 34.47C94.4503 34.47 94.297 34.4767 94.157 34.49V33.46ZM100.777 36.21C100.744 36.2633 100.71 36.3233 100.677 36.39C100.65 36.4567 100.63 36.5133 100.617 36.56C100.477 37.0467 100.29 37.5333 100.057 38.02C99.8236 38.5067 99.5203 38.9533 99.147 39.36C98.6336 39.9333 98.067 40.3867 97.447 40.72C96.8336 41.0533 96.207 41.31 95.567 41.49L94.787 40.59C95.5136 40.4367 96.177 40.2067 96.777 39.9C97.377 39.5867 97.8803 39.2167 98.287 38.79C98.5736 38.49 98.807 38.1633 98.987 37.81C99.1736 37.4567 99.3103 37.1167 99.397 36.79C99.3303 36.79 99.2003 36.79 99.007 36.79C98.8136 36.79 98.577 36.79 98.297 36.79C98.0236 36.79 97.7303 36.79 97.417 36.79C97.1036 36.79 96.7836 36.79 96.457 36.79C96.137 36.79 95.8336 36.79 95.547 36.79C95.2603 36.79 95.007 36.79 94.787 36.79C94.5736 36.79 94.4136 36.79 94.307 36.79C94.187 36.79 94.027 36.7933 93.827 36.8C93.6336 36.8067 93.4403 36.8167 93.247 36.83V35.79C93.447 35.81 93.637 35.8267 93.817 35.84C93.997 35.8533 94.1603 35.86 94.307 35.86C94.387 35.86 94.5303 35.86 94.737 35.86C94.9436 35.86 95.187 35.86 95.467 35.86C95.747 35.86 96.047 35.86 96.367 35.86C96.6936 35.86 97.0203 35.86 97.347 35.86C97.6736 35.86 97.977 35.86 98.257 35.86C98.5436 35.86 98.7903 35.86 98.997 35.86C99.2036 35.86 99.347 35.86 99.427 35.86C99.567 35.86 99.6903 35.8533 99.797 35.84C99.9103 35.82 100 35.7967 100.067 35.77L100.777 36.21ZM104.207 33.55C104.387 33.67 104.594 33.82 104.827 34C105.06 34.1733 105.297 34.36 105.537 34.56C105.784 34.76 106.017 34.9533 106.237 35.14C106.457 35.3267 106.634 35.4933 106.767 35.64L105.977 36.45C105.85 36.3167 105.684 36.1567 105.477 35.97C105.27 35.7767 105.047 35.58 104.807 35.38C104.574 35.1733 104.34 34.98 104.107 34.8C103.874 34.6133 103.664 34.4567 103.477 34.33L104.207 33.55ZM103.177 40.24C103.737 40.1533 104.254 40.04 104.727 39.9C105.2 39.7533 105.634 39.59 106.027 39.41C106.427 39.2233 106.787 39.0333 107.107 38.84C107.64 38.5133 108.13 38.1367 108.577 37.71C109.03 37.2833 109.427 36.8433 109.767 36.39C110.107 35.9367 110.377 35.4967 110.577 35.07L111.187 36.16C110.947 36.5933 110.65 37.0267 110.297 37.46C109.95 37.8933 109.557 38.31 109.117 38.71C108.677 39.1033 108.197 39.46 107.677 39.78C107.344 39.9867 106.977 40.1867 106.577 40.38C106.184 40.5733 105.757 40.7467 105.297 40.9C104.844 41.0533 104.36 41.1767 103.847 41.27L103.177 40.24ZM119.624 33.75C119.624 33.9233 119.684 34.07 119.804 34.19C119.924 34.31 120.071 34.37 120.244 34.37C120.418 34.37 120.564 34.31 120.684 34.19C120.811 34.07 120.874 33.9233 120.874 33.75C120.874 33.5767 120.811 33.43 120.684 33.31C120.564 33.1833 120.418 33.12 120.244 33.12C120.071 33.12 119.924 33.1833 119.804 33.31C119.684 33.43 119.624 33.5767 119.624 33.75ZM119.094 33.75C119.094 33.5367 119.144 33.3433 119.244 33.17C119.351 32.9967 119.491 32.86 119.664 32.76C119.838 32.6533 120.031 32.6 120.244 32.6C120.458 32.6 120.651 32.6533 120.824 32.76C120.998 32.86 121.138 32.9967 121.244 33.17C121.351 33.3433 121.404 33.5367 121.404 33.75C121.404 33.9633 121.351 34.1567 121.244 34.33C121.138 34.5033 120.998 34.6433 120.824 34.75C120.651 34.85 120.458 34.9 120.244 34.9C120.031 34.9 119.838 34.85 119.664 34.75C119.491 34.6433 119.351 34.5033 119.244 34.33C119.144 34.1567 119.094 33.9633 119.094 33.75ZM120.114 34.48C120.074 34.56 120.038 34.65 120.004 34.75C119.978 34.85 119.954 34.9533 119.934 35.06C119.874 35.3133 119.801 35.5967 119.714 35.91C119.634 36.2233 119.531 36.5467 119.404 36.88C119.284 37.2133 119.141 37.54 118.974 37.86C118.814 38.1733 118.634 38.4633 118.434 38.73C118.128 39.1167 117.781 39.4833 117.394 39.83C117.014 40.17 116.581 40.4767 116.094 40.75C115.608 41.0167 115.064 41.2467 114.464 41.44L113.604 40.5C114.258 40.3333 114.824 40.1333 115.304 39.9C115.784 39.6667 116.201 39.4 116.554 39.1C116.914 38.7933 117.234 38.4667 117.514 38.12C117.741 37.8267 117.938 37.5 118.104 37.14C118.278 36.78 118.418 36.42 118.524 36.06C118.638 35.6933 118.718 35.3567 118.764 35.05C118.664 35.05 118.491 35.05 118.244 35.05C117.998 35.05 117.708 35.05 117.374 35.05C117.041 35.05 116.691 35.05 116.324 35.05C115.958 35.05 115.608 35.05 115.274 35.05C114.941 35.05 114.644 35.05 114.384 35.05C114.131 35.05 113.951 35.05 113.844 35.05C113.631 35.05 113.431 35.0533 113.244 35.06C113.058 35.0667 112.898 35.0767 112.764 35.09V33.97C112.864 33.9767 112.974 33.9867 113.094 34C113.221 34.0133 113.351 34.0233 113.484 34.03C113.618 34.0367 113.738 34.04 113.844 34.04C113.938 34.04 114.084 34.04 114.284 34.04C114.491 34.04 114.731 34.04 115.004 34.04C115.278 34.04 115.564 34.04 115.864 34.04C116.171 34.04 116.474 34.04 116.774 34.04C117.081 34.04 117.364 34.04 117.624 34.04C117.891 34.04 118.118 34.04 118.304 34.04C118.498 34.04 118.628 34.04 118.694 34.04C118.781 34.04 118.881 34.0367 118.994 34.03C119.114 34.0233 119.228 34.0067 119.334 33.98L120.114 34.48Z" fill="black"/>
<path d="M24.52 52.9199C26.7402 52.9199 28.54 51.1336 28.54 48.9299C28.54 46.7263 26.7402 44.9399 24.52 44.9399C22.2998 44.9399 20.5 46.7263 20.5 48.9299C20.5 51.1336 22.2998 52.9199 24.52 52.9199Z" fill="#999999"/>
<path d="M46.52 52.9199C48.7402 52.9199 50.54 51.1336 50.54 48.9299C50.54 46.7263 48.7402 44.9399 46.52 44.9399C44.2998 44.9399 42.5 46.7263 42.5 48.9299C42.5 51.1336 44.2998 52.9199 46.52 52.9199Z" fill="#999999"/>
<path d="M21.5 17.48C21.78 17.48 22 17.7 22 17.98V38.95C22 39.23 21.78 39.45 21.5 39.45H13V17.48H21.5ZM21.5 16.48H12V40.45H21.5C22.33 40.45 23 39.78 23 38.95V17.98C23 17.15 22.33 16.48 21.5 16.48Z" fill="#999999"/>
<path d="M1 37.5H8.06" stroke="#05C13F" stroke-width="2" stroke-miterlimit="10" stroke-linecap="round"/>
<path d="M4.0293 29L9.0293 34" stroke="#05C13F" stroke-width="2" stroke-miterlimit="10" stroke-linecap="round"/>
<path d="M9.0293 41L4.0293 46" stroke="#05C13F" stroke-width="2" stroke-miterlimit="10" stroke-linecap="round"/>
<path d="M13 22.5H22.5" stroke="#999999" stroke-miterlimit="10"/>
<path d="M13 28.5H22.5" stroke="#999999" stroke-miterlimit="10"/>
<path d="M13 34.5H18.98H22.5" stroke="#999999" stroke-miterlimit="10"/>
<path d="M24.8333 37C24.8333 38.4728 26.0272 39.6667 27.5 39.6667C28.9728 39.6667 30.1667 38.4728 30.1667 37C30.1667 35.5272 28.9728 34.3333 27.5 34.3333C26.0272 34.3333 24.8333 35.5272 24.8333 37ZM27.5 37V37.5H67V37V36.5H27.5V37Z" fill="black"/>
</svg>
