<svg width="128" height="82" viewBox="0 0 128 82" fill="none" xmlns="http://www.w3.org/2000/svg">
<path d="M19.5 1H53.5C56.81 1 59.5 3.68 59.5 6.99V75.01C59.5 78.32 56.81 81 53.5 81H19.5C16.19 81 13.5 78.32 13.5 75.01V6.99C13.5 3.68 16.19 1 19.5 1Z" fill="white"/>
<path d="M23.5 29H13.5V35H23.5V29Z" fill="#FC9208"/>
<path d="M19.5 1H53.5C56.81 1 59.5 3.68 59.5 6.99V75.01C59.5 78.32 56.81 81 53.5 81H19.5C16.19 81 13.5 78.32 13.5 75.01V6.99C13.5 3.68 16.19 1 19.5 1Z" stroke="#999999" stroke-miterlimit="10"/>
<path d="M25.52 52.9199C27.7402 52.9199 29.54 51.1336 29.54 48.9299C29.54 46.7263 27.7402 44.9399 25.52 44.9399C23.2998 44.9399 21.5 46.7263 21.5 48.9299C21.5 51.1336 23.2998 52.9199 25.52 52.9199Z" fill="#999999"/>
<path d="M47.52 52.9199C49.7402 52.9199 51.54 51.1336 51.54 48.9299C51.54 46.7263 49.7402 44.9399 47.52 44.9399C45.2998 44.9399 43.5 46.7263 43.5 48.9299C43.5 51.1336 45.2998 52.9199 47.52 52.9199Z" fill="#999999"/>
<path d="M22.5 17.48C22.78 17.48 23 17.7 23 17.98V38.95C23 39.23 22.78 39.45 22.5 39.45H14V17.48H22.5ZM22.5 16.48H13V40.45H22.5C23.33 40.45 24 39.78 24 38.95V17.98C24 17.15 23.33 16.48 22.5 16.48Z" fill="#999999"/>
<path d="M14 22.5H23.5" stroke="#999999" stroke-miterlimit="10"/>
<path d="M14 28.5H23.5" stroke="#999999" stroke-miterlimit="10"/>
<path d="M14 34.5H19.98H23.5" stroke="#999999" stroke-miterlimit="10"/>
<path d="M51.3296 54.2302L46.5996 48.0002L54.4296 47.9502L109.16 74.8902C109.16 74.8902 110.51 76.6702 109.41 78.9102C108.31 81.1502 106.07 81.1702 106.07 81.1702L51.3396 54.2302H51.3296Z" fill="#999999" stroke="white" stroke-linejoin="round"/>
<path d="M1.5 30.25H8.56" stroke="#FC9208" stroke-width="2" stroke-miterlimit="10" stroke-linecap="round"/>
<path d="M4.5293 21.75L9.5293 26.75" stroke="#FC9208" stroke-width="2" stroke-miterlimit="10" stroke-linecap="round"/>
<path d="M9.5293 33.75L4.5293 38.75" stroke="#FC9208" stroke-width="2" stroke-miterlimit="10" stroke-linecap="round"/>
<path d="M69.47 36V28.63H70.81L72.15 32.36C72.2367 32.6 72.32 32.8467 72.4 33.1C72.48 33.3467 72.56 33.5933 72.64 33.84H72.69C72.7767 33.5933 72.8567 33.3467 72.93 33.1C73.01 32.8467 73.09 32.6 73.17 32.36L74.49 28.63H75.84V36H74.76V32.36C74.76 32.14 74.7667 31.8967 74.78 31.63C74.8 31.3633 74.82 31.0933 74.84 30.82C74.8667 30.5467 74.8933 30.3 74.92 30.08H74.87L74.28 31.78L73 35.29H72.28L70.99 31.78L70.4 30.08H70.36C70.3867 30.3 70.41 30.5467 70.43 30.82C70.4567 31.0933 70.4767 31.3633 70.49 31.63C70.51 31.8967 70.52 32.14 70.52 32.36V36H69.47ZM80.5708 36.14C79.9441 36.14 79.3874 35.9833 78.9008 35.67C78.4208 35.3567 78.0441 34.9133 77.7708 34.34C77.4974 33.76 77.3608 33.0767 77.3608 32.29C77.3608 31.4967 77.4974 30.82 77.7708 30.26C78.0441 29.6933 78.4208 29.26 78.9008 28.96C79.3874 28.6533 79.9441 28.5 80.5708 28.5C81.2041 28.5 81.7608 28.6533 82.2408 28.96C82.7208 29.26 83.0974 29.6933 83.3708 30.26C83.6441 30.82 83.7808 31.4967 83.7808 32.29C83.7808 33.0767 83.6441 33.76 83.3708 34.34C83.0974 34.9133 82.7208 35.3567 82.2408 35.67C81.7608 35.9833 81.2041 36.14 80.5708 36.14ZM80.5708 35.12C80.9774 35.12 81.3308 35.0033 81.6308 34.77C81.9374 34.5367 82.1741 34.21 82.3408 33.79C82.5074 33.3633 82.5908 32.8633 82.5908 32.29C82.5908 31.7167 82.5074 31.2233 82.3408 30.81C82.1741 30.39 81.9374 30.07 81.6308 29.85C81.3308 29.6233 80.9774 29.51 80.5708 29.51C80.1641 29.51 79.8074 29.6233 79.5008 29.85C79.2008 30.07 78.9674 30.39 78.8008 30.81C78.6408 31.2233 78.5608 31.7167 78.5608 32.29C78.5608 32.8633 78.6408 33.3633 78.8008 33.79C78.9674 34.21 79.2008 34.5367 79.5008 34.77C79.8074 35.0033 80.1641 35.12 80.5708 35.12ZM85.3098 36V28.63H87.2198C87.9798 28.63 88.6232 28.77 89.1498 29.05C89.6765 29.3233 90.0765 29.73 90.3498 30.27C90.6298 30.81 90.7698 31.4833 90.7698 32.29C90.7698 33.09 90.6298 33.7667 90.3498 34.32C90.0765 34.8733 89.6798 35.2933 89.1598 35.58C88.6398 35.86 88.0132 36 87.2798 36H85.3098ZM86.4698 35.05H87.1398C87.6665 35.05 88.1098 34.9467 88.4698 34.74C88.8365 34.5333 89.1098 34.2267 89.2898 33.82C89.4765 33.4067 89.5698 32.8967 89.5698 32.29C89.5698 31.6767 89.4765 31.17 89.2898 30.77C89.1098 30.37 88.8365 30.0733 88.4698 29.88C88.1098 29.68 87.6665 29.58 87.1398 29.58H86.4698V35.05ZM92.302 36V28.63H96.652V29.61H93.462V31.66H96.162V32.64H93.462V35.01H96.762V36H92.302ZM99.6081 28.46C99.7415 28.4733 99.8915 28.4867 100.058 28.5C100.231 28.5067 100.401 28.51 100.568 28.51C100.675 28.51 100.858 28.51 101.118 28.51C101.385 28.51 101.681 28.51 102.008 28.51C102.341 28.51 102.671 28.51 102.998 28.51C103.331 28.51 103.628 28.51 103.888 28.51C104.155 28.51 104.345 28.51 104.458 28.51C104.618 28.51 104.788 28.5067 104.968 28.5C105.155 28.4867 105.311 28.4733 105.438 28.46V29.49C105.311 29.4767 105.158 29.47 104.978 29.47C104.798 29.4633 104.621 29.46 104.448 29.46C104.335 29.46 104.148 29.46 103.888 29.46C103.628 29.46 103.331 29.46 102.998 29.46C102.671 29.46 102.341 29.46 102.008 29.46C101.681 29.46 101.388 29.46 101.128 29.46C100.868 29.46 100.681 29.46 100.568 29.46C100.408 29.46 100.241 29.4633 100.068 29.47C99.9015 29.47 99.7481 29.4767 99.6081 29.49V28.46ZM106.228 31.21C106.195 31.2633 106.161 31.3233 106.128 31.39C106.101 31.4567 106.081 31.5133 106.068 31.56C105.928 32.0467 105.741 32.5333 105.508 33.02C105.275 33.5067 104.971 33.9533 104.598 34.36C104.085 34.9333 103.518 35.3867 102.898 35.72C102.285 36.0533 101.658 36.31 101.018 36.49L100.238 35.59C100.965 35.4367 101.628 35.2067 102.228 34.9C102.828 34.5867 103.331 34.2167 103.738 33.79C104.025 33.49 104.258 33.1633 104.438 32.81C104.625 32.4567 104.761 32.1167 104.848 31.79C104.781 31.79 104.651 31.79 104.458 31.79C104.265 31.79 104.028 31.79 103.748 31.79C103.475 31.79 103.181 31.79 102.868 31.79C102.555 31.79 102.235 31.79 101.908 31.79C101.588 31.79 101.285 31.79 100.998 31.79C100.711 31.79 100.458 31.79 100.238 31.79C100.025 31.79 99.8648 31.79 99.7581 31.79C99.6381 31.79 99.4781 31.7933 99.2781 31.8C99.0848 31.8067 98.8915 31.8167 98.6981 31.83V30.79C98.8981 30.81 99.0881 30.8267 99.2681 30.84C99.4481 30.8533 99.6115 30.86 99.7581 30.86C99.8381 30.86 99.9815 30.86 100.188 30.86C100.395 30.86 100.638 30.86 100.918 30.86C101.198 30.86 101.498 30.86 101.818 30.86C102.145 30.86 102.471 30.86 102.798 30.86C103.125 30.86 103.428 30.86 103.708 30.86C103.995 30.86 104.241 30.86 104.448 30.86C104.655 30.86 104.798 30.86 104.878 30.86C105.018 30.86 105.141 30.8533 105.248 30.84C105.361 30.82 105.451 30.7967 105.518 30.77L106.228 31.21ZM109.658 28.55C109.838 28.67 110.045 28.82 110.278 29C110.511 29.1733 110.748 29.36 110.988 29.56C111.235 29.76 111.468 29.9533 111.688 30.14C111.908 30.3267 112.085 30.4933 112.218 30.64L111.428 31.45C111.301 31.3167 111.135 31.1567 110.928 30.97C110.721 30.7767 110.498 30.58 110.258 30.38C110.025 30.1733 109.791 29.98 109.558 29.8C109.325 29.6133 109.115 29.4567 108.928 29.33L109.658 28.55ZM108.628 35.24C109.188 35.1533 109.705 35.04 110.178 34.9C110.651 34.7533 111.085 34.59 111.478 34.41C111.878 34.2233 112.238 34.0333 112.558 33.84C113.091 33.5133 113.581 33.1367 114.028 32.71C114.481 32.2833 114.878 31.8433 115.218 31.39C115.558 30.9367 115.828 30.4967 116.028 30.07L116.638 31.16C116.398 31.5933 116.101 32.0267 115.748 32.46C115.401 32.8933 115.008 33.31 114.568 33.71C114.128 34.1033 113.648 34.46 113.128 34.78C112.795 34.9867 112.428 35.1867 112.028 35.38C111.635 35.5733 111.208 35.7467 110.748 35.9C110.295 36.0533 109.811 36.1767 109.298 36.27L108.628 35.24ZM125.075 28.75C125.075 28.9233 125.135 29.07 125.255 29.19C125.375 29.31 125.522 29.37 125.695 29.37C125.869 29.37 126.015 29.31 126.135 29.19C126.262 29.07 126.325 28.9233 126.325 28.75C126.325 28.5767 126.262 28.43 126.135 28.31C126.015 28.1833 125.869 28.12 125.695 28.12C125.522 28.12 125.375 28.1833 125.255 28.31C125.135 28.43 125.075 28.5767 125.075 28.75ZM124.545 28.75C124.545 28.5367 124.595 28.3433 124.695 28.17C124.802 27.9967 124.942 27.86 125.115 27.76C125.289 27.6533 125.482 27.6 125.695 27.6C125.909 27.6 126.102 27.6533 126.275 27.76C126.449 27.86 126.589 27.9967 126.695 28.17C126.802 28.3433 126.855 28.5367 126.855 28.75C126.855 28.9633 126.802 29.1567 126.695 29.33C126.589 29.5033 126.449 29.6433 126.275 29.75C126.102 29.85 125.909 29.9 125.695 29.9C125.482 29.9 125.289 29.85 125.115 29.75C124.942 29.6433 124.802 29.5033 124.695 29.33C124.595 29.1567 124.545 28.9633 124.545 28.75ZM125.565 29.48C125.525 29.56 125.489 29.65 125.455 29.75C125.429 29.85 125.405 29.9533 125.385 30.06C125.325 30.3133 125.252 30.5967 125.165 30.91C125.085 31.2233 124.982 31.5467 124.855 31.88C124.735 32.2133 124.592 32.54 124.425 32.86C124.265 33.1733 124.085 33.4633 123.885 33.73C123.579 34.1167 123.232 34.4833 122.845 34.83C122.465 35.17 122.032 35.4767 121.545 35.75C121.059 36.0167 120.515 36.2467 119.915 36.44L119.055 35.5C119.709 35.3333 120.275 35.1333 120.755 34.9C121.235 34.6667 121.652 34.4 122.005 34.1C122.365 33.7933 122.685 33.4667 122.965 33.12C123.192 32.8267 123.389 32.5 123.555 32.14C123.729 31.78 123.869 31.42 123.975 31.06C124.089 30.6933 124.169 30.3567 124.215 30.05C124.115 30.05 123.942 30.05 123.695 30.05C123.449 30.05 123.159 30.05 122.825 30.05C122.492 30.05 122.142 30.05 121.775 30.05C121.409 30.05 121.059 30.05 120.725 30.05C120.392 30.05 120.095 30.05 119.835 30.05C119.582 30.05 119.402 30.05 119.295 30.05C119.082 30.05 118.882 30.0533 118.695 30.06C118.509 30.0667 118.349 30.0767 118.215 30.09V28.97C118.315 28.9767 118.425 28.9867 118.545 29C118.672 29.0133 118.802 29.0233 118.935 29.03C119.069 29.0367 119.189 29.04 119.295 29.04C119.389 29.04 119.535 29.04 119.735 29.04C119.942 29.04 120.182 29.04 120.455 29.04C120.729 29.04 121.015 29.04 121.315 29.04C121.622 29.04 121.925 29.04 122.225 29.04C122.532 29.04 122.815 29.04 123.075 29.04C123.342 29.04 123.569 29.04 123.755 29.04C123.949 29.04 124.079 29.04 124.145 29.04C124.232 29.04 124.332 29.0367 124.445 29.03C124.565 29.0233 124.679 29.0067 124.785 28.98L125.565 29.48Z" fill="black"/>
<path d="M25.3333 32C25.3333 33.4728 26.5272 34.6667 28 34.6667C29.4728 34.6667 30.6667 33.4728 30.6667 32C30.6667 30.5272 29.4728 29.3333 28 29.3333C26.5272 29.3333 25.3333 30.5272 25.3333 32ZM28 32V32.5H67.5V32V31.5H28V32Z" fill="black"/>
<path d="M69.47 48V40.63H70.81L72.15 44.36C72.2367 44.6 72.32 44.8467 72.4 45.1C72.48 45.3467 72.56 45.5933 72.64 45.84H72.69C72.7767 45.5933 72.8567 45.3467 72.93 45.1C73.01 44.8467 73.09 44.6 73.17 44.36L74.49 40.63H75.84V48H74.76V44.36C74.76 44.14 74.7667 43.8967 74.78 43.63C74.8 43.3633 74.82 43.0933 74.84 42.82C74.8667 42.5467 74.8933 42.3 74.92 42.08H74.87L74.28 43.78L73 47.29H72.28L70.99 43.78L70.4 42.08H70.36C70.3867 42.3 70.41 42.5467 70.43 42.82C70.4567 43.0933 70.4767 43.3633 70.49 43.63C70.51 43.8967 70.52 44.14 70.52 44.36V48H69.47ZM80.5708 48.14C79.9441 48.14 79.3874 47.9833 78.9008 47.67C78.4208 47.3567 78.0441 46.9133 77.7708 46.34C77.4974 45.76 77.3608 45.0767 77.3608 44.29C77.3608 43.4967 77.4974 42.82 77.7708 42.26C78.0441 41.6933 78.4208 41.26 78.9008 40.96C79.3874 40.6533 79.9441 40.5 80.5708 40.5C81.2041 40.5 81.7608 40.6533 82.2408 40.96C82.7208 41.26 83.0974 41.6933 83.3708 42.26C83.6441 42.82 83.7808 43.4967 83.7808 44.29C83.7808 45.0767 83.6441 45.76 83.3708 46.34C83.0974 46.9133 82.7208 47.3567 82.2408 47.67C81.7608 47.9833 81.2041 48.14 80.5708 48.14ZM80.5708 47.12C80.9774 47.12 81.3308 47.0033 81.6308 46.77C81.9374 46.5367 82.1741 46.21 82.3408 45.79C82.5074 45.3633 82.5908 44.8633 82.5908 44.29C82.5908 43.7167 82.5074 43.2233 82.3408 42.81C82.1741 42.39 81.9374 42.07 81.6308 41.85C81.3308 41.6233 80.9774 41.51 80.5708 41.51C80.1641 41.51 79.8074 41.6233 79.5008 41.85C79.2008 42.07 78.9674 42.39 78.8008 42.81C78.6408 43.2233 78.5608 43.7167 78.5608 44.29C78.5608 44.8633 78.6408 45.3633 78.8008 45.79C78.9674 46.21 79.2008 46.5367 79.5008 46.77C79.8074 47.0033 80.1641 47.12 80.5708 47.12ZM85.3098 48V40.63H87.2198C87.9798 40.63 88.6232 40.77 89.1498 41.05C89.6765 41.3233 90.0765 41.73 90.3498 42.27C90.6298 42.81 90.7698 43.4833 90.7698 44.29C90.7698 45.09 90.6298 45.7667 90.3498 46.32C90.0765 46.8733 89.6798 47.2933 89.1598 47.58C88.6398 47.86 88.0132 48 87.2798 48H85.3098ZM86.4698 47.05H87.1398C87.6665 47.05 88.1098 46.9467 88.4698 46.74C88.8365 46.5333 89.1098 46.2267 89.2898 45.82C89.4765 45.4067 89.5698 44.8967 89.5698 44.29C89.5698 43.6767 89.4765 43.17 89.2898 42.77C89.1098 42.37 88.8365 42.0733 88.4698 41.88C88.1098 41.68 87.6665 41.58 87.1398 41.58H86.4698V47.05ZM92.302 48V40.63H96.652V41.61H93.462V43.66H96.162V44.64H93.462V47.01H96.762V48H92.302ZM104.908 40.02C105.035 40.2 105.171 40.4167 105.318 40.67C105.471 40.9233 105.595 41.1467 105.688 41.34L105.028 41.63C104.928 41.4233 104.808 41.1967 104.668 40.95C104.528 40.6967 104.391 40.4767 104.258 40.29L104.908 40.02ZM106.138 39.73C106.225 39.8567 106.318 40 106.418 40.16C106.518 40.32 106.615 40.4767 106.708 40.63C106.801 40.7833 106.878 40.9233 106.938 41.05L106.288 41.33C106.181 41.1167 106.058 40.89 105.918 40.65C105.778 40.4033 105.638 40.1867 105.498 40L106.138 39.73ZM102.898 40.21C102.891 40.2567 102.881 40.33 102.868 40.43C102.855 40.5233 102.841 40.6233 102.828 40.73C102.821 40.83 102.818 40.92 102.818 41C102.818 41.18 102.818 41.3867 102.818 41.62C102.818 41.8533 102.818 42.0833 102.818 42.31C102.818 42.5367 102.818 42.74 102.818 42.92C102.818 43.0533 102.818 43.2467 102.818 43.5C102.818 43.7467 102.818 44.0267 102.818 44.34C102.818 44.6467 102.818 44.9667 102.818 45.3C102.818 45.6267 102.818 45.9467 102.818 46.26C102.818 46.5667 102.818 46.84 102.818 47.08C102.818 47.32 102.818 47.5067 102.818 47.64C102.818 47.9133 102.745 48.1233 102.598 48.27C102.451 48.4167 102.211 48.49 101.878 48.49C101.725 48.49 101.558 48.4867 101.378 48.48C101.205 48.4733 101.031 48.4633 100.858 48.45C100.685 48.4433 100.521 48.4333 100.368 48.42L100.278 47.43C100.498 47.47 100.711 47.5 100.918 47.52C101.125 47.5333 101.291 47.54 101.418 47.54C101.551 47.54 101.645 47.5133 101.698 47.46C101.758 47.4 101.791 47.3033 101.798 47.17C101.798 47.09 101.798 46.9433 101.798 46.73C101.798 46.5167 101.798 46.2633 101.798 45.97C101.798 45.6767 101.798 45.37 101.798 45.05C101.798 44.7233 101.798 44.4167 101.798 44.13C101.798 43.8367 101.798 43.5833 101.798 43.37C101.798 43.15 101.798 43 101.798 42.92C101.798 42.8067 101.798 42.6333 101.798 42.4C101.798 42.16 101.798 41.9133 101.798 41.66C101.798 41.4 101.798 41.1767 101.798 40.99C101.798 40.87 101.788 40.73 101.768 40.57C101.755 40.41 101.738 40.29 101.718 40.21H102.898ZM98.2281 41.86C98.3681 41.8733 98.5115 41.8867 98.6581 41.9C98.8115 41.9133 98.9648 41.92 99.1181 41.92C99.2048 41.92 99.3681 41.92 99.6081 41.92C99.8548 41.92 100.151 41.92 100.498 41.92C100.845 41.92 101.215 41.92 101.608 41.92C102.008 41.92 102.408 41.92 102.808 41.92C103.208 41.92 103.581 41.92 103.928 41.92C104.275 41.92 104.571 41.92 104.818 41.92C105.065 41.92 105.235 41.92 105.328 41.92C105.455 41.92 105.601 41.9167 105.768 41.91C105.941 41.8967 106.091 41.88 106.218 41.86V42.9C106.078 42.8933 105.928 42.89 105.768 42.89C105.608 42.8833 105.465 42.88 105.338 42.88C105.245 42.88 105.075 42.88 104.828 42.88C104.581 42.88 104.285 42.88 103.938 42.88C103.591 42.88 103.218 42.88 102.818 42.88C102.425 42.88 102.028 42.88 101.628 42.88C101.235 42.88 100.865 42.88 100.518 42.88C100.171 42.88 99.8748 42.88 99.6281 42.88C99.3881 42.88 99.2215 42.88 99.1281 42.88C98.9748 42.88 98.8181 42.8833 98.6581 42.89C98.5048 42.89 98.3615 42.8967 98.2281 42.91V41.86ZM100.628 44.37C100.521 44.5833 100.388 44.82 100.228 45.08C100.068 45.3333 99.8948 45.59 99.7081 45.85C99.5281 46.1033 99.3515 46.3433 99.1781 46.57C99.0048 46.79 98.8481 46.9767 98.7081 47.13L97.8481 46.54C98.0148 46.3867 98.1881 46.2033 98.3681 45.99C98.5481 45.7767 98.7215 45.5533 98.8881 45.32C99.0615 45.08 99.2215 44.8433 99.3681 44.61C99.5148 44.37 99.6381 44.1467 99.7381 43.94L100.628 44.37ZM104.858 43.93C104.991 44.09 105.135 44.2833 105.288 44.51C105.448 44.73 105.608 44.9633 105.768 45.21C105.928 45.4567 106.078 45.6967 106.218 45.93C106.358 46.1633 106.478 46.37 106.578 46.55L105.658 47.07C105.551 46.8633 105.428 46.64 105.288 46.4C105.155 46.1533 105.011 45.9067 104.858 45.66C104.711 45.4133 104.561 45.18 104.408 44.96C104.261 44.74 104.125 44.5533 103.998 44.4L104.858 43.93ZM111.538 43.37C111.851 43.5567 112.188 43.7667 112.548 44C112.908 44.2267 113.268 44.4667 113.628 44.72C113.988 44.9667 114.328 45.2067 114.648 45.44C114.975 45.6733 115.255 45.89 115.488 46.09L114.748 46.97C114.521 46.7633 114.248 46.5333 113.928 46.28C113.615 46.0267 113.275 45.7667 112.908 45.5C112.548 45.2333 112.188 44.98 111.828 44.74C111.475 44.4933 111.148 44.2733 110.848 44.08L111.538 43.37ZM116.168 41.6C116.121 41.68 116.071 41.78 116.018 41.9C115.971 42.0133 115.931 42.12 115.898 42.22C115.798 42.54 115.661 42.8933 115.488 43.28C115.321 43.6667 115.118 44.06 114.878 44.46C114.645 44.8533 114.381 45.2333 114.088 45.6C113.628 46.1667 113.061 46.71 112.388 47.23C111.721 47.7433 110.915 48.18 109.968 48.54L109.058 47.74C109.711 47.54 110.291 47.2967 110.798 47.01C111.311 46.7233 111.765 46.4133 112.158 46.08C112.551 45.74 112.895 45.3967 113.188 45.05C113.435 44.7567 113.661 44.4367 113.868 44.09C114.081 43.7433 114.265 43.3967 114.418 43.05C114.578 42.7033 114.691 42.39 114.758 42.11H111.188L111.568 41.21H114.608C114.748 41.21 114.885 41.2 115.018 41.18C115.151 41.16 115.265 41.1333 115.358 41.1L116.168 41.6ZM112.828 40.12C112.728 40.2667 112.628 40.4267 112.528 40.6C112.435 40.7733 112.361 40.91 112.308 41.01C112.095 41.3833 111.821 41.7933 111.488 42.24C111.161 42.6867 110.785 43.1267 110.358 43.56C109.931 43.9867 109.465 44.3767 108.958 44.73L108.108 44.07C108.688 43.71 109.185 43.3233 109.598 42.91C110.018 42.4967 110.368 42.0933 110.648 41.7C110.928 41.3067 111.148 40.96 111.308 40.66C111.368 40.56 111.435 40.4233 111.508 40.25C111.588 40.07 111.648 39.9067 111.688 39.76L112.828 40.12ZM119.658 40.55C119.838 40.67 120.045 40.82 120.278 41C120.511 41.1733 120.748 41.36 120.988 41.56C121.235 41.76 121.468 41.9533 121.688 42.14C121.908 42.3267 122.085 42.4933 122.218 42.64L121.428 43.45C121.301 43.3167 121.135 43.1567 120.928 42.97C120.721 42.7767 120.498 42.58 120.258 42.38C120.025 42.1733 119.791 41.98 119.558 41.8C119.325 41.6133 119.115 41.4567 118.928 41.33L119.658 40.55ZM118.628 47.24C119.188 47.1533 119.705 47.04 120.178 46.9C120.651 46.7533 121.085 46.59 121.478 46.41C121.878 46.2233 122.238 46.0333 122.558 45.84C123.091 45.5133 123.581 45.1367 124.028 44.71C124.481 44.2833 124.878 43.8433 125.218 43.39C125.558 42.9367 125.828 42.4967 126.028 42.07L126.638 43.16C126.398 43.5933 126.101 44.0267 125.748 44.46C125.401 44.8933 125.008 45.31 124.568 45.71C124.128 46.1033 123.648 46.46 123.128 46.78C122.795 46.9867 122.428 47.1867 122.028 47.38C121.635 47.5733 121.208 47.7467 120.748 47.9C120.295 48.0533 119.811 48.1767 119.298 48.27L118.628 47.24Z" fill="black"/>
<path d="M49.3333 44C49.3333 45.4728 50.5272 46.6667 52 46.6667C53.4728 46.6667 54.6667 45.4728 54.6667 44C54.6667 42.5272 53.4728 41.3333 52 41.3333C50.5272 41.3333 49.3333 42.5272 49.3333 44ZM52 44V44.5H67V44V43.5H52V44Z" fill="black"/>
</svg>
