<svg width="126" height="82" viewBox="0 0 126 82" fill="none" xmlns="http://www.w3.org/2000/svg">
<path d="M17.5 1H51.5C54.81 1 57.5 3.68 57.5 6.99V75.01C57.5 78.32 54.81 81 51.5 81H17.5C14.19 81 11.5 78.32 11.5 75.01V6.99C11.5 3.68 14.19 1 17.5 1Z" fill="white"/>
<path d="M21 34H12V40H21V34Z" fill="#05C13F"/>
<path d="M17.5 1H51.5C54.81 1 57.5 3.68 57.5 6.99V75.01C57.5 78.32 54.81 81 51.5 81H17.5C14.19 81 11.5 78.32 11.5 75.01V6.99C11.5 3.68 14.19 1 17.5 1Z" stroke="#999999" stroke-miterlimit="10"/>
<path d="M70.67 43.14C70.2633 43.14 69.89 43.08 69.55 42.96C69.2167 42.84 68.93 42.65 68.69 42.39C68.45 42.13 68.2633 41.79 68.13 41.37C67.9967 40.95 67.93 40.44 67.93 39.84V35.63H69.09V39.91C69.09 40.4633 69.1567 40.9033 69.29 41.23C69.43 41.55 69.6167 41.78 69.85 41.92C70.09 42.0533 70.3633 42.12 70.67 42.12C70.9833 42.12 71.26 42.0533 71.5 41.92C71.74 41.78 71.93 41.55 72.07 41.23C72.21 40.9033 72.28 40.4633 72.28 39.91V35.63H73.4V39.84C73.4 40.44 73.3333 40.95 73.2 41.37C73.0733 41.79 72.89 42.13 72.65 42.39C72.41 42.65 72.12 42.84 71.78 42.96C71.4467 43.08 71.0767 43.14 70.67 43.14ZM75.304 43V35.63H76.494L78.934 39.96L79.704 41.51H79.754C79.7207 41.1367 79.684 40.7367 79.644 40.31C79.6107 39.8833 79.594 39.47 79.594 39.07V35.63H80.704V43H79.514L77.074 38.66L76.304 37.12H76.264C76.2907 37.5 76.3207 37.8967 76.354 38.31C76.3873 38.7233 76.404 39.1333 76.404 39.54V43H75.304ZM82.6477 43V35.63H83.8077V43H82.6477ZM87.2237 43V36.61H85.0737V35.63H90.5637V36.61H88.4037V43H87.2237ZM93.157 35.46C93.2903 35.4733 93.4403 35.4867 93.607 35.5C93.7803 35.5067 93.9503 35.51 94.117 35.51C94.2236 35.51 94.407 35.51 94.667 35.51C94.9336 35.51 95.2303 35.51 95.557 35.51C95.8903 35.51 96.2203 35.51 96.547 35.51C96.8803 35.51 97.177 35.51 97.437 35.51C97.7036 35.51 97.8936 35.51 98.007 35.51C98.167 35.51 98.337 35.5067 98.517 35.5C98.7036 35.4867 98.8603 35.4733 98.987 35.46V36.49C98.8603 36.4767 98.707 36.47 98.527 36.47C98.347 36.4633 98.1703 36.46 97.997 36.46C97.8836 36.46 97.697 36.46 97.437 36.46C97.177 36.46 96.8803 36.46 96.547 36.46C96.2203 36.46 95.8903 36.46 95.557 36.46C95.2303 36.46 94.937 36.46 94.677 36.46C94.417 36.46 94.2303 36.46 94.117 36.46C93.957 36.46 93.7903 36.4633 93.617 36.47C93.4503 36.47 93.297 36.4767 93.157 36.49V35.46ZM99.777 38.21C99.7436 38.2633 99.7103 38.3233 99.677 38.39C99.6503 38.4567 99.6303 38.5133 99.617 38.56C99.477 39.0467 99.2903 39.5333 99.057 40.02C98.8236 40.5067 98.5203 40.9533 98.147 41.36C97.6336 41.9333 97.067 42.3867 96.447 42.72C95.8336 43.0533 95.207 43.31 94.567 43.49L93.787 42.59C94.5136 42.4367 95.177 42.2067 95.777 41.9C96.377 41.5867 96.8803 41.2167 97.287 40.79C97.5736 40.49 97.807 40.1633 97.987 39.81C98.1736 39.4567 98.3103 39.1167 98.397 38.79C98.3303 38.79 98.2003 38.79 98.007 38.79C97.8136 38.79 97.577 38.79 97.297 38.79C97.0236 38.79 96.7303 38.79 96.417 38.79C96.1036 38.79 95.7836 38.79 95.457 38.79C95.137 38.79 94.8336 38.79 94.547 38.79C94.2603 38.79 94.007 38.79 93.787 38.79C93.5736 38.79 93.4136 38.79 93.307 38.79C93.187 38.79 93.027 38.7933 92.827 38.8C92.6336 38.8067 92.4403 38.8167 92.247 38.83V37.79C92.447 37.81 92.637 37.8267 92.817 37.84C92.997 37.8533 93.1603 37.86 93.307 37.86C93.387 37.86 93.5303 37.86 93.737 37.86C93.9436 37.86 94.187 37.86 94.467 37.86C94.747 37.86 95.047 37.86 95.367 37.86C95.6936 37.86 96.0203 37.86 96.347 37.86C96.6736 37.86 96.977 37.86 97.257 37.86C97.5436 37.86 97.7903 37.86 97.997 37.86C98.2036 37.86 98.347 37.86 98.427 37.86C98.567 37.86 98.6903 37.8533 98.797 37.84C98.9103 37.82 99.0003 37.7967 99.067 37.77L99.777 38.21ZM103.207 35.55C103.387 35.67 103.594 35.82 103.827 36C104.06 36.1733 104.297 36.36 104.537 36.56C104.784 36.76 105.017 36.9533 105.237 37.14C105.457 37.3267 105.634 37.4933 105.767 37.64L104.977 38.45C104.85 38.3167 104.684 38.1567 104.477 37.97C104.27 37.7767 104.047 37.58 103.807 37.38C103.574 37.1733 103.34 36.98 103.107 36.8C102.874 36.6133 102.664 36.4567 102.477 36.33L103.207 35.55ZM102.177 42.24C102.737 42.1533 103.254 42.04 103.727 41.9C104.2 41.7533 104.634 41.59 105.027 41.41C105.427 41.2233 105.787 41.0333 106.107 40.84C106.64 40.5133 107.13 40.1367 107.577 39.71C108.03 39.2833 108.427 38.8433 108.767 38.39C109.107 37.9367 109.377 37.4967 109.577 37.07L110.187 38.16C109.947 38.5933 109.65 39.0267 109.297 39.46C108.95 39.8933 108.557 40.31 108.117 40.71C107.677 41.1033 107.197 41.46 106.677 41.78C106.344 41.9867 105.977 42.1867 105.577 42.38C105.184 42.5733 104.757 42.7467 104.297 42.9C103.844 43.0533 103.36 43.1767 102.847 43.27L102.177 42.24ZM118.624 35.75C118.624 35.9233 118.684 36.07 118.804 36.19C118.924 36.31 119.071 36.37 119.244 36.37C119.418 36.37 119.564 36.31 119.684 36.19C119.811 36.07 119.874 35.9233 119.874 35.75C119.874 35.5767 119.811 35.43 119.684 35.31C119.564 35.1833 119.418 35.12 119.244 35.12C119.071 35.12 118.924 35.1833 118.804 35.31C118.684 35.43 118.624 35.5767 118.624 35.75ZM118.094 35.75C118.094 35.5367 118.144 35.3433 118.244 35.17C118.351 34.9967 118.491 34.86 118.664 34.76C118.838 34.6533 119.031 34.6 119.244 34.6C119.458 34.6 119.651 34.6533 119.824 34.76C119.998 34.86 120.138 34.9967 120.244 35.17C120.351 35.3433 120.404 35.5367 120.404 35.75C120.404 35.9633 120.351 36.1567 120.244 36.33C120.138 36.5033 119.998 36.6433 119.824 36.75C119.651 36.85 119.458 36.9 119.244 36.9C119.031 36.9 118.838 36.85 118.664 36.75C118.491 36.6433 118.351 36.5033 118.244 36.33C118.144 36.1567 118.094 35.9633 118.094 35.75ZM119.114 36.48C119.074 36.56 119.038 36.65 119.004 36.75C118.978 36.85 118.954 36.9533 118.934 37.06C118.874 37.3133 118.801 37.5967 118.714 37.91C118.634 38.2233 118.531 38.5467 118.404 38.88C118.284 39.2133 118.141 39.54 117.974 39.86C117.814 40.1733 117.634 40.4633 117.434 40.73C117.128 41.1167 116.781 41.4833 116.394 41.83C116.014 42.17 115.581 42.4767 115.094 42.75C114.608 43.0167 114.064 43.2467 113.464 43.44L112.604 42.5C113.258 42.3333 113.824 42.1333 114.304 41.9C114.784 41.6667 115.201 41.4 115.554 41.1C115.914 40.7933 116.234 40.4667 116.514 40.12C116.741 39.8267 116.938 39.5 117.104 39.14C117.278 38.78 117.418 38.42 117.524 38.06C117.638 37.6933 117.718 37.3567 117.764 37.05C117.664 37.05 117.491 37.05 117.244 37.05C116.998 37.05 116.708 37.05 116.374 37.05C116.041 37.05 115.691 37.05 115.324 37.05C114.958 37.05 114.608 37.05 114.274 37.05C113.941 37.05 113.644 37.05 113.384 37.05C113.131 37.05 112.951 37.05 112.844 37.05C112.631 37.05 112.431 37.0533 112.244 37.06C112.058 37.0667 111.898 37.0767 111.764 37.09V35.97C111.864 35.9767 111.974 35.9867 112.094 36C112.221 36.0133 112.351 36.0233 112.484 36.03C112.618 36.0367 112.738 36.04 112.844 36.04C112.938 36.04 113.084 36.04 113.284 36.04C113.491 36.04 113.731 36.04 114.004 36.04C114.278 36.04 114.564 36.04 114.864 36.04C115.171 36.04 115.474 36.04 115.774 36.04C116.081 36.04 116.364 36.04 116.624 36.04C116.891 36.04 117.118 36.04 117.304 36.04C117.498 36.04 117.628 36.04 117.694 36.04C117.781 36.04 117.881 36.0367 117.994 36.03C118.114 36.0233 118.228 36.0067 118.334 35.98L119.114 36.48Z" fill="black"/>
<path d="M67.97 33V25.63H69.31L70.65 29.36C70.7367 29.6 70.82 29.8467 70.9 30.1C70.98 30.3467 71.06 30.5933 71.14 30.84H71.19C71.2767 30.5933 71.3567 30.3467 71.43 30.1C71.51 29.8467 71.59 29.6 71.67 29.36L72.99 25.63H74.34V33H73.26V29.36C73.26 29.14 73.2667 28.8967 73.28 28.63C73.3 28.3633 73.32 28.0933 73.34 27.82C73.3667 27.5467 73.3933 27.3 73.42 27.08H73.37L72.78 28.78L71.5 32.29H70.78L69.49 28.78L68.9 27.08H68.86C68.8867 27.3 68.91 27.5467 68.93 27.82C68.9567 28.0933 68.9767 28.3633 68.99 28.63C69.01 28.8967 69.02 29.14 69.02 29.36V33H67.97ZM79.0708 33.14C78.4441 33.14 77.8874 32.9833 77.4008 32.67C76.9208 32.3567 76.5441 31.9133 76.2708 31.34C75.9974 30.76 75.8608 30.0767 75.8608 29.29C75.8608 28.4967 75.9974 27.82 76.2708 27.26C76.5441 26.6933 76.9208 26.26 77.4008 25.96C77.8874 25.6533 78.4441 25.5 79.0708 25.5C79.7041 25.5 80.2608 25.6533 80.7408 25.96C81.2208 26.26 81.5974 26.6933 81.8708 27.26C82.1441 27.82 82.2808 28.4967 82.2808 29.29C82.2808 30.0767 82.1441 30.76 81.8708 31.34C81.5974 31.9133 81.2208 32.3567 80.7408 32.67C80.2608 32.9833 79.7041 33.14 79.0708 33.14ZM79.0708 32.12C79.4774 32.12 79.8308 32.0033 80.1308 31.77C80.4374 31.5367 80.6741 31.21 80.8408 30.79C81.0074 30.3633 81.0908 29.8633 81.0908 29.29C81.0908 28.7167 81.0074 28.2233 80.8408 27.81C80.6741 27.39 80.4374 27.07 80.1308 26.85C79.8308 26.6233 79.4774 26.51 79.0708 26.51C78.6641 26.51 78.3074 26.6233 78.0008 26.85C77.7008 27.07 77.4674 27.39 77.3008 27.81C77.1408 28.2233 77.0608 28.7167 77.0608 29.29C77.0608 29.8633 77.1408 30.3633 77.3008 30.79C77.4674 31.21 77.7008 31.5367 78.0008 31.77C78.3074 32.0033 78.6641 32.12 79.0708 32.12ZM83.8098 33V25.63H85.7198C86.4798 25.63 87.1232 25.77 87.6498 26.05C88.1765 26.3233 88.5765 26.73 88.8498 27.27C89.1298 27.81 89.2698 28.4833 89.2698 29.29C89.2698 30.09 89.1298 30.7667 88.8498 31.32C88.5765 31.8733 88.1798 32.2933 87.6598 32.58C87.1398 32.86 86.5132 33 85.7798 33H83.8098ZM84.9698 32.05H85.6398C86.1665 32.05 86.6098 31.9467 86.9698 31.74C87.3365 31.5333 87.6098 31.2267 87.7898 30.82C87.9765 30.4067 88.0698 29.8967 88.0698 29.29C88.0698 28.6767 87.9765 28.17 87.7898 27.77C87.6098 27.37 87.3365 27.0733 86.9698 26.88C86.6098 26.68 86.1665 26.58 85.6398 26.58H84.9698V32.05ZM90.802 33V25.63H95.152V26.61H91.962V28.66H94.662V29.64H91.962V32.01H95.262V33H90.802ZM98.1081 25.46C98.2415 25.4733 98.3915 25.4867 98.5581 25.5C98.7315 25.5067 98.9015 25.51 99.0681 25.51C99.1748 25.51 99.3581 25.51 99.6181 25.51C99.8848 25.51 100.181 25.51 100.508 25.51C100.841 25.51 101.171 25.51 101.498 25.51C101.831 25.51 102.128 25.51 102.388 25.51C102.655 25.51 102.845 25.51 102.958 25.51C103.118 25.51 103.288 25.5067 103.468 25.5C103.655 25.4867 103.811 25.4733 103.938 25.46V26.49C103.811 26.4767 103.658 26.47 103.478 26.47C103.298 26.4633 103.121 26.46 102.948 26.46C102.835 26.46 102.648 26.46 102.388 26.46C102.128 26.46 101.831 26.46 101.498 26.46C101.171 26.46 100.841 26.46 100.508 26.46C100.181 26.46 99.8881 26.46 99.6281 26.46C99.3681 26.46 99.1815 26.46 99.0681 26.46C98.9081 26.46 98.7415 26.4633 98.5681 26.47C98.4015 26.47 98.2481 26.4767 98.1081 26.49V25.46ZM104.728 28.21C104.695 28.2633 104.661 28.3233 104.628 28.39C104.601 28.4567 104.581 28.5133 104.568 28.56C104.428 29.0467 104.241 29.5333 104.008 30.02C103.775 30.5067 103.471 30.9533 103.098 31.36C102.585 31.9333 102.018 32.3867 101.398 32.72C100.785 33.0533 100.158 33.31 99.5181 33.49L98.7381 32.59C99.4648 32.4367 100.128 32.2067 100.728 31.9C101.328 31.5867 101.831 31.2167 102.238 30.79C102.525 30.49 102.758 30.1633 102.938 29.81C103.125 29.4567 103.261 29.1167 103.348 28.79C103.281 28.79 103.151 28.79 102.958 28.79C102.765 28.79 102.528 28.79 102.248 28.79C101.975 28.79 101.681 28.79 101.368 28.79C101.055 28.79 100.735 28.79 100.408 28.79C100.088 28.79 99.7848 28.79 99.4981 28.79C99.2115 28.79 98.9581 28.79 98.7381 28.79C98.5248 28.79 98.3648 28.79 98.2581 28.79C98.1381 28.79 97.9781 28.7933 97.7781 28.8C97.5848 28.8067 97.3915 28.8167 97.1981 28.83V27.79C97.3981 27.81 97.5881 27.8267 97.7681 27.84C97.9481 27.8533 98.1115 27.86 98.2581 27.86C98.3381 27.86 98.4815 27.86 98.6881 27.86C98.8948 27.86 99.1381 27.86 99.4181 27.86C99.6981 27.86 99.9981 27.86 100.318 27.86C100.645 27.86 100.971 27.86 101.298 27.86C101.625 27.86 101.928 27.86 102.208 27.86C102.495 27.86 102.741 27.86 102.948 27.86C103.155 27.86 103.298 27.86 103.378 27.86C103.518 27.86 103.641 27.8533 103.748 27.84C103.861 27.82 103.951 27.7967 104.018 27.77L104.728 28.21ZM108.158 25.55C108.338 25.67 108.545 25.82 108.778 26C109.011 26.1733 109.248 26.36 109.488 26.56C109.735 26.76 109.968 26.9533 110.188 27.14C110.408 27.3267 110.585 27.4933 110.718 27.64L109.928 28.45C109.801 28.3167 109.635 28.1567 109.428 27.97C109.221 27.7767 108.998 27.58 108.758 27.38C108.525 27.1733 108.291 26.98 108.058 26.8C107.825 26.6133 107.615 26.4567 107.428 26.33L108.158 25.55ZM107.128 32.24C107.688 32.1533 108.205 32.04 108.678 31.9C109.151 31.7533 109.585 31.59 109.978 31.41C110.378 31.2233 110.738 31.0333 111.058 30.84C111.591 30.5133 112.081 30.1367 112.528 29.71C112.981 29.2833 113.378 28.8433 113.718 28.39C114.058 27.9367 114.328 27.4967 114.528 27.07L115.138 28.16C114.898 28.5933 114.601 29.0267 114.248 29.46C113.901 29.8933 113.508 30.31 113.068 30.71C112.628 31.1033 112.148 31.46 111.628 31.78C111.295 31.9867 110.928 32.1867 110.528 32.38C110.135 32.5733 109.708 32.7467 109.248 32.9C108.795 33.0533 108.311 33.1767 107.798 33.27L107.128 32.24ZM123.575 25.75C123.575 25.9233 123.635 26.07 123.755 26.19C123.875 26.31 124.022 26.37 124.195 26.37C124.369 26.37 124.515 26.31 124.635 26.19C124.762 26.07 124.825 25.9233 124.825 25.75C124.825 25.5767 124.762 25.43 124.635 25.31C124.515 25.1833 124.369 25.12 124.195 25.12C124.022 25.12 123.875 25.1833 123.755 25.31C123.635 25.43 123.575 25.5767 123.575 25.75ZM123.045 25.75C123.045 25.5367 123.095 25.3433 123.195 25.17C123.302 24.9967 123.442 24.86 123.615 24.76C123.789 24.6533 123.982 24.6 124.195 24.6C124.409 24.6 124.602 24.6533 124.775 24.76C124.949 24.86 125.089 24.9967 125.195 25.17C125.302 25.3433 125.355 25.5367 125.355 25.75C125.355 25.9633 125.302 26.1567 125.195 26.33C125.089 26.5033 124.949 26.6433 124.775 26.75C124.602 26.85 124.409 26.9 124.195 26.9C123.982 26.9 123.789 26.85 123.615 26.75C123.442 26.6433 123.302 26.5033 123.195 26.33C123.095 26.1567 123.045 25.9633 123.045 25.75ZM124.065 26.48C124.025 26.56 123.989 26.65 123.955 26.75C123.929 26.85 123.905 26.9533 123.885 27.06C123.825 27.3133 123.752 27.5967 123.665 27.91C123.585 28.2233 123.482 28.5467 123.355 28.88C123.235 29.2133 123.092 29.54 122.925 29.86C122.765 30.1733 122.585 30.4633 122.385 30.73C122.079 31.1167 121.732 31.4833 121.345 31.83C120.965 32.17 120.532 32.4767 120.045 32.75C119.559 33.0167 119.015 33.2467 118.415 33.44L117.555 32.5C118.209 32.3333 118.775 32.1333 119.255 31.9C119.735 31.6667 120.152 31.4 120.505 31.1C120.865 30.7933 121.185 30.4667 121.465 30.12C121.692 29.8267 121.889 29.5 122.055 29.14C122.229 28.78 122.369 28.42 122.475 28.06C122.589 27.6933 122.669 27.3567 122.715 27.05C122.615 27.05 122.442 27.05 122.195 27.05C121.949 27.05 121.659 27.05 121.325 27.05C120.992 27.05 120.642 27.05 120.275 27.05C119.909 27.05 119.559 27.05 119.225 27.05C118.892 27.05 118.595 27.05 118.335 27.05C118.082 27.05 117.902 27.05 117.795 27.05C117.582 27.05 117.382 27.0533 117.195 27.06C117.009 27.0667 116.849 27.0767 116.715 27.09V25.97C116.815 25.9767 116.925 25.9867 117.045 26C117.172 26.0133 117.302 26.0233 117.435 26.03C117.569 26.0367 117.689 26.04 117.795 26.04C117.889 26.04 118.035 26.04 118.235 26.04C118.442 26.04 118.682 26.04 118.955 26.04C119.229 26.04 119.515 26.04 119.815 26.04C120.122 26.04 120.425 26.04 120.725 26.04C121.032 26.04 121.315 26.04 121.575 26.04C121.842 26.04 122.069 26.04 122.255 26.04C122.449 26.04 122.579 26.04 122.645 26.04C122.732 26.04 122.832 26.0367 122.945 26.03C123.065 26.0233 123.179 26.0067 123.285 25.98L124.065 26.48Z" fill="black"/>
<path d="M23.52 52.9199C25.7402 52.9199 27.54 51.1336 27.54 48.9299C27.54 46.7263 25.7402 44.9399 23.52 44.9399C21.2998 44.9399 19.5 46.7263 19.5 48.9299C19.5 51.1336 21.2998 52.9199 23.52 52.9199Z" fill="#999999"/>
<path d="M45.52 52.9199C47.7402 52.9199 49.54 51.1336 49.54 48.9299C49.54 46.7263 47.7402 44.9399 45.52 44.9399C43.2998 44.9399 41.5 46.7263 41.5 48.9299C41.5 51.1336 43.2998 52.9199 45.52 52.9199Z" fill="#999999"/>
<path d="M20.5 17.48C20.78 17.48 21 17.7 21 17.98V38.95C21 39.23 20.78 39.45 20.5 39.45H12V17.48H20.5ZM20.5 16.48H11V40.45H20.5C21.33 40.45 22 39.78 22 38.95V17.98C22 17.15 21.33 16.48 20.5 16.48Z" fill="#999999"/>
<path d="M12 22.5H21.5" stroke="#999999" stroke-miterlimit="10"/>
<path d="M12 28.5H21.5" stroke="#999999" stroke-miterlimit="10"/>
<path d="M12 34.5H17.98H21.5" stroke="#999999" stroke-miterlimit="10"/>
<path d="M23.8333 39C23.8333 40.4728 25.0272 41.6667 26.5 41.6667C27.9728 41.6667 29.1667 40.4728 29.1667 39C29.1667 37.5272 27.9728 36.3333 26.5 36.3333C25.0272 36.3333 23.8333 37.5272 23.8333 39ZM26.5 39V39.5H66V39V38.5H26.5V39Z" fill="black"/>
<path d="M23.8333 29C23.8333 30.4728 25.0272 31.6667 26.5 31.6667C27.9728 31.6667 29.1667 30.4728 29.1667 29C29.1667 27.5272 27.9728 26.3333 26.5 26.3333C25.0272 26.3333 23.8333 27.5272 23.8333 29ZM26.5 29V29.5H66V29V28.5H26.5V29Z" fill="black"/>
<path d="M21 29H12V34H21V29Z" fill="#FC9208"/>
<path d="M1 29.96L6.34001 31.62" stroke="#FC9208" stroke-width="2" stroke-miterlimit="10" stroke-linecap="round"/>
<path d="M5.28906 23L7.88907 27.95" stroke="#FC9208" stroke-width="2" stroke-miterlimit="10" stroke-linecap="round"/>
<path d="M1.00977 37.2799L6.36977 35.6899" stroke="#05C13F" stroke-width="2" stroke-miterlimit="10" stroke-linecap="round"/>
<path d="M7.89072 39.3799L5.2207 44.2999" stroke="#05C13F" stroke-width="2" stroke-miterlimit="10" stroke-linecap="round"/>
</svg>
