<svg width="128" height="82" viewBox="0 0 128 82" fill="none" xmlns="http://www.w3.org/2000/svg">
<path d="M19.5 1H53.5C56.81 1 59.5 3.68 59.5 6.99V75.01C59.5 78.32 56.81 81 53.5 81H19.5C16.19 81 13.5 78.32 13.5 75.01V6.99C13.5 3.68 16.19 1 19.5 1Z" fill="white"/>
<path d="M23.5 29H13.5V35H23.5V29Z" fill="#FC9208"/>
<path d="M19.5 1H53.5C56.81 1 59.5 3.68 59.5 6.99V75.01C59.5 78.32 56.81 81 53.5 81H19.5C16.19 81 13.5 78.32 13.5 75.01V6.99C13.5 3.68 16.19 1 19.5 1Z" stroke="#999999" stroke-miterlimit="10"/>
<path d="M25.52 52.9199C27.7402 52.9199 29.54 51.1336 29.54 48.9299C29.54 46.7263 27.7402 44.9399 25.52 44.9399C23.2998 44.9399 21.5 46.7263 21.5 48.9299C21.5 51.1336 23.2998 52.9199 25.52 52.9199Z" fill="#999999"/>
<path d="M47.52 52.9199C49.7402 52.9199 51.54 51.1336 51.54 48.9299C51.54 46.7263 49.7402 44.9399 47.52 44.9399C45.2998 44.9399 43.5 46.7263 43.5 48.9299C43.5 51.1336 45.2998 52.9199 47.52 52.9199Z" fill="#999999"/>
<path d="M22.5 17.48C22.78 17.48 23 17.7 23 17.98V38.95C23 39.23 22.78 39.45 22.5 39.45H14V17.48H22.5ZM22.5 16.48H13V40.45H22.5C23.33 40.45 24 39.78 24 38.95V17.98C24 17.15 23.33 16.48 22.5 16.48Z" fill="#999999"/>
<path d="M1.5 30.25H8.56" stroke="#FC9208" stroke-width="2" stroke-miterlimit="10" stroke-linecap="round"/>
<path d="M4.5293 21.75L9.5293 26.75" stroke="#FC9208" stroke-width="2" stroke-miterlimit="10" stroke-linecap="round"/>
<path d="M9.5293 33.75L4.5293 38.75" stroke="#FC9208" stroke-width="2" stroke-miterlimit="10" stroke-linecap="round"/>
<path d="M14 22.5H23.5" stroke="#999999" stroke-miterlimit="10"/>
<path d="M14 28.5H23.5" stroke="#999999" stroke-miterlimit="10"/>
<path d="M14 34.5H19.98H23.5" stroke="#999999" stroke-miterlimit="10"/>
<path d="M69.97 36V28.63H71.31L72.65 32.36C72.7367 32.6 72.82 32.8467 72.9 33.1C72.98 33.3467 73.06 33.5933 73.14 33.84H73.19C73.2767 33.5933 73.3567 33.3467 73.43 33.1C73.51 32.8467 73.59 32.6 73.67 32.36L74.99 28.63H76.34V36H75.26V32.36C75.26 32.14 75.2667 31.8967 75.28 31.63C75.3 31.3633 75.32 31.0933 75.34 30.82C75.3667 30.5467 75.3933 30.3 75.42 30.08H75.37L74.78 31.78L73.5 35.29H72.78L71.49 31.78L70.9 30.08H70.86C70.8867 30.3 70.91 30.5467 70.93 30.82C70.9567 31.0933 70.9767 31.3633 70.99 31.63C71.01 31.8967 71.02 32.14 71.02 32.36V36H69.97ZM81.0708 36.14C80.4441 36.14 79.8874 35.9833 79.4008 35.67C78.9208 35.3567 78.5441 34.9133 78.2708 34.34C77.9974 33.76 77.8608 33.0767 77.8608 32.29C77.8608 31.4967 77.9974 30.82 78.2708 30.26C78.5441 29.6933 78.9208 29.26 79.4008 28.96C79.8874 28.6533 80.4441 28.5 81.0708 28.5C81.7041 28.5 82.2608 28.6533 82.7408 28.96C83.2208 29.26 83.5974 29.6933 83.8708 30.26C84.1441 30.82 84.2808 31.4967 84.2808 32.29C84.2808 33.0767 84.1441 33.76 83.8708 34.34C83.5974 34.9133 83.2208 35.3567 82.7408 35.67C82.2608 35.9833 81.7041 36.14 81.0708 36.14ZM81.0708 35.12C81.4774 35.12 81.8308 35.0033 82.1308 34.77C82.4374 34.5367 82.6741 34.21 82.8408 33.79C83.0074 33.3633 83.0908 32.8633 83.0908 32.29C83.0908 31.7167 83.0074 31.2233 82.8408 30.81C82.6741 30.39 82.4374 30.07 82.1308 29.85C81.8308 29.6233 81.4774 29.51 81.0708 29.51C80.6641 29.51 80.3074 29.6233 80.0008 29.85C79.7008 30.07 79.4674 30.39 79.3008 30.81C79.1408 31.2233 79.0608 31.7167 79.0608 32.29C79.0608 32.8633 79.1408 33.3633 79.3008 33.79C79.4674 34.21 79.7008 34.5367 80.0008 34.77C80.3074 35.0033 80.6641 35.12 81.0708 35.12ZM85.8098 36V28.63H87.7198C88.4798 28.63 89.1232 28.77 89.6498 29.05C90.1765 29.3233 90.5765 29.73 90.8498 30.27C91.1298 30.81 91.2698 31.4833 91.2698 32.29C91.2698 33.09 91.1298 33.7667 90.8498 34.32C90.5765 34.8733 90.1798 35.2933 89.6598 35.58C89.1398 35.86 88.5132 36 87.7798 36H85.8098ZM86.9698 35.05H87.6398C88.1665 35.05 88.6098 34.9467 88.9698 34.74C89.3365 34.5333 89.6098 34.2267 89.7898 33.82C89.9765 33.4067 90.0698 32.8967 90.0698 32.29C90.0698 31.6767 89.9765 31.17 89.7898 30.77C89.6098 30.37 89.3365 30.0733 88.9698 29.88C88.6098 29.68 88.1665 29.58 87.6398 29.58H86.9698V35.05ZM92.802 36V28.63H97.152V29.61H93.962V31.66H96.662V32.64H93.962V35.01H97.262V36H92.802ZM100.108 28.46C100.241 28.4733 100.391 28.4867 100.558 28.5C100.731 28.5067 100.901 28.51 101.068 28.51C101.175 28.51 101.358 28.51 101.618 28.51C101.885 28.51 102.181 28.51 102.508 28.51C102.841 28.51 103.171 28.51 103.498 28.51C103.831 28.51 104.128 28.51 104.388 28.51C104.655 28.51 104.845 28.51 104.958 28.51C105.118 28.51 105.288 28.5067 105.468 28.5C105.655 28.4867 105.811 28.4733 105.938 28.46V29.49C105.811 29.4767 105.658 29.47 105.478 29.47C105.298 29.4633 105.121 29.46 104.948 29.46C104.835 29.46 104.648 29.46 104.388 29.46C104.128 29.46 103.831 29.46 103.498 29.46C103.171 29.46 102.841 29.46 102.508 29.46C102.181 29.46 101.888 29.46 101.628 29.46C101.368 29.46 101.181 29.46 101.068 29.46C100.908 29.46 100.741 29.4633 100.568 29.47C100.401 29.47 100.248 29.4767 100.108 29.49V28.46ZM106.728 31.21C106.695 31.2633 106.661 31.3233 106.628 31.39C106.601 31.4567 106.581 31.5133 106.568 31.56C106.428 32.0467 106.241 32.5333 106.008 33.02C105.775 33.5067 105.471 33.9533 105.098 34.36C104.585 34.9333 104.018 35.3867 103.398 35.72C102.785 36.0533 102.158 36.31 101.518 36.49L100.738 35.59C101.465 35.4367 102.128 35.2067 102.728 34.9C103.328 34.5867 103.831 34.2167 104.238 33.79C104.525 33.49 104.758 33.1633 104.938 32.81C105.125 32.4567 105.261 32.1167 105.348 31.79C105.281 31.79 105.151 31.79 104.958 31.79C104.765 31.79 104.528 31.79 104.248 31.79C103.975 31.79 103.681 31.79 103.368 31.79C103.055 31.79 102.735 31.79 102.408 31.79C102.088 31.79 101.785 31.79 101.498 31.79C101.211 31.79 100.958 31.79 100.738 31.79C100.525 31.79 100.365 31.79 100.258 31.79C100.138 31.79 99.9781 31.7933 99.7781 31.8C99.5848 31.8067 99.3915 31.8167 99.1981 31.83V30.79C99.3981 30.81 99.5881 30.8267 99.7681 30.84C99.9481 30.8533 100.111 30.86 100.258 30.86C100.338 30.86 100.481 30.86 100.688 30.86C100.895 30.86 101.138 30.86 101.418 30.86C101.698 30.86 101.998 30.86 102.318 30.86C102.645 30.86 102.971 30.86 103.298 30.86C103.625 30.86 103.928 30.86 104.208 30.86C104.495 30.86 104.741 30.86 104.948 30.86C105.155 30.86 105.298 30.86 105.378 30.86C105.518 30.86 105.641 30.8533 105.748 30.84C105.861 30.82 105.951 30.7967 106.018 30.77L106.728 31.21ZM110.158 28.55C110.338 28.67 110.545 28.82 110.778 29C111.011 29.1733 111.248 29.36 111.488 29.56C111.735 29.76 111.968 29.9533 112.188 30.14C112.408 30.3267 112.585 30.4933 112.718 30.64L111.928 31.45C111.801 31.3167 111.635 31.1567 111.428 30.97C111.221 30.7767 110.998 30.58 110.758 30.38C110.525 30.1733 110.291 29.98 110.058 29.8C109.825 29.6133 109.615 29.4567 109.428 29.33L110.158 28.55ZM109.128 35.24C109.688 35.1533 110.205 35.04 110.678 34.9C111.151 34.7533 111.585 34.59 111.978 34.41C112.378 34.2233 112.738 34.0333 113.058 33.84C113.591 33.5133 114.081 33.1367 114.528 32.71C114.981 32.2833 115.378 31.8433 115.718 31.39C116.058 30.9367 116.328 30.4967 116.528 30.07L117.138 31.16C116.898 31.5933 116.601 32.0267 116.248 32.46C115.901 32.8933 115.508 33.31 115.068 33.71C114.628 34.1033 114.148 34.46 113.628 34.78C113.295 34.9867 112.928 35.1867 112.528 35.38C112.135 35.5733 111.708 35.7467 111.248 35.9C110.795 36.0533 110.311 36.1767 109.798 36.27L109.128 35.24ZM125.575 28.75C125.575 28.9233 125.635 29.07 125.755 29.19C125.875 29.31 126.022 29.37 126.195 29.37C126.369 29.37 126.515 29.31 126.635 29.19C126.762 29.07 126.825 28.9233 126.825 28.75C126.825 28.5767 126.762 28.43 126.635 28.31C126.515 28.1833 126.369 28.12 126.195 28.12C126.022 28.12 125.875 28.1833 125.755 28.31C125.635 28.43 125.575 28.5767 125.575 28.75ZM125.045 28.75C125.045 28.5367 125.095 28.3433 125.195 28.17C125.302 27.9967 125.442 27.86 125.615 27.76C125.789 27.6533 125.982 27.6 126.195 27.6C126.409 27.6 126.602 27.6533 126.775 27.76C126.949 27.86 127.089 27.9967 127.195 28.17C127.302 28.3433 127.355 28.5367 127.355 28.75C127.355 28.9633 127.302 29.1567 127.195 29.33C127.089 29.5033 126.949 29.6433 126.775 29.75C126.602 29.85 126.409 29.9 126.195 29.9C125.982 29.9 125.789 29.85 125.615 29.75C125.442 29.6433 125.302 29.5033 125.195 29.33C125.095 29.1567 125.045 28.9633 125.045 28.75ZM126.065 29.48C126.025 29.56 125.989 29.65 125.955 29.75C125.929 29.85 125.905 29.9533 125.885 30.06C125.825 30.3133 125.752 30.5967 125.665 30.91C125.585 31.2233 125.482 31.5467 125.355 31.88C125.235 32.2133 125.092 32.54 124.925 32.86C124.765 33.1733 124.585 33.4633 124.385 33.73C124.079 34.1167 123.732 34.4833 123.345 34.83C122.965 35.17 122.532 35.4767 122.045 35.75C121.559 36.0167 121.015 36.2467 120.415 36.44L119.555 35.5C120.209 35.3333 120.775 35.1333 121.255 34.9C121.735 34.6667 122.152 34.4 122.505 34.1C122.865 33.7933 123.185 33.4667 123.465 33.12C123.692 32.8267 123.889 32.5 124.055 32.14C124.229 31.78 124.369 31.42 124.475 31.06C124.589 30.6933 124.669 30.3567 124.715 30.05C124.615 30.05 124.442 30.05 124.195 30.05C123.949 30.05 123.659 30.05 123.325 30.05C122.992 30.05 122.642 30.05 122.275 30.05C121.909 30.05 121.559 30.05 121.225 30.05C120.892 30.05 120.595 30.05 120.335 30.05C120.082 30.05 119.902 30.05 119.795 30.05C119.582 30.05 119.382 30.0533 119.195 30.06C119.009 30.0667 118.849 30.0767 118.715 30.09V28.97C118.815 28.9767 118.925 28.9867 119.045 29C119.172 29.0133 119.302 29.0233 119.435 29.03C119.569 29.0367 119.689 29.04 119.795 29.04C119.889 29.04 120.035 29.04 120.235 29.04C120.442 29.04 120.682 29.04 120.955 29.04C121.229 29.04 121.515 29.04 121.815 29.04C122.122 29.04 122.425 29.04 122.725 29.04C123.032 29.04 123.315 29.04 123.575 29.04C123.842 29.04 124.069 29.04 124.255 29.04C124.449 29.04 124.579 29.04 124.645 29.04C124.732 29.04 124.832 29.0367 124.945 29.03C125.065 29.0233 125.179 29.0067 125.285 28.98L126.065 29.48Z" fill="black"/>
<path d="M25.8333 32C25.8333 33.4728 27.0272 34.6667 28.5 34.6667C29.9728 34.6667 31.1667 33.4728 31.1667 32C31.1667 30.5272 29.9728 29.3333 28.5 29.3333C27.0272 29.3333 25.8333 30.5272 25.8333 32ZM28.5 32V32.5H68V32V31.5H28.5V32Z" fill="black"/>
</svg>
