<svg width="122" height="82" viewBox="0 0 122 82" fill="none" xmlns="http://www.w3.org/2000/svg">
<path d="M19.5 1H53.5C56.81 1 59.5 3.68 59.5 6.99V75.01C59.5 78.32 56.81 81 53.5 81H19.5C16.19 81 13.5 78.32 13.5 75.01V6.99C13.5 3.68 16.19 1 19.5 1Z" fill="white"/>
<path d="M23.5 22H13.5V29H23.5V22Z" fill="#05C13F"/>
<path d="M19.5 1H53.5C56.81 1 59.5 3.68 59.5 6.99V75.01C59.5 78.32 56.81 81 53.5 81H19.5C16.19 81 13.5 78.32 13.5 75.01V6.99C13.5 3.68 16.19 1 19.5 1Z" stroke="#999999" stroke-miterlimit="10"/>
<path d="M25.52 52.9199C27.7402 52.9199 29.54 51.1336 29.54 48.9299C29.54 46.7263 27.7402 44.9399 25.52 44.9399C23.2998 44.9399 21.5 46.7263 21.5 48.9299C21.5 51.1336 23.2998 52.9199 25.52 52.9199Z" fill="#999999"/>
<path d="M47.52 52.9199C49.7402 52.9199 51.54 51.1336 51.54 48.9299C51.54 46.7263 49.7402 44.9399 47.52 44.9399C45.2998 44.9399 43.5 46.7263 43.5 48.9299C43.5 51.1336 45.2998 52.9199 47.52 52.9199Z" fill="#999999"/>
<path d="M22.5 17.48C22.78 17.48 23 17.7 23 17.98V38.95C23 39.23 22.78 39.45 22.5 39.45H14V17.48H22.5ZM22.5 16.48H13V40.45H22.5C23.33 40.45 24 39.78 24 38.95V17.98C24 17.15 23.33 16.48 22.5 16.48Z" fill="#999999"/>
<path d="M1.5 25.5H8.56" stroke="#05C13F" stroke-width="2" stroke-miterlimit="10" stroke-linecap="round"/>
<path d="M4.5293 17L9.5293 22" stroke="#05C13F" stroke-width="2" stroke-miterlimit="10" stroke-linecap="round"/>
<path d="M9.5293 29L4.5293 34" stroke="#05C13F" stroke-width="2" stroke-miterlimit="10" stroke-linecap="round"/>
<path d="M14 22.5H23.5" stroke="#999999" stroke-miterlimit="10"/>
<path d="M14 28.5H23.5" stroke="#999999" stroke-miterlimit="10"/>
<path d="M14 34.5H19.98H23.5" stroke="#999999" stroke-miterlimit="10"/>
<path d="M68.97 30V22.63H70.16L72.6 26.96L73.37 28.51H73.42C73.3867 28.1367 73.35 27.7367 73.31 27.31C73.2767 26.8833 73.26 26.47 73.26 26.07V22.63H74.37V30H73.18L70.74 25.66L69.97 24.12H69.93C69.9567 24.5 69.9867 24.8967 70.02 25.31C70.0533 25.7233 70.07 26.1333 70.07 26.54V30H68.97ZM76.3138 30V22.63H80.6638V23.61H77.4738V25.66H80.1738V26.64H77.4738V29.01H80.7738V30H76.3138ZM83.7998 30V23.61H81.6498V22.63H87.1398V23.61H84.9798V30H83.7998ZM89.7331 22.46C89.8665 22.4733 90.0165 22.4867 90.1831 22.5C90.3565 22.5067 90.5265 22.51 90.6931 22.51C90.7998 22.51 90.9831 22.51 91.2431 22.51C91.5098 22.51 91.8065 22.51 92.1331 22.51C92.4665 22.51 92.7965 22.51 93.1231 22.51C93.4565 22.51 93.7531 22.51 94.0131 22.51C94.2798 22.51 94.4698 22.51 94.5831 22.51C94.7431 22.51 94.9131 22.5067 95.0931 22.5C95.2798 22.4867 95.4365 22.4733 95.5631 22.46V23.49C95.4365 23.4767 95.2831 23.47 95.1031 23.47C94.9231 23.4633 94.7465 23.46 94.5731 23.46C94.4598 23.46 94.2731 23.46 94.0131 23.46C93.7531 23.46 93.4565 23.46 93.1231 23.46C92.7965 23.46 92.4665 23.46 92.1331 23.46C91.8065 23.46 91.5131 23.46 91.2531 23.46C90.9931 23.46 90.8065 23.46 90.6931 23.46C90.5331 23.46 90.3665 23.4633 90.1931 23.47C90.0265 23.47 89.8731 23.4767 89.7331 23.49V22.46ZM96.3531 25.21C96.3198 25.2633 96.2865 25.3233 96.2531 25.39C96.2265 25.4567 96.2065 25.5133 96.1931 25.56C96.0531 26.0467 95.8665 26.5333 95.6331 27.02C95.3998 27.5067 95.0965 27.9533 94.7231 28.36C94.2098 28.9333 93.6431 29.3867 93.0231 29.72C92.4098 30.0533 91.7831 30.31 91.1431 30.49L90.3631 29.59C91.0898 29.4367 91.7531 29.2067 92.3531 28.9C92.9531 28.5867 93.4565 28.2167 93.8631 27.79C94.1498 27.49 94.3831 27.1633 94.5631 26.81C94.7498 26.4567 94.8865 26.1167 94.9731 25.79C94.9065 25.79 94.7765 25.79 94.5831 25.79C94.3898 25.79 94.1531 25.79 93.8731 25.79C93.5998 25.79 93.3065 25.79 92.9931 25.79C92.6798 25.79 92.3598 25.79 92.0331 25.79C91.7131 25.79 91.4098 25.79 91.1231 25.79C90.8365 25.79 90.5831 25.79 90.3631 25.79C90.1498 25.79 89.9898 25.79 89.8831 25.79C89.7631 25.79 89.6031 25.7933 89.4031 25.8C89.2098 25.8067 89.0165 25.8167 88.8231 25.83V24.79C89.0231 24.81 89.2131 24.8267 89.3931 24.84C89.5731 24.8533 89.7365 24.86 89.8831 24.86C89.9631 24.86 90.1065 24.86 90.3131 24.86C90.5198 24.86 90.7631 24.86 91.0431 24.86C91.3231 24.86 91.6231 24.86 91.9431 24.86C92.2698 24.86 92.5965 24.86 92.9231 24.86C93.2498 24.86 93.5531 24.86 93.8331 24.86C94.1198 24.86 94.3665 24.86 94.5731 24.86C94.7798 24.86 94.9231 24.86 95.0031 24.86C95.1431 24.86 95.2665 24.8533 95.3731 24.84C95.4865 24.82 95.5765 24.7967 95.6431 24.77L96.3531 25.21ZM99.7831 22.55C99.9631 22.67 100.17 22.82 100.403 23C100.636 23.1733 100.873 23.36 101.113 23.56C101.36 23.76 101.593 23.9533 101.813 24.14C102.033 24.3267 102.21 24.4933 102.343 24.64L101.553 25.45C101.426 25.3167 101.26 25.1567 101.053 24.97C100.846 24.7767 100.623 24.58 100.383 24.38C100.15 24.1733 99.9165 23.98 99.6831 23.8C99.4498 23.6133 99.2398 23.4567 99.0531 23.33L99.7831 22.55ZM98.7531 29.24C99.3131 29.1533 99.8298 29.04 100.303 28.9C100.776 28.7533 101.21 28.59 101.603 28.41C102.003 28.2233 102.363 28.0333 102.683 27.84C103.216 27.5133 103.706 27.1367 104.153 26.71C104.606 26.2833 105.003 25.8433 105.343 25.39C105.683 24.9367 105.953 24.4967 106.153 24.07L106.763 25.16C106.523 25.5933 106.226 26.0267 105.873 26.46C105.526 26.8933 105.133 27.31 104.693 27.71C104.253 28.1033 103.773 28.46 103.253 28.78C102.92 28.9867 102.553 29.1867 102.153 29.38C101.76 29.5733 101.333 29.7467 100.873 29.9C100.42 30.0533 99.9365 30.1767 99.4231 30.27L98.7531 29.24ZM115.2 22.75C115.2 22.9233 115.26 23.07 115.38 23.19C115.5 23.31 115.647 23.37 115.82 23.37C115.994 23.37 116.14 23.31 116.26 23.19C116.387 23.07 116.45 22.9233 116.45 22.75C116.45 22.5767 116.387 22.43 116.26 22.31C116.14 22.1833 115.994 22.12 115.82 22.12C115.647 22.12 115.5 22.1833 115.38 22.31C115.26 22.43 115.2 22.5767 115.2 22.75ZM114.67 22.75C114.67 22.5367 114.72 22.3433 114.82 22.17C114.927 21.9967 115.067 21.86 115.24 21.76C115.414 21.6533 115.607 21.6 115.82 21.6C116.034 21.6 116.227 21.6533 116.4 21.76C116.574 21.86 116.714 21.9967 116.82 22.17C116.927 22.3433 116.98 22.5367 116.98 22.75C116.98 22.9633 116.927 23.1567 116.82 23.33C116.714 23.5033 116.574 23.6433 116.4 23.75C116.227 23.85 116.034 23.9 115.82 23.9C115.607 23.9 115.414 23.85 115.24 23.75C115.067 23.6433 114.927 23.5033 114.82 23.33C114.72 23.1567 114.67 22.9633 114.67 22.75ZM115.69 23.48C115.65 23.56 115.614 23.65 115.58 23.75C115.554 23.85 115.53 23.9533 115.51 24.06C115.45 24.3133 115.377 24.5967 115.29 24.91C115.21 25.2233 115.107 25.5467 114.98 25.88C114.86 26.2133 114.717 26.54 114.55 26.86C114.39 27.1733 114.21 27.4633 114.01 27.73C113.704 28.1167 113.357 28.4833 112.97 28.83C112.59 29.17 112.157 29.4767 111.67 29.75C111.184 30.0167 110.64 30.2467 110.04 30.44L109.18 29.5C109.834 29.3333 110.4 29.1333 110.88 28.9C111.36 28.6667 111.777 28.4 112.13 28.1C112.49 27.7933 112.81 27.4667 113.09 27.12C113.317 26.8267 113.514 26.5 113.68 26.14C113.854 25.78 113.994 25.42 114.1 25.06C114.214 24.6933 114.294 24.3567 114.34 24.05C114.24 24.05 114.067 24.05 113.82 24.05C113.574 24.05 113.284 24.05 112.95 24.05C112.617 24.05 112.267 24.05 111.9 24.05C111.534 24.05 111.184 24.05 110.85 24.05C110.517 24.05 110.22 24.05 109.96 24.05C109.707 24.05 109.527 24.05 109.42 24.05C109.207 24.05 109.007 24.0533 108.82 24.06C108.634 24.0667 108.474 24.0767 108.34 24.09V22.97C108.44 22.9767 108.55 22.9867 108.67 23C108.797 23.0133 108.927 23.0233 109.06 23.03C109.194 23.0367 109.314 23.04 109.42 23.04C109.514 23.04 109.66 23.04 109.86 23.04C110.067 23.04 110.307 23.04 110.58 23.04C110.854 23.04 111.14 23.04 111.44 23.04C111.747 23.04 112.05 23.04 112.35 23.04C112.657 23.04 112.94 23.04 113.2 23.04C113.467 23.04 113.694 23.04 113.88 23.04C114.074 23.04 114.204 23.04 114.27 23.04C114.357 23.04 114.457 23.0367 114.57 23.03C114.69 23.0233 114.804 23.0067 114.91 22.98L115.69 23.48Z" fill="black"/>
<path d="M24.8333 26C24.8333 27.4728 26.0272 28.6667 27.5 28.6667C28.9728 28.6667 30.1667 27.4728 30.1667 26C30.1667 24.5272 28.9728 23.3333 27.5 23.3333C26.0272 23.3333 24.8333 24.5272 24.8333 26ZM27.5 26V26.5H67V26V25.5H27.5V26Z" fill="black"/>
</svg>
