<svg width="115" height="82" viewBox="0 0 115 82" fill="none" xmlns="http://www.w3.org/2000/svg">
<path d="M18.5 1H52.5C55.81 1 58.5 3.68 58.5 6.99V75.01C58.5 78.32 55.81 81 52.5 81H18.5C15.19 81 12.5 78.32 12.5 75.01V6.99C12.5 3.68 15.19 1 18.5 1Z" fill="white"/>
<path d="M22 34H13V40H22V34Z" fill="#05C13F"/>
<path d="M18.5 1H52.5C55.81 1 58.5 3.68 58.5 6.99V75.01C58.5 78.32 55.81 81 52.5 81H18.5C15.19 81 12.5 78.32 12.5 75.01V6.99C12.5 3.68 15.19 1 18.5 1Z" stroke="#999999" stroke-miterlimit="10"/>
<path d="M71.1788 40.1213C70.8266 40.1213 70.5032 40.0693 70.2087 39.9654C69.92 39.8614 69.6717 39.6968 69.4638 39.4716C69.2559 39.2464 69.0943 38.9519 68.9788 38.5881C68.8633 38.2243 68.8055 37.7826 68.8055 37.2629V33.6163H69.8103V37.3235C69.8103 37.8028 69.868 38.1839 69.9835 38.4669C70.1048 38.7441 70.2665 38.9433 70.4686 39.0645C70.6765 39.18 70.9132 39.2378 71.1788 39.2378C71.4502 39.2378 71.6899 39.18 71.8978 39.0645C72.1057 38.9433 72.2702 38.7441 72.3915 38.4669C72.5128 38.1839 72.5734 37.8028 72.5734 37.3235V33.6163H73.5435V37.2629C73.5435 37.7826 73.4857 38.2243 73.3703 38.5881C73.2605 38.9519 73.1017 39.2464 72.8939 39.4716C72.686 39.6968 72.4348 39.8614 72.1403 39.9654C71.8516 40.0693 71.5311 40.1213 71.1788 40.1213ZM75.1927 40V33.6163H76.2234L78.3369 37.3668L79.0038 38.7094H79.0471C79.0183 38.386 78.9865 38.0396 78.9519 37.67C78.923 37.3004 78.9085 36.9424 78.9085 36.5959V33.6163H79.87V40H78.8392L76.7258 36.2408L76.0588 34.9069H76.0242C76.0473 35.2361 76.0733 35.5796 76.1021 35.9377C76.131 36.2957 76.1455 36.6508 76.1455 37.003V40H75.1927ZM81.5536 40V33.6163H82.5584V40H81.5536ZM85.5172 40V34.4652H83.6549V33.6163H88.4102V34.4652H86.5392V40H85.5172ZM90.6564 33.4691C90.7719 33.4806 90.9018 33.4922 91.0462 33.5037C91.1963 33.5095 91.3436 33.5124 91.4879 33.5124C91.5803 33.5124 91.7391 33.5124 91.9643 33.5124C92.1953 33.5124 92.4523 33.5124 92.7352 33.5124C93.0239 33.5124 93.3098 33.5124 93.5927 33.5124C93.8814 33.5124 94.1384 33.5124 94.3636 33.5124C94.5946 33.5124 94.7592 33.5124 94.8573 33.5124C94.9959 33.5124 95.1432 33.5095 95.2991 33.5037C95.4608 33.4922 95.5965 33.4806 95.7062 33.4691V34.3612C95.5965 34.3497 95.4636 34.3439 95.3077 34.3439C95.1518 34.3381 94.9988 34.3352 94.8487 34.3352C94.7505 34.3352 94.5888 34.3352 94.3636 34.3352C94.1384 34.3352 93.8814 34.3352 93.5927 34.3352C93.3098 34.3352 93.0239 34.3352 92.7352 34.3352C92.4523 34.3352 92.1982 34.3352 91.973 34.3352C91.7478 34.3352 91.5861 34.3352 91.4879 34.3352C91.3493 34.3352 91.205 34.3381 91.0548 34.3439C90.9105 34.3439 90.7777 34.3497 90.6564 34.3612V33.4691ZM96.3904 35.851C96.3616 35.8972 96.3327 35.9492 96.3038 36.007C96.2807 36.0647 96.2634 36.1138 96.2519 36.1542C96.1306 36.5757 95.9689 36.9973 95.7668 37.4188C95.5647 37.8403 95.302 38.2272 94.9786 38.5795C94.534 39.0761 94.0431 39.4687 93.5061 39.7575C92.9748 40.0462 92.432 40.2685 91.8777 40.4244L91.2021 39.6449C91.8315 39.5121 92.4061 39.3128 92.9258 39.0472C93.4455 38.7758 93.8814 38.4553 94.2337 38.0858C94.482 37.8259 94.6841 37.543 94.84 37.2369C95.0017 36.9309 95.1201 36.6364 95.1951 36.3534C95.1374 36.3534 95.0248 36.3534 94.8573 36.3534C94.6899 36.3534 94.4849 36.3534 94.2423 36.3534C94.0056 36.3534 93.7515 36.3534 93.4801 36.3534C93.2087 36.3534 92.9315 36.3534 92.6486 36.3534C92.3714 36.3534 92.1087 36.3534 91.8604 36.3534C91.6121 36.3534 91.3926 36.3534 91.2021 36.3534C91.0173 36.3534 90.8787 36.3534 90.7863 36.3534C90.6824 36.3534 90.5438 36.3563 90.3706 36.3621C90.2031 36.3679 90.0356 36.3765 89.8682 36.3881V35.4872C90.0414 35.5046 90.206 35.519 90.3619 35.5306C90.5178 35.5421 90.6593 35.5479 90.7863 35.5479C90.8556 35.5479 90.9798 35.5479 91.1588 35.5479C91.3378 35.5479 91.5485 35.5479 91.7911 35.5479C92.0336 35.5479 92.2935 35.5479 92.5706 35.5479C92.8536 35.5479 93.1365 35.5479 93.4195 35.5479C93.7024 35.5479 93.9652 35.5479 94.2077 35.5479C94.456 35.5479 94.6697 35.5479 94.8487 35.5479C95.0277 35.5479 95.1518 35.5479 95.2211 35.5479C95.3424 35.5479 95.4492 35.5421 95.5416 35.5306C95.6398 35.5132 95.7177 35.493 95.7755 35.4699L96.3904 35.851ZM99.3614 33.547C99.5173 33.651 99.6963 33.7809 99.8984 33.9368C100.101 34.0869 100.306 34.2486 100.513 34.4219C100.727 34.5951 100.929 34.7626 101.12 34.9242C101.31 35.0859 101.463 35.2303 101.579 35.3573L100.895 36.0589C100.785 35.9434 100.64 35.8048 100.461 35.6432C100.282 35.4757 100.089 35.3054 99.8811 35.1321C99.679 34.9531 99.4769 34.7857 99.2748 34.6297C99.0727 34.4681 98.8908 34.3324 98.7291 34.2226L99.3614 33.547ZM98.4693 39.3417C98.9543 39.2666 99.4018 39.1685 99.8118 39.0472C100.222 38.9202 100.597 38.7787 100.938 38.6228C101.284 38.4611 101.596 38.2965 101.873 38.1291C102.335 37.8461 102.76 37.5199 103.147 37.1503C103.539 36.7807 103.883 36.3996 104.177 36.007C104.472 35.6143 104.706 35.2332 104.879 34.8636L105.407 35.8077C105.199 36.1831 104.942 36.5584 104.636 36.9338C104.336 37.3091 103.995 37.67 103.614 38.0165C103.233 38.3572 102.817 38.6661 102.367 38.9433C102.078 39.1223 101.761 39.2955 101.414 39.463C101.074 39.6304 100.704 39.7806 100.306 39.9134C99.9129 40.0462 99.4942 40.153 99.0496 40.2339L98.4693 39.3417ZM112.715 33.7203C112.715 33.8704 112.767 33.9974 112.871 34.1014C112.975 34.2053 113.102 34.2573 113.252 34.2573C113.403 34.2573 113.53 34.2053 113.634 34.1014C113.743 33.9974 113.798 33.8704 113.798 33.7203C113.798 33.5701 113.743 33.4431 113.634 33.3391C113.53 33.2294 113.403 33.1746 113.252 33.1746C113.102 33.1746 112.975 33.2294 112.871 33.3391C112.767 33.4431 112.715 33.5701 112.715 33.7203ZM112.256 33.7203C112.256 33.5355 112.3 33.368 112.386 33.2179C112.479 33.0677 112.6 32.9494 112.75 32.8628C112.9 32.7704 113.068 32.7242 113.252 32.7242C113.437 32.7242 113.605 32.7704 113.755 32.8628C113.905 32.9494 114.026 33.0677 114.119 33.2179C114.211 33.368 114.257 33.5355 114.257 33.7203C114.257 33.905 114.211 34.0725 114.119 34.2226C114.026 34.3728 113.905 34.494 113.755 34.5864C113.605 34.673 113.437 34.7164 113.252 34.7164C113.068 34.7164 112.9 34.673 112.75 34.5864C112.6 34.494 112.479 34.3728 112.386 34.2226C112.3 34.0725 112.256 33.905 112.256 33.7203ZM113.14 34.3526C113.105 34.4219 113.073 34.4998 113.045 34.5864C113.021 34.673 113.001 34.7626 112.984 34.8549C112.932 35.0744 112.868 35.3198 112.793 35.5912C112.724 35.8626 112.635 36.1427 112.525 36.4314C112.421 36.7201 112.297 37.003 112.152 37.2802C112.014 37.5516 111.858 37.8028 111.685 38.0338C111.419 38.3687 111.119 38.6863 110.784 38.9866C110.455 39.2811 110.079 39.5467 109.658 39.7835C109.236 40.0144 108.766 40.2137 108.246 40.3811L107.501 39.5669C108.067 39.4226 108.558 39.2493 108.974 39.0472C109.389 38.8451 109.75 38.6141 110.056 38.3543C110.368 38.0886 110.645 37.8057 110.888 37.5054C111.084 37.2514 111.254 36.9684 111.399 36.6566C111.549 36.3448 111.67 36.0329 111.763 35.7211C111.861 35.4035 111.93 35.1119 111.97 34.8463C111.884 34.8463 111.734 34.8463 111.52 34.8463C111.306 34.8463 111.055 34.8463 110.767 34.8463C110.478 34.8463 110.175 34.8463 109.857 34.8463C109.539 34.8463 109.236 34.8463 108.948 34.8463C108.659 34.8463 108.402 34.8463 108.177 34.8463C107.957 34.8463 107.801 34.8463 107.709 34.8463C107.524 34.8463 107.351 34.8492 107.189 34.8549C107.028 34.8607 106.889 34.8694 106.773 34.8809V33.9108C106.86 33.9166 106.955 33.9253 107.059 33.9368C107.169 33.9484 107.282 33.957 107.397 33.9628C107.513 33.9686 107.617 33.9715 107.709 33.9715C107.79 33.9715 107.917 33.9715 108.09 33.9715C108.269 33.9715 108.477 33.9715 108.714 33.9715C108.95 33.9715 109.199 33.9715 109.459 33.9715C109.724 33.9715 109.987 33.9715 110.247 33.9715C110.512 33.9715 110.758 33.9715 110.983 33.9715C111.214 33.9715 111.41 33.9715 111.572 33.9715C111.74 33.9715 111.852 33.9715 111.91 33.9715C111.985 33.9715 112.072 33.9686 112.17 33.9628C112.274 33.957 112.372 33.9426 112.464 33.9195L113.14 34.3526Z" fill="black"/>
<path d="M24.52 52.9199C26.7402 52.9199 28.54 51.1336 28.54 48.9299C28.54 46.7263 26.7402 44.9399 24.52 44.9399C22.2998 44.9399 20.5 46.7263 20.5 48.9299C20.5 51.1336 22.2998 52.9199 24.52 52.9199Z" fill="#999999"/>
<path d="M46.52 52.9199C48.7402 52.9199 50.54 51.1336 50.54 48.9299C50.54 46.7263 48.7402 44.9399 46.52 44.9399C44.2998 44.9399 42.5 46.7263 42.5 48.9299C42.5 51.1336 44.2998 52.9199 46.52 52.9199Z" fill="#999999"/>
<path d="M21.5 17.48C21.78 17.48 22 17.7 22 17.98V38.95C22 39.23 21.78 39.45 21.5 39.45H13V17.48H21.5ZM21.5 16.48H12V40.45H21.5C22.33 40.45 23 39.78 23 38.95V17.98C23 17.15 22.33 16.48 21.5 16.48Z" fill="#999999"/>
<path d="M1 37.5H8.06" stroke="#05C13F" stroke-width="2" stroke-miterlimit="10" stroke-linecap="round"/>
<path d="M4.0293 29L9.0293 34" stroke="#05C13F" stroke-width="2" stroke-miterlimit="10" stroke-linecap="round"/>
<path d="M9.0293 41L4.0293 46" stroke="#05C13F" stroke-width="2" stroke-miterlimit="10" stroke-linecap="round"/>
<path d="M13 22.5H22.5" stroke="#999999" stroke-miterlimit="10"/>
<path d="M13 28.5H22.5" stroke="#999999" stroke-miterlimit="10"/>
<path d="M13 34.5H18.98H22.5" stroke="#999999" stroke-miterlimit="10"/>
<path d="M24.8333 37C24.8333 38.4728 26.0272 39.6667 27.5 39.6667C28.9728 39.6667 30.1667 38.4728 30.1667 37C30.1667 35.5272 28.9728 34.3333 27.5 34.3333C26.0272 34.3333 24.8333 35.5272 24.8333 37ZM27.5 37V37.5H67V37V36.5H27.5V37Z" fill="black"/>
</svg>
