<svg width="20" height="20" viewBox="0 0 20 20" fill="none" xmlns="http://www.w3.org/2000/svg">
<mask id="path-1-inside-1_296_3298" fill="white">
<path d="M1 7.04883C1 6.49654 1.44772 6.04883 2 6.04883H5V14.0488H2C1.44772 14.0488 1 13.6011 1 13.0488V7.04883Z"/>
</mask>
<path d="M1 7.04883C1 6.49654 1.44772 6.04883 2 6.04883H5V14.0488H2C1.44772 14.0488 1 13.6011 1 13.0488V7.04883Z" stroke="#4C6EE8" stroke-width="4" mask="url(#path-1-inside-1_296_3298)"/>
<path fill-rule="evenodd" clip-rule="evenodd" d="M6 6.57156L10.4077 3.25408C11.0668 2.75807 12.0091 3.22824 12.0091 4.05307V16.0441C12.0091 16.869 11.0666 17.3391 10.4076 16.8429L6 13.5242V6.57156Z" stroke="#4C6EE8" stroke-width="2"/>
<path d="M14 7.04883C14 7.04883 16 7.84045 16 9.99999C16 12.1595 14 13.0488 14 13.0488" stroke="#4C6EE8"/>
<path d="M16 5.04883C16 5.04883 19 6.3682 19 9.96744C19 13.5667 16 15.0488 16 15.0488" stroke="#4C6EE8"/>
</svg>
