<svg xmlns="http://www.w3.org/2000/svg" viewBox="0 0 300 40" width="100%">
  <path d="M -33.333333333333336 15 Q -25 15 -16.67 10 Q 0 0 16.67 10 Q 25 15 33.33 15 Q 41.67 15 50 10 Q 66.67 0 83.33 10 Q 91.67 15 100 15 Q 108.33 15 116.67 10 Q 133.33 0 150 10 Q 158.33 15 166.67 15 Q 175 15 183.33 10 Q 200 0 216.67 10 Q 225 15 233.33 15 Q 241.67 15 250 10 Q 266.67 0 283.33 10 Q 291.67 15 300 15 Q 308.33 15 316.67 10 Q 333.33 0 350 10 Q 358.33 15 366.67 15" fill="none" stroke="#cccccc" stroke-width="10" transform="translate(0, 10)"></path>
</svg>