<svg width="319" height="98" viewBox="0 0 319 98" fill="none" xmlns="http://www.w3.org/2000/svg">
<path d="M102 3.5H73C71.6193 3.5 70.5 4.61929 70.5 6V92C70.5 93.3807 71.6193 94.5 73 94.5H102C103.381 94.5 104.5 93.3807 104.5 92V6C104.5 4.61929 103.381 3.5 102 3.5Z" fill="white"/>
<path d="M102 4C103.1 4 104 4.9 104 6V92C104 93.1 103.1 94 102 94H73C71.9 94 71 93.1 71 92V6C71 4.9 71.9 4 73 4H102ZM102 3H73C71.35 3 70 4.35 70 6V92C70 93.65 71.35 95 73 95H102C103.65 95 105 93.65 105 92V6C105 4.35 103.65 3 102 3Z" fill="#999999"/>
<path d="M100 9H75V43H100V9Z" fill="#CCCCCC"/>
<path d="M82.4 47H78C76.3431 47 75 48.3431 75 50C75 51.6569 76.3431 53 78 53H82.4C84.0569 53 85.4 51.6569 85.4 50C85.4 48.3431 84.0569 47 82.4 47Z" fill="#CCCCCC"/>
<path d="M97.0001 47H92.6001C90.9432 47 89.6001 48.3431 89.6001 50C89.6001 51.6569 90.9432 53 92.6001 53H97.0001C98.657 53 100 51.6569 100 50C100 48.3431 98.657 47 97.0001 47Z" fill="#CCCCCC"/>
<path d="M79.4 86H77C75.8954 86 75 86.8954 75 88C75 89.1046 75.8954 90 77 90H79.4C80.5046 90 81.4 89.1046 81.4 88C81.4 86.8954 80.5046 86 79.4 86Z" fill="#CCCCCC"/>
<path d="M98.0001 86H95.6001C94.4955 86 93.6001 86.8954 93.6001 88C93.6001 89.1046 94.4955 90 95.6001 90H98.0001C99.1047 90 100 89.1046 100 88C100 86.8954 99.1047 86 98.0001 86Z" fill="#CCCCCC"/>
<path d="M88.6998 86H86.2998C85.1952 86 84.2998 86.8954 84.2998 88C84.2998 89.1046 85.1952 90 86.2998 90H88.6998C89.8044 90 90.6998 89.1046 90.6998 88C90.6998 86.8954 89.8044 86 88.6998 86Z" fill="#CCCCCC"/>
<path d="M87.5002 62.86C83.7402 62.86 80.7002 65.9 80.7002 69.66C80.7002 73.42 83.7402 76.46 87.5002 76.46C91.2602 76.46 94.3002 73.42 94.3002 69.66C94.3002 65.9 91.2602 62.86 87.5002 62.86ZM87.5002 72.74C85.9502 72.74 84.7002 71.42 84.7002 69.8C84.7002 68.18 85.9502 66.86 87.5002 66.86C89.0502 66.86 90.3002 68.18 90.3002 69.8C90.3002 71.42 89.0502 72.74 87.5002 72.74Z" fill="#CCCCCC"/>
<path d="M78.2 63.66C79.9673 63.66 81.4 62.2273 81.4 60.46C81.4 58.6927 79.9673 57.26 78.2 57.26C76.4327 57.26 75 58.6927 75 60.46C75 62.2273 76.4327 63.66 78.2 63.66Z" fill="#999999"/>
<path d="M96.5101 63.66C98.2774 63.66 99.7101 62.2273 99.7101 60.46C99.7101 58.6927 98.2774 57.26 96.5101 57.26C94.7428 57.26 93.3101 58.6927 93.3101 60.46C93.3101 62.2273 94.7428 63.66 96.5101 63.66Z" fill="#CCCCCC"/>
<path d="M78.2 82.06C79.9673 82.06 81.4 80.6273 81.4 78.86C81.4 77.0927 79.9673 75.66 78.2 75.66C76.4327 75.66 75 77.0927 75 78.86C75 80.6273 76.4327 82.06 78.2 82.06Z" fill="#CCCCCC"/>
<path d="M96.8499 82.06C98.6172 82.06 100.05 80.6273 100.05 78.86C100.05 77.0927 98.6172 75.66 96.8499 75.66C95.0826 75.66 93.6499 77.0927 93.6499 78.86C93.6499 80.6273 95.0826 82.06 96.8499 82.06Z" fill="#CCCCCC"/>
<mask id="path-14-inside-1_205_2509" fill="white">
<path d="M243 10C246.314 10 249 12.6863 249 16V82C249 85.3137 246.314 88 243 88H153C149.686 88 147 85.3137 147 82V66L79 60L147 54V16C147 12.6863 149.686 10 153 10H243Z"/>
</mask>
<path d="M243 10C246.314 10 249 12.6863 249 16V82C249 85.3137 246.314 88 243 88H153C149.686 88 147 85.3137 147 82V66L79 60L147 54V16C147 12.6863 149.686 10 153 10H243Z" fill="white"/>
<path d="M249 16H250H249ZM243 88V89V88ZM147 82H146H147ZM147 66H148V65.0844L147.088 65.0039L147 66ZM79 60L78.9121 59.0039V60.9961L79 60ZM147 54L147.088 54.9961L148 54.9156V54H147ZM153 10V9V10ZM243 10V11C245.761 11 248 13.2386 248 16H249H250C250 12.134 246.866 9 243 9V10ZM249 16H248V82H249H250V16H249ZM249 82H248C248 84.7614 245.761 87 243 87V88V89C246.866 89 250 85.866 250 82H249ZM243 88V87H153V88V89H243V88ZM153 88V87C150.239 87 148 84.7614 148 82H147H146C146 85.866 149.134 89 153 89V88ZM147 82H148V66H147H146V82H147ZM147 66L147.088 65.0039L79.0879 59.0039L79 60L78.9121 60.9961L146.912 66.9961L147 66ZM79 60L79.0879 60.9961L147.088 54.9961L147 54L146.912 53.0039L78.9121 59.0039L79 60ZM147 54H148V16H147H146V54H147ZM147 16H148C148 13.2386 150.239 11 153 11V10V9C149.134 9 146 12.134 146 16H147ZM153 10V11H243V10V9H153V10Z" fill="#999999" mask="url(#path-14-inside-1_205_2509)"/>
<path d="M179.806 48.033C180.56 46.824 180.937 45.914 181.314 44.445C181.431 44.003 181.47 43.873 181.574 43.717C181.704 43.509 181.964 43.379 182.276 43.379C182.835 43.379 183.251 43.73 183.251 44.185C183.251 44.523 183.069 45.251 182.744 46.148C182.354 47.24 181.99 47.916 181.158 49.216C183.316 51.127 183.381 51.205 183.381 51.712C183.381 52.284 182.952 52.726 182.419 52.726C182.198 52.726 182.029 52.661 181.847 52.492C181.626 52.297 181.327 51.985 180.937 51.595C180.742 51.387 180.43 51.088 180.027 50.698C178.779 52.115 177.726 53.038 176.322 53.935C175.399 54.52 174.853 54.767 174.502 54.767C173.943 54.767 173.579 54.377 173.579 53.805C173.579 53.376 173.735 53.168 174.203 52.921C176.439 51.738 177.531 50.919 178.688 49.528C177.856 48.852 177.453 48.553 176.686 48.059C175.919 47.565 175.815 47.5 175.698 47.383C175.529 47.227 175.438 47.032 175.438 46.759C175.438 46.252 175.828 45.849 176.322 45.849C176.777 45.849 177.83 46.512 179.806 48.033ZM187.151 52.219H196.849C197.278 52.219 197.473 52.284 197.668 52.479C197.837 52.648 197.928 52.882 197.928 53.116C197.928 53.35 197.837 53.571 197.668 53.74C197.473 53.935 197.278 54 196.849 54H187.151C186.722 54 186.514 53.935 186.319 53.74C186.15 53.571 186.059 53.35 186.059 53.116C186.059 52.882 186.15 52.648 186.319 52.479C186.514 52.284 186.722 52.219 187.151 52.219ZM188.191 44.12H195.809C196.238 44.12 196.433 44.185 196.628 44.38C196.797 44.549 196.888 44.77 196.888 45.004C196.888 45.238 196.797 45.472 196.628 45.641C196.433 45.836 196.238 45.901 195.809 45.901H188.191C187.762 45.901 187.554 45.836 187.359 45.641C187.19 45.472 187.099 45.238 187.099 45.004C187.099 44.77 187.19 44.549 187.359 44.38C187.554 44.185 187.762 44.12 188.191 44.12ZM205.754 52.531L206.196 48.111V47.968C206.196 47.877 206.157 47.851 206.027 47.851H202.14C201.516 47.851 201.204 47.604 201.204 47.11C201.204 46.616 201.516 46.369 202.14 46.369H206.651C207.184 46.369 207.431 46.447 207.652 46.694C207.821 46.863 207.912 47.097 207.912 47.331C207.912 47.422 207.886 47.669 207.86 47.994L207.379 52.531H208.536C209.173 52.531 209.472 52.765 209.472 53.259C209.472 53.766 209.173 54 208.536 54H201.451C200.827 54 200.515 53.766 200.515 53.259C200.515 52.765 200.827 52.531 201.451 52.531H205.754ZM213.32 48.176H222.667C223.07 48.176 223.252 48.241 223.434 48.436C223.59 48.605 223.668 48.826 223.668 49.06C223.668 49.294 223.59 49.515 223.434 49.684C223.252 49.879 223.07 49.944 222.667 49.944H213.32C212.93 49.944 212.735 49.879 212.553 49.684C212.41 49.515 212.319 49.294 212.319 49.06C212.319 48.826 212.41 48.605 212.553 48.436C212.735 48.241 212.93 48.176 213.32 48.176Z" fill="#646464"/>
<path d="M198 82C216.225 82 231 67.2254 231 49C231 30.7746 216.225 16 198 16C179.775 16 165 30.7746 165 49C165 67.2254 179.775 82 198 82Z" stroke="#999999" stroke-miterlimit="10"/>
</svg>
