<svg width="319" height="98" viewBox="0 0 319 98" fill="none" xmlns="http://www.w3.org/2000/svg">
<path d="M102 3.5H73C71.6193 3.5 70.5 4.61929 70.5 6V92C70.5 93.3807 71.6193 94.5 73 94.5H102C103.381 94.5 104.5 93.3807 104.5 92V6C104.5 4.61929 103.381 3.5 102 3.5Z" fill="white"/>
<path d="M102 4C103.1 4 104 4.9 104 6V92C104 93.1 103.1 94 102 94H73C71.9 94 71 93.1 71 92V6C71 4.9 71.9 4 73 4H102ZM102 3H73C71.35 3 70 4.35 70 6V92C70 93.65 71.35 95 73 95H102C103.65 95 105 93.65 105 92V6C105 4.35 103.65 3 102 3Z" fill="#999999"/>
<path d="M100 9H75V43H100V9Z" fill="#CCCCCC"/>
<path d="M83 58H78C76.3431 58 75 59.3431 75 61C75 62.6569 76.3431 64 78 64H83C84.6569 64 86 62.6569 86 61C86 59.3431 84.6569 58 83 58Z" fill="#CCCCCC"/>
<path d="M96.5 58H91.5C89.8431 58 88.5 59.3431 88.5 61C88.5 62.6569 89.8431 64 91.5 64H96.5C98.1569 64 99.5 62.6569 99.5 61C99.5 59.3431 98.1569 58 96.5 58Z" fill="#CCCCCC"/>
<path d="M83 69H78C76.3431 69 75 70.3431 75 72C75 73.6569 76.3431 75 78 75H83C84.6569 75 86 73.6569 86 72C86 70.3431 84.6569 69 83 69Z" fill="#CCCCCC"/>
<path d="M96.5 69H91.5C89.8431 69 88.5 70.3431 88.5 72C88.5 73.6569 89.8431 75 91.5 75H96.5C98.1569 75 99.5 73.6569 99.5 72C99.5 70.3431 98.1569 69 96.5 69Z" fill="#CCCCCC"/>
<path d="M83 80H78C76.3431 80 75 81.3431 75 83C75 84.6569 76.3431 86 78 86H83C84.6569 86 86 84.6569 86 83C86 81.3431 84.6569 80 83 80Z" fill="#CCCCCC"/>
<path d="M96.5 80H91.5C89.8431 80 88.5 81.3431 88.5 83C88.5 84.6569 89.8431 86 91.5 86H96.5C98.1569 86 99.5 84.6569 99.5 83C99.5 81.3431 98.1569 80 96.5 80Z" fill="#CCCCCC"/>
<mask id="path-10-inside-1_205_2545" fill="white">
<path d="M243 10C246.314 10 249 12.6863 249 16V82C249 85.3137 246.314 88 243 88H153C149.686 88 147 85.3137 147 82V62L87 50H147V16C147 12.6863 149.686 10 153 10H243Z"/>
</mask>
<path d="M243 10C246.314 10 249 12.6863 249 16V82C249 85.3137 246.314 88 243 88H153C149.686 88 147 85.3137 147 82V62L87 50H147V16C147 12.6863 149.686 10 153 10H243Z" fill="white"/>
<path d="M249 16H250H249ZM243 88V89V88ZM147 82H146H147ZM147 62H148V61.1802L147.196 61.0194L147 62ZM87 50V49L86.8039 50.9806L87 50ZM147 50V51H148V50H147ZM153 10V9V10ZM243 10V11C245.761 11 248 13.2386 248 16H249H250C250 12.134 246.866 9 243 9V10ZM249 16H248V82H249H250V16H249ZM249 82H248C248 84.7614 245.761 87 243 87V88V89C246.866 89 250 85.866 250 82H249ZM243 88V87H153V88V89H243V88ZM153 88V87C150.239 87 148 84.7614 148 82H147H146C146 85.866 149.134 89 153 89V88ZM147 82H148V62H147H146V82H147ZM147 62L147.196 61.0194L87.1961 49.0194L87 50L86.8039 50.9806L146.804 62.9806L147 62ZM87 50V51H147V50V49H87V50ZM147 50H148V16H147H146V50H147ZM147 16H148C148 13.2386 150.239 11 153 11V10V9C149.134 9 146 12.134 146 16H147ZM153 10V11H243V10V9H153V10Z" fill="#999999" mask="url(#path-10-inside-1_205_2545)"/>
<path opacity="0.2" d="M179.806 48.033C180.56 46.824 180.937 45.914 181.314 44.445C181.431 44.003 181.47 43.873 181.574 43.717C181.704 43.509 181.964 43.379 182.276 43.379C182.835 43.379 183.251 43.73 183.251 44.185C183.251 44.523 183.069 45.251 182.744 46.148C182.354 47.24 181.99 47.916 181.158 49.216C183.316 51.127 183.381 51.205 183.381 51.712C183.381 52.284 182.952 52.726 182.419 52.726C182.198 52.726 182.029 52.661 181.847 52.492C181.626 52.297 181.327 51.985 180.937 51.595C180.742 51.387 180.43 51.088 180.027 50.698C178.779 52.115 177.726 53.038 176.322 53.935C175.399 54.52 174.853 54.767 174.502 54.767C173.943 54.767 173.579 54.377 173.579 53.805C173.579 53.376 173.735 53.168 174.203 52.921C176.439 51.738 177.531 50.919 178.688 49.528C177.856 48.852 177.453 48.553 176.686 48.059C175.919 47.565 175.815 47.5 175.698 47.383C175.529 47.227 175.438 47.032 175.438 46.759C175.438 46.252 175.828 45.849 176.322 45.849C176.777 45.849 177.83 46.512 179.806 48.033ZM187.151 52.219H196.849C197.278 52.219 197.473 52.284 197.668 52.479C197.837 52.648 197.928 52.882 197.928 53.116C197.928 53.35 197.837 53.571 197.668 53.74C197.473 53.935 197.278 54 196.849 54H187.151C186.722 54 186.514 53.935 186.319 53.74C186.15 53.571 186.059 53.35 186.059 53.116C186.059 52.882 186.15 52.648 186.319 52.479C186.514 52.284 186.722 52.219 187.151 52.219ZM188.191 44.12H195.809C196.238 44.12 196.433 44.185 196.628 44.38C196.797 44.549 196.888 44.77 196.888 45.004C196.888 45.238 196.797 45.472 196.628 45.641C196.433 45.836 196.238 45.901 195.809 45.901H188.191C187.762 45.901 187.554 45.836 187.359 45.641C187.19 45.472 187.099 45.238 187.099 45.004C187.099 44.77 187.19 44.549 187.359 44.38C187.554 44.185 187.762 44.12 188.191 44.12ZM205.754 52.531L206.196 48.111V47.968C206.196 47.877 206.157 47.851 206.027 47.851H202.14C201.516 47.851 201.204 47.604 201.204 47.11C201.204 46.616 201.516 46.369 202.14 46.369H206.651C207.184 46.369 207.431 46.447 207.652 46.694C207.821 46.863 207.912 47.097 207.912 47.331C207.912 47.422 207.886 47.669 207.86 47.994L207.379 52.531H208.536C209.173 52.531 209.472 52.765 209.472 53.259C209.472 53.766 209.173 54 208.536 54H201.451C200.827 54 200.515 53.766 200.515 53.259C200.515 52.765 200.827 52.531 201.451 52.531H205.754ZM213.32 48.176H222.667C223.07 48.176 223.252 48.241 223.434 48.436C223.59 48.605 223.668 48.826 223.668 49.06C223.668 49.294 223.59 49.515 223.434 49.684C223.252 49.879 223.07 49.944 222.667 49.944H213.32C212.93 49.944 212.735 49.879 212.553 49.684C212.41 49.515 212.319 49.294 212.319 49.06C212.319 48.826 212.41 48.605 212.553 48.436C212.735 48.241 212.93 48.176 213.32 48.176Z" fill="#646464"/>
<path opacity="0.2" d="M198 82C216.225 82 231 67.2254 231 49C231 30.7746 216.225 16 198 16C179.775 16 165 30.7746 165 49C165 67.2254 179.775 82 198 82Z" stroke="#999999" stroke-width="2" stroke-miterlimit="10" stroke-linecap="round" stroke-linejoin="round" stroke-dasharray="8 11"/>
</svg>
