<svg width="319" height="161" viewBox="0 0 319 161" fill="none" xmlns="http://www.w3.org/2000/svg">
<path d="M137 20.5H108C106.619 20.5 105.5 21.6193 105.5 23V109C105.5 110.381 106.619 111.5 108 111.5H137C138.381 111.5 139.5 110.381 139.5 109V23C139.5 21.6193 138.381 20.5 137 20.5Z" fill="white"/>
<path d="M137 21C138.1 21 139 21.9 139 23V109C139 110.1 138.1 111 137 111H108C106.9 111 106 110.1 106 109V23C106 21.9 106.9 21 108 21H137ZM137 20H108C106.35 20 105 21.35 105 23V109C105 110.65 106.35 112 108 112H137C138.65 112 140 110.65 140 109V23C140 21.35 138.65 20 137 20Z" fill="#999999"/>
<path d="M135 26H110V60H135V26Z" fill="#CCCCCC"/>
<path d="M117.4 64H113C111.343 64 110 65.3431 110 67C110 68.6569 111.343 70 113 70H117.4C119.057 70 120.4 68.6569 120.4 67C120.4 65.3431 119.057 64 117.4 64Z" fill="#CCCCCC"/>
<path d="M132 64H127.6C125.943 64 124.6 65.3431 124.6 67C124.6 68.6569 125.943 70 127.6 70H132C133.657 70 135 68.6569 135 67C135 65.3431 133.657 64 132 64Z" fill="#FFC000"/>
<path d="M114.4 103H112C110.895 103 110 103.895 110 105C110 106.105 110.895 107 112 107H114.4C115.505 107 116.4 106.105 116.4 105C116.4 103.895 115.505 103 114.4 103Z" fill="#CCCCCC"/>
<path d="M133 103H130.6C129.496 103 128.6 103.895 128.6 105C128.6 106.105 129.496 107 130.6 107H133C134.105 107 135 106.105 135 105C135 103.895 134.105 103 133 103Z" fill="#CCCCCC"/>
<path d="M123.7 103H121.3C120.195 103 119.3 103.895 119.3 105C119.3 106.105 120.195 107 121.3 107H123.7C124.804 107 125.7 106.105 125.7 105C125.7 103.895 124.804 103 123.7 103Z" fill="#CCCCCC"/>
<path d="M122.5 79.86C118.74 79.86 115.7 82.9 115.7 86.66C115.7 90.42 118.74 93.46 122.5 93.46C126.26 93.46 129.3 90.42 129.3 86.66C129.3 82.9 126.26 79.86 122.5 79.86ZM122.5 89.74C120.95 89.74 119.7 88.42 119.7 86.8C119.7 85.18 120.95 83.86 122.5 83.86C124.05 83.86 125.3 85.18 125.3 86.8C125.3 88.42 124.05 89.74 122.5 89.74Z" fill="#CCCCCC"/>
<path d="M113.2 80.66C114.967 80.66 116.4 79.2273 116.4 77.46C116.4 75.6927 114.967 74.26 113.2 74.26C111.433 74.26 110 75.6927 110 77.46C110 79.2273 111.433 80.66 113.2 80.66Z" fill="#CCCCCC"/>
<path d="M131.51 80.66C133.277 80.66 134.71 79.2273 134.71 77.46C134.71 75.6927 133.277 74.26 131.51 74.26C129.743 74.26 128.31 75.6927 128.31 77.46C128.31 79.2273 129.743 80.66 131.51 80.66Z" fill="#CCCCCC"/>
<path d="M113.2 99.06C114.967 99.06 116.4 97.6273 116.4 95.86C116.4 94.0927 114.967 92.66 113.2 92.66C111.433 92.66 110 94.0927 110 95.86C110 97.6273 111.433 99.06 113.2 99.06Z" fill="#CCCCCC"/>
<path d="M131.85 99.06C133.617 99.06 135.05 97.6273 135.05 95.86C135.05 94.0927 133.617 92.66 131.85 92.66C130.083 92.66 128.65 94.0927 128.65 95.86C128.65 97.6273 130.083 99.06 131.85 99.06Z" fill="#CCCCCC"/>
<path d="M94 20.5H65C63.6193 20.5 62.5 21.6193 62.5 23V109C62.5 110.381 63.6193 111.5 65 111.5H94C95.3807 111.5 96.5 110.381 96.5 109V23C96.5 21.6193 95.3807 20.5 94 20.5Z" fill="white"/>
<path d="M94 21C95.1 21 96 21.9 96 23V109C96 110.1 95.1 111 94 111H65C63.9 111 63 110.1 63 109V23C63 21.9 63.9 21 65 21H94ZM94 20H65C63.35 20 62 21.35 62 23V109C62 110.65 63.35 112 65 112H94C95.65 112 97 110.65 97 109V23C97 21.35 95.65 20 94 20Z" fill="#999999"/>
<path d="M92 26H67V60H92V26Z" fill="#CCCCCC"/>
<path d="M75 64H69C67.8954 64 67 64.8954 67 66V75C67 76.1046 67.8954 77 69 77H75C76.1046 77 77 76.1046 77 75V66C77 64.8954 76.1046 64 75 64Z" fill="#CCCCCC"/>
<path d="M75 79H69C67.8954 79 67 79.8954 67 81V90C67 91.1046 67.8954 92 69 92H75C76.1046 92 77 91.1046 77 90V81C77 79.8954 76.1046 79 75 79Z" fill="#CCCCCC"/>
<path d="M75 94H69C67.8954 94 67 94.8954 67 96V105C67 106.105 67.8954 107 69 107H75C76.1046 107 77 106.105 77 105V96C77 94.8954 76.1046 94 75 94Z" fill="#CCCCCC"/>
<path d="M90 64H84C82.8954 64 82 64.8954 82 66V75C82 76.1046 82.8954 77 84 77H90C91.1046 77 92 76.1046 92 75V66C92 64.8954 91.1046 64 90 64Z" fill="#FFC000"/>
<path d="M90 79H84C82.8954 79 82 79.8954 82 81V90C82 91.1046 82.8954 92 84 92H90C91.1046 92 92 91.1046 92 90V81C92 79.8954 91.1046 79 90 79Z" fill="#CCCCCC"/>
<path d="M90 94H84C82.8954 94 82 94.8954 82 96V105C82 106.105 82.8954 107 84 107H90C91.1046 107 92 106.105 92 105V96C92 94.8954 91.1046 94 90 94Z" fill="#CCCCCC"/>
<mask id="path-23-inside-1_41_1504" fill="white">
<path d="M263 29C266.314 29 269 31.6863 269 35V101C269 104.314 266.314 107 263 107H173C169.686 107 167 104.314 167 101V72H145L167 60V35C167 31.6863 169.686 29 173 29H263Z"/>
</mask>
<path d="M263 29C266.314 29 269 31.6863 269 35V101C269 104.314 266.314 107 263 107H173C169.686 107 167 104.314 167 101V72H145L167 60V35C167 31.6863 169.686 29 173 29H263Z" fill="white"/>
<path d="M269 35H270H269ZM263 107V108V107ZM167 101H166H167ZM167 72H168V71H167V72ZM145 72L144.521 71.1221L145 73V72ZM167 60L167.479 60.8779L168 60.5936V60H167ZM173 29V28V29ZM263 29V30C265.761 30 268 32.2386 268 35H269H270C270 31.134 266.866 28 263 28V29ZM269 35H268V101H269H270V35H269ZM269 101H268C268 103.761 265.761 106 263 106V107V108C266.866 108 270 104.866 270 101H269ZM263 107V106H173V107V108H263V107ZM173 107V106C170.239 106 168 103.761 168 101H167H166C166 104.866 169.134 108 173 108V107ZM167 101H168V72H167H166V101H167ZM167 72V71H145V72V73H167V72ZM145 72L145.479 72.8779L167.479 60.8779L167 60L166.521 59.1221L144.521 71.1221L145 72ZM167 60H168V35H167H166V60H167ZM167 35H168C168 32.2386 170.239 30 173 30V29V28C169.134 28 166 31.134 166 35H167ZM173 29V30H263V29V28H173V29Z" fill="#999999" mask="url(#path-23-inside-1_41_1504)"/>
<path d="M183.226 58.52H199.336V59.726H183.226V58.52ZM187.132 53.264H197.014V54.362H187.132V53.264ZM187.132 55.856H197.014V56.954H187.132V55.856ZM184.09 65.072C184.774 64.976 185.572 64.856 186.484 64.712C187.408 64.556 188.386 64.394 189.418 64.226C190.45 64.046 191.482 63.872 192.514 63.704L192.568 64.91C191.608 65.078 190.636 65.246 189.652 65.414C188.68 65.594 187.744 65.756 186.844 65.9C185.956 66.056 185.146 66.2 184.414 66.332L184.09 65.072ZM191.344 58.844C191.992 60.536 193.012 61.934 194.404 63.038C195.796 64.142 197.536 64.892 199.624 65.288C199.528 65.384 199.426 65.498 199.318 65.63C199.21 65.774 199.108 65.918 199.012 66.062C198.916 66.218 198.832 66.362 198.76 66.494C197.32 66.146 196.042 65.648 194.926 65C193.81 64.34 192.85 63.524 192.046 62.552C191.254 61.58 190.612 60.452 190.12 59.168L191.344 58.844ZM197.428 59.87L198.526 60.626C198.082 60.95 197.59 61.28 197.05 61.616C196.522 61.94 195.988 62.252 195.448 62.552C194.92 62.84 194.422 63.098 193.954 63.326L193.036 62.624C193.504 62.384 194.002 62.108 194.53 61.796C195.07 61.484 195.598 61.16 196.114 60.824C196.63 60.488 197.068 60.17 197.428 59.87ZM186.394 50.6H197.572V51.752H187.78V59.024H186.394V50.6ZM186.394 58.898H187.78V65.072L186.394 65.234V58.898ZM207.544 50.978H217.012V61.148H215.662V52.238H208.858V61.202H207.544V50.978ZM208.336 54.938H216.202V56.18H208.336V54.938ZM208.336 58.952H216.202V60.212H208.336V58.952ZM211.594 51.446H212.872V66.422H211.594V51.446ZM200.956 59.402C201.7 59.222 202.57 58.994 203.566 58.718C204.574 58.442 205.594 58.154 206.626 57.854L206.806 59.078C205.858 59.378 204.904 59.672 203.944 59.96C202.996 60.236 202.132 60.488 201.352 60.716L200.956 59.402ZM201.19 53.516H206.698V54.794H201.19V53.516ZM203.404 49.88H204.718V64.784C204.718 65.144 204.67 65.426 204.574 65.63C204.478 65.834 204.316 65.984 204.088 66.08C203.86 66.188 203.56 66.254 203.188 66.278C202.828 66.302 202.366 66.314 201.802 66.314C201.778 66.158 201.724 65.96 201.64 65.72C201.568 65.48 201.49 65.276 201.406 65.108C201.79 65.12 202.138 65.12 202.45 65.108C202.774 65.108 202.99 65.108 203.098 65.108C203.218 65.108 203.296 65.084 203.332 65.036C203.38 64.988 203.404 64.904 203.404 64.784V49.88ZM224.392 50.978C224.344 51.278 224.308 51.584 224.284 51.896C224.26 52.196 224.242 52.496 224.23 52.796C224.206 53.3 224.182 53.924 224.158 54.668C224.134 55.412 224.11 56.204 224.086 57.044C224.062 57.872 224.044 58.7 224.032 59.528C224.02 60.356 224.014 61.1 224.014 61.76C224.014 62.42 224.14 62.948 224.392 63.344C224.644 63.74 224.992 64.022 225.436 64.19C225.88 64.358 226.39 64.442 226.966 64.442C227.782 64.442 228.52 64.34 229.18 64.136C229.84 63.92 230.428 63.638 230.944 63.29C231.46 62.93 231.916 62.528 232.312 62.084C232.72 61.64 233.086 61.184 233.41 60.716L234.436 61.94C234.124 62.372 233.74 62.822 233.284 63.29C232.84 63.746 232.312 64.172 231.7 64.568C231.088 64.964 230.38 65.288 229.576 65.54C228.784 65.792 227.896 65.918 226.912 65.918C226.06 65.918 225.304 65.786 224.644 65.522C223.984 65.258 223.468 64.832 223.096 64.244C222.724 63.656 222.538 62.876 222.538 61.904C222.538 61.364 222.544 60.77 222.556 60.122C222.568 59.462 222.586 58.784 222.61 58.088C222.634 57.392 222.652 56.714 222.664 56.054C222.676 55.382 222.688 54.764 222.7 54.2C222.712 53.636 222.718 53.168 222.718 52.796C222.718 52.46 222.706 52.136 222.682 51.824C222.658 51.512 222.622 51.224 222.574 50.96L224.392 50.978ZM237.15 53.156C237.486 53.144 237.792 53.132 238.068 53.12C238.356 53.096 238.584 53.078 238.752 53.066C239.04 53.03 239.454 52.988 239.994 52.94C240.546 52.88 241.176 52.82 241.884 52.76C242.592 52.688 243.354 52.616 244.17 52.544C244.986 52.472 245.808 52.4 246.636 52.328C247.296 52.268 247.92 52.22 248.508 52.184C249.096 52.136 249.642 52.1 250.146 52.076C250.65 52.04 251.1 52.016 251.496 52.004V53.444C251.16 53.444 250.776 53.45 250.344 53.462C249.912 53.474 249.486 53.498 249.066 53.534C248.646 53.57 248.28 53.636 247.968 53.732C247.332 53.936 246.756 54.248 246.24 54.668C245.736 55.076 245.304 55.55 244.944 56.09C244.584 56.63 244.308 57.188 244.116 57.764C243.936 58.34 243.846 58.898 243.846 59.438C243.846 60.134 243.966 60.746 244.206 61.274C244.446 61.79 244.77 62.228 245.178 62.588C245.598 62.948 246.072 63.242 246.6 63.47C247.128 63.698 247.686 63.872 248.274 63.992C248.874 64.1 249.468 64.16 250.056 64.172L249.534 65.666C248.862 65.642 248.19 65.546 247.518 65.378C246.846 65.222 246.204 64.994 245.592 64.694C244.98 64.382 244.434 63.992 243.954 63.524C243.474 63.056 243.096 62.51 242.82 61.886C242.544 61.262 242.406 60.548 242.406 59.744C242.406 58.808 242.568 57.944 242.892 57.152C243.228 56.348 243.654 55.646 244.17 55.046C244.686 54.446 245.22 53.984 245.772 53.66C245.388 53.708 244.908 53.762 244.332 53.822C243.768 53.882 243.162 53.948 242.514 54.02C241.866 54.08 241.212 54.152 240.552 54.236C239.904 54.32 239.298 54.404 238.734 54.488C238.17 54.56 237.696 54.638 237.312 54.722L237.15 53.156ZM248.904 55.658C249.036 55.85 249.192 56.096 249.372 56.396C249.564 56.684 249.75 56.984 249.93 57.296C250.11 57.596 250.26 57.884 250.38 58.16L249.462 58.592C249.258 58.148 249.03 57.71 248.778 57.278C248.526 56.834 248.262 56.426 247.986 56.054L248.904 55.658ZM250.866 54.902C251.01 55.094 251.178 55.334 251.37 55.622C251.562 55.91 251.748 56.21 251.928 56.522C252.12 56.822 252.288 57.11 252.432 57.386L251.496 57.836C251.28 57.392 251.04 56.954 250.776 56.522C250.524 56.09 250.26 55.688 249.984 55.316L250.866 54.902ZM186.608 70.88L187.922 71.258C187.598 71.93 187.214 72.59 186.77 73.238C186.326 73.874 185.852 74.468 185.348 75.02C184.856 75.572 184.358 76.058 183.854 76.478C183.782 76.394 183.674 76.298 183.53 76.19C183.398 76.07 183.26 75.956 183.116 75.848C182.984 75.74 182.864 75.656 182.756 75.596C183.524 75.02 184.25 74.318 184.934 73.49C185.618 72.662 186.176 71.792 186.608 70.88ZM185.978 72.95H198.38V74.174H185.528L185.978 72.95ZM182.972 77.198H199.046V78.44H182.972V77.198ZM183.242 81.5H198.812V82.742H183.242V81.5ZM188.696 73.364H189.884V82.094H188.696V73.364ZM185.492 73.364H186.698V82.148H185.492V73.364ZM191.954 73.364H193.124V82.148H191.954V73.364ZM195.248 73.364H196.508V82.148H195.248V73.364ZM188.21 83.966L189.452 83.84C189.572 84.368 189.674 84.938 189.758 85.55C189.842 86.162 189.89 86.678 189.902 87.098L188.588 87.278C188.588 86.99 188.57 86.654 188.534 86.27C188.51 85.898 188.468 85.508 188.408 85.1C188.36 84.692 188.294 84.314 188.21 83.966ZM191.882 83.966L193.142 83.732C193.31 84.08 193.472 84.458 193.628 84.866C193.784 85.262 193.922 85.646 194.042 86.018C194.162 86.39 194.252 86.72 194.312 87.008L192.98 87.296C192.896 86.864 192.752 86.336 192.548 85.712C192.344 85.088 192.122 84.506 191.882 83.966ZM195.554 83.84L196.832 83.426C197.132 83.774 197.438 84.164 197.75 84.596C198.062 85.028 198.35 85.454 198.614 85.874C198.89 86.282 199.106 86.654 199.262 86.99L197.93 87.476C197.786 87.152 197.582 86.78 197.318 86.36C197.066 85.94 196.784 85.508 196.472 85.064C196.16 84.62 195.854 84.212 195.554 83.84ZM185.06 83.498L186.356 83.822C186.116 84.494 185.804 85.16 185.42 85.82C185.036 86.48 184.598 87.026 184.106 87.458L182.846 86.936C183.314 86.552 183.746 86.048 184.142 85.424C184.538 84.8 184.844 84.158 185.06 83.498ZM216.074 79.88L217.172 80.672C216.68 81.116 216.152 81.572 215.588 82.04C215.024 82.496 214.502 82.88 214.022 83.192L213.194 82.562C213.506 82.322 213.836 82.046 214.184 81.734C214.544 81.422 214.892 81.104 215.228 80.78C215.564 80.456 215.846 80.156 216.074 79.88ZM211.61 70.862L213.104 71.15C212.9 71.582 212.678 72.014 212.438 72.446C212.198 72.866 211.976 73.232 211.772 73.544L210.638 73.256C210.806 72.92 210.986 72.524 211.178 72.068C211.37 71.612 211.514 71.21 211.61 70.862ZM209.162 76.424V77.99H215.228V76.424H209.162ZM209.162 73.832V75.398H215.228V73.832H209.162ZM207.92 72.734H216.524V79.106H207.92V72.734ZM211.556 78.512H212.78V85.982C212.78 86.33 212.738 86.594 212.654 86.774C212.582 86.966 212.432 87.116 212.204 87.224C211.976 87.32 211.676 87.374 211.304 87.386C210.932 87.41 210.464 87.422 209.9 87.422C209.876 87.254 209.828 87.056 209.756 86.828C209.684 86.612 209.606 86.414 209.522 86.234C209.93 86.246 210.296 86.252 210.62 86.252C210.944 86.252 211.16 86.252 211.268 86.252C211.388 86.24 211.466 86.216 211.502 86.18C211.538 86.144 211.556 86.078 211.556 85.982V78.512ZM207.236 80.654H210.242V81.806H207.236V80.654ZM209.936 80.654H210.188L210.404 80.618L211.142 80.924C210.83 82.364 210.332 83.558 209.648 84.506C208.976 85.454 208.19 86.186 207.29 86.702C207.242 86.606 207.164 86.498 207.056 86.378C206.96 86.258 206.852 86.144 206.732 86.036C206.624 85.928 206.528 85.844 206.444 85.784C207.284 85.328 208.01 84.692 208.622 83.876C209.234 83.06 209.672 82.058 209.936 80.87V80.654ZM212.636 78.602C212.756 79.238 212.936 79.892 213.176 80.564C213.416 81.236 213.728 81.89 214.112 82.526C214.496 83.162 214.97 83.75 215.534 84.29C216.11 84.818 216.788 85.256 217.568 85.604C217.484 85.688 217.388 85.796 217.28 85.928C217.184 86.048 217.088 86.174 216.992 86.306C216.896 86.45 216.812 86.582 216.74 86.702C215.972 86.306 215.306 85.82 214.742 85.244C214.19 84.668 213.722 84.05 213.338 83.39C212.966 82.718 212.66 82.052 212.42 81.392C212.192 80.72 212.012 80.09 211.88 79.502L212.636 78.602ZM203.528 70.88L204.716 71.33C204.5 71.774 204.26 72.236 203.996 72.716C203.744 73.196 203.486 73.664 203.222 74.12C202.97 74.564 202.73 74.954 202.502 75.29L201.566 74.876C201.794 74.528 202.028 74.12 202.268 73.652C202.52 73.184 202.754 72.704 202.97 72.212C203.198 71.72 203.384 71.276 203.528 70.88ZM205.544 72.932L206.678 73.472C206.27 74.132 205.814 74.84 205.31 75.596C204.806 76.34 204.296 77.06 203.78 77.756C203.276 78.452 202.796 79.058 202.34 79.574L201.512 79.106C201.848 78.71 202.202 78.26 202.574 77.756C202.946 77.24 203.312 76.706 203.672 76.154C204.032 75.59 204.374 75.032 204.698 74.48C205.022 73.928 205.304 73.412 205.544 72.932ZM200.666 74.642L201.368 73.778C201.692 74.066 202.016 74.384 202.34 74.732C202.676 75.08 202.982 75.422 203.258 75.758C203.534 76.094 203.75 76.4 203.906 76.676L203.15 77.684C202.994 77.396 202.778 77.072 202.502 76.712C202.238 76.352 201.944 75.992 201.62 75.632C201.296 75.272 200.978 74.942 200.666 74.642ZM204.842 77.054L205.832 76.658C206.084 77.042 206.324 77.462 206.552 77.918C206.78 78.374 206.984 78.818 207.164 79.25C207.356 79.67 207.494 80.042 207.578 80.366L206.498 80.87C206.426 80.522 206.3 80.132 206.12 79.7C205.952 79.256 205.76 78.806 205.544 78.35C205.328 77.882 205.094 77.45 204.842 77.054ZM200.504 78.836C201.284 78.8 202.208 78.758 203.276 78.71C204.356 78.65 205.46 78.59 206.588 78.53V79.664C205.532 79.736 204.482 79.808 203.438 79.88C202.406 79.94 201.482 79.994 200.666 80.042L200.504 78.836ZM205.328 81.41L206.318 81.122C206.546 81.626 206.744 82.178 206.912 82.778C207.092 83.378 207.212 83.9 207.272 84.344L206.21 84.668C206.174 84.224 206.072 83.702 205.904 83.102C205.736 82.49 205.544 81.926 205.328 81.41ZM201.602 81.176L202.736 81.356C202.616 82.208 202.448 83.048 202.232 83.876C202.028 84.692 201.788 85.388 201.512 85.964C201.44 85.916 201.338 85.862 201.206 85.802C201.074 85.73 200.942 85.664 200.81 85.604C200.678 85.544 200.564 85.496 200.468 85.46C200.768 84.908 201.008 84.254 201.188 83.498C201.368 82.73 201.506 81.956 201.602 81.176ZM203.51 79.376H204.698V87.44H203.51V79.376ZM222.608 70.88L223.922 71.258C223.598 71.93 223.214 72.59 222.77 73.238C222.326 73.874 221.852 74.468 221.348 75.02C220.856 75.572 220.358 76.058 219.854 76.478C219.782 76.394 219.674 76.298 219.53 76.19C219.398 76.07 219.26 75.956 219.116 75.848C218.984 75.74 218.864 75.656 218.756 75.596C219.524 75.02 220.25 74.318 220.934 73.49C221.618 72.662 222.176 71.792 222.608 70.88ZM221.978 72.95H234.38V74.174H221.528L221.978 72.95ZM218.972 77.198H235.046V78.44H218.972V77.198ZM219.242 81.5H234.812V82.742H219.242V81.5ZM224.696 73.364H225.884V82.094H224.696V73.364ZM221.492 73.364H222.698V82.148H221.492V73.364ZM227.954 73.364H229.124V82.148H227.954V73.364ZM231.248 73.364H232.508V82.148H231.248V73.364ZM224.21 83.966L225.452 83.84C225.572 84.368 225.674 84.938 225.758 85.55C225.842 86.162 225.89 86.678 225.902 87.098L224.588 87.278C224.588 86.99 224.57 86.654 224.534 86.27C224.51 85.898 224.468 85.508 224.408 85.1C224.36 84.692 224.294 84.314 224.21 83.966ZM227.882 83.966L229.142 83.732C229.31 84.08 229.472 84.458 229.628 84.866C229.784 85.262 229.922 85.646 230.042 86.018C230.162 86.39 230.252 86.72 230.312 87.008L228.98 87.296C228.896 86.864 228.752 86.336 228.548 85.712C228.344 85.088 228.122 84.506 227.882 83.966ZM231.554 83.84L232.832 83.426C233.132 83.774 233.438 84.164 233.75 84.596C234.062 85.028 234.35 85.454 234.614 85.874C234.89 86.282 235.106 86.654 235.262 86.99L233.93 87.476C233.786 87.152 233.582 86.78 233.318 86.36C233.066 85.94 232.784 85.508 232.472 85.064C232.16 84.62 231.854 84.212 231.554 83.84ZM221.06 83.498L222.356 83.822C222.116 84.494 221.804 85.16 221.42 85.82C221.036 86.48 220.598 87.026 220.106 87.458L218.846 86.936C219.314 86.552 219.746 86.048 220.142 85.424C220.538 84.8 220.844 84.158 221.06 83.498ZM236.846 73.364H245.63V74.588H236.846V73.364ZM240.662 70.916H241.994V73.832H240.662V70.916ZM238.97 75.218L240.266 75.542C239.942 76.31 239.534 77.066 239.042 77.81C238.562 78.554 238.07 79.19 237.566 79.718C237.482 79.634 237.374 79.544 237.242 79.448C237.11 79.34 236.978 79.238 236.846 79.142C236.714 79.046 236.594 78.968 236.486 78.908C237.002 78.44 237.476 77.882 237.908 77.234C238.352 76.574 238.706 75.902 238.97 75.218ZM242.462 78.26L243.794 78.548C243.206 80.54 242.378 82.28 241.31 83.768C240.254 85.244 238.97 86.456 237.458 87.404C237.398 87.32 237.308 87.206 237.188 87.062C237.08 86.93 236.96 86.798 236.828 86.666C236.708 86.534 236.6 86.426 236.504 86.342C237.98 85.514 239.216 84.416 240.212 83.048C241.208 81.668 241.958 80.072 242.462 78.26ZM242.426 75.65L243.47 75.11C243.77 75.458 244.07 75.836 244.37 76.244C244.67 76.64 244.934 77.036 245.162 77.432C245.402 77.828 245.588 78.188 245.72 78.512L244.586 79.142C244.466 78.818 244.292 78.452 244.064 78.044C243.836 77.636 243.578 77.228 243.29 76.82C243.002 76.4 242.714 76.01 242.426 75.65ZM238.394 79.97L239.186 79.052C239.858 79.544 240.548 80.09 241.256 80.69C241.964 81.29 242.624 81.89 243.236 82.49C243.848 83.078 244.334 83.612 244.694 84.092L243.848 85.19C243.488 84.698 243.002 84.146 242.39 83.534C241.79 82.91 241.142 82.292 240.446 81.68C239.75 81.056 239.066 80.486 238.394 79.97ZM245.396 75.038H252.074V76.316H245.396V75.038ZM251.552 75.038H252.812C252.812 75.038 252.812 75.086 252.812 75.182C252.812 75.266 252.812 75.362 252.812 75.47C252.812 75.566 252.812 75.644 252.812 75.704C252.764 77.612 252.716 79.22 252.668 80.528C252.632 81.836 252.578 82.91 252.506 83.75C252.434 84.578 252.35 85.214 252.254 85.658C252.158 86.102 252.038 86.426 251.894 86.63C251.726 86.858 251.546 87.02 251.354 87.116C251.174 87.212 250.94 87.272 250.652 87.296C250.388 87.332 250.046 87.344 249.626 87.332C249.218 87.332 248.792 87.326 248.348 87.314C248.336 87.11 248.294 86.888 248.222 86.648C248.162 86.408 248.072 86.198 247.952 86.018C248.432 86.054 248.864 86.078 249.248 86.09C249.644 86.102 249.932 86.108 250.112 86.108C250.256 86.108 250.376 86.09 250.472 86.054C250.58 86.018 250.676 85.946 250.76 85.838C250.868 85.694 250.964 85.412 251.048 84.992C251.132 84.56 251.204 83.942 251.264 83.138C251.324 82.322 251.372 81.278 251.408 80.006C251.456 78.734 251.504 77.18 251.552 75.344V75.038ZM247.682 71.06H248.978C248.966 72.416 248.942 73.748 248.906 75.056C248.882 76.352 248.804 77.606 248.672 78.818C248.552 80.018 248.348 81.158 248.06 82.238C247.784 83.306 247.394 84.284 246.89 85.172C246.398 86.048 245.756 86.828 244.964 87.512C244.856 87.356 244.7 87.182 244.496 86.99C244.292 86.81 244.106 86.666 243.938 86.558C244.694 85.946 245.306 85.226 245.774 84.398C246.254 83.558 246.626 82.634 246.89 81.626C247.154 80.618 247.34 79.55 247.448 78.422C247.556 77.282 247.622 76.094 247.646 74.858C247.67 73.61 247.682 72.344 247.682 71.06Z" fill="#646464"/>
<path d="M73.1039 135.08L74.0529 135.353C73.8189 135.838 73.5415 136.315 73.2209 136.783C72.9002 137.242 72.5579 137.671 72.1939 138.07C71.8385 138.469 71.4789 138.82 71.1149 139.123C71.0629 139.062 70.9849 138.993 70.8809 138.915C70.7855 138.828 70.6859 138.746 70.5819 138.668C70.4865 138.59 70.3999 138.529 70.3219 138.486C70.8765 138.07 71.4009 137.563 71.8949 136.965C72.3889 136.367 72.7919 135.739 73.1039 135.08ZM72.6489 136.575H81.6059V137.459H72.3239L72.6489 136.575ZM70.4779 139.643H82.0869V140.54H70.4779V139.643ZM70.6729 142.75H81.9179V143.647H70.6729V142.75ZM74.6119 136.874H75.4699V143.179H74.6119V136.874ZM72.2979 136.874H73.1689V143.218H72.2979V136.874ZM76.9649 136.874H77.8099V143.218H76.9649V136.874ZM79.3439 136.874H80.2539V143.218H79.3439V136.874ZM74.2609 144.531L75.1579 144.44C75.2445 144.821 75.3182 145.233 75.3789 145.675C75.4395 146.117 75.4742 146.49 75.4829 146.793L74.5339 146.923C74.5339 146.715 74.5209 146.472 74.4949 146.195C74.4775 145.926 74.4472 145.645 74.4039 145.35C74.3692 145.055 74.3215 144.782 74.2609 144.531ZM76.9129 144.531L77.8229 144.362C77.9442 144.613 78.0612 144.886 78.1739 145.181C78.2865 145.467 78.3862 145.744 78.4729 146.013C78.5595 146.282 78.6245 146.52 78.6679 146.728L77.7059 146.936C77.6452 146.624 77.5412 146.243 77.3939 145.792C77.2465 145.341 77.0862 144.921 76.9129 144.531ZM79.5649 144.44L80.4879 144.141C80.7045 144.392 80.9255 144.674 81.1509 144.986C81.3762 145.298 81.5842 145.606 81.7749 145.909C81.9742 146.204 82.1302 146.472 82.2429 146.715L81.2809 147.066C81.1769 146.832 81.0295 146.563 80.8389 146.26C80.6569 145.957 80.4532 145.645 80.2279 145.324C80.0025 145.003 79.7815 144.709 79.5649 144.44ZM71.9859 144.193L72.9219 144.427C72.7485 144.912 72.5232 145.393 72.2459 145.87C71.9685 146.347 71.6522 146.741 71.2969 147.053L70.3869 146.676C70.7249 146.399 71.0369 146.035 71.3229 145.584C71.6089 145.133 71.8299 144.67 71.9859 144.193ZM94.3849 141.58L95.1779 142.152C94.8225 142.473 94.4412 142.802 94.0339 143.14C93.6265 143.469 93.2495 143.747 92.9029 143.972L92.3049 143.517C92.5302 143.344 92.7685 143.144 93.0199 142.919C93.2799 142.694 93.5312 142.464 93.7739 142.23C94.0165 141.996 94.2202 141.779 94.3849 141.58ZM91.1609 135.067L92.2399 135.275C92.0925 135.587 91.9322 135.899 91.7589 136.211C91.5855 136.514 91.4252 136.779 91.2779 137.004L90.4589 136.796C90.5802 136.553 90.7102 136.267 90.8489 135.938C90.9875 135.609 91.0915 135.318 91.1609 135.067ZM89.3929 139.084V140.215H93.7739V139.084H89.3929ZM89.3929 137.212V138.343H93.7739V137.212H89.3929ZM88.4959 136.419H94.7099V141.021H88.4959V136.419ZM91.1219 140.592H92.0059V145.987C92.0059 146.238 91.9755 146.429 91.9149 146.559C91.8629 146.698 91.7545 146.806 91.5899 146.884C91.4252 146.953 91.2085 146.992 90.9399 147.001C90.6712 147.018 90.3332 147.027 89.9259 147.027C89.9085 146.906 89.8739 146.763 89.8219 146.598C89.7699 146.442 89.7135 146.299 89.6529 146.169C89.9475 146.178 90.2119 146.182 90.4459 146.182C90.6799 146.182 90.8359 146.182 90.9139 146.182C91.0005 146.173 91.0569 146.156 91.0829 146.13C91.1089 146.104 91.1219 146.056 91.1219 145.987V140.592ZM88.0019 142.139H90.1729V142.971H88.0019V142.139ZM89.9519 142.139H90.1339L90.2899 142.113L90.8229 142.334C90.5975 143.374 90.2379 144.236 89.7439 144.921C89.2585 145.606 88.6909 146.134 88.0409 146.507C88.0062 146.438 87.9499 146.36 87.8719 146.273C87.8025 146.186 87.7245 146.104 87.6379 146.026C87.5599 145.948 87.4905 145.887 87.4299 145.844C88.0365 145.515 88.5609 145.055 89.0029 144.466C89.4449 143.877 89.7612 143.153 89.9519 142.295V142.139ZM91.9019 140.657C91.9885 141.116 92.1185 141.589 92.2919 142.074C92.4652 142.559 92.6905 143.032 92.9679 143.491C93.2452 143.95 93.5875 144.375 93.9949 144.765C94.4109 145.146 94.9005 145.463 95.4639 145.714C95.4032 145.775 95.3339 145.853 95.2559 145.948C95.1865 146.035 95.1172 146.126 95.0479 146.221C94.9785 146.325 94.9179 146.42 94.8659 146.507C94.3112 146.221 93.8302 145.87 93.4229 145.454C93.0242 145.038 92.6862 144.592 92.4089 144.115C92.1402 143.63 91.9192 143.149 91.7459 142.672C91.5812 142.187 91.4512 141.732 91.3559 141.307L91.9019 140.657ZM85.3239 135.08L86.1819 135.405C86.0259 135.726 85.8525 136.059 85.6619 136.406C85.4799 136.753 85.2935 137.091 85.1029 137.42C84.9209 137.741 84.7475 138.022 84.5829 138.265L83.9069 137.966C84.0715 137.715 84.2405 137.42 84.4139 137.082C84.5959 136.744 84.7649 136.397 84.9209 136.042C85.0855 135.687 85.2199 135.366 85.3239 135.08ZM86.7799 136.562L87.5989 136.952C87.3042 137.429 86.9749 137.94 86.6109 138.486C86.2469 139.023 85.8785 139.543 85.5059 140.046C85.1419 140.549 84.7952 140.986 84.4659 141.359L83.8679 141.021C84.1105 140.735 84.3662 140.41 84.6349 140.046C84.9035 139.673 85.1679 139.288 85.4279 138.889C85.6879 138.482 85.9349 138.079 86.1689 137.68C86.4029 137.281 86.6065 136.909 86.7799 136.562ZM83.2569 137.797L83.7639 137.173C83.9979 137.381 84.2319 137.611 84.4659 137.862C84.7085 138.113 84.9295 138.36 85.1289 138.603C85.3282 138.846 85.4842 139.067 85.5969 139.266L85.0509 139.994C84.9382 139.786 84.7822 139.552 84.5829 139.292C84.3922 139.032 84.1799 138.772 83.9459 138.512C83.7119 138.252 83.4822 138.014 83.2569 137.797ZM86.2729 139.539L86.9879 139.253C87.1699 139.53 87.3432 139.834 87.5079 140.163C87.6725 140.492 87.8199 140.813 87.9499 141.125C88.0885 141.428 88.1882 141.697 88.2489 141.931L87.4689 142.295C87.4169 142.044 87.3259 141.762 87.1959 141.45C87.0745 141.129 86.9359 140.804 86.7799 140.475C86.6239 140.137 86.4549 139.825 86.2729 139.539ZM83.1399 140.826C83.7032 140.8 84.3705 140.77 85.1419 140.735C85.9219 140.692 86.7192 140.648 87.5339 140.605V141.424C86.7712 141.476 86.0129 141.528 85.2589 141.58C84.5135 141.623 83.8462 141.662 83.2569 141.697L83.1399 140.826ZM86.6239 142.685L87.3389 142.477C87.5035 142.841 87.6465 143.24 87.7679 143.673C87.8979 144.106 87.9845 144.483 88.0279 144.804L87.2609 145.038C87.2349 144.717 87.1612 144.34 87.0399 143.907C86.9185 143.465 86.7799 143.058 86.6239 142.685ZM83.9329 142.516L84.7519 142.646C84.6652 143.261 84.5439 143.868 84.3879 144.466C84.2405 145.055 84.0672 145.558 83.8679 145.974C83.8159 145.939 83.7422 145.9 83.6469 145.857C83.5515 145.805 83.4562 145.757 83.3609 145.714C83.2655 145.671 83.1832 145.636 83.1139 145.61C83.3305 145.211 83.5039 144.739 83.6339 144.193C83.7639 143.638 83.8635 143.079 83.9329 142.516ZM85.3109 141.216H86.1689V147.04H85.3109V141.216ZM97.0889 146V136.471H98.2849V144.973H102.458V146H97.0889ZM102.886 146L106.11 136.471H107.449L110.686 146H109.412L107.748 140.67C107.575 140.124 107.41 139.591 107.254 139.071C107.098 138.542 106.942 138.001 106.786 137.446H106.734C106.587 138.001 106.431 138.542 106.266 139.071C106.11 139.591 105.95 140.124 105.785 140.67L104.095 146H102.886ZM104.563 143.088V142.139H108.957V143.088H104.563ZM112.057 146V136.471H113.279L116.763 142.477L117.79 144.44H117.855C117.811 143.963 117.772 143.465 117.738 142.945C117.703 142.425 117.686 141.918 117.686 141.424V136.471H118.83V146H117.595L114.124 139.981L113.097 138.031H113.045C113.071 138.508 113.101 138.997 113.136 139.5C113.17 139.994 113.188 140.492 113.188 140.995V146H112.057ZM122.491 136.77C122.665 136.779 122.847 136.792 123.037 136.809C123.237 136.818 123.445 136.822 123.661 136.822C123.817 136.822 124.051 136.822 124.363 136.822C124.684 136.822 125.048 136.822 125.455 136.822C125.871 136.822 126.3 136.822 126.742 136.822C127.184 136.822 127.613 136.822 128.029 136.822C128.445 136.822 128.814 136.822 129.134 136.822C129.455 136.822 129.693 136.822 129.849 136.822C130.057 136.822 130.248 136.818 130.421 136.809C130.603 136.792 130.768 136.779 130.915 136.77V137.81C130.759 137.801 130.599 137.797 130.434 137.797C130.27 137.788 130.075 137.784 129.849 137.784C129.693 137.784 129.446 137.784 129.108 137.784C128.779 137.784 128.398 137.784 127.964 137.784C127.54 137.784 127.098 137.784 126.638 137.784C126.188 137.784 125.759 137.784 125.351 137.784C124.944 137.784 124.589 137.784 124.285 137.784C123.982 137.784 123.774 137.784 123.661 137.784C123.445 137.784 123.237 137.788 123.037 137.797C122.847 137.797 122.665 137.801 122.491 137.81V136.77ZM126.469 140.943C126.469 141.186 126.469 141.467 126.469 141.788C126.469 142.1 126.469 142.412 126.469 142.724C126.469 143.036 126.469 143.318 126.469 143.569C126.469 143.812 126.469 143.994 126.469 144.115C126.469 144.436 126.595 144.691 126.846 144.882C127.098 145.064 127.522 145.155 128.12 145.155C128.736 145.155 129.316 145.142 129.862 145.116C130.417 145.09 130.976 145.042 131.539 144.973L131.474 146.065C131.136 146.082 130.777 146.1 130.395 146.117C130.014 146.143 129.62 146.16 129.212 146.169C128.805 146.186 128.393 146.195 127.977 146.195C127.327 146.195 126.812 146.126 126.43 145.987C126.049 145.84 125.78 145.636 125.624 145.376C125.468 145.107 125.39 144.795 125.39 144.44C125.39 144.206 125.39 143.942 125.39 143.647C125.39 143.344 125.39 143.032 125.39 142.711C125.39 142.382 125.39 142.065 125.39 141.762C125.39 141.45 125.39 141.164 125.39 140.904C125.39 140.8 125.39 140.635 125.39 140.41C125.39 140.176 125.39 139.916 125.39 139.63C125.39 139.335 125.39 139.045 125.39 138.759C125.39 138.473 125.39 138.217 125.39 137.992C125.39 137.758 125.39 137.585 125.39 137.472L126.469 137.485C126.469 137.589 126.469 137.762 126.469 138.005C126.469 138.248 126.469 138.521 126.469 138.824C126.469 139.127 126.469 139.426 126.469 139.721C126.469 140.016 126.469 140.276 126.469 140.501C126.469 140.726 126.469 140.874 126.469 140.943ZM121.633 140.462C121.815 140.471 122.019 140.484 122.244 140.501C122.478 140.518 122.682 140.527 122.855 140.527C122.994 140.527 123.224 140.527 123.544 140.527C123.874 140.527 124.259 140.527 124.701 140.527C125.152 140.527 125.629 140.527 126.131 140.527C126.643 140.527 127.15 140.527 127.652 140.527C128.164 140.527 128.64 140.527 129.082 140.527C129.524 140.527 129.897 140.527 130.2 140.527C130.512 140.527 130.729 140.527 130.85 140.527C130.946 140.527 131.058 140.523 131.188 140.514C131.318 140.505 131.448 140.501 131.578 140.501C131.717 140.492 131.834 140.484 131.929 140.475V141.541C131.782 141.524 131.604 141.515 131.396 141.515C131.197 141.506 131.024 141.502 130.876 141.502C130.746 141.502 130.525 141.502 130.213 141.502C129.901 141.502 129.524 141.502 129.082 141.502C128.64 141.502 128.164 141.502 127.652 141.502C127.15 141.502 126.643 141.502 126.131 141.502C125.62 141.502 125.143 141.502 124.701 141.502C124.259 141.502 123.874 141.502 123.544 141.502C123.224 141.502 122.994 141.502 122.855 141.502C122.699 141.502 122.5 141.506 122.257 141.515C122.023 141.524 121.815 141.537 121.633 141.554V140.462ZM142.446 136.302C142.559 136.449 142.689 136.644 142.836 136.887C142.992 137.13 143.144 137.377 143.291 137.628C143.439 137.879 143.56 138.109 143.655 138.317L142.914 138.655C142.81 138.43 142.693 138.2 142.563 137.966C142.433 137.723 142.299 137.485 142.16 137.251C142.022 137.017 141.879 136.8 141.731 136.601L142.446 136.302ZM144.149 135.678C144.271 135.825 144.405 136.016 144.552 136.25C144.7 136.484 144.851 136.727 145.007 136.978C145.163 137.229 145.293 137.459 145.397 137.667L144.656 138.005C144.544 137.771 144.418 137.537 144.279 137.303C144.141 137.069 143.998 136.839 143.85 136.614C143.712 136.389 143.569 136.181 143.421 135.99L144.149 135.678ZM136.895 136.107C137.086 136.211 137.311 136.35 137.571 136.523C137.831 136.688 138.1 136.861 138.377 137.043C138.655 137.216 138.91 137.385 139.144 137.55C139.387 137.706 139.578 137.836 139.716 137.94L139.105 138.837C138.949 138.716 138.75 138.573 138.507 138.408C138.273 138.243 138.022 138.074 137.753 137.901C137.493 137.719 137.233 137.55 136.973 137.394C136.722 137.229 136.501 137.091 136.31 136.978L136.895 136.107ZM134.945 145.402C135.422 145.315 135.912 145.203 136.414 145.064C136.917 144.925 137.415 144.756 137.909 144.557C138.403 144.358 138.867 144.137 139.3 143.894C140.02 143.478 140.687 143.019 141.302 142.516C141.918 142.005 142.472 141.463 142.966 140.891C143.46 140.319 143.881 139.73 144.227 139.123L144.851 140.202C144.288 141.069 143.573 141.909 142.706 142.724C141.84 143.53 140.886 144.236 139.846 144.843C139.413 145.094 138.936 145.328 138.416 145.545C137.905 145.753 137.398 145.935 136.895 146.091C136.401 146.256 135.951 146.377 135.543 146.455L134.945 145.402ZM134.932 139.032C135.123 139.136 135.353 139.266 135.621 139.422C135.89 139.578 136.163 139.743 136.44 139.916C136.718 140.089 136.973 140.254 137.207 140.41C137.45 140.557 137.641 140.683 137.779 140.787L137.194 141.697C137.03 141.576 136.826 141.437 136.583 141.281C136.349 141.125 136.098 140.96 135.829 140.787C135.561 140.614 135.296 140.453 135.036 140.306C134.776 140.15 134.547 140.02 134.347 139.916L134.932 139.032ZM154.805 139.812C154.788 139.873 154.77 139.942 154.753 140.02C154.736 140.098 154.723 140.163 154.714 140.215C154.697 140.414 154.662 140.683 154.61 141.021C154.567 141.359 154.515 141.732 154.454 142.139C154.393 142.546 154.333 142.954 154.272 143.361C154.211 143.76 154.155 144.128 154.103 144.466C154.06 144.795 154.021 145.051 153.986 145.233H152.881C152.916 145.086 152.955 144.86 152.998 144.557C153.05 144.245 153.106 143.894 153.167 143.504C153.236 143.114 153.297 142.724 153.349 142.334C153.401 141.935 153.444 141.576 153.479 141.255C153.522 140.926 153.548 140.674 153.557 140.501C153.392 140.501 153.158 140.501 152.855 140.501C152.552 140.501 152.218 140.501 151.854 140.501C151.499 140.501 151.148 140.501 150.801 140.501C150.454 140.501 150.155 140.501 149.904 140.501C149.661 140.501 149.501 140.501 149.423 140.501C149.232 140.501 149.05 140.505 148.877 140.514C148.712 140.523 148.548 140.531 148.383 140.54V139.448C148.487 139.465 148.595 139.478 148.708 139.487C148.829 139.496 148.951 139.504 149.072 139.513C149.193 139.522 149.306 139.526 149.41 139.526C149.514 139.526 149.692 139.526 149.943 139.526C150.194 139.526 150.48 139.526 150.801 139.526C151.13 139.526 151.464 139.526 151.802 139.526C152.14 139.526 152.448 139.526 152.725 139.526C153.011 139.526 153.223 139.526 153.362 139.526C153.44 139.526 153.518 139.522 153.596 139.513C153.683 139.504 153.765 139.496 153.843 139.487C153.921 139.47 153.977 139.452 154.012 139.435L154.805 139.812ZM147.161 144.817C147.317 144.826 147.486 144.839 147.668 144.856C147.85 144.865 148.041 144.869 148.24 144.869C148.353 144.869 148.587 144.869 148.942 144.869C149.306 144.869 149.735 144.869 150.229 144.869C150.723 144.869 151.239 144.869 151.776 144.869C152.322 144.869 152.842 144.869 153.336 144.869C153.839 144.869 154.268 144.869 154.623 144.869C154.978 144.869 155.212 144.869 155.325 144.869C155.464 144.869 155.633 144.865 155.832 144.856C156.04 144.847 156.213 144.839 156.352 144.83V145.883C156.274 145.874 156.174 145.87 156.053 145.87C155.932 145.87 155.81 145.87 155.689 145.87C155.568 145.861 155.459 145.857 155.364 145.857C155.243 145.857 155 145.857 154.636 145.857C154.272 145.857 153.839 145.857 153.336 145.857C152.833 145.857 152.309 145.857 151.763 145.857C151.217 145.857 150.697 145.857 150.203 145.857C149.709 145.857 149.284 145.857 148.929 145.857C148.574 145.857 148.344 145.857 148.24 145.857C148.041 145.857 147.859 145.861 147.694 145.87C147.529 145.87 147.352 145.879 147.161 145.896V144.817ZM159.55 140.371C159.68 140.38 159.84 140.393 160.031 140.41C160.222 140.419 160.43 140.427 160.655 140.436C160.889 140.436 161.123 140.436 161.357 140.436C161.496 140.436 161.708 140.436 161.994 140.436C162.289 140.436 162.631 140.436 163.021 140.436C163.411 140.436 163.823 140.436 164.256 140.436C164.698 140.436 165.136 140.436 165.569 140.436C166.011 140.436 166.427 140.436 166.817 140.436C167.216 140.436 167.558 140.436 167.844 140.436C168.13 140.436 168.342 140.436 168.481 140.436C168.81 140.436 169.092 140.427 169.326 140.41C169.56 140.393 169.746 140.38 169.885 140.371V141.645C169.755 141.636 169.56 141.623 169.3 141.606C169.049 141.589 168.78 141.58 168.494 141.58C168.355 141.58 168.139 141.58 167.844 141.58C167.549 141.58 167.207 141.58 166.817 141.58C166.436 141.58 166.024 141.58 165.582 141.58C165.14 141.58 164.698 141.58 164.256 141.58C163.823 141.58 163.411 141.58 163.021 141.58C162.64 141.58 162.302 141.58 162.007 141.58C161.712 141.58 161.496 141.58 161.357 141.58C161.002 141.58 160.664 141.589 160.343 141.606C160.022 141.615 159.758 141.628 159.55 141.645V140.371ZM178.036 145.727C178.062 145.623 178.079 145.51 178.088 145.389C178.105 145.259 178.114 145.129 178.114 144.999C178.114 144.912 178.114 144.722 178.114 144.427C178.114 144.132 178.114 143.773 178.114 143.348C178.114 142.915 178.114 142.447 178.114 141.944C178.114 141.441 178.114 140.939 178.114 140.436C178.114 139.925 178.114 139.448 178.114 139.006C178.114 138.564 178.114 138.183 178.114 137.862C178.114 137.541 178.114 137.325 178.114 137.212C178.114 136.961 178.105 136.753 178.088 136.588C178.071 136.415 178.058 136.302 178.049 136.25H179.245C179.245 136.302 179.236 136.415 179.219 136.588C179.202 136.761 179.193 136.969 179.193 137.212C179.193 137.333 179.193 137.55 179.193 137.862C179.193 138.165 179.193 138.538 179.193 138.98C179.193 139.413 179.193 139.881 179.193 140.384C179.193 140.878 179.193 141.368 179.193 141.853C179.193 142.338 179.193 142.789 179.193 143.205C179.193 143.612 179.193 143.95 179.193 144.219C179.193 144.488 179.193 144.652 179.193 144.713C179.6 144.522 180.034 144.271 180.493 143.959C180.952 143.647 181.399 143.283 181.832 142.867C182.274 142.451 182.66 142 182.989 141.515L183.6 142.399C183.227 142.902 182.79 143.383 182.287 143.842C181.793 144.301 181.277 144.713 180.74 145.077C180.203 145.441 179.678 145.749 179.167 146C179.063 146.061 178.972 146.117 178.894 146.169C178.825 146.221 178.768 146.264 178.725 146.299L178.036 145.727ZM172.082 145.662C172.628 145.272 173.092 144.8 173.473 144.245C173.854 143.69 174.145 143.097 174.344 142.464C174.439 142.169 174.513 141.801 174.565 141.359C174.617 140.917 174.656 140.449 174.682 139.955C174.708 139.452 174.721 138.967 174.721 138.499C174.73 138.022 174.734 137.602 174.734 137.238C174.734 137.047 174.725 136.878 174.708 136.731C174.691 136.575 174.669 136.428 174.643 136.289H175.839C175.83 136.341 175.822 136.419 175.813 136.523C175.804 136.618 175.796 136.727 175.787 136.848C175.778 136.969 175.774 137.095 175.774 137.225C175.774 137.589 175.77 138.018 175.761 138.512C175.752 138.997 175.731 139.509 175.696 140.046C175.67 140.575 175.631 141.077 175.579 141.554C175.536 142.031 175.466 142.429 175.371 142.75C175.18 143.443 174.881 144.098 174.474 144.713C174.075 145.328 173.603 145.866 173.057 146.325L172.082 145.662ZM190.1 140.358L190.828 139.825C191.157 140.111 191.504 140.423 191.868 140.761C192.232 141.09 192.587 141.428 192.934 141.775C193.281 142.113 193.606 142.442 193.909 142.763C194.212 143.075 194.468 143.357 194.676 143.608L193.87 144.245C193.671 143.985 193.424 143.695 193.129 143.374C192.843 143.053 192.527 142.715 192.18 142.36C191.842 142.005 191.491 141.658 191.127 141.32C190.772 140.973 190.429 140.653 190.1 140.358ZM190.243 135.08H191.231V137.628C191.231 138.044 191.205 138.482 191.153 138.941C191.11 139.4 191.019 139.868 190.88 140.345C190.75 140.822 190.546 141.298 190.269 141.775C190 142.252 189.641 142.711 189.19 143.153C188.739 143.595 188.18 144.015 187.513 144.414C187.47 144.336 187.405 144.254 187.318 144.167C187.24 144.08 187.153 143.989 187.058 143.894C186.971 143.799 186.889 143.725 186.811 143.673C187.461 143.326 187.998 142.954 188.423 142.555C188.848 142.148 189.181 141.732 189.424 141.307C189.675 140.874 189.857 140.445 189.97 140.02C190.083 139.595 190.156 139.179 190.191 138.772C190.226 138.365 190.243 137.979 190.243 137.615V135.08ZM185.511 137.303H195.443V138.265H186.473V147.066H185.511V137.303ZM195.001 137.303H195.963V145.753C195.963 146.074 195.92 146.316 195.833 146.481C195.746 146.654 195.595 146.784 195.378 146.871C195.144 146.949 194.823 146.992 194.416 147.001C194.017 147.018 193.528 147.027 192.947 147.027C192.93 146.932 192.904 146.823 192.869 146.702C192.834 146.589 192.795 146.472 192.752 146.351C192.709 146.23 192.661 146.126 192.609 146.039C192.921 146.048 193.216 146.052 193.493 146.052C193.779 146.061 194.026 146.065 194.234 146.065C194.451 146.065 194.598 146.065 194.676 146.065C194.806 146.056 194.893 146.03 194.936 145.987C194.979 145.935 195.001 145.853 195.001 145.74V137.303ZM198.004 135.912H209.457V136.744H198.004V135.912ZM199.278 138.525H209.522V139.37H199.278V138.525ZM200.734 145.103H205.063V145.831H200.734V145.103ZM201.046 135.08H202.008V137.732H201.046V135.08ZM205.401 135.08H206.363V137.667H205.401V135.08ZM202.515 140.462H203.243V142.022H202.515V140.462ZM202.515 143.855H203.243V145.454H202.515V143.855ZM200.838 141.697H204.907V144.141H200.838V143.478H204.192V142.373H200.838V141.697ZM200.396 140.111H204.972V140.813H201.163V146.507H200.396V140.111ZM198.81 138.525H199.707V141.788C199.707 142.195 199.69 142.629 199.655 143.088C199.629 143.547 199.573 144.015 199.486 144.492C199.399 144.969 199.269 145.428 199.096 145.87C198.923 146.312 198.702 146.715 198.433 147.079C198.381 147.027 198.307 146.966 198.212 146.897C198.117 146.836 198.017 146.771 197.913 146.702C197.818 146.641 197.735 146.594 197.666 146.559C198.013 146.1 198.264 145.593 198.42 145.038C198.585 144.483 198.689 143.924 198.732 143.361C198.784 142.789 198.81 142.26 198.81 141.775V138.525ZM205.141 137.407H206.064C206.09 138.863 206.181 140.137 206.337 141.229C206.502 142.312 206.701 143.218 206.935 143.946C207.178 144.665 207.433 145.207 207.702 145.571C207.971 145.926 208.226 146.104 208.469 146.104C208.564 146.104 208.642 146.056 208.703 145.961C208.772 145.866 208.829 145.701 208.872 145.467C208.915 145.224 208.95 144.891 208.976 144.466C209.08 144.561 209.21 144.652 209.366 144.739C209.522 144.826 209.661 144.886 209.782 144.921C209.73 145.51 209.648 145.957 209.535 146.26C209.431 146.563 209.288 146.767 209.106 146.871C208.924 146.975 208.69 147.027 208.404 147.027C207.962 147.027 207.555 146.806 207.182 146.364C206.809 145.931 206.476 145.302 206.181 144.479C205.895 143.647 205.661 142.637 205.479 141.45C205.306 140.263 205.193 138.915 205.141 137.407ZM206.987 137.446L207.572 137.004C207.832 137.151 208.096 137.329 208.365 137.537C208.634 137.736 208.842 137.923 208.989 138.096L208.378 138.603C208.239 138.421 208.036 138.226 207.767 138.018C207.507 137.801 207.247 137.611 206.987 137.446ZM207.845 140.085L208.781 140.254C208.391 141.805 207.823 143.149 207.078 144.284C206.341 145.419 205.427 146.347 204.335 147.066C204.292 147.005 204.222 146.932 204.127 146.845C204.032 146.767 203.932 146.685 203.828 146.598C203.733 146.52 203.65 146.455 203.581 146.403C204.682 145.762 205.583 144.908 206.285 143.842C206.987 142.767 207.507 141.515 207.845 140.085ZM215.619 140.046C216.035 140.289 216.473 140.557 216.932 140.852C217.391 141.147 217.846 141.454 218.297 141.775C218.756 142.087 219.194 142.395 219.61 142.698C220.026 143.001 220.394 143.287 220.715 143.556L219.948 144.453C219.653 144.184 219.298 143.89 218.882 143.569C218.475 143.24 218.041 142.91 217.582 142.581C217.123 142.243 216.663 141.918 216.204 141.606C215.745 141.294 215.316 141.012 214.917 140.761L215.619 140.046ZM221.573 137.667C221.512 137.762 221.456 137.879 221.404 138.018C221.352 138.148 221.304 138.265 221.261 138.369C221.14 138.811 220.966 139.288 220.741 139.799C220.516 140.31 220.251 140.826 219.948 141.346C219.645 141.857 219.298 142.351 218.908 142.828C218.327 143.547 217.599 144.241 216.724 144.908C215.857 145.567 214.809 146.121 213.578 146.572L212.642 145.766C213.448 145.515 214.18 145.207 214.839 144.843C215.506 144.47 216.104 144.063 216.633 143.621C217.162 143.179 217.621 142.724 218.011 142.256C218.349 141.857 218.657 141.42 218.934 140.943C219.22 140.466 219.467 139.994 219.675 139.526C219.883 139.049 220.035 138.607 220.13 138.2H215.307L215.723 137.277H219.857C220.03 137.277 220.191 137.268 220.338 137.251C220.485 137.225 220.611 137.19 220.715 137.147L221.573 137.667ZM217.192 135.795C217.079 135.968 216.971 136.15 216.867 136.341C216.763 136.532 216.676 136.688 216.607 136.809C216.347 137.286 216.009 137.81 215.593 138.382C215.186 138.945 214.705 139.509 214.15 140.072C213.604 140.635 212.984 141.16 212.291 141.645L211.42 140.969C212.165 140.51 212.811 140.003 213.357 139.448C213.903 138.893 214.362 138.352 214.735 137.823C215.108 137.294 215.394 136.835 215.593 136.445C215.662 136.332 215.74 136.176 215.827 135.977C215.914 135.769 215.974 135.583 216.009 135.418L217.192 135.795ZM224.342 141.307C225.469 141.004 226.517 140.635 227.488 140.202C228.459 139.769 229.304 139.327 230.023 138.876C230.474 138.59 230.911 138.282 231.336 137.953C231.769 137.615 232.177 137.264 232.558 136.9C232.939 136.536 233.277 136.176 233.572 135.821L234.443 136.627C234.079 137.017 233.685 137.398 233.26 137.771C232.835 138.144 232.385 138.503 231.908 138.85C231.44 139.188 230.95 139.517 230.439 139.838C229.962 140.124 229.425 140.419 228.827 140.722C228.229 141.025 227.592 141.311 226.916 141.58C226.24 141.849 225.555 142.096 224.862 142.321L224.342 141.307ZM229.815 139.422L230.933 139.084V145.012C230.933 145.177 230.933 145.35 230.933 145.532C230.942 145.714 230.95 145.883 230.959 146.039C230.976 146.195 230.994 146.316 231.011 146.403H229.737C229.746 146.316 229.754 146.195 229.763 146.039C229.78 145.883 229.793 145.714 229.802 145.532C229.811 145.35 229.815 145.177 229.815 145.012V139.422ZM246.689 136.666C246.689 136.9 246.771 137.104 246.936 137.277C247.109 137.442 247.313 137.524 247.547 137.524C247.79 137.524 247.993 137.442 248.158 137.277C248.331 137.104 248.418 136.9 248.418 136.666C248.418 136.423 248.331 136.22 248.158 136.055C247.993 135.882 247.79 135.795 247.547 135.795C247.313 135.795 247.109 135.882 246.936 136.055C246.771 136.22 246.689 136.423 246.689 136.666ZM246.091 136.666C246.091 136.397 246.156 136.155 246.286 135.938C246.425 135.713 246.602 135.535 246.819 135.405C247.036 135.266 247.278 135.197 247.547 135.197C247.816 135.197 248.058 135.266 248.275 135.405C248.5 135.535 248.678 135.713 248.808 135.938C248.947 136.155 249.016 136.397 249.016 136.666C249.016 136.935 248.947 137.177 248.808 137.394C248.678 137.611 248.5 137.788 248.275 137.927C248.058 138.057 247.816 138.122 247.547 138.122C247.278 138.122 247.036 138.057 246.819 137.927C246.602 137.788 246.425 137.611 246.286 137.394C246.156 137.177 246.091 136.935 246.091 136.666ZM247.222 137.537C247.179 137.624 247.14 137.723 247.105 137.836C247.079 137.94 247.053 138.057 247.027 138.187C246.958 138.525 246.867 138.902 246.754 139.318C246.641 139.734 246.503 140.163 246.338 140.605C246.182 141.038 246 141.459 245.792 141.866C245.584 142.273 245.35 142.646 245.09 142.984C244.691 143.487 244.249 143.955 243.764 144.388C243.279 144.821 242.724 145.211 242.1 145.558C241.476 145.905 240.765 146.204 239.968 146.455L239.084 145.48C239.933 145.272 240.666 145.012 241.281 144.7C241.905 144.388 242.451 144.037 242.919 143.647C243.387 143.248 243.799 142.819 244.154 142.36C244.466 141.961 244.735 141.515 244.96 141.021C245.194 140.518 245.389 140.016 245.545 139.513C245.701 139.002 245.805 138.538 245.857 138.122C245.736 138.122 245.506 138.122 245.168 138.122C244.83 138.122 244.431 138.122 243.972 138.122C243.513 138.122 243.032 138.122 242.529 138.122C242.035 138.122 241.558 138.122 241.099 138.122C240.64 138.122 240.241 138.122 239.903 138.122C239.565 138.122 239.335 138.122 239.214 138.122C238.954 138.122 238.716 138.126 238.499 138.135C238.282 138.144 238.087 138.152 237.914 138.161V137.004C238.035 137.021 238.17 137.039 238.317 137.056C238.464 137.065 238.616 137.073 238.772 137.082C238.928 137.091 239.075 137.095 239.214 137.095C239.318 137.095 239.504 137.095 239.773 137.095C240.042 137.095 240.358 137.095 240.722 137.095C241.095 137.095 241.489 137.095 241.905 137.095C242.33 137.095 242.746 137.095 243.153 137.095C243.569 137.095 243.955 137.095 244.31 137.095C244.674 137.095 244.982 137.095 245.233 137.095C245.484 137.095 245.653 137.095 245.74 137.095C245.835 137.095 245.944 137.091 246.065 137.082C246.186 137.073 246.308 137.056 246.429 137.03L247.222 137.537Z" fill="#999999"/>
</svg>
