<svg width="319" height="161" viewBox="0 0 319 161" fill="none" xmlns="http://www.w3.org/2000/svg">
<path d="M137 20.5H108C106.619 20.5 105.5 21.6193 105.5 23V109C105.5 110.381 106.619 111.5 108 111.5H137C138.381 111.5 139.5 110.381 139.5 109V23C139.5 21.6193 138.381 20.5 137 20.5Z" fill="white"/>
<path d="M137 21C138.1 21 139 21.9 139 23V109C139 110.1 138.1 111 137 111H108C106.9 111 106 110.1 106 109V23C106 21.9 106.9 21 108 21H137ZM137 20H108C106.35 20 105 21.35 105 23V109C105 110.65 106.35 112 108 112H137C138.65 112 140 110.65 140 109V23C140 21.35 138.65 20 137 20Z" fill="#999999"/>
<path d="M135 26H110V60H135V26Z" fill="#CCCCCC"/>
<path d="M117.4 64H113C111.343 64 110 65.3431 110 67C110 68.6569 111.343 70 113 70H117.4C119.057 70 120.4 68.6569 120.4 67C120.4 65.3431 119.057 64 117.4 64Z" fill="#CCCCCC"/>
<path d="M132 64H127.6C125.943 64 124.6 65.3431 124.6 67C124.6 68.6569 125.943 70 127.6 70H132C133.657 70 135 68.6569 135 67C135 65.3431 133.657 64 132 64Z" fill="#FFC000"/>
<path d="M114.4 103H112C110.895 103 110 103.895 110 105C110 106.105 110.895 107 112 107H114.4C115.505 107 116.4 106.105 116.4 105C116.4 103.895 115.505 103 114.4 103Z" fill="#CCCCCC"/>
<path d="M133 103H130.6C129.496 103 128.6 103.895 128.6 105C128.6 106.105 129.496 107 130.6 107H133C134.105 107 135 106.105 135 105C135 103.895 134.105 103 133 103Z" fill="#CCCCCC"/>
<path d="M123.7 103H121.3C120.195 103 119.3 103.895 119.3 105C119.3 106.105 120.195 107 121.3 107H123.7C124.804 107 125.7 106.105 125.7 105C125.7 103.895 124.804 103 123.7 103Z" fill="#CCCCCC"/>
<path d="M122.5 79.8601C118.74 79.8601 115.7 82.9001 115.7 86.6601C115.7 90.4201 118.74 93.4601 122.5 93.4601C126.26 93.4601 129.3 90.4201 129.3 86.6601C129.3 82.9001 126.26 79.8601 122.5 79.8601ZM122.5 89.7401C120.95 89.7401 119.7 88.4201 119.7 86.8001C119.7 85.1801 120.95 83.8601 122.5 83.8601C124.05 83.8601 125.3 85.1801 125.3 86.8001C125.3 88.4201 124.05 89.7401 122.5 89.7401Z" fill="#CCCCCC"/>
<path d="M113.2 80.66C114.967 80.66 116.4 79.2273 116.4 77.46C116.4 75.6927 114.967 74.26 113.2 74.26C111.433 74.26 110 75.6927 110 77.46C110 79.2273 111.433 80.66 113.2 80.66Z" fill="#CCCCCC"/>
<path d="M131.51 80.66C133.277 80.66 134.71 79.2273 134.71 77.46C134.71 75.6927 133.277 74.26 131.51 74.26C129.743 74.26 128.31 75.6927 128.31 77.46C128.31 79.2273 129.743 80.66 131.51 80.66Z" fill="#CCCCCC"/>
<path d="M113.2 99.0599C114.967 99.0599 116.4 97.6272 116.4 95.8599C116.4 94.0926 114.967 92.6599 113.2 92.6599C111.433 92.6599 110 94.0926 110 95.8599C110 97.6272 111.433 99.0599 113.2 99.0599Z" fill="#CCCCCC"/>
<path d="M131.85 99.0599C133.617 99.0599 135.05 97.6272 135.05 95.8599C135.05 94.0926 133.617 92.6599 131.85 92.6599C130.083 92.6599 128.65 94.0926 128.65 95.8599C128.65 97.6272 130.083 99.0599 131.85 99.0599Z" fill="#CCCCCC"/>
<path d="M94 20.5H65C63.6193 20.5 62.5 21.6193 62.5 23V109C62.5 110.381 63.6193 111.5 65 111.5H94C95.3807 111.5 96.5 110.381 96.5 109V23C96.5 21.6193 95.3807 20.5 94 20.5Z" fill="white"/>
<path d="M94 21C95.1 21 96 21.9 96 23V109C96 110.1 95.1 111 94 111H65C63.9 111 63 110.1 63 109V23C63 21.9 63.9 21 65 21H94ZM94 20H65C63.35 20 62 21.35 62 23V109C62 110.65 63.35 112 65 112H94C95.65 112 97 110.65 97 109V23C97 21.35 95.65 20 94 20Z" fill="#999999"/>
<path d="M92 26H67V60H92V26Z" fill="#CCCCCC"/>
<path d="M75 64H69C67.8954 64 67 64.8954 67 66V75C67 76.1046 67.8954 77 69 77H75C76.1046 77 77 76.1046 77 75V66C77 64.8954 76.1046 64 75 64Z" fill="#CCCCCC"/>
<path d="M75 79H69C67.8954 79 67 79.8954 67 81V90C67 91.1046 67.8954 92 69 92H75C76.1046 92 77 91.1046 77 90V81C77 79.8954 76.1046 79 75 79Z" fill="#CCCCCC"/>
<path d="M75 94H69C67.8954 94 67 94.8954 67 96V105C67 106.105 67.8954 107 69 107H75C76.1046 107 77 106.105 77 105V96C77 94.8954 76.1046 94 75 94Z" fill="#CCCCCC"/>
<path d="M90 64H84C82.8954 64 82 64.8954 82 66V75C82 76.1046 82.8954 77 84 77H90C91.1046 77 92 76.1046 92 75V66C92 64.8954 91.1046 64 90 64Z" fill="#FFC000"/>
<path d="M90 79H84C82.8954 79 82 79.8954 82 81V90C82 91.1046 82.8954 92 84 92H90C91.1046 92 92 91.1046 92 90V81C92 79.8954 91.1046 79 90 79Z" fill="#CCCCCC"/>
<path d="M90 94H84C82.8954 94 82 94.8954 82 96V105C82 106.105 82.8954 107 84 107H90C91.1046 107 92 106.105 92 105V96C92 94.8954 91.1046 94 90 94Z" fill="#CCCCCC"/>
<mask id="path-23-inside-1_41_1509" fill="white">
<path d="M263 29C266.314 29 269 31.6863 269 35V101C269 104.314 266.314 107 263 107H173C169.686 107 167 104.314 167 101V72H145L167 60V35C167 31.6863 169.686 29 173 29H263Z"/>
</mask>
<path d="M263 29C266.314 29 269 31.6863 269 35V101C269 104.314 266.314 107 263 107H173C169.686 107 167 104.314 167 101V72H145L167 60V35C167 31.6863 169.686 29 173 29H263Z" fill="white"/>
<path d="M269 35H270H269ZM263 107V108V107ZM167 101H166H167ZM167 72H168V71H167V72ZM145 72L144.521 71.1221L145 73V72ZM167 60L167.479 60.8779L168 60.5936V60H167ZM173 29V28V29ZM263 29V30C265.761 30 268 32.2386 268 35H269H270C270 31.134 266.866 28 263 28V29ZM269 35H268V101H269H270V35H269ZM269 101H268C268 103.761 265.761 106 263 106V107V108C266.866 108 270 104.866 270 101H269ZM263 107V106H173V107V108H263V107ZM173 107V106C170.239 106 168 103.761 168 101H167H166C166 104.866 169.134 108 173 108V107ZM167 101H168V72H167H166V101H167ZM167 72V71H145V72V73H167V72ZM145 72L145.479 72.8779L167.479 60.8779L167 60L166.521 59.1221L144.521 71.1221L145 72ZM167 60H168V35H167H166V60H167ZM167 35H168C168 32.2386 170.239 30 173 30V29V28C169.134 28 166 31.134 166 35H167ZM173 29V30H263V29V28H173V29Z" fill="#999999" mask="url(#path-23-inside-1_41_1509)"/>
<path opacity="0.2" d="M183.226 58.52H199.336V59.726H183.226V58.52ZM187.132 53.264H197.014V54.362H187.132V53.264ZM187.132 55.856H197.014V56.954H187.132V55.856ZM184.09 65.072C184.774 64.976 185.572 64.856 186.484 64.712C187.408 64.556 188.386 64.394 189.418 64.226C190.45 64.046 191.482 63.872 192.514 63.704L192.568 64.91C191.608 65.078 190.636 65.246 189.652 65.414C188.68 65.594 187.744 65.756 186.844 65.9C185.956 66.056 185.146 66.2 184.414 66.332L184.09 65.072ZM191.344 58.844C191.992 60.536 193.012 61.934 194.404 63.038C195.796 64.142 197.536 64.892 199.624 65.288C199.528 65.384 199.426 65.498 199.318 65.63C199.21 65.774 199.108 65.918 199.012 66.062C198.916 66.218 198.832 66.362 198.76 66.494C197.32 66.146 196.042 65.648 194.926 65C193.81 64.34 192.85 63.524 192.046 62.552C191.254 61.58 190.612 60.452 190.12 59.168L191.344 58.844ZM197.428 59.87L198.526 60.626C198.082 60.95 197.59 61.28 197.05 61.616C196.522 61.94 195.988 62.252 195.448 62.552C194.92 62.84 194.422 63.098 193.954 63.326L193.036 62.624C193.504 62.384 194.002 62.108 194.53 61.796C195.07 61.484 195.598 61.16 196.114 60.824C196.63 60.488 197.068 60.17 197.428 59.87ZM186.394 50.6H197.572V51.752H187.78V59.024H186.394V50.6ZM186.394 58.898H187.78V65.072L186.394 65.234V58.898ZM207.544 50.978H217.012V61.148H215.662V52.238H208.858V61.202H207.544V50.978ZM208.336 54.938H216.202V56.18H208.336V54.938ZM208.336 58.952H216.202V60.212H208.336V58.952ZM211.594 51.446H212.872V66.422H211.594V51.446ZM200.956 59.402C201.7 59.222 202.57 58.994 203.566 58.718C204.574 58.442 205.594 58.154 206.626 57.854L206.806 59.078C205.858 59.378 204.904 59.672 203.944 59.96C202.996 60.236 202.132 60.488 201.352 60.716L200.956 59.402ZM201.19 53.516H206.698V54.794H201.19V53.516ZM203.404 49.88H204.718V64.784C204.718 65.144 204.67 65.426 204.574 65.63C204.478 65.834 204.316 65.984 204.088 66.08C203.86 66.188 203.56 66.254 203.188 66.278C202.828 66.302 202.366 66.314 201.802 66.314C201.778 66.158 201.724 65.96 201.64 65.72C201.568 65.48 201.49 65.276 201.406 65.108C201.79 65.12 202.138 65.12 202.45 65.108C202.774 65.108 202.99 65.108 203.098 65.108C203.218 65.108 203.296 65.084 203.332 65.036C203.38 64.988 203.404 64.904 203.404 64.784V49.88ZM224.392 50.978C224.344 51.278 224.308 51.584 224.284 51.896C224.26 52.196 224.242 52.496 224.23 52.796C224.206 53.3 224.182 53.924 224.158 54.668C224.134 55.412 224.11 56.204 224.086 57.044C224.062 57.872 224.044 58.7 224.032 59.528C224.02 60.356 224.014 61.1 224.014 61.76C224.014 62.42 224.14 62.948 224.392 63.344C224.644 63.74 224.992 64.022 225.436 64.19C225.88 64.358 226.39 64.442 226.966 64.442C227.782 64.442 228.52 64.34 229.18 64.136C229.84 63.92 230.428 63.638 230.944 63.29C231.46 62.93 231.916 62.528 232.312 62.084C232.72 61.64 233.086 61.184 233.41 60.716L234.436 61.94C234.124 62.372 233.74 62.822 233.284 63.29C232.84 63.746 232.312 64.172 231.7 64.568C231.088 64.964 230.38 65.288 229.576 65.54C228.784 65.792 227.896 65.918 226.912 65.918C226.06 65.918 225.304 65.786 224.644 65.522C223.984 65.258 223.468 64.832 223.096 64.244C222.724 63.656 222.538 62.876 222.538 61.904C222.538 61.364 222.544 60.77 222.556 60.122C222.568 59.462 222.586 58.784 222.61 58.088C222.634 57.392 222.652 56.714 222.664 56.054C222.676 55.382 222.688 54.764 222.7 54.2C222.712 53.636 222.718 53.168 222.718 52.796C222.718 52.46 222.706 52.136 222.682 51.824C222.658 51.512 222.622 51.224 222.574 50.96L224.392 50.978ZM237.15 53.156C237.486 53.144 237.792 53.132 238.068 53.12C238.356 53.096 238.584 53.078 238.752 53.066C239.04 53.03 239.454 52.988 239.994 52.94C240.546 52.88 241.176 52.82 241.884 52.76C242.592 52.688 243.354 52.616 244.17 52.544C244.986 52.472 245.808 52.4 246.636 52.328C247.296 52.268 247.92 52.22 248.508 52.184C249.096 52.136 249.642 52.1 250.146 52.076C250.65 52.04 251.1 52.016 251.496 52.004V53.444C251.16 53.444 250.776 53.45 250.344 53.462C249.912 53.474 249.486 53.498 249.066 53.534C248.646 53.57 248.28 53.636 247.968 53.732C247.332 53.936 246.756 54.248 246.24 54.668C245.736 55.076 245.304 55.55 244.944 56.09C244.584 56.63 244.308 57.188 244.116 57.764C243.936 58.34 243.846 58.898 243.846 59.438C243.846 60.134 243.966 60.746 244.206 61.274C244.446 61.79 244.77 62.228 245.178 62.588C245.598 62.948 246.072 63.242 246.6 63.47C247.128 63.698 247.686 63.872 248.274 63.992C248.874 64.1 249.468 64.16 250.056 64.172L249.534 65.666C248.862 65.642 248.19 65.546 247.518 65.378C246.846 65.222 246.204 64.994 245.592 64.694C244.98 64.382 244.434 63.992 243.954 63.524C243.474 63.056 243.096 62.51 242.82 61.886C242.544 61.262 242.406 60.548 242.406 59.744C242.406 58.808 242.568 57.944 242.892 57.152C243.228 56.348 243.654 55.646 244.17 55.046C244.686 54.446 245.22 53.984 245.772 53.66C245.388 53.708 244.908 53.762 244.332 53.822C243.768 53.882 243.162 53.948 242.514 54.02C241.866 54.08 241.212 54.152 240.552 54.236C239.904 54.32 239.298 54.404 238.734 54.488C238.17 54.56 237.696 54.638 237.312 54.722L237.15 53.156ZM248.904 55.658C249.036 55.85 249.192 56.096 249.372 56.396C249.564 56.684 249.75 56.984 249.93 57.296C250.11 57.596 250.26 57.884 250.38 58.16L249.462 58.592C249.258 58.148 249.03 57.71 248.778 57.278C248.526 56.834 248.262 56.426 247.986 56.054L248.904 55.658ZM250.866 54.902C251.01 55.094 251.178 55.334 251.37 55.622C251.562 55.91 251.748 56.21 251.928 56.522C252.12 56.822 252.288 57.11 252.432 57.386L251.496 57.836C251.28 57.392 251.04 56.954 250.776 56.522C250.524 56.09 250.26 55.688 249.984 55.316L250.866 54.902ZM186.608 70.88L187.922 71.258C187.598 71.93 187.214 72.59 186.77 73.238C186.326 73.874 185.852 74.468 185.348 75.02C184.856 75.572 184.358 76.058 183.854 76.478C183.782 76.394 183.674 76.298 183.53 76.19C183.398 76.07 183.26 75.956 183.116 75.848C182.984 75.74 182.864 75.656 182.756 75.596C183.524 75.02 184.25 74.318 184.934 73.49C185.618 72.662 186.176 71.792 186.608 70.88ZM185.978 72.95H198.38V74.174H185.528L185.978 72.95ZM182.972 77.198H199.046V78.44H182.972V77.198ZM183.242 81.5H198.812V82.742H183.242V81.5ZM188.696 73.364H189.884V82.094H188.696V73.364ZM185.492 73.364H186.698V82.148H185.492V73.364ZM191.954 73.364H193.124V82.148H191.954V73.364ZM195.248 73.364H196.508V82.148H195.248V73.364ZM188.21 83.966L189.452 83.84C189.572 84.368 189.674 84.938 189.758 85.55C189.842 86.162 189.89 86.678 189.902 87.098L188.588 87.278C188.588 86.99 188.57 86.654 188.534 86.27C188.51 85.898 188.468 85.508 188.408 85.1C188.36 84.692 188.294 84.314 188.21 83.966ZM191.882 83.966L193.142 83.732C193.31 84.08 193.472 84.458 193.628 84.866C193.784 85.262 193.922 85.646 194.042 86.018C194.162 86.39 194.252 86.72 194.312 87.008L192.98 87.296C192.896 86.864 192.752 86.336 192.548 85.712C192.344 85.088 192.122 84.506 191.882 83.966ZM195.554 83.84L196.832 83.426C197.132 83.774 197.438 84.164 197.75 84.596C198.062 85.028 198.35 85.454 198.614 85.874C198.89 86.282 199.106 86.654 199.262 86.99L197.93 87.476C197.786 87.152 197.582 86.78 197.318 86.36C197.066 85.94 196.784 85.508 196.472 85.064C196.16 84.62 195.854 84.212 195.554 83.84ZM185.06 83.498L186.356 83.822C186.116 84.494 185.804 85.16 185.42 85.82C185.036 86.48 184.598 87.026 184.106 87.458L182.846 86.936C183.314 86.552 183.746 86.048 184.142 85.424C184.538 84.8 184.844 84.158 185.06 83.498ZM216.074 79.88L217.172 80.672C216.68 81.116 216.152 81.572 215.588 82.04C215.024 82.496 214.502 82.88 214.022 83.192L213.194 82.562C213.506 82.322 213.836 82.046 214.184 81.734C214.544 81.422 214.892 81.104 215.228 80.78C215.564 80.456 215.846 80.156 216.074 79.88ZM211.61 70.862L213.104 71.15C212.9 71.582 212.678 72.014 212.438 72.446C212.198 72.866 211.976 73.232 211.772 73.544L210.638 73.256C210.806 72.92 210.986 72.524 211.178 72.068C211.37 71.612 211.514 71.21 211.61 70.862ZM209.162 76.424V77.99H215.228V76.424H209.162ZM209.162 73.832V75.398H215.228V73.832H209.162ZM207.92 72.734H216.524V79.106H207.92V72.734ZM211.556 78.512H212.78V85.982C212.78 86.33 212.738 86.594 212.654 86.774C212.582 86.966 212.432 87.116 212.204 87.224C211.976 87.32 211.676 87.374 211.304 87.386C210.932 87.41 210.464 87.422 209.9 87.422C209.876 87.254 209.828 87.056 209.756 86.828C209.684 86.612 209.606 86.414 209.522 86.234C209.93 86.246 210.296 86.252 210.62 86.252C210.944 86.252 211.16 86.252 211.268 86.252C211.388 86.24 211.466 86.216 211.502 86.18C211.538 86.144 211.556 86.078 211.556 85.982V78.512ZM207.236 80.654H210.242V81.806H207.236V80.654ZM209.936 80.654H210.188L210.404 80.618L211.142 80.924C210.83 82.364 210.332 83.558 209.648 84.506C208.976 85.454 208.19 86.186 207.29 86.702C207.242 86.606 207.164 86.498 207.056 86.378C206.96 86.258 206.852 86.144 206.732 86.036C206.624 85.928 206.528 85.844 206.444 85.784C207.284 85.328 208.01 84.692 208.622 83.876C209.234 83.06 209.672 82.058 209.936 80.87V80.654ZM212.636 78.602C212.756 79.238 212.936 79.892 213.176 80.564C213.416 81.236 213.728 81.89 214.112 82.526C214.496 83.162 214.97 83.75 215.534 84.29C216.11 84.818 216.788 85.256 217.568 85.604C217.484 85.688 217.388 85.796 217.28 85.928C217.184 86.048 217.088 86.174 216.992 86.306C216.896 86.45 216.812 86.582 216.74 86.702C215.972 86.306 215.306 85.82 214.742 85.244C214.19 84.668 213.722 84.05 213.338 83.39C212.966 82.718 212.66 82.052 212.42 81.392C212.192 80.72 212.012 80.09 211.88 79.502L212.636 78.602ZM203.528 70.88L204.716 71.33C204.5 71.774 204.26 72.236 203.996 72.716C203.744 73.196 203.486 73.664 203.222 74.12C202.97 74.564 202.73 74.954 202.502 75.29L201.566 74.876C201.794 74.528 202.028 74.12 202.268 73.652C202.52 73.184 202.754 72.704 202.97 72.212C203.198 71.72 203.384 71.276 203.528 70.88ZM205.544 72.932L206.678 73.472C206.27 74.132 205.814 74.84 205.31 75.596C204.806 76.34 204.296 77.06 203.78 77.756C203.276 78.452 202.796 79.058 202.34 79.574L201.512 79.106C201.848 78.71 202.202 78.26 202.574 77.756C202.946 77.24 203.312 76.706 203.672 76.154C204.032 75.59 204.374 75.032 204.698 74.48C205.022 73.928 205.304 73.412 205.544 72.932ZM200.666 74.642L201.368 73.778C201.692 74.066 202.016 74.384 202.34 74.732C202.676 75.08 202.982 75.422 203.258 75.758C203.534 76.094 203.75 76.4 203.906 76.676L203.15 77.684C202.994 77.396 202.778 77.072 202.502 76.712C202.238 76.352 201.944 75.992 201.62 75.632C201.296 75.272 200.978 74.942 200.666 74.642ZM204.842 77.054L205.832 76.658C206.084 77.042 206.324 77.462 206.552 77.918C206.78 78.374 206.984 78.818 207.164 79.25C207.356 79.67 207.494 80.042 207.578 80.366L206.498 80.87C206.426 80.522 206.3 80.132 206.12 79.7C205.952 79.256 205.76 78.806 205.544 78.35C205.328 77.882 205.094 77.45 204.842 77.054ZM200.504 78.836C201.284 78.8 202.208 78.758 203.276 78.71C204.356 78.65 205.46 78.59 206.588 78.53V79.664C205.532 79.736 204.482 79.808 203.438 79.88C202.406 79.94 201.482 79.994 200.666 80.042L200.504 78.836ZM205.328 81.41L206.318 81.122C206.546 81.626 206.744 82.178 206.912 82.778C207.092 83.378 207.212 83.9 207.272 84.344L206.21 84.668C206.174 84.224 206.072 83.702 205.904 83.102C205.736 82.49 205.544 81.926 205.328 81.41ZM201.602 81.176L202.736 81.356C202.616 82.208 202.448 83.048 202.232 83.876C202.028 84.692 201.788 85.388 201.512 85.964C201.44 85.916 201.338 85.862 201.206 85.802C201.074 85.73 200.942 85.664 200.81 85.604C200.678 85.544 200.564 85.496 200.468 85.46C200.768 84.908 201.008 84.254 201.188 83.498C201.368 82.73 201.506 81.956 201.602 81.176ZM203.51 79.376H204.698V87.44H203.51V79.376ZM222.608 70.88L223.922 71.258C223.598 71.93 223.214 72.59 222.77 73.238C222.326 73.874 221.852 74.468 221.348 75.02C220.856 75.572 220.358 76.058 219.854 76.478C219.782 76.394 219.674 76.298 219.53 76.19C219.398 76.07 219.26 75.956 219.116 75.848C218.984 75.74 218.864 75.656 218.756 75.596C219.524 75.02 220.25 74.318 220.934 73.49C221.618 72.662 222.176 71.792 222.608 70.88ZM221.978 72.95H234.38V74.174H221.528L221.978 72.95ZM218.972 77.198H235.046V78.44H218.972V77.198ZM219.242 81.5H234.812V82.742H219.242V81.5ZM224.696 73.364H225.884V82.094H224.696V73.364ZM221.492 73.364H222.698V82.148H221.492V73.364ZM227.954 73.364H229.124V82.148H227.954V73.364ZM231.248 73.364H232.508V82.148H231.248V73.364ZM224.21 83.966L225.452 83.84C225.572 84.368 225.674 84.938 225.758 85.55C225.842 86.162 225.89 86.678 225.902 87.098L224.588 87.278C224.588 86.99 224.57 86.654 224.534 86.27C224.51 85.898 224.468 85.508 224.408 85.1C224.36 84.692 224.294 84.314 224.21 83.966ZM227.882 83.966L229.142 83.732C229.31 84.08 229.472 84.458 229.628 84.866C229.784 85.262 229.922 85.646 230.042 86.018C230.162 86.39 230.252 86.72 230.312 87.008L228.98 87.296C228.896 86.864 228.752 86.336 228.548 85.712C228.344 85.088 228.122 84.506 227.882 83.966ZM231.554 83.84L232.832 83.426C233.132 83.774 233.438 84.164 233.75 84.596C234.062 85.028 234.35 85.454 234.614 85.874C234.89 86.282 235.106 86.654 235.262 86.99L233.93 87.476C233.786 87.152 233.582 86.78 233.318 86.36C233.066 85.94 232.784 85.508 232.472 85.064C232.16 84.62 231.854 84.212 231.554 83.84ZM221.06 83.498L222.356 83.822C222.116 84.494 221.804 85.16 221.42 85.82C221.036 86.48 220.598 87.026 220.106 87.458L218.846 86.936C219.314 86.552 219.746 86.048 220.142 85.424C220.538 84.8 220.844 84.158 221.06 83.498ZM236.846 73.364H245.63V74.588H236.846V73.364ZM240.662 70.916H241.994V73.832H240.662V70.916ZM238.97 75.218L240.266 75.542C239.942 76.31 239.534 77.066 239.042 77.81C238.562 78.554 238.07 79.19 237.566 79.718C237.482 79.634 237.374 79.544 237.242 79.448C237.11 79.34 236.978 79.238 236.846 79.142C236.714 79.046 236.594 78.968 236.486 78.908C237.002 78.44 237.476 77.882 237.908 77.234C238.352 76.574 238.706 75.902 238.97 75.218ZM242.462 78.26L243.794 78.548C243.206 80.54 242.378 82.28 241.31 83.768C240.254 85.244 238.97 86.456 237.458 87.404C237.398 87.32 237.308 87.206 237.188 87.062C237.08 86.93 236.96 86.798 236.828 86.666C236.708 86.534 236.6 86.426 236.504 86.342C237.98 85.514 239.216 84.416 240.212 83.048C241.208 81.668 241.958 80.072 242.462 78.26ZM242.426 75.65L243.47 75.11C243.77 75.458 244.07 75.836 244.37 76.244C244.67 76.64 244.934 77.036 245.162 77.432C245.402 77.828 245.588 78.188 245.72 78.512L244.586 79.142C244.466 78.818 244.292 78.452 244.064 78.044C243.836 77.636 243.578 77.228 243.29 76.82C243.002 76.4 242.714 76.01 242.426 75.65ZM238.394 79.97L239.186 79.052C239.858 79.544 240.548 80.09 241.256 80.69C241.964 81.29 242.624 81.89 243.236 82.49C243.848 83.078 244.334 83.612 244.694 84.092L243.848 85.19C243.488 84.698 243.002 84.146 242.39 83.534C241.79 82.91 241.142 82.292 240.446 81.68C239.75 81.056 239.066 80.486 238.394 79.97ZM245.396 75.038H252.074V76.316H245.396V75.038ZM251.552 75.038H252.812C252.812 75.038 252.812 75.086 252.812 75.182C252.812 75.266 252.812 75.362 252.812 75.47C252.812 75.566 252.812 75.644 252.812 75.704C252.764 77.612 252.716 79.22 252.668 80.528C252.632 81.836 252.578 82.91 252.506 83.75C252.434 84.578 252.35 85.214 252.254 85.658C252.158 86.102 252.038 86.426 251.894 86.63C251.726 86.858 251.546 87.02 251.354 87.116C251.174 87.212 250.94 87.272 250.652 87.296C250.388 87.332 250.046 87.344 249.626 87.332C249.218 87.332 248.792 87.326 248.348 87.314C248.336 87.11 248.294 86.888 248.222 86.648C248.162 86.408 248.072 86.198 247.952 86.018C248.432 86.054 248.864 86.078 249.248 86.09C249.644 86.102 249.932 86.108 250.112 86.108C250.256 86.108 250.376 86.09 250.472 86.054C250.58 86.018 250.676 85.946 250.76 85.838C250.868 85.694 250.964 85.412 251.048 84.992C251.132 84.56 251.204 83.942 251.264 83.138C251.324 82.322 251.372 81.278 251.408 80.006C251.456 78.734 251.504 77.18 251.552 75.344V75.038ZM247.682 71.06H248.978C248.966 72.416 248.942 73.748 248.906 75.056C248.882 76.352 248.804 77.606 248.672 78.818C248.552 80.018 248.348 81.158 248.06 82.238C247.784 83.306 247.394 84.284 246.89 85.172C246.398 86.048 245.756 86.828 244.964 87.512C244.856 87.356 244.7 87.182 244.496 86.99C244.292 86.81 244.106 86.666 243.938 86.558C244.694 85.946 245.306 85.226 245.774 84.398C246.254 83.558 246.626 82.634 246.89 81.626C247.154 80.618 247.34 79.55 247.448 78.422C247.556 77.282 247.622 76.094 247.646 74.858C247.67 73.61 247.682 72.344 247.682 71.06Z" fill="#646464"/>
<path d="M72.6468 135.08L73.5958 135.353C73.3618 135.838 73.0845 136.315 72.7638 136.783C72.4432 137.242 72.1008 137.671 71.7368 138.07C71.3815 138.469 71.0218 138.82 70.6578 139.123C70.6058 139.062 70.5278 138.993 70.4238 138.915C70.3285 138.828 70.2288 138.746 70.1248 138.668C70.0295 138.59 69.9428 138.529 69.8648 138.486C70.4195 138.07 70.9438 137.563 71.4378 136.965C71.9318 136.367 72.3348 135.739 72.6468 135.08ZM72.1918 136.575H81.1488V137.459H71.8668L72.1918 136.575ZM70.0208 139.643H81.6298V140.54H70.0208V139.643ZM70.2158 142.75H81.4608V143.647H70.2158V142.75ZM74.1548 136.874H75.0128V143.179H74.1548V136.874ZM71.8408 136.874H72.7118V143.218H71.8408V136.874ZM76.5078 136.874H77.3528V143.218H76.5078V136.874ZM78.8868 136.874H79.7968V143.218H78.8868V136.874ZM73.8038 144.531L74.7008 144.44C74.7875 144.821 74.8612 145.233 74.9218 145.675C74.9825 146.117 75.0172 146.49 75.0258 146.793L74.0768 146.923C74.0768 146.715 74.0638 146.472 74.0378 146.195C74.0205 145.926 73.9902 145.645 73.9468 145.35C73.9122 145.055 73.8645 144.782 73.8038 144.531ZM76.4558 144.531L77.3658 144.362C77.4872 144.613 77.6042 144.886 77.7168 145.181C77.8295 145.467 77.9292 145.744 78.0158 146.013C78.1025 146.282 78.1675 146.52 78.2108 146.728L77.2488 146.936C77.1882 146.624 77.0842 146.243 76.9368 145.792C76.7895 145.341 76.6292 144.921 76.4558 144.531ZM79.1078 144.44L80.0308 144.141C80.2475 144.392 80.4685 144.674 80.6938 144.986C80.9192 145.298 81.1272 145.606 81.3178 145.909C81.5172 146.204 81.6732 146.472 81.7858 146.715L80.8238 147.066C80.7198 146.832 80.5725 146.563 80.3818 146.26C80.1998 145.957 79.9962 145.645 79.7708 145.324C79.5455 145.003 79.3245 144.709 79.1078 144.44ZM71.5288 144.193L72.4648 144.427C72.2915 144.912 72.0662 145.393 71.7888 145.87C71.5115 146.347 71.1952 146.741 70.8398 147.053L69.9298 146.676C70.2678 146.399 70.5798 146.035 70.8658 145.584C71.1518 145.133 71.3728 144.67 71.5288 144.193ZM93.9278 141.58L94.7208 142.152C94.3655 142.473 93.9842 142.802 93.5768 143.14C93.1695 143.469 92.7925 143.747 92.4458 143.972L91.8478 143.517C92.0732 143.344 92.3115 143.144 92.5628 142.919C92.8228 142.694 93.0742 142.464 93.3168 142.23C93.5595 141.996 93.7632 141.779 93.9278 141.58ZM90.7038 135.067L91.7828 135.275C91.6355 135.587 91.4752 135.899 91.3018 136.211C91.1285 136.514 90.9682 136.779 90.8208 137.004L90.0018 136.796C90.1232 136.553 90.2532 136.267 90.3918 135.938C90.5305 135.609 90.6345 135.318 90.7038 135.067ZM88.9358 139.084V140.215H93.3168V139.084H88.9358ZM88.9358 137.212V138.343H93.3168V137.212H88.9358ZM88.0388 136.419H94.2528V141.021H88.0388V136.419ZM90.6648 140.592H91.5488V145.987C91.5488 146.238 91.5185 146.429 91.4578 146.559C91.4058 146.698 91.2975 146.806 91.1328 146.884C90.9682 146.953 90.7515 146.992 90.4828 147.001C90.2142 147.018 89.8762 147.027 89.4688 147.027C89.4515 146.906 89.4168 146.763 89.3648 146.598C89.3128 146.442 89.2565 146.299 89.1958 146.169C89.4905 146.178 89.7548 146.182 89.9888 146.182C90.2228 146.182 90.3788 146.182 90.4568 146.182C90.5435 146.173 90.5998 146.156 90.6258 146.13C90.6518 146.104 90.6648 146.056 90.6648 145.987V140.592ZM87.5448 142.139H89.7158V142.971H87.5448V142.139ZM89.4948 142.139H89.6768L89.8328 142.113L90.3658 142.334C90.1405 143.374 89.7808 144.236 89.2868 144.921C88.8015 145.606 88.2338 146.134 87.5838 146.507C87.5492 146.438 87.4928 146.36 87.4148 146.273C87.3455 146.186 87.2675 146.104 87.1808 146.026C87.1028 145.948 87.0335 145.887 86.9728 145.844C87.5795 145.515 88.1038 145.055 88.5458 144.466C88.9878 143.877 89.3042 143.153 89.4948 142.295V142.139ZM91.4448 140.657C91.5315 141.116 91.6615 141.589 91.8348 142.074C92.0082 142.559 92.2335 143.032 92.5108 143.491C92.7882 143.95 93.1305 144.375 93.5378 144.765C93.9538 145.146 94.4435 145.463 95.0068 145.714C94.9462 145.775 94.8768 145.853 94.7988 145.948C94.7295 146.035 94.6602 146.126 94.5908 146.221C94.5215 146.325 94.4608 146.42 94.4088 146.507C93.8542 146.221 93.3732 145.87 92.9658 145.454C92.5672 145.038 92.2292 144.592 91.9518 144.115C91.6832 143.63 91.4622 143.149 91.2888 142.672C91.1242 142.187 90.9942 141.732 90.8988 141.307L91.4448 140.657ZM84.8668 135.08L85.7248 135.405C85.5688 135.726 85.3955 136.059 85.2048 136.406C85.0228 136.753 84.8365 137.091 84.6458 137.42C84.4638 137.741 84.2905 138.022 84.1258 138.265L83.4498 137.966C83.6145 137.715 83.7835 137.42 83.9568 137.082C84.1388 136.744 84.3078 136.397 84.4638 136.042C84.6285 135.687 84.7628 135.366 84.8668 135.08ZM86.3228 136.562L87.1418 136.952C86.8472 137.429 86.5178 137.94 86.1538 138.486C85.7898 139.023 85.4215 139.543 85.0488 140.046C84.6848 140.549 84.3382 140.986 84.0088 141.359L83.4108 141.021C83.6535 140.735 83.9092 140.41 84.1778 140.046C84.4465 139.673 84.7108 139.288 84.9708 138.889C85.2308 138.482 85.4778 138.079 85.7118 137.68C85.9458 137.281 86.1495 136.909 86.3228 136.562ZM82.7998 137.797L83.3068 137.173C83.5408 137.381 83.7748 137.611 84.0088 137.862C84.2515 138.113 84.4725 138.36 84.6718 138.603C84.8712 138.846 85.0272 139.067 85.1398 139.266L84.5938 139.994C84.4812 139.786 84.3252 139.552 84.1258 139.292C83.9352 139.032 83.7228 138.772 83.4888 138.512C83.2548 138.252 83.0252 138.014 82.7998 137.797ZM85.8158 139.539L86.5308 139.253C86.7128 139.53 86.8862 139.834 87.0508 140.163C87.2155 140.492 87.3628 140.813 87.4928 141.125C87.6315 141.428 87.7312 141.697 87.7918 141.931L87.0118 142.295C86.9598 142.044 86.8688 141.762 86.7388 141.45C86.6175 141.129 86.4788 140.804 86.3228 140.475C86.1668 140.137 85.9978 139.825 85.8158 139.539ZM82.6828 140.826C83.2462 140.8 83.9135 140.77 84.6848 140.735C85.4648 140.692 86.2622 140.648 87.0768 140.605V141.424C86.3142 141.476 85.5558 141.528 84.8018 141.58C84.0565 141.623 83.3892 141.662 82.7998 141.697L82.6828 140.826ZM86.1668 142.685L86.8818 142.477C87.0465 142.841 87.1895 143.24 87.3108 143.673C87.4408 144.106 87.5275 144.483 87.5708 144.804L86.8038 145.038C86.7778 144.717 86.7042 144.34 86.5828 143.907C86.4615 143.465 86.3228 143.058 86.1668 142.685ZM83.4758 142.516L84.2948 142.646C84.2082 143.261 84.0868 143.868 83.9308 144.466C83.7835 145.055 83.6102 145.558 83.4108 145.974C83.3588 145.939 83.2852 145.9 83.1898 145.857C83.0945 145.805 82.9992 145.757 82.9038 145.714C82.8085 145.671 82.7262 145.636 82.6568 145.61C82.8735 145.211 83.0468 144.739 83.1768 144.193C83.3068 143.638 83.4065 143.079 83.4758 142.516ZM84.8538 141.216H85.7118V147.04H84.8538V141.216ZM96.6318 146V136.471H97.8278V144.973H102.001V146H96.6318ZM102.429 146L105.653 136.471H106.992L110.229 146H108.955L107.291 140.67C107.118 140.124 106.953 139.591 106.797 139.071C106.641 138.542 106.485 138.001 106.329 137.446H106.277C106.13 138.001 105.974 138.542 105.809 139.071C105.653 139.591 105.493 140.124 105.328 140.67L103.638 146H102.429ZM104.106 143.088V142.139H108.5V143.088H104.106ZM111.6 146V136.471H112.822L116.306 142.477L117.333 144.44H117.398C117.354 143.963 117.315 143.465 117.281 142.945C117.246 142.425 117.229 141.918 117.229 141.424V136.471H118.373V146H117.138L113.667 139.981L112.64 138.031H112.588C112.614 138.508 112.644 138.997 112.679 139.5C112.713 139.994 112.731 140.492 112.731 140.995V146H111.6ZM131.784 137.212C131.732 137.273 131.671 137.346 131.602 137.433C131.541 137.52 131.485 137.602 131.433 137.68C131.268 137.975 131.021 138.339 130.692 138.772C130.371 139.197 129.999 139.634 129.574 140.085C129.149 140.527 128.69 140.921 128.196 141.268L127.338 140.579C127.641 140.406 127.936 140.198 128.222 139.955C128.517 139.704 128.79 139.444 129.041 139.175C129.301 138.898 129.526 138.629 129.717 138.369C129.916 138.1 130.072 137.866 130.185 137.667C130.046 137.667 129.821 137.667 129.509 137.667C129.206 137.667 128.842 137.667 128.417 137.667C128.001 137.667 127.555 137.667 127.078 137.667C126.601 137.667 126.129 137.667 125.661 137.667C125.193 137.667 124.755 137.667 124.348 137.667C123.941 137.667 123.598 137.667 123.321 137.667C123.044 137.667 122.862 137.667 122.775 137.667C122.532 137.667 122.29 137.676 122.047 137.693C121.804 137.702 121.553 137.719 121.293 137.745V136.562C121.518 136.597 121.761 136.627 122.021 136.653C122.281 136.67 122.532 136.679 122.775 136.679C122.862 136.679 123.048 136.679 123.334 136.679C123.62 136.679 123.967 136.679 124.374 136.679C124.79 136.679 125.241 136.679 125.726 136.679C126.211 136.679 126.692 136.679 127.169 136.679C127.654 136.679 128.109 136.679 128.534 136.679C128.959 136.679 129.318 136.679 129.613 136.679C129.916 136.679 130.124 136.679 130.237 136.679C130.324 136.679 130.423 136.679 130.536 136.679C130.657 136.67 130.774 136.657 130.887 136.64C131 136.623 131.086 136.61 131.147 136.601L131.784 137.212ZM126.597 138.928C126.597 139.63 126.575 140.289 126.532 140.904C126.489 141.519 126.402 142.096 126.272 142.633C126.142 143.17 125.943 143.669 125.674 144.128C125.414 144.579 125.063 145.003 124.621 145.402C124.179 145.792 123.629 146.152 122.97 146.481L122.008 145.701C122.19 145.64 122.385 145.562 122.593 145.467C122.801 145.363 122.996 145.246 123.178 145.116C123.689 144.813 124.097 144.47 124.4 144.089C124.703 143.708 124.929 143.296 125.076 142.854C125.232 142.403 125.336 141.931 125.388 141.437C125.449 140.934 125.479 140.414 125.479 139.877C125.479 139.712 125.475 139.556 125.466 139.409C125.466 139.262 125.453 139.101 125.427 138.928H126.597ZM142.626 135.522C142.739 135.669 142.86 135.851 142.99 136.068C143.12 136.276 143.246 136.488 143.367 136.705C143.488 136.922 143.597 137.121 143.692 137.303L142.99 137.615C142.86 137.355 142.695 137.052 142.496 136.705C142.297 136.358 142.11 136.064 141.937 135.821L142.626 135.522ZM144.056 135.002C144.169 135.158 144.29 135.344 144.42 135.561C144.559 135.778 144.693 135.994 144.823 136.211C144.953 136.419 145.061 136.605 145.148 136.77L144.446 137.082C144.307 136.796 144.138 136.488 143.939 136.159C143.74 135.821 143.549 135.531 143.367 135.288L144.056 135.002ZM137.66 140.345C138.085 140.588 138.522 140.856 138.973 141.151C139.432 141.446 139.892 141.753 140.351 142.074C140.81 142.395 141.244 142.707 141.651 143.01C142.067 143.313 142.435 143.595 142.756 143.855L141.989 144.752C141.694 144.483 141.343 144.189 140.936 143.868C140.529 143.539 140.091 143.209 139.623 142.88C139.164 142.542 138.704 142.221 138.245 141.918C137.786 141.606 137.357 141.324 136.958 141.073L137.66 140.345ZM143.614 137.979C143.553 138.066 143.497 138.178 143.445 138.317C143.393 138.447 143.35 138.564 143.315 138.668C143.185 139.11 143.007 139.587 142.782 140.098C142.565 140.609 142.301 141.125 141.989 141.645C141.686 142.165 141.343 142.659 140.962 143.127C140.373 143.855 139.64 144.548 138.765 145.207C137.898 145.866 136.85 146.425 135.619 146.884L134.683 146.065C135.498 145.822 136.234 145.515 136.893 145.142C137.552 144.769 138.145 144.362 138.674 143.92C139.203 143.478 139.662 143.027 140.052 142.568C140.39 142.161 140.698 141.723 140.975 141.255C141.261 140.778 141.508 140.302 141.716 139.825C141.924 139.348 142.076 138.911 142.171 138.512H137.348L137.777 137.576H141.898C142.071 137.576 142.232 137.567 142.379 137.55C142.526 137.524 142.652 137.494 142.756 137.459L143.614 137.979ZM139.233 136.094C139.12 136.267 139.012 136.454 138.908 136.653C138.804 136.844 138.717 137 138.648 137.121C138.388 137.589 138.054 138.109 137.647 138.681C137.24 139.253 136.759 139.821 136.204 140.384C135.649 140.947 135.025 141.467 134.332 141.944L133.461 141.281C134.206 140.813 134.852 140.306 135.398 139.76C135.953 139.205 136.412 138.664 136.776 138.135C137.149 137.606 137.435 137.143 137.634 136.744C137.703 136.631 137.781 136.475 137.868 136.276C137.955 136.077 138.015 135.89 138.05 135.717L139.233 136.094ZM156.146 136.666C156.146 136.9 156.228 137.104 156.393 137.277C156.566 137.442 156.77 137.524 157.004 137.524C157.247 137.524 157.45 137.442 157.615 137.277C157.788 137.104 157.875 136.9 157.875 136.666C157.875 136.423 157.788 136.22 157.615 136.055C157.45 135.882 157.247 135.795 157.004 135.795C156.77 135.795 156.566 135.882 156.393 136.055C156.228 136.22 156.146 136.423 156.146 136.666ZM155.548 136.666C155.548 136.397 155.613 136.155 155.743 135.938C155.882 135.713 156.059 135.535 156.276 135.405C156.493 135.266 156.735 135.197 157.004 135.197C157.273 135.197 157.515 135.266 157.732 135.405C157.957 135.535 158.135 135.713 158.265 135.938C158.404 136.155 158.473 136.397 158.473 136.666C158.473 136.935 158.404 137.177 158.265 137.394C158.135 137.611 157.957 137.788 157.732 137.927C157.515 138.057 157.273 138.122 157.004 138.122C156.735 138.122 156.493 138.057 156.276 137.927C156.059 137.788 155.882 137.611 155.743 137.394C155.613 137.177 155.548 136.935 155.548 136.666ZM156.679 137.537C156.636 137.624 156.597 137.723 156.562 137.836C156.536 137.94 156.51 138.057 156.484 138.187C156.415 138.525 156.324 138.902 156.211 139.318C156.098 139.734 155.96 140.163 155.795 140.605C155.639 141.038 155.457 141.459 155.249 141.866C155.041 142.273 154.807 142.646 154.547 142.984C154.148 143.487 153.706 143.955 153.221 144.388C152.736 144.821 152.181 145.211 151.557 145.558C150.933 145.905 150.222 146.204 149.425 146.455L148.541 145.48C149.39 145.272 150.123 145.012 150.738 144.7C151.362 144.388 151.908 144.037 152.376 143.647C152.844 143.248 153.256 142.819 153.611 142.36C153.923 141.961 154.192 141.515 154.417 141.021C154.651 140.518 154.846 140.016 155.002 139.513C155.158 139.002 155.262 138.538 155.314 138.122C155.193 138.122 154.963 138.122 154.625 138.122C154.287 138.122 153.888 138.122 153.429 138.122C152.97 138.122 152.489 138.122 151.986 138.122C151.492 138.122 151.015 138.122 150.556 138.122C150.097 138.122 149.698 138.122 149.36 138.122C149.022 138.122 148.792 138.122 148.671 138.122C148.411 138.122 148.173 138.126 147.956 138.135C147.739 138.144 147.544 138.152 147.371 138.161V137.004C147.492 137.021 147.627 137.039 147.774 137.056C147.921 137.065 148.073 137.073 148.229 137.082C148.385 137.091 148.532 137.095 148.671 137.095C148.775 137.095 148.961 137.095 149.23 137.095C149.499 137.095 149.815 137.095 150.179 137.095C150.552 137.095 150.946 137.095 151.362 137.095C151.787 137.095 152.203 137.095 152.61 137.095C153.026 137.095 153.412 137.095 153.767 137.095C154.131 137.095 154.439 137.095 154.69 137.095C154.941 137.095 155.11 137.095 155.197 137.095C155.292 137.095 155.401 137.091 155.522 137.082C155.643 137.073 155.765 137.056 155.886 137.03L156.679 137.537ZM164.076 140.046C164.492 140.289 164.93 140.557 165.389 140.852C165.848 141.147 166.303 141.454 166.754 141.775C167.213 142.087 167.651 142.395 168.067 142.698C168.483 143.001 168.851 143.287 169.172 143.556L168.405 144.453C168.11 144.184 167.755 143.89 167.339 143.569C166.932 143.24 166.498 142.91 166.039 142.581C165.58 142.243 165.12 141.918 164.661 141.606C164.202 141.294 163.773 141.012 163.374 140.761L164.076 140.046ZM170.03 137.667C169.969 137.762 169.913 137.879 169.861 138.018C169.809 138.148 169.761 138.265 169.718 138.369C169.597 138.811 169.423 139.288 169.198 139.799C168.973 140.31 168.708 140.826 168.405 141.346C168.102 141.857 167.755 142.351 167.365 142.828C166.784 143.547 166.056 144.241 165.181 144.908C164.314 145.567 163.266 146.121 162.035 146.572L161.099 145.766C161.905 145.515 162.637 145.207 163.296 144.843C163.963 144.47 164.561 144.063 165.09 143.621C165.619 143.179 166.078 142.724 166.468 142.256C166.806 141.857 167.114 141.42 167.391 140.943C167.677 140.466 167.924 139.994 168.132 139.526C168.34 139.049 168.492 138.607 168.587 138.2H163.764L164.18 137.277H168.314C168.487 137.277 168.648 137.268 168.795 137.251C168.942 137.225 169.068 137.19 169.172 137.147L170.03 137.667ZM165.649 135.795C165.536 135.968 165.428 136.15 165.324 136.341C165.22 136.532 165.133 136.688 165.064 136.809C164.804 137.286 164.466 137.81 164.05 138.382C163.643 138.945 163.162 139.509 162.607 140.072C162.061 140.635 161.441 141.16 160.748 141.645L159.877 140.969C160.622 140.51 161.268 140.003 161.814 139.448C162.36 138.893 162.819 138.352 163.192 137.823C163.565 137.294 163.851 136.835 164.05 136.445C164.119 136.332 164.197 136.176 164.284 135.977C164.371 135.769 164.431 135.583 164.466 135.418L165.649 135.795ZM173.007 140.371C173.137 140.38 173.297 140.393 173.488 140.41C173.679 140.419 173.887 140.427 174.112 140.436C174.346 140.436 174.58 140.436 174.814 140.436C174.953 140.436 175.165 140.436 175.451 140.436C175.746 140.436 176.088 140.436 176.478 140.436C176.868 140.436 177.28 140.436 177.713 140.436C178.155 140.436 178.593 140.436 179.026 140.436C179.468 140.436 179.884 140.436 180.274 140.436C180.673 140.436 181.015 140.436 181.301 140.436C181.587 140.436 181.799 140.436 181.938 140.436C182.267 140.436 182.549 140.427 182.783 140.41C183.017 140.393 183.203 140.38 183.342 140.371V141.645C183.212 141.636 183.017 141.623 182.757 141.606C182.506 141.589 182.237 141.58 181.951 141.58C181.812 141.58 181.596 141.58 181.301 141.58C181.006 141.58 180.664 141.58 180.274 141.58C179.893 141.58 179.481 141.58 179.039 141.58C178.597 141.58 178.155 141.58 177.713 141.58C177.28 141.58 176.868 141.58 176.478 141.58C176.097 141.58 175.759 141.58 175.464 141.58C175.169 141.58 174.953 141.58 174.814 141.58C174.459 141.58 174.121 141.589 173.8 141.606C173.479 141.615 173.215 141.628 173.007 141.645V140.371ZM192.39 136.64H193.339V143.855H192.39V136.64ZM195.575 135.327H196.55V145.74C196.55 146.078 196.502 146.329 196.407 146.494C196.32 146.659 196.173 146.784 195.965 146.871C195.748 146.949 195.449 146.997 195.068 147.014C194.695 147.04 194.21 147.053 193.612 147.053C193.595 146.966 193.564 146.862 193.521 146.741C193.478 146.62 193.434 146.498 193.391 146.377C193.348 146.256 193.3 146.152 193.248 146.065C193.707 146.074 194.123 146.078 194.496 146.078C194.869 146.087 195.116 146.087 195.237 146.078C195.358 146.069 195.445 146.043 195.497 146C195.549 145.948 195.575 145.861 195.575 145.74V135.327ZM187.58 141.346H190.648V142.217H187.58V141.346ZM190.245 141.346H191.155C191.155 141.346 191.151 141.372 191.142 141.424C191.142 141.467 191.142 141.524 191.142 141.593C191.142 141.654 191.142 141.706 191.142 141.749C191.099 142.841 191.047 143.721 190.986 144.388C190.934 145.047 190.869 145.549 190.791 145.896C190.722 146.234 190.626 146.472 190.505 146.611C190.401 146.75 190.28 146.841 190.141 146.884C190.011 146.936 189.851 146.971 189.66 146.988C189.495 147.005 189.266 147.014 188.971 147.014C188.685 147.014 188.382 147.005 188.061 146.988C188.052 146.858 188.022 146.711 187.97 146.546C187.927 146.381 187.866 146.238 187.788 146.117C188.117 146.152 188.416 146.169 188.685 146.169C188.962 146.178 189.157 146.182 189.27 146.182C189.383 146.182 189.474 146.173 189.543 146.156C189.612 146.147 189.673 146.108 189.725 146.039C189.812 145.952 189.885 145.749 189.946 145.428C190.007 145.107 190.059 144.635 190.102 144.011C190.154 143.378 190.202 142.542 190.245 141.502V141.346ZM186.813 136.549V139.058H190.128V136.549H186.813ZM185.916 135.678H191.064V139.942H185.916V135.678ZM187.346 139.604H188.308C188.273 140.289 188.213 140.986 188.126 141.697C188.048 142.399 187.922 143.084 187.749 143.751C187.576 144.41 187.329 145.025 187.008 145.597C186.696 146.16 186.293 146.65 185.799 147.066C185.721 146.953 185.613 146.832 185.474 146.702C185.344 146.572 185.223 146.472 185.11 146.403C185.578 146.022 185.951 145.571 186.228 145.051C186.514 144.531 186.731 143.968 186.878 143.361C187.034 142.746 187.142 142.122 187.203 141.489C187.272 140.848 187.32 140.219 187.346 139.604ZM198.526 136.367H209.862V137.264H198.526V136.367ZM199.735 138.577H208.692V139.448H199.735V138.577ZM198.864 140.488H209.511V142.984H208.536V141.385H199.8V142.984H198.864V140.488ZM203.635 135.08H204.649V139.032H203.635V135.08ZM205.156 142.035H206.131V145.48C206.131 145.662 206.166 145.779 206.235 145.831C206.313 145.883 206.482 145.909 206.742 145.909C206.803 145.909 206.911 145.909 207.067 145.909C207.223 145.909 207.392 145.909 207.574 145.909C207.765 145.909 207.942 145.909 208.107 145.909C208.28 145.909 208.402 145.909 208.471 145.909C208.627 145.909 208.744 145.87 208.822 145.792C208.909 145.714 208.969 145.554 209.004 145.311C209.039 145.068 209.06 144.7 209.069 144.206C209.147 144.258 209.238 144.31 209.342 144.362C209.446 144.414 209.554 144.462 209.667 144.505C209.78 144.54 209.879 144.57 209.966 144.596C209.931 145.185 209.866 145.64 209.771 145.961C209.684 146.282 209.546 146.498 209.355 146.611C209.164 146.732 208.9 146.793 208.562 146.793C208.493 146.793 208.367 146.793 208.185 146.793C208.003 146.793 207.804 146.793 207.587 146.793C207.37 146.793 207.175 146.793 207.002 146.793C206.829 146.793 206.712 146.793 206.651 146.793C206.252 146.793 205.945 146.754 205.728 146.676C205.52 146.607 205.373 146.477 205.286 146.286C205.199 146.095 205.156 145.831 205.156 145.493V142.035ZM201.945 142.035H202.959C202.898 142.702 202.799 143.305 202.66 143.842C202.521 144.371 202.305 144.839 202.01 145.246C201.715 145.653 201.308 146.004 200.788 146.299C200.277 146.602 199.614 146.854 198.799 147.053C198.773 146.966 198.73 146.871 198.669 146.767C198.608 146.663 198.539 146.559 198.461 146.455C198.392 146.36 198.322 146.282 198.253 146.221C198.998 146.056 199.605 145.853 200.073 145.61C200.541 145.367 200.901 145.077 201.152 144.739C201.412 144.392 201.598 143.998 201.711 143.556C201.824 143.105 201.902 142.598 201.945 142.035ZM216.076 140.046C216.492 140.289 216.93 140.557 217.389 140.852C217.848 141.147 218.303 141.454 218.754 141.775C219.213 142.087 219.651 142.395 220.067 142.698C220.483 143.001 220.851 143.287 221.172 143.556L220.405 144.453C220.11 144.184 219.755 143.89 219.339 143.569C218.932 143.24 218.498 142.91 218.039 142.581C217.58 142.243 217.12 141.918 216.661 141.606C216.202 141.294 215.773 141.012 215.374 140.761L216.076 140.046ZM222.03 137.667C221.969 137.762 221.913 137.879 221.861 138.018C221.809 138.148 221.761 138.265 221.718 138.369C221.597 138.811 221.423 139.288 221.198 139.799C220.973 140.31 220.708 140.826 220.405 141.346C220.102 141.857 219.755 142.351 219.365 142.828C218.784 143.547 218.056 144.241 217.181 144.908C216.314 145.567 215.266 146.121 214.035 146.572L213.099 145.766C213.905 145.515 214.637 145.207 215.296 144.843C215.963 144.47 216.561 144.063 217.09 143.621C217.619 143.179 218.078 142.724 218.468 142.256C218.806 141.857 219.114 141.42 219.391 140.943C219.677 140.466 219.924 139.994 220.132 139.526C220.34 139.049 220.492 138.607 220.587 138.2H215.764L216.18 137.277H220.314C220.487 137.277 220.648 137.268 220.795 137.251C220.942 137.225 221.068 137.19 221.172 137.147L222.03 137.667ZM217.649 135.795C217.536 135.968 217.428 136.15 217.324 136.341C217.22 136.532 217.133 136.688 217.064 136.809C216.804 137.286 216.466 137.81 216.05 138.382C215.643 138.945 215.162 139.509 214.607 140.072C214.061 140.635 213.441 141.16 212.748 141.645L211.877 140.969C212.622 140.51 213.268 140.003 213.814 139.448C214.36 138.893 214.819 138.352 215.192 137.823C215.565 137.294 215.851 136.835 216.05 136.445C216.119 136.332 216.197 136.176 216.284 135.977C216.371 135.769 216.431 135.583 216.466 135.418L217.649 135.795ZM224.799 141.307C225.926 141.004 226.974 140.635 227.945 140.202C228.916 139.769 229.761 139.327 230.48 138.876C230.931 138.59 231.368 138.282 231.793 137.953C232.226 137.615 232.634 137.264 233.015 136.9C233.396 136.536 233.734 136.176 234.029 135.821L234.9 136.627C234.536 137.017 234.142 137.398 233.717 137.771C233.292 138.144 232.842 138.503 232.365 138.85C231.897 139.188 231.407 139.517 230.896 139.838C230.419 140.124 229.882 140.419 229.284 140.722C228.686 141.025 228.049 141.311 227.373 141.58C226.697 141.849 226.012 142.096 225.319 142.321L224.799 141.307ZM230.272 139.422L231.39 139.084V145.012C231.39 145.177 231.39 145.35 231.39 145.532C231.399 145.714 231.407 145.883 231.416 146.039C231.433 146.195 231.451 146.316 231.468 146.403H230.194C230.203 146.316 230.211 146.195 230.22 146.039C230.237 145.883 230.25 145.714 230.259 145.532C230.268 145.35 230.272 145.177 230.272 145.012V139.422ZM247.146 136.666C247.146 136.9 247.228 137.104 247.393 137.277C247.566 137.442 247.77 137.524 248.004 137.524C248.247 137.524 248.45 137.442 248.615 137.277C248.788 137.104 248.875 136.9 248.875 136.666C248.875 136.423 248.788 136.22 248.615 136.055C248.45 135.882 248.247 135.795 248.004 135.795C247.77 135.795 247.566 135.882 247.393 136.055C247.228 136.22 247.146 136.423 247.146 136.666ZM246.548 136.666C246.548 136.397 246.613 136.155 246.743 135.938C246.882 135.713 247.059 135.535 247.276 135.405C247.493 135.266 247.735 135.197 248.004 135.197C248.273 135.197 248.515 135.266 248.732 135.405C248.957 135.535 249.135 135.713 249.265 135.938C249.404 136.155 249.473 136.397 249.473 136.666C249.473 136.935 249.404 137.177 249.265 137.394C249.135 137.611 248.957 137.788 248.732 137.927C248.515 138.057 248.273 138.122 248.004 138.122C247.735 138.122 247.493 138.057 247.276 137.927C247.059 137.788 246.882 137.611 246.743 137.394C246.613 137.177 246.548 136.935 246.548 136.666ZM247.679 137.537C247.636 137.624 247.597 137.723 247.562 137.836C247.536 137.94 247.51 138.057 247.484 138.187C247.415 138.525 247.324 138.902 247.211 139.318C247.098 139.734 246.96 140.163 246.795 140.605C246.639 141.038 246.457 141.459 246.249 141.866C246.041 142.273 245.807 142.646 245.547 142.984C245.148 143.487 244.706 143.955 244.221 144.388C243.736 144.821 243.181 145.211 242.557 145.558C241.933 145.905 241.222 146.204 240.425 146.455L239.541 145.48C240.39 145.272 241.123 145.012 241.738 144.7C242.362 144.388 242.908 144.037 243.376 143.647C243.844 143.248 244.256 142.819 244.611 142.36C244.923 141.961 245.192 141.515 245.417 141.021C245.651 140.518 245.846 140.016 246.002 139.513C246.158 139.002 246.262 138.538 246.314 138.122C246.193 138.122 245.963 138.122 245.625 138.122C245.287 138.122 244.888 138.122 244.429 138.122C243.97 138.122 243.489 138.122 242.986 138.122C242.492 138.122 242.015 138.122 241.556 138.122C241.097 138.122 240.698 138.122 240.36 138.122C240.022 138.122 239.792 138.122 239.671 138.122C239.411 138.122 239.173 138.126 238.956 138.135C238.739 138.144 238.544 138.152 238.371 138.161V137.004C238.492 137.021 238.627 137.039 238.774 137.056C238.921 137.065 239.073 137.073 239.229 137.082C239.385 137.091 239.532 137.095 239.671 137.095C239.775 137.095 239.961 137.095 240.23 137.095C240.499 137.095 240.815 137.095 241.179 137.095C241.552 137.095 241.946 137.095 242.362 137.095C242.787 137.095 243.203 137.095 243.61 137.095C244.026 137.095 244.412 137.095 244.767 137.095C245.131 137.095 245.439 137.095 245.69 137.095C245.941 137.095 246.11 137.095 246.197 137.095C246.292 137.095 246.401 137.091 246.522 137.082C246.643 137.073 246.765 137.056 246.886 137.03L247.679 137.537Z" fill="#999999"/>
</svg>
