<svg width="300" height="190" viewBox="0 0 300 190" fill="none" xmlns="http://www.w3.org/2000/svg">
<rect width="300" height="190" rx="10" fill="white"/>
<path d="M33.2357 26.148C33.1277 26.616 33.0197 27.114 32.9117 27.642C32.8037 28.17 32.7077 28.686 32.6237 29.19C32.5397 29.682 32.4737 30.138 32.4257 30.558H30.1937L30.0677 30.36C30.1757 29.928 30.3077 29.472 30.4637 28.992C30.6197 28.512 30.7877 28.026 30.9677 27.534C31.1597 27.042 31.3457 26.58 31.5257 26.148H33.2357ZM29.5277 26.148C29.4197 26.616 29.3117 27.114 29.2037 27.642C29.0957 28.17 28.9997 28.686 28.9157 29.19C28.8317 29.682 28.7597 30.138 28.6997 30.558H26.4857L26.3597 30.36C26.4677 29.928 26.5997 29.472 26.7557 28.992C26.9237 28.512 27.0977 28.026 27.2777 27.534C27.4577 27.042 27.6377 26.58 27.8177 26.148H29.5277ZM40.2066 39L37.0746 28.47H37.0026C37.0146 28.71 37.0326 29.052 37.0566 29.496C37.0806 29.928 37.0986 30.402 37.1106 30.918C37.1346 31.422 37.1466 31.896 37.1466 32.34V39H34.9866V26.148H38.2986L41.3586 36.246H41.4126L44.5266 26.148H47.8566V39H45.5886V32.232C45.5886 31.824 45.5946 31.38 45.6066 30.9C45.6186 30.408 45.6366 29.946 45.6606 29.514C45.6846 29.07 45.7026 28.728 45.7146 28.488H45.6426L42.4206 39H40.2066ZM49.3652 29.244H51.9212L53.6672 34.752C53.7512 34.98 53.8172 35.208 53.8652 35.436C53.9252 35.664 53.9732 35.892 54.0092 36.12C54.0572 36.348 54.0932 36.576 54.1172 36.804H54.1712C54.2192 36.504 54.2792 36.174 54.3512 35.814C54.4352 35.454 54.5312 35.1 54.6392 34.752L56.3492 29.244H58.8692L54.9992 40.278C54.7712 40.926 54.4832 41.478 54.1352 41.934C53.7992 42.39 53.3852 42.732 52.8932 42.96C52.4132 43.2 51.8372 43.32 51.1652 43.32C50.8892 43.32 50.6432 43.302 50.4272 43.266C50.2232 43.242 50.0432 43.212 49.8872 43.176V41.376C50.0072 41.4 50.1572 41.424 50.3372 41.448C50.5172 41.472 50.7032 41.484 50.8952 41.484C51.2432 41.484 51.5372 41.406 51.7772 41.25C52.0292 41.106 52.2392 40.902 52.4072 40.638C52.5752 40.386 52.7012 40.092 52.7852 39.756L53.0372 38.964L49.3652 29.244ZM65.607 39L62.475 28.47H62.403C62.415 28.71 62.433 29.052 62.457 29.496C62.481 29.928 62.499 30.402 62.511 30.918C62.535 31.422 62.547 31.896 62.547 32.34V39H60.387V26.148H63.699L66.759 36.246H66.813L69.927 26.148H73.257V39H70.989V32.232C70.989 31.824 70.995 31.38 71.007 30.9C71.019 30.408 71.037 29.946 71.061 29.514C71.085 29.07 71.103 28.728 71.115 28.488H71.043L67.821 39H65.607ZM86.0156 34.464C86.0156 35.352 85.8296 36.156 85.4576 36.876C85.0976 37.584 84.5456 38.148 83.8016 38.568C83.0696 38.976 82.1516 39.18 81.0476 39.18C79.4636 39.18 78.2516 38.748 77.4116 37.884C76.5836 37.008 76.1696 35.856 76.1696 34.428V26.148H78.5816V34.194C78.5816 35.238 78.7916 36.006 79.2116 36.498C79.6316 36.978 80.2616 37.218 81.1016 37.218C81.6896 37.218 82.1636 37.104 82.5236 36.876C82.8956 36.648 83.1656 36.306 83.3336 35.85C83.5016 35.382 83.5856 34.824 83.5856 34.176V26.148H86.0156V34.464ZM94.5319 26.346C94.4359 26.766 94.3039 27.222 94.1359 27.714C93.9799 28.194 93.8119 28.68 93.6319 29.172C93.4519 29.652 93.2659 30.114 93.0739 30.558H91.3459C91.4539 30.09 91.5619 29.598 91.6699 29.082C91.7899 28.554 91.8919 28.038 91.9759 27.534C92.0719 27.03 92.1439 26.568 92.1919 26.148H94.4239L94.5319 26.346ZM90.8239 26.346C90.7279 26.766 90.5959 27.222 90.4279 27.714C90.2719 28.194 90.0979 28.68 89.9059 29.172C89.7259 29.652 89.5459 30.114 89.3659 30.558H87.6559C87.7399 30.21 87.8179 29.844 87.8899 29.46C87.9739 29.076 88.0519 28.692 88.1239 28.308C88.2079 27.912 88.2799 27.534 88.3399 27.174C88.3999 26.802 88.4479 26.46 88.4839 26.148H90.6979L90.8239 26.346ZM102.907 24.906C102.859 25.134 102.805 25.386 102.745 25.662C102.685 25.926 102.631 26.172 102.583 26.4C102.535 26.664 102.475 26.964 102.403 27.3C102.331 27.624 102.259 27.954 102.187 28.29C102.127 28.614 102.061 28.932 101.989 29.244C101.869 29.76 101.719 30.36 101.539 31.044C101.359 31.728 101.149 32.466 100.909 33.258C100.669 34.038 100.399 34.824 100.099 35.616C99.7988 36.408 99.4808 37.182 99.1448 37.938C98.8088 38.682 98.4488 39.354 98.0648 39.954L95.7248 39.018C96.1448 38.454 96.5348 37.824 96.8948 37.128C97.2668 36.42 97.6028 35.7 97.9028 34.968C98.2028 34.224 98.4668 33.492 98.6948 32.772C98.9348 32.04 99.1388 31.362 99.3068 30.738C99.4868 30.114 99.6248 29.58 99.7208 29.136C99.8888 28.32 100.021 27.534 100.117 26.778C100.213 26.022 100.249 25.308 100.225 24.636L102.907 24.906ZM109.099 26.724C109.387 27.12 109.681 27.606 109.981 28.182C110.293 28.746 110.599 29.346 110.899 29.982C111.199 30.618 111.469 31.23 111.709 31.818C111.949 32.406 112.135 32.916 112.267 33.348L109.981 34.392C109.873 33.888 109.711 33.33 109.495 32.718C109.291 32.106 109.051 31.488 108.775 30.864C108.499 30.228 108.205 29.628 107.893 29.064C107.593 28.5 107.281 28.026 106.957 27.642L109.099 26.724ZM95.5988 28.596C95.9228 28.62 96.2408 28.632 96.5528 28.632C96.8768 28.62 97.2008 28.608 97.5248 28.596C97.8248 28.584 98.1848 28.566 98.6048 28.542C99.0248 28.506 99.4688 28.47 99.9368 28.434C100.417 28.398 100.897 28.362 101.377 28.326C101.857 28.278 102.301 28.242 102.709 28.218C103.117 28.194 103.453 28.182 103.717 28.182C104.365 28.182 104.929 28.29 105.409 28.506C105.889 28.71 106.267 29.064 106.543 29.568C106.831 30.072 106.975 30.756 106.975 31.62C106.975 32.328 106.945 33.096 106.885 33.924C106.825 34.752 106.717 35.544 106.561 36.3C106.417 37.056 106.213 37.698 105.949 38.226C105.661 38.85 105.265 39.282 104.761 39.522C104.269 39.762 103.681 39.882 102.997 39.882C102.661 39.882 102.295 39.852 101.899 39.792C101.503 39.744 101.149 39.69 100.837 39.63L100.459 37.254C100.687 37.314 100.939 37.374 101.215 37.434C101.503 37.494 101.773 37.542 102.025 37.578C102.289 37.614 102.499 37.632 102.655 37.632C102.955 37.632 103.219 37.578 103.447 37.47C103.675 37.35 103.861 37.146 104.005 36.858C104.173 36.51 104.311 36.06 104.419 35.508C104.527 34.956 104.605 34.362 104.653 33.726C104.713 33.078 104.743 32.46 104.743 31.872C104.743 31.392 104.671 31.038 104.527 30.81C104.395 30.582 104.197 30.432 103.933 30.36C103.681 30.276 103.369 30.234 102.997 30.234C102.721 30.234 102.349 30.258 101.881 30.306C101.413 30.342 100.909 30.39 100.369 30.45C99.8408 30.498 99.3488 30.552 98.8928 30.612C98.4368 30.672 98.0828 30.714 97.8308 30.738C97.5668 30.786 97.2308 30.84 96.8228 30.9C96.4268 30.948 96.0908 30.996 95.8148 31.044L95.5988 28.596ZM108.775 24.222C108.931 24.438 109.093 24.696 109.261 24.996C109.441 25.296 109.615 25.596 109.783 25.896C109.951 26.196 110.095 26.46 110.215 26.688L108.757 27.318C108.637 27.066 108.499 26.79 108.343 26.49C108.187 26.19 108.025 25.89 107.857 25.59C107.689 25.29 107.521 25.032 107.353 24.816L108.775 24.222ZM110.917 23.412C111.073 23.64 111.241 23.904 111.421 24.204C111.601 24.504 111.775 24.804 111.943 25.104C112.123 25.404 112.261 25.656 112.357 25.86L110.935 26.472C110.743 26.1 110.515 25.68 110.251 25.212C109.987 24.732 109.729 24.324 109.477 23.988L110.917 23.412ZM122.293 24.564C122.269 24.768 122.245 25.032 122.221 25.356C122.209 25.68 122.197 25.95 122.185 26.166C122.137 27.954 121.987 29.544 121.735 30.936C121.483 32.316 121.123 33.54 120.655 34.608C120.187 35.676 119.593 36.636 118.873 37.488C118.153 38.328 117.295 39.102 116.299 39.81L114.211 38.118C114.583 37.902 114.979 37.65 115.399 37.362C115.831 37.062 116.221 36.726 116.569 36.354C117.157 35.778 117.655 35.148 118.063 34.464C118.471 33.768 118.795 33.012 119.035 32.196C119.287 31.368 119.473 30.462 119.593 29.478C119.713 28.494 119.773 27.408 119.773 26.22C119.773 26.088 119.767 25.92 119.755 25.716C119.743 25.5 119.725 25.29 119.701 25.086C119.689 24.882 119.671 24.708 119.647 24.564H122.293ZM128.413 28.416C128.389 28.56 128.359 28.728 128.323 28.92C128.299 29.112 128.287 29.262 128.287 29.37C128.275 29.754 128.251 30.246 128.215 30.846C128.191 31.446 128.149 32.094 128.089 32.79C128.041 33.474 127.975 34.158 127.891 34.842C127.819 35.526 127.729 36.162 127.621 36.75C127.513 37.326 127.381 37.8 127.225 38.172C127.033 38.628 126.751 38.97 126.379 39.198C126.019 39.438 125.527 39.558 124.903 39.558C124.387 39.558 123.871 39.54 123.355 39.504C122.839 39.48 122.359 39.45 121.915 39.414L121.645 37.002C122.089 37.086 122.533 37.152 122.977 37.2C123.421 37.236 123.817 37.254 124.165 37.254C124.465 37.254 124.687 37.206 124.831 37.11C124.975 37.002 125.095 36.84 125.191 36.624C125.287 36.384 125.377 36.066 125.461 35.67C125.545 35.274 125.617 34.83 125.677 34.338C125.737 33.846 125.785 33.336 125.821 32.808C125.869 32.28 125.899 31.77 125.911 31.278C125.935 30.774 125.947 30.33 125.947 29.946H117.163C116.863 29.946 116.491 29.952 116.047 29.964C115.603 29.964 115.183 29.982 114.787 30.018V27.66C115.171 27.696 115.579 27.726 116.011 27.75C116.443 27.774 116.827 27.786 117.163 27.786H125.497C125.725 27.786 125.953 27.774 126.181 27.75C126.421 27.726 126.643 27.696 126.847 27.66L128.413 28.416ZM145.891 25.77C145.771 25.974 145.639 26.244 145.495 26.58C145.351 26.904 145.231 27.174 145.135 27.39C144.919 27.99 144.649 28.644 144.325 29.352C144.001 30.048 143.635 30.75 143.227 31.458C142.819 32.166 142.369 32.844 141.877 33.492C141.325 34.224 140.695 34.962 139.987 35.706C139.291 36.438 138.493 37.158 137.593 37.866C136.693 38.574 135.661 39.252 134.497 39.9L132.481 38.082C134.125 37.29 135.541 36.396 136.729 35.4C137.917 34.392 138.979 33.264 139.915 32.016C140.647 31.092 141.229 30.168 141.661 29.244C142.105 28.308 142.477 27.39 142.777 26.49C142.873 26.25 142.957 25.974 143.029 25.662C143.113 25.338 143.173 25.062 143.209 24.834L145.891 25.77ZM135.991 27.516C136.447 27.792 136.927 28.104 137.431 28.452C137.947 28.788 138.463 29.136 138.979 29.496C139.507 29.856 140.005 30.21 140.473 30.558C140.953 30.906 141.385 31.224 141.769 31.512C142.729 32.268 143.665 33.054 144.577 33.87C145.489 34.686 146.311 35.484 147.043 36.264L145.189 38.316C144.397 37.404 143.593 36.564 142.777 35.796C141.961 35.016 141.079 34.23 140.131 33.438C139.807 33.162 139.435 32.862 139.015 32.538C138.595 32.214 138.139 31.872 137.647 31.512C137.167 31.152 136.657 30.792 136.117 30.432C135.577 30.06 135.025 29.7 134.461 29.352L135.991 27.516ZM152.731 25.194C152.983 25.23 153.283 25.254 153.631 25.266C153.979 25.278 154.303 25.284 154.603 25.284C154.831 25.284 155.179 25.284 155.647 25.284C156.127 25.284 156.655 25.284 157.231 25.284C157.819 25.284 158.401 25.284 158.977 25.284C159.553 25.284 160.069 25.284 160.525 25.284C160.981 25.284 161.317 25.284 161.533 25.284C161.809 25.284 162.139 25.278 162.523 25.266C162.907 25.254 163.225 25.23 163.477 25.194V27.516C163.237 27.492 162.925 27.48 162.541 27.48C162.169 27.468 161.821 27.462 161.497 27.462C161.305 27.462 160.975 27.462 160.507 27.462C160.051 27.462 159.529 27.462 158.941 27.462C158.365 27.462 157.783 27.462 157.195 27.462C156.619 27.462 156.097 27.462 155.629 27.462C155.161 27.462 154.819 27.462 154.603 27.462C154.315 27.462 153.997 27.468 153.649 27.48C153.313 27.492 153.007 27.504 152.731 27.516V25.194ZM164.989 30.414C164.929 30.534 164.863 30.666 164.791 30.81C164.731 30.954 164.683 31.074 164.647 31.17C164.371 32.034 164.023 32.898 163.603 33.762C163.195 34.614 162.655 35.412 161.983 36.156C161.083 37.164 160.075 37.986 158.959 38.622C157.843 39.246 156.709 39.72 155.557 40.044L153.775 38.01C155.131 37.722 156.337 37.302 157.393 36.75C158.449 36.198 159.319 35.568 160.003 34.86C160.483 34.368 160.867 33.852 161.155 33.312C161.455 32.76 161.689 32.238 161.857 31.746C161.725 31.746 161.497 31.746 161.173 31.746C160.849 31.746 160.459 31.746 160.003 31.746C159.559 31.746 159.079 31.746 158.563 31.746C158.047 31.746 157.519 31.746 156.979 31.746C156.439 31.746 155.923 31.746 155.431 31.746C154.939 31.746 154.495 31.746 154.099 31.746C153.715 31.746 153.403 31.746 153.163 31.746C152.947 31.746 152.641 31.752 152.245 31.764C151.849 31.776 151.459 31.8 151.075 31.836V29.496C151.459 29.52 151.831 29.544 152.191 29.568C152.563 29.592 152.887 29.604 153.163 29.604C153.343 29.604 153.613 29.604 153.973 29.604C154.345 29.604 154.771 29.604 155.251 29.604C155.731 29.604 156.241 29.604 156.781 29.604C157.333 29.604 157.879 29.604 158.419 29.604C158.971 29.604 159.493 29.604 159.985 29.604C160.477 29.604 160.903 29.604 161.263 29.604C161.623 29.604 161.893 29.604 162.073 29.604C162.361 29.604 162.619 29.586 162.847 29.55C163.087 29.514 163.267 29.472 163.387 29.424L164.989 30.414ZM167.383 33.636C167.659 33.42 167.911 33.204 168.139 32.988C168.379 32.76 168.637 32.508 168.913 32.232C169.117 32.016 169.351 31.752 169.615 31.44C169.879 31.116 170.161 30.768 170.461 30.396C170.761 30.024 171.061 29.652 171.361 29.28C171.673 28.896 171.967 28.542 172.243 28.218C172.879 27.498 173.497 27.114 174.097 27.066C174.697 27.006 175.327 27.3 175.987 27.948C176.395 28.344 176.815 28.794 177.247 29.298C177.691 29.802 178.123 30.306 178.543 30.81C178.963 31.314 179.353 31.758 179.713 32.142C180.001 32.466 180.307 32.802 180.631 33.15C180.967 33.498 181.321 33.864 181.693 34.248C182.065 34.632 182.455 35.016 182.863 35.4C183.271 35.784 183.685 36.168 184.105 36.552L182.251 38.712C181.831 38.292 181.387 37.836 180.919 37.344C180.451 36.852 179.989 36.348 179.533 35.832C179.089 35.316 178.669 34.842 178.273 34.41C177.913 33.966 177.529 33.498 177.121 33.006C176.725 32.502 176.341 32.022 175.969 31.566C175.597 31.11 175.267 30.726 174.979 30.414C174.775 30.174 174.589 30.024 174.421 29.964C174.265 29.904 174.109 29.916 173.953 30C173.809 30.084 173.653 30.24 173.485 30.468C173.305 30.696 173.095 30.966 172.855 31.278C172.627 31.59 172.381 31.926 172.117 32.286C171.865 32.634 171.619 32.976 171.379 33.312C171.139 33.636 170.917 33.924 170.713 34.176C170.509 34.476 170.305 34.776 170.101 35.076C169.909 35.376 169.735 35.646 169.579 35.886L167.383 33.636ZM195.355 26.67C195.235 27.582 195.079 28.554 194.887 29.586C194.695 30.618 194.437 31.662 194.113 32.718C193.765 33.93 193.357 34.974 192.889 35.85C192.421 36.726 191.905 37.404 191.341 37.884C190.789 38.352 190.183 38.586 189.523 38.586C188.863 38.586 188.251 38.364 187.687 37.92C187.135 37.464 186.691 36.84 186.355 36.048C186.031 35.256 185.869 34.356 185.869 33.348C185.869 32.304 186.079 31.32 186.499 30.396C186.919 29.472 187.501 28.656 188.245 27.948C189.001 27.228 189.877 26.664 190.873 26.256C191.881 25.848 192.967 25.644 194.131 25.644C195.247 25.644 196.249 25.824 197.137 26.184C198.037 26.544 198.805 27.042 199.441 27.678C200.077 28.314 200.563 29.058 200.899 29.91C201.235 30.762 201.403 31.68 201.403 32.664C201.403 33.924 201.145 35.052 200.629 36.048C200.113 37.044 199.345 37.866 198.325 38.514C197.317 39.162 196.057 39.606 194.545 39.846L193.195 37.704C193.543 37.668 193.849 37.626 194.113 37.578C194.377 37.53 194.629 37.476 194.869 37.416C195.445 37.272 195.979 37.068 196.471 36.804C196.975 36.528 197.413 36.192 197.785 35.796C198.157 35.388 198.445 34.914 198.649 34.374C198.865 33.834 198.973 33.24 198.973 32.592C198.973 31.884 198.865 31.236 198.649 30.648C198.433 30.06 198.115 29.55 197.695 29.118C197.275 28.674 196.765 28.338 196.165 28.11C195.565 27.87 194.875 27.75 194.095 27.75C193.135 27.75 192.289 27.924 191.557 28.272C190.825 28.608 190.207 29.046 189.703 29.586C189.199 30.126 188.815 30.708 188.551 31.332C188.299 31.956 188.173 32.55 188.173 33.114C188.173 33.714 188.245 34.218 188.389 34.626C188.533 35.022 188.707 35.322 188.911 35.526C189.127 35.718 189.355 35.814 189.595 35.814C189.847 35.814 190.093 35.688 190.333 35.436C190.585 35.172 190.831 34.776 191.071 34.248C191.311 33.72 191.551 33.054 191.791 32.25C192.067 31.386 192.301 30.462 192.493 29.478C192.685 28.494 192.823 27.534 192.907 26.598L195.355 26.67ZM219.907 26.814C219.811 26.934 219.691 27.09 219.547 27.282C219.403 27.462 219.289 27.618 219.205 27.75C218.929 28.218 218.563 28.758 218.107 29.37C217.651 29.97 217.147 30.57 216.595 31.17C216.043 31.758 215.473 32.262 214.885 32.682L213.013 31.188C213.373 30.972 213.727 30.72 214.075 30.432C214.423 30.144 214.741 29.844 215.029 29.532C215.329 29.208 215.587 28.902 215.803 28.614C216.031 28.326 216.205 28.068 216.325 27.84C216.169 27.84 215.905 27.84 215.533 27.84C215.161 27.84 214.717 27.84 214.201 27.84C213.685 27.84 213.127 27.84 212.527 27.84C211.939 27.84 211.351 27.84 210.763 27.84C210.175 27.84 209.617 27.84 209.089 27.84C208.573 27.84 208.123 27.84 207.739 27.84C207.367 27.84 207.103 27.84 206.947 27.84C206.575 27.84 206.221 27.852 205.885 27.876C205.549 27.9 205.171 27.93 204.751 27.966V25.464C205.099 25.512 205.459 25.554 205.831 25.59C206.203 25.626 206.575 25.644 206.947 25.644C207.103 25.644 207.379 25.644 207.775 25.644C208.171 25.644 208.639 25.644 209.179 25.644C209.731 25.644 210.313 25.644 210.925 25.644C211.549 25.644 212.167 25.644 212.779 25.644C213.403 25.644 213.979 25.644 214.507 25.644C215.047 25.644 215.503 25.644 215.875 25.644C216.259 25.644 216.517 25.644 216.649 25.644C216.817 25.644 217.021 25.638 217.261 25.626C217.501 25.614 217.735 25.596 217.963 25.572C218.203 25.548 218.377 25.518 218.485 25.482L219.907 26.814ZM212.563 29.244C212.563 30.132 212.545 30.99 212.509 31.818C212.473 32.646 212.371 33.444 212.203 34.212C212.047 34.968 211.789 35.688 211.429 36.372C211.081 37.056 210.595 37.704 209.971 38.316C209.347 38.928 208.549 39.492 207.577 40.008L205.471 38.298C205.759 38.202 206.065 38.076 206.389 37.92C206.713 37.752 207.037 37.548 207.361 37.308C207.937 36.912 208.399 36.492 208.747 36.048C209.107 35.604 209.383 35.124 209.575 34.608C209.767 34.08 209.899 33.51 209.971 32.898C210.043 32.274 210.079 31.596 210.079 30.864C210.079 30.588 210.073 30.324 210.061 30.072C210.049 29.808 210.013 29.532 209.953 29.244H212.563ZM236.002 27.804C235.906 27.972 235.804 28.176 235.696 28.416C235.588 28.644 235.492 28.872 235.408 29.1C235.252 29.628 235.03 30.234 234.742 30.918C234.466 31.59 234.118 32.292 233.698 33.024C233.29 33.744 232.816 34.44 232.276 35.112C231.412 36.144 230.404 37.08 229.252 37.92C228.112 38.76 226.696 39.516 225.004 40.188L222.88 38.28C224.104 37.92 225.16 37.506 226.048 37.038C226.936 36.57 227.71 36.072 228.37 35.544C229.03 35.004 229.618 34.434 230.134 33.834C230.554 33.366 230.938 32.838 231.286 32.25C231.634 31.65 231.934 31.056 232.186 30.468C232.438 29.88 232.606 29.364 232.69 28.92H226.624L227.452 26.886C227.62 26.886 227.878 26.886 228.226 26.886C228.586 26.886 228.988 26.886 229.432 26.886C229.888 26.886 230.332 26.886 230.764 26.886C231.208 26.886 231.592 26.886 231.916 26.886C232.252 26.886 232.48 26.886 232.6 26.886C232.876 26.886 233.152 26.868 233.428 26.832C233.716 26.796 233.962 26.742 234.166 26.67L236.002 27.804ZM230.134 24.96C229.918 25.272 229.708 25.608 229.504 25.968C229.3 26.328 229.144 26.604 229.036 26.796C228.628 27.516 228.124 28.266 227.524 29.046C226.936 29.814 226.264 30.564 225.508 31.296C224.752 32.016 223.948 32.676 223.096 33.276L221.062 31.782C221.854 31.29 222.55 30.786 223.15 30.27C223.762 29.754 224.29 29.244 224.734 28.74C225.178 28.224 225.556 27.732 225.868 27.264C226.192 26.784 226.468 26.358 226.696 25.986C226.84 25.758 226.99 25.464 227.146 25.104C227.302 24.732 227.422 24.396 227.506 24.096L230.134 24.96ZM242.896 36.606C242.896 36.354 242.896 35.994 242.896 35.526C242.896 35.046 242.896 34.506 242.896 33.906C242.896 33.294 242.896 32.658 242.896 31.998C242.896 31.326 242.896 30.672 242.896 30.036C242.896 29.388 242.896 28.788 242.896 28.236C242.896 27.684 242.896 27.222 242.896 26.85C242.896 26.658 242.89 26.436 242.878 26.184C242.878 25.932 242.866 25.68 242.842 25.428C242.818 25.176 242.788 24.96 242.752 24.78H245.434C245.398 25.056 245.362 25.398 245.326 25.806C245.29 26.202 245.272 26.55 245.272 26.85C245.272 27.21 245.272 27.642 245.272 28.146C245.272 28.638 245.272 29.172 245.272 29.748C245.272 30.312 245.272 30.888 245.272 31.476C245.272 32.064 245.272 32.64 245.272 33.204C245.272 33.768 245.272 34.284 245.272 34.752C245.272 35.22 245.272 35.628 245.272 35.976C245.272 36.336 245.326 36.63 245.434 36.858C245.542 37.086 245.758 37.248 246.082 37.344C246.418 37.44 246.916 37.488 247.576 37.488C248.212 37.488 248.848 37.464 249.484 37.416C250.132 37.356 250.774 37.284 251.41 37.2C252.046 37.104 252.658 36.996 253.246 36.876L253.174 39.324C252.682 39.396 252.124 39.462 251.5 39.522C250.876 39.582 250.228 39.63 249.556 39.666C248.896 39.702 248.242 39.72 247.594 39.72C246.574 39.72 245.752 39.654 245.128 39.522C244.504 39.402 244.03 39.216 243.706 38.964C243.394 38.712 243.178 38.388 243.058 37.992C242.95 37.596 242.896 37.134 242.896 36.606ZM254.236 28.686C254.152 28.818 254.05 28.98 253.93 29.172C253.822 29.352 253.726 29.52 253.642 29.676C253.45 30.048 253.204 30.468 252.904 30.936C252.616 31.404 252.304 31.884 251.968 32.376C251.632 32.868 251.284 33.336 250.924 33.78C250.576 34.224 250.24 34.602 249.916 34.914L247.936 33.744C248.332 33.396 248.716 33 249.088 32.556C249.472 32.1 249.814 31.656 250.114 31.224C250.414 30.78 250.648 30.408 250.816 30.108C250.648 30.132 250.354 30.192 249.934 30.288C249.526 30.372 249.022 30.474 248.422 30.594C247.822 30.714 247.168 30.846 246.46 30.99C245.752 31.122 245.038 31.26 244.318 31.404C243.598 31.548 242.902 31.692 242.23 31.836C241.558 31.968 240.952 32.094 240.412 32.214C239.872 32.322 239.44 32.412 239.116 32.484L238.684 30.126C239.032 30.078 239.488 30.012 240.052 29.928C240.616 29.832 241.246 29.724 241.942 29.604C242.638 29.472 243.364 29.334 244.12 29.19C244.876 29.046 245.626 28.902 246.37 28.758C247.114 28.614 247.81 28.482 248.458 28.362C249.106 28.23 249.67 28.116 250.15 28.02C250.63 27.912 250.99 27.828 251.23 27.768C251.482 27.708 251.716 27.648 251.932 27.588C252.148 27.516 252.34 27.438 252.508 27.354L254.236 28.686ZM270.832 26.796C270.76 26.904 270.652 27.072 270.508 27.3C270.376 27.528 270.274 27.738 270.202 27.93C269.95 28.494 269.638 29.124 269.266 29.82C268.906 30.516 268.492 31.218 268.024 31.926C267.568 32.622 267.082 33.276 266.566 33.888C265.894 34.644 265.15 35.394 264.334 36.138C263.53 36.87 262.678 37.548 261.778 38.172C260.89 38.784 259.978 39.312 259.042 39.756L257.188 37.812C258.16 37.44 259.102 36.972 260.014 36.408C260.926 35.844 261.772 35.232 262.552 34.572C263.332 33.912 264.004 33.27 264.568 32.646C264.964 32.19 265.336 31.704 265.684 31.188C266.044 30.672 266.362 30.162 266.638 29.658C266.914 29.142 267.118 28.668 267.25 28.236C267.13 28.236 266.914 28.236 266.602 28.236C266.29 28.236 265.924 28.236 265.504 28.236C265.096 28.236 264.664 28.236 264.208 28.236C263.752 28.236 263.314 28.236 262.894 28.236C262.486 28.236 262.126 28.236 261.814 28.236C261.502 28.236 261.28 28.236 261.148 28.236C260.896 28.236 260.632 28.248 260.356 28.272C260.08 28.284 259.816 28.302 259.564 28.326C259.324 28.338 259.138 28.35 259.006 28.362V25.806C259.186 25.818 259.408 25.836 259.672 25.86C259.936 25.884 260.2 25.902 260.464 25.914C260.74 25.926 260.968 25.932 261.148 25.932C261.304 25.932 261.55 25.932 261.886 25.932C262.222 25.932 262.606 25.932 263.038 25.932C263.47 25.932 263.914 25.932 264.37 25.932C264.838 25.932 265.282 25.932 265.702 25.932C266.134 25.932 266.506 25.932 266.818 25.932C267.13 25.932 267.358 25.932 267.502 25.932C267.898 25.932 268.258 25.908 268.582 25.86C268.918 25.812 269.176 25.758 269.356 25.698L270.832 26.796ZM266.8 32.394C267.268 32.766 267.766 33.198 268.294 33.69C268.822 34.182 269.344 34.692 269.86 35.22C270.376 35.748 270.85 36.258 271.282 36.75C271.726 37.23 272.098 37.65 272.398 38.01L270.346 39.792C269.902 39.18 269.392 38.544 268.816 37.884C268.252 37.224 267.652 36.57 267.016 35.922C266.392 35.262 265.756 34.638 265.108 34.05L266.8 32.394ZM95.748 49.564C95.688 49.888 95.592 50.308 95.46 50.824C95.328 51.34 95.136 51.922 94.884 52.57C94.692 53.014 94.47 53.476 94.218 53.956C93.978 54.424 93.732 54.844 93.48 55.216C93.636 55.144 93.834 55.084 94.074 55.036C94.314 54.976 94.56 54.934 94.812 54.91C95.076 54.874 95.31 54.856 95.514 54.856C96.27 54.856 96.894 55.072 97.386 55.504C97.89 55.936 98.142 56.578 98.142 57.43C98.142 57.67 98.142 57.964 98.142 58.312C98.154 58.66 98.166 59.026 98.178 59.41C98.19 59.782 98.202 60.148 98.214 60.508C98.226 60.868 98.232 61.192 98.232 61.48H96.072C96.096 61.276 96.108 61.036 96.108 60.76C96.12 60.472 96.126 60.172 96.126 59.86C96.138 59.548 96.144 59.248 96.144 58.96C96.156 58.66 96.162 58.39 96.162 58.15C96.162 57.574 96.006 57.178 95.694 56.962C95.394 56.734 95.058 56.62 94.686 56.62C94.182 56.62 93.672 56.746 93.156 56.998C92.652 57.238 92.226 57.526 91.878 57.862C91.614 58.126 91.344 58.42 91.068 58.744C90.804 59.068 90.516 59.434 90.204 59.842L88.278 58.402C89.058 57.682 89.73 56.986 90.294 56.314C90.87 55.642 91.356 54.976 91.752 54.316C92.148 53.656 92.472 52.996 92.724 52.336C92.904 51.856 93.048 51.358 93.156 50.842C93.276 50.314 93.348 49.822 93.372 49.366L95.748 49.564ZM88.98 51.22C89.436 51.292 89.964 51.346 90.564 51.382C91.164 51.418 91.692 51.436 92.148 51.436C92.94 51.436 93.804 51.418 94.74 51.382C95.688 51.346 96.648 51.286 97.62 51.202C98.592 51.106 99.516 50.986 100.392 50.842L100.374 52.93C99.738 53.014 99.048 53.092 98.304 53.164C97.572 53.224 96.822 53.278 96.054 53.326C95.298 53.362 94.572 53.392 93.876 53.416C93.18 53.428 92.562 53.434 92.022 53.434C91.782 53.434 91.482 53.434 91.122 53.434C90.774 53.422 90.414 53.41 90.042 53.398C89.67 53.374 89.316 53.35 88.98 53.326V51.22ZM103.236 56.332C103.044 56.392 102.816 56.47 102.552 56.566C102.3 56.65 102.042 56.74 101.778 56.836C101.526 56.92 101.298 57.004 101.094 57.088C100.518 57.316 99.834 57.592 99.042 57.916C98.262 58.24 97.446 58.618 96.594 59.05C96.054 59.338 95.598 59.62 95.226 59.896C94.854 60.172 94.572 60.454 94.38 60.742C94.188 61.018 94.092 61.324 94.092 61.66C94.092 61.912 94.146 62.122 94.254 62.29C94.362 62.446 94.524 62.572 94.74 62.668C94.956 62.764 95.226 62.83 95.55 62.866C95.874 62.902 96.258 62.92 96.702 62.92C97.47 62.92 98.316 62.878 99.24 62.794C100.164 62.698 101.022 62.572 101.814 62.416L101.742 64.738C101.358 64.786 100.872 64.834 100.284 64.882C99.696 64.942 99.084 64.984 98.448 65.008C97.824 65.032 97.224 65.044 96.648 65.044C95.712 65.044 94.872 64.954 94.128 64.774C93.384 64.594 92.796 64.288 92.364 63.856C91.944 63.412 91.734 62.806 91.734 62.038C91.734 61.414 91.872 60.85 92.148 60.346C92.436 59.842 92.814 59.386 93.282 58.978C93.75 58.57 94.26 58.204 94.812 57.88C95.376 57.544 95.928 57.238 96.468 56.962C97.02 56.674 97.518 56.428 97.962 56.224C98.406 56.02 98.82 55.84 99.204 55.684C99.6 55.516 99.978 55.348 100.338 55.18C100.686 55.024 101.022 54.874 101.346 54.73C101.67 54.574 102 54.412 102.336 54.244L103.236 56.332ZM106.044 51.436H122.028V53.524H106.044V51.436ZM114.9 53.272C115.224 54.268 115.638 55.228 116.142 56.152C116.646 57.064 117.222 57.922 117.87 58.726C118.518 59.53 119.238 60.25 120.03 60.886C120.822 61.51 121.68 62.032 122.604 62.452C122.436 62.596 122.25 62.782 122.046 63.01C121.842 63.226 121.644 63.46 121.452 63.712C121.272 63.952 121.122 64.174 121.002 64.378C119.742 63.706 118.62 62.836 117.636 61.768C116.652 60.7 115.794 59.488 115.062 58.132C114.33 56.764 113.712 55.306 113.208 53.758L114.9 53.272ZM119.58 53.866L121.488 55.198C121.08 55.654 120.648 56.122 120.192 56.602C119.736 57.07 119.28 57.52 118.824 57.952C118.368 58.372 117.942 58.75 117.546 59.086L115.962 57.88C116.346 57.544 116.76 57.148 117.204 56.692C117.648 56.236 118.08 55.762 118.5 55.27C118.92 54.778 119.28 54.31 119.58 53.866ZM116.232 49.978L117.51 48.61C117.87 48.778 118.26 48.97 118.68 49.186C119.1 49.402 119.502 49.63 119.886 49.87C120.282 50.098 120.606 50.308 120.858 50.5L119.508 52.012C119.268 51.808 118.962 51.586 118.59 51.346C118.218 51.106 117.822 50.866 117.402 50.626C116.994 50.386 116.604 50.17 116.232 49.978ZM106.746 55.27L108.384 54.118C108.732 54.418 109.086 54.754 109.446 55.126C109.806 55.498 110.142 55.87 110.454 56.242C110.766 56.602 111.018 56.938 111.21 57.25L109.446 58.546C109.278 58.234 109.044 57.886 108.744 57.502C108.444 57.118 108.12 56.728 107.772 56.332C107.424 55.936 107.082 55.582 106.746 55.27ZM112.848 48.736H115.062V62.956C115.062 63.592 114.99 64.078 114.846 64.414C114.702 64.75 114.438 65.008 114.054 65.188C113.694 65.38 113.22 65.5 112.632 65.548C112.044 65.608 111.342 65.632 110.526 65.62C110.49 65.308 110.394 64.93 110.238 64.486C110.094 64.042 109.944 63.664 109.788 63.352C110.34 63.376 110.862 63.388 111.354 63.388C111.858 63.388 112.2 63.388 112.38 63.388C112.548 63.388 112.668 63.358 112.74 63.298C112.812 63.226 112.848 63.112 112.848 62.956V48.736ZM105.468 61.948C105.972 61.684 106.548 61.378 107.196 61.03C107.856 60.682 108.552 60.304 109.284 59.896C110.028 59.476 110.76 59.062 111.48 58.654L112.2 60.616C111.3 61.204 110.37 61.792 109.41 62.38C108.462 62.956 107.598 63.472 106.818 63.928L105.468 61.948ZM135.582 49.888C135.546 50.044 135.498 50.236 135.438 50.464C135.39 50.692 135.342 50.92 135.294 51.148C135.246 51.376 135.204 51.562 135.168 51.706C134.976 52.51 134.76 53.332 134.52 54.172C134.28 55 134.01 55.822 133.71 56.638C133.41 57.454 133.074 58.216 132.702 58.924C132.342 59.632 131.94 60.262 131.496 60.814C130.956 61.51 130.446 62.08 129.966 62.524C129.498 62.968 129.03 63.298 128.562 63.514C128.094 63.718 127.584 63.82 127.032 63.82C126.54 63.82 126.072 63.688 125.628 63.424C125.196 63.148 124.842 62.746 124.566 62.218C124.302 61.678 124.17 61.018 124.17 60.238C124.17 59.434 124.314 58.636 124.602 57.844C124.902 57.04 125.31 56.296 125.826 55.612C126.354 54.928 126.972 54.358 127.68 53.902C128.64 53.278 129.582 52.84 130.506 52.588C131.43 52.336 132.372 52.21 133.332 52.21C134.58 52.21 135.684 52.474 136.644 53.002C137.604 53.518 138.354 54.244 138.894 55.18C139.434 56.116 139.704 57.214 139.704 58.474C139.704 59.734 139.422 60.826 138.858 61.75C138.306 62.662 137.544 63.394 136.572 63.946C135.6 64.486 134.49 64.852 133.242 65.044L131.856 62.956C132.852 62.872 133.698 62.692 134.394 62.416C135.102 62.14 135.672 61.792 136.104 61.372C136.548 60.952 136.872 60.484 137.076 59.968C137.28 59.452 137.382 58.912 137.382 58.348C137.382 57.532 137.202 56.818 136.842 56.206C136.494 55.582 136.002 55.096 135.366 54.748C134.73 54.388 133.98 54.208 133.116 54.208C132.168 54.208 131.322 54.364 130.578 54.676C129.834 54.976 129.15 55.354 128.526 55.81C128.058 56.146 127.656 56.554 127.32 57.034C126.984 57.502 126.726 58 126.546 58.528C126.366 59.056 126.276 59.566 126.276 60.058C126.276 60.49 126.366 60.838 126.546 61.102C126.738 61.366 126.99 61.498 127.302 61.498C127.53 61.498 127.764 61.432 128.004 61.3C128.244 61.156 128.484 60.97 128.724 60.742C128.964 60.502 129.204 60.226 129.444 59.914C129.684 59.602 129.924 59.272 130.164 58.924C130.5 58.408 130.818 57.832 131.118 57.196C131.418 56.56 131.688 55.894 131.928 55.198C132.18 54.502 132.39 53.83 132.558 53.182C132.726 52.522 132.858 51.916 132.954 51.364C133.014 51.1 133.05 50.8 133.062 50.464C133.086 50.128 133.098 49.858 133.098 49.654L135.582 49.888ZM127.986 50.482C128.046 50.782 128.106 51.076 128.166 51.364C128.238 51.652 128.31 51.934 128.382 52.21C128.514 52.702 128.67 53.236 128.85 53.812C129.03 54.376 129.222 54.94 129.426 55.504C129.642 56.068 129.858 56.59 130.074 57.07C130.29 57.538 130.506 57.94 130.722 58.276C131.034 58.756 131.388 59.26 131.784 59.788C132.18 60.304 132.588 60.766 133.008 61.174L131.19 62.614C130.83 62.218 130.506 61.84 130.218 61.48C129.942 61.108 129.654 60.694 129.354 60.238C129.09 59.83 128.82 59.356 128.544 58.816C128.28 58.276 128.016 57.688 127.752 57.052C127.5 56.416 127.254 55.762 127.014 55.09C126.786 54.418 126.564 53.752 126.348 53.092C126.252 52.768 126.144 52.456 126.024 52.156C125.916 51.856 125.784 51.544 125.628 51.22L127.986 50.482ZM142.278 51.616C142.638 51.604 142.98 51.592 143.304 51.58C143.628 51.556 143.88 51.538 144.06 51.526C144.432 51.49 144.888 51.448 145.428 51.4C145.968 51.352 146.574 51.298 147.246 51.238C147.93 51.178 148.656 51.118 149.424 51.058C150.192 50.986 150.99 50.914 151.818 50.842C152.442 50.794 153.066 50.752 153.69 50.716C154.314 50.668 154.902 50.632 155.454 50.608C156.018 50.572 156.504 50.548 156.912 50.536L156.93 52.84C156.606 52.84 156.234 52.846 155.814 52.858C155.394 52.87 154.974 52.894 154.554 52.93C154.146 52.954 153.78 53.002 153.456 53.074C152.916 53.218 152.412 53.464 151.944 53.812C151.488 54.148 151.086 54.55 150.738 55.018C150.39 55.486 150.12 55.99 149.928 56.53C149.748 57.058 149.658 57.592 149.658 58.132C149.658 58.72 149.76 59.242 149.964 59.698C150.168 60.142 150.45 60.526 150.81 60.85C151.182 61.162 151.614 61.426 152.106 61.642C152.598 61.846 153.126 62.002 153.69 62.11C154.266 62.218 154.86 62.29 155.472 62.326L154.626 64.792C153.87 64.744 153.132 64.624 152.412 64.432C151.704 64.24 151.038 63.976 150.414 63.64C149.802 63.304 149.262 62.896 148.794 62.416C148.326 61.924 147.96 61.366 147.696 60.742C147.432 60.106 147.3 59.398 147.3 58.618C147.3 57.742 147.438 56.944 147.714 56.224C147.99 55.504 148.332 54.874 148.74 54.334C149.148 53.782 149.556 53.356 149.964 53.056C149.628 53.092 149.22 53.14 148.74 53.2C148.272 53.248 147.762 53.308 147.21 53.38C146.67 53.44 146.118 53.506 145.554 53.578C144.99 53.65 144.444 53.734 143.916 53.83C143.4 53.914 142.932 53.998 142.512 54.082L142.278 51.616ZM163.68 51.13C163.632 51.346 163.59 51.592 163.554 51.868C163.53 52.144 163.506 52.414 163.482 52.678C163.47 52.942 163.464 53.158 163.464 53.326C163.452 53.722 163.446 54.13 163.446 54.55C163.458 54.97 163.47 55.402 163.482 55.846C163.506 56.278 163.536 56.71 163.572 57.142C163.656 58.006 163.776 58.768 163.932 59.428C164.088 60.088 164.292 60.604 164.544 60.976C164.796 61.336 165.114 61.516 165.498 61.516C165.702 61.516 165.9 61.402 166.092 61.174C166.296 60.946 166.476 60.652 166.632 60.292C166.8 59.92 166.944 59.53 167.064 59.122C167.196 58.714 167.31 58.33 167.406 57.97L169.206 60.166C168.81 61.21 168.414 62.044 168.018 62.668C167.634 63.28 167.232 63.724 166.812 64C166.392 64.264 165.936 64.396 165.444 64.396C164.796 64.396 164.178 64.18 163.59 63.748C163.014 63.316 162.522 62.62 162.114 61.66C161.706 60.688 161.418 59.398 161.25 57.79C161.19 57.238 161.142 56.656 161.106 56.044C161.082 55.432 161.064 54.85 161.052 54.298C161.052 53.746 161.052 53.29 161.052 52.93C161.052 52.678 161.04 52.378 161.016 52.03C160.992 51.682 160.956 51.37 160.908 51.094L163.68 51.13ZM172.68 51.544C173.016 51.952 173.34 52.45 173.652 53.038C173.964 53.626 174.252 54.256 174.516 54.928C174.78 55.6 175.014 56.29 175.218 56.998C175.422 57.694 175.584 58.378 175.704 59.05C175.836 59.71 175.92 60.316 175.956 60.868L173.58 61.786C173.52 61.054 173.412 60.256 173.256 59.392C173.1 58.528 172.89 57.658 172.626 56.782C172.362 55.906 172.044 55.078 171.672 54.298C171.312 53.518 170.886 52.846 170.394 52.282L172.68 51.544ZM187.746 49.438C187.722 49.618 187.698 49.822 187.674 50.05C187.662 50.266 187.65 50.488 187.638 50.716C187.626 50.956 187.614 51.28 187.602 51.688C187.59 52.084 187.584 52.522 187.584 53.002C187.584 53.482 187.584 53.956 187.584 54.424C187.584 54.892 187.584 55.318 187.584 55.702C187.584 56.206 187.596 56.77 187.62 57.394C187.644 58.006 187.674 58.63 187.71 59.266C187.758 59.89 187.794 60.478 187.818 61.03C187.854 61.57 187.872 62.02 187.872 62.38C187.872 62.884 187.74 63.346 187.476 63.766C187.212 64.174 186.816 64.498 186.288 64.738C185.772 64.978 185.118 65.098 184.326 65.098C182.886 65.098 181.794 64.834 181.05 64.306C180.306 63.778 179.934 63.04 179.934 62.092C179.934 61.48 180.108 60.946 180.456 60.49C180.816 60.022 181.326 59.656 181.986 59.392C182.658 59.128 183.456 58.996 184.38 58.996C185.364 58.996 186.282 59.104 187.134 59.32C187.998 59.524 188.784 59.794 189.492 60.13C190.2 60.466 190.83 60.82 191.382 61.192C191.934 61.564 192.402 61.9 192.786 62.2L191.49 64.216C191.058 63.808 190.572 63.406 190.032 63.01C189.504 62.614 188.922 62.254 188.286 61.93C187.662 61.606 186.996 61.348 186.288 61.156C185.592 60.952 184.854 60.85 184.074 60.85C183.45 60.85 182.964 60.958 182.616 61.174C182.28 61.39 182.112 61.654 182.112 61.966C182.112 62.194 182.184 62.392 182.328 62.56C182.472 62.728 182.682 62.854 182.958 62.938C183.234 63.022 183.582 63.064 184.002 63.064C184.326 63.064 184.602 63.028 184.83 62.956C185.07 62.884 185.256 62.752 185.388 62.56C185.52 62.368 185.586 62.098 185.586 61.75C185.586 61.486 185.574 61.108 185.55 60.616C185.538 60.124 185.52 59.584 185.496 58.996C185.472 58.396 185.448 57.808 185.424 57.232C185.4 56.656 185.388 56.146 185.388 55.702C185.388 55.27 185.388 54.82 185.388 54.352C185.4 53.872 185.406 53.398 185.406 52.93C185.406 52.462 185.406 52.036 185.406 51.652C185.418 51.256 185.424 50.932 185.424 50.68C185.424 50.512 185.412 50.308 185.388 50.068C185.376 49.816 185.352 49.606 185.316 49.438H187.746ZM180.276 51.13C180.6 51.178 180.96 51.226 181.356 51.274C181.752 51.322 182.154 51.37 182.562 51.418C182.982 51.454 183.378 51.484 183.75 51.508C184.122 51.52 184.446 51.526 184.722 51.526C185.946 51.526 187.164 51.49 188.376 51.418C189.6 51.334 190.866 51.184 192.174 50.968L192.156 53.038C191.544 53.122 190.836 53.2 190.032 53.272C189.228 53.344 188.37 53.404 187.458 53.452C186.558 53.488 185.652 53.506 184.74 53.506C184.368 53.506 183.906 53.494 183.354 53.47C182.814 53.434 182.274 53.392 181.734 53.344C181.194 53.284 180.726 53.23 180.33 53.182L180.276 51.13ZM180.186 55.018C180.474 55.066 180.816 55.114 181.212 55.162C181.608 55.21 182.01 55.246 182.418 55.27C182.838 55.294 183.234 55.318 183.606 55.342C183.978 55.354 184.284 55.36 184.524 55.36C185.64 55.36 186.648 55.336 187.548 55.288C188.46 55.24 189.312 55.18 190.104 55.108C190.896 55.036 191.658 54.952 192.39 54.856L192.372 56.98C191.748 57.052 191.142 57.112 190.554 57.16C189.978 57.208 189.384 57.25 188.772 57.286C188.172 57.322 187.524 57.346 186.828 57.358C186.132 57.37 185.352 57.376 184.488 57.376C184.14 57.376 183.708 57.37 183.192 57.358C182.676 57.334 182.148 57.304 181.608 57.268C181.08 57.232 180.612 57.19 180.204 57.142L180.186 55.018ZM206.754 49.492C206.742 49.588 206.724 49.744 206.7 49.96C206.688 50.164 206.676 50.374 206.664 50.59C206.652 50.794 206.64 50.944 206.628 51.04C206.616 51.28 206.61 51.604 206.61 52.012C206.61 52.408 206.61 52.852 206.61 53.344C206.61 53.836 206.61 54.334 206.61 54.838C206.622 55.33 206.628 55.798 206.628 56.242C206.64 56.674 206.646 57.034 206.646 57.322L204.396 56.566C204.396 56.338 204.396 56.038 204.396 55.666C204.396 55.282 204.396 54.868 204.396 54.424C204.396 53.968 204.39 53.518 204.378 53.074C204.378 52.63 204.372 52.228 204.36 51.868C204.348 51.508 204.336 51.238 204.324 51.058C204.3 50.686 204.27 50.362 204.234 50.086C204.198 49.798 204.168 49.6 204.144 49.492H206.754ZM196.584 51.724C197.112 51.724 197.712 51.718 198.384 51.706C199.056 51.694 199.758 51.682 200.49 51.67C201.222 51.658 201.942 51.646 202.65 51.634C203.358 51.622 204.024 51.616 204.648 51.616C205.272 51.604 205.812 51.598 206.268 51.598C206.724 51.598 207.222 51.598 207.762 51.598C208.302 51.586 208.836 51.58 209.364 51.58C209.892 51.58 210.372 51.58 210.804 51.58C211.248 51.58 211.59 51.58 211.83 51.58L211.812 53.704C211.248 53.68 210.504 53.662 209.58 53.65C208.656 53.626 207.528 53.614 206.196 53.614C205.38 53.614 204.552 53.626 203.712 53.65C202.872 53.662 202.038 53.68 201.21 53.704C200.382 53.728 199.584 53.758 198.816 53.794C198.048 53.818 197.322 53.854 196.638 53.902L196.584 51.724ZM206.322 57.052C206.322 58.036 206.202 58.852 205.962 59.5C205.734 60.148 205.386 60.64 204.918 60.976C204.45 61.3 203.868 61.462 203.172 61.462C202.836 61.462 202.482 61.39 202.11 61.246C201.75 61.102 201.414 60.892 201.102 60.616C200.79 60.34 200.538 59.998 200.346 59.59C200.166 59.182 200.076 58.702 200.076 58.15C200.076 57.466 200.238 56.878 200.562 56.386C200.886 55.882 201.318 55.492 201.858 55.216C202.41 54.928 203.016 54.784 203.676 54.784C204.468 54.784 205.128 54.964 205.656 55.324C206.196 55.672 206.598 56.146 206.862 56.746C207.138 57.346 207.276 58.024 207.276 58.78C207.276 59.368 207.18 59.98 206.988 60.616C206.796 61.252 206.478 61.876 206.034 62.488C205.602 63.088 205.014 63.634 204.27 64.126C203.538 64.618 202.62 65.02 201.516 65.332L199.59 63.424C200.358 63.268 201.072 63.064 201.732 62.812C202.392 62.56 202.968 62.242 203.46 61.858C203.964 61.474 204.354 61 204.63 60.436C204.918 59.872 205.062 59.194 205.062 58.402C205.062 57.826 204.918 57.394 204.63 57.106C204.354 56.818 204.018 56.674 203.622 56.674C203.394 56.674 203.172 56.728 202.956 56.836C202.74 56.944 202.566 57.106 202.434 57.322C202.302 57.538 202.236 57.802 202.236 58.114C202.236 58.522 202.374 58.852 202.65 59.104C202.938 59.344 203.262 59.464 203.622 59.464C203.91 59.464 204.162 59.374 204.378 59.194C204.606 59.014 204.756 58.714 204.828 58.294C204.9 57.874 204.84 57.31 204.648 56.602L206.322 57.052Z" fill="black"/>
<path d="M35.86 156.02H43.9V157.76H35.86V156.02ZM33.6 162.14H44.32V163.94H33.6V162.14ZM38.06 156.76H39.96V171.66H38.06V156.76ZM35.9 153.06L37.78 153.44C37.5533 154.4 37.2733 155.347 36.94 156.28C36.62 157.213 36.2533 158.08 35.84 158.88C35.44 159.667 35.0067 160.367 34.54 160.98C34.42 160.873 34.26 160.753 34.06 160.62C33.86 160.487 33.6533 160.36 33.44 160.24C33.2267 160.107 33.04 160 32.88 159.92C33.3467 159.373 33.7733 158.733 34.16 158C34.5467 157.267 34.8867 156.48 35.18 155.64C35.4733 154.8 35.7133 153.94 35.9 153.06ZM26.66 159.2H33V160.66H26.66V159.2ZM26.76 153.78H33.02V155.26H26.76V153.78ZM26.66 161.9H33V163.36H26.66V161.9ZM25.7 156.44H33.76V157.96H25.7V156.44ZM27.52 164.64H32.94V170.58H27.52V169.06H31.26V166.16H27.52V164.64ZM26.62 164.64H28.28V171.44H26.62V164.64ZM59.64 155.04H61.62V169.14C61.62 169.753 61.5333 170.227 61.36 170.56C61.1867 170.893 60.8867 171.14 60.46 171.3C60.02 171.473 59.44 171.573 58.72 171.6C58 171.64 57.14 171.66 56.14 171.66C56.1 171.46 56.0333 171.233 55.94 170.98C55.86 170.74 55.7667 170.493 55.66 170.24C55.5533 170 55.4467 169.793 55.34 169.62C55.86 169.647 56.3667 169.667 56.86 169.68C57.3667 169.68 57.8133 169.68 58.2 169.68C58.6 169.68 58.88 169.68 59.04 169.68C59.2533 169.667 59.4067 169.627 59.5 169.56C59.5933 169.48 59.64 169.333 59.64 169.12V155.04ZM48.02 159.04H49.86V168.22H48.02V159.04ZM48.8 159.04H56.36V166.64H48.8V164.84H54.48V160.84H48.8V159.04ZM46.04 154.5H64.02V156.4H46.04V154.5ZM72.08 154.3C72.0267 154.66 71.98 155.047 71.94 155.46C71.9 155.86 71.8733 156.24 71.86 156.6C71.8333 157.147 71.8067 157.827 71.78 158.64C71.7533 159.44 71.7267 160.293 71.7 161.2C71.6733 162.093 71.6533 162.98 71.64 163.86C71.6267 164.727 71.62 165.507 71.62 166.2C71.62 166.907 71.7467 167.467 72 167.88C72.2667 168.293 72.6333 168.593 73.1 168.78C73.5667 168.953 74.0867 169.04 74.66 169.04C75.54 169.04 76.3333 168.927 77.04 168.7C77.7467 168.473 78.38 168.167 78.94 167.78C79.5133 167.393 80.0267 166.953 80.48 166.46C80.9333 165.967 81.34 165.453 81.7 164.92L83.12 166.66C82.7867 167.14 82.3667 167.64 81.86 168.16C81.3533 168.68 80.7467 169.167 80.04 169.62C79.3467 170.073 78.5467 170.44 77.64 170.72C76.7467 171 75.74 171.14 74.62 171.14C73.6067 171.14 72.72 170.987 71.96 170.68C71.2 170.373 70.6067 169.88 70.18 169.2C69.7533 168.52 69.54 167.627 69.54 166.52C69.54 165.947 69.5467 165.3 69.56 164.58C69.5733 163.86 69.5867 163.12 69.6 162.36C69.6267 161.587 69.6467 160.833 69.66 160.1C69.6867 159.367 69.7067 158.693 69.72 158.08C69.7333 157.467 69.74 156.973 69.74 156.6C69.74 156.173 69.72 155.767 69.68 155.38C69.6533 154.98 69.6 154.613 69.52 154.28L72.08 154.3ZM86.82 157.18C87.22 157.22 87.64 157.253 88.08 157.28C88.5333 157.293 88.96 157.3 89.36 157.3C90.1333 157.3 90.92 157.267 91.72 157.2C92.5333 157.12 93.3333 157.007 94.12 156.86C94.92 156.7 95.68 156.507 96.4 156.28L96.46 158.12C95.8467 158.293 95.1467 158.453 94.36 158.6C93.5733 158.747 92.7533 158.867 91.9 158.96C91.0467 159.053 90.2 159.1 89.36 159.1C88.9867 159.1 88.5933 159.093 88.18 159.08C87.7667 159.067 87.36 159.053 86.96 159.04L86.82 157.18ZM94.2 154.02C94.12 154.353 94.0133 154.773 93.88 155.28C93.76 155.787 93.62 156.32 93.46 156.88C93.3133 157.44 93.16 157.98 93 158.5C92.68 159.46 92.28 160.48 91.8 161.56C91.32 162.627 90.8 163.667 90.24 164.68C89.68 165.693 89.1133 166.58 88.54 167.34L86.62 166.36C87.0733 165.813 87.52 165.207 87.96 164.54C88.4 163.86 88.8133 163.16 89.2 162.44C89.6 161.707 89.96 161 90.28 160.32C90.6 159.627 90.86 158.993 91.06 158.42C91.2867 157.753 91.4933 157 91.68 156.16C91.8667 155.32 91.9733 154.533 92 153.8L94.2 154.02ZM98.9 160.22C98.8867 160.633 98.88 161.027 98.88 161.4C98.88 161.773 98.8867 162.16 98.9 162.56C98.9133 162.867 98.9267 163.267 98.94 163.76C98.9667 164.24 98.9933 164.753 99.02 165.3C99.0467 165.847 99.0667 166.367 99.08 166.86C99.1067 167.353 99.12 167.753 99.12 168.06C99.12 168.62 98.9933 169.133 98.74 169.6C98.5 170.067 98.1133 170.44 97.58 170.72C97.0467 171 96.34 171.14 95.46 171.14C94.6867 171.14 93.98 171.027 93.34 170.8C92.7133 170.573 92.2067 170.233 91.82 169.78C91.4467 169.327 91.26 168.753 91.26 168.06C91.26 167.433 91.4333 166.88 91.78 166.4C92.14 165.92 92.6333 165.547 93.26 165.28C93.8867 165 94.6133 164.86 95.44 164.86C96.5867 164.86 97.64 165.027 98.6 165.36C99.56 165.68 100.42 166.087 101.18 166.58C101.953 167.06 102.62 167.547 103.18 168.04L102.12 169.74C101.733 169.393 101.307 169.033 100.84 168.66C100.373 168.273 99.8533 167.92 99.28 167.6C98.72 167.267 98.1067 166.993 97.44 166.78C96.7867 166.567 96.0867 166.46 95.34 166.46C94.6733 166.46 94.1333 166.593 93.72 166.86C93.32 167.127 93.12 167.467 93.12 167.88C93.12 168.307 93.2933 168.653 93.64 168.92C94 169.187 94.52 169.32 95.2 169.32C95.7067 169.32 96.1067 169.24 96.4 169.08C96.7067 168.907 96.92 168.673 97.04 168.38C97.16 168.087 97.22 167.76 97.22 167.4C97.22 167.053 97.2067 166.587 97.18 166C97.1667 165.413 97.14 164.78 97.1 164.1C97.0733 163.42 97.04 162.74 97 162.06C96.9733 161.367 96.9533 160.753 96.94 160.22H98.9ZM102.66 160.98C102.287 160.673 101.82 160.347 101.26 160C100.7 159.64 100.127 159.3 99.54 158.98C98.9533 158.647 98.4333 158.38 97.98 158.18L99 156.64C99.36 156.8 99.7667 156.993 100.22 157.22C100.673 157.447 101.127 157.687 101.58 157.94C102.033 158.193 102.453 158.447 102.84 158.7C103.227 158.94 103.547 159.147 103.8 159.32L102.66 160.98ZM109.78 155.9C109.74 156.087 109.707 156.313 109.68 156.58C109.653 156.847 109.627 157.113 109.6 157.38C109.587 157.647 109.58 157.873 109.58 158.06C109.58 158.473 109.58 158.933 109.58 159.44C109.593 159.947 109.607 160.467 109.62 161C109.633 161.52 109.667 162.04 109.72 162.56C109.827 163.613 109.987 164.533 110.2 165.32C110.413 166.107 110.687 166.72 111.02 167.16C111.353 167.6 111.74 167.82 112.18 167.82C112.433 167.82 112.673 167.7 112.9 167.46C113.127 167.22 113.34 166.9 113.54 166.5C113.74 166.1 113.92 165.667 114.08 165.2C114.253 164.72 114.4 164.26 114.52 163.82L116.1 165.68C115.673 166.813 115.247 167.72 114.82 168.4C114.407 169.067 113.98 169.547 113.54 169.84C113.1 170.133 112.633 170.28 112.14 170.28C111.473 170.28 110.833 170.053 110.22 169.6C109.62 169.133 109.1 168.373 108.66 167.32C108.22 166.267 107.907 164.86 107.72 163.1C107.653 162.513 107.6 161.88 107.56 161.2C107.533 160.52 107.513 159.873 107.5 159.26C107.5 158.647 107.5 158.14 107.5 157.74C107.5 157.487 107.487 157.18 107.46 156.82C107.447 156.447 107.407 156.127 107.34 155.86L109.78 155.9ZM120.02 156.4C120.38 156.867 120.727 157.413 121.06 158.04C121.407 158.653 121.72 159.32 122 160.04C122.28 160.76 122.527 161.493 122.74 162.24C122.967 162.987 123.153 163.727 123.3 164.46C123.447 165.193 123.547 165.887 123.6 166.54L121.54 167.34C121.46 166.473 121.327 165.567 121.14 164.62C120.953 163.673 120.713 162.74 120.42 161.82C120.127 160.887 119.78 160.013 119.38 159.2C118.993 158.373 118.547 157.66 118.04 157.06L120.02 156.4Z" fill="#0872ED"/>
<path d="M217.86 170.28C216.607 170.28 215.494 169.967 214.52 169.34C213.56 168.713 212.807 167.827 212.26 166.68C211.714 165.52 211.44 164.153 211.44 162.58C211.44 160.993 211.714 159.64 212.26 158.52C212.807 157.387 213.56 156.52 214.52 155.92C215.494 155.307 216.607 155 217.86 155C219.127 155 220.24 155.307 221.2 155.92C222.16 156.52 222.914 157.387 223.46 158.52C224.007 159.64 224.28 160.993 224.28 162.58C224.28 164.153 224.007 165.52 223.46 166.68C222.914 167.827 222.16 168.713 221.2 169.34C220.24 169.967 219.127 170.28 217.86 170.28ZM217.86 168.24C218.674 168.24 219.38 168.007 219.98 167.54C220.594 167.073 221.067 166.42 221.4 165.58C221.734 164.727 221.9 163.727 221.9 162.58C221.9 161.433 221.734 160.447 221.4 159.62C221.067 158.78 220.594 158.14 219.98 157.7C219.38 157.247 218.674 157.02 217.86 157.02C217.047 157.02 216.334 157.247 215.72 157.7C215.12 158.14 214.654 158.78 214.32 159.62C214 160.447 213.84 161.433 213.84 162.58C213.84 163.727 214 164.727 214.32 165.58C214.654 166.42 215.12 167.073 215.72 167.54C216.334 168.007 217.047 168.24 217.86 168.24ZM227.338 170V155.26H229.658V162.24H229.718L235.298 155.26H237.918L233.338 160.96L238.658 170H236.078L231.938 162.8L229.658 165.56V170H227.338Z" fill="#0872ED"/>
<line y1="133.5" x2="300" y2="133.5" stroke="#C8C8C8"/>
<path d="M150 134C150 155.869 150 168.131 150 190" stroke="#C8C8C8"/>
<path d="M47.9308 100.988C47.9308 101.8 47.8188 102.537 47.5948 103.2C47.3801 103.863 47.0581 104.423 46.6288 104.88C46.1994 105.337 45.6628 105.673 45.0188 105.888L47.4128 108.38H45.6068L43.6748 106.126C43.6188 106.126 43.5581 106.126 43.4928 106.126C43.4368 106.135 43.3808 106.14 43.3248 106.14C42.5408 106.14 41.8594 106.019 41.2808 105.776C40.7021 105.524 40.2214 105.174 39.8388 104.726C39.4561 104.269 39.1714 103.723 38.9848 103.088C38.7981 102.453 38.7048 101.749 38.7048 100.974C38.7048 99.9473 38.8728 99.0513 39.2088 98.286C39.5448 97.5207 40.0534 96.9233 40.7348 96.494C41.4254 96.0647 42.2934 95.85 43.3388 95.85C44.3374 95.85 45.1774 96.0647 45.8588 96.494C46.5401 96.914 47.0534 97.5113 47.3988 98.286C47.7534 99.0513 47.9308 99.952 47.9308 100.988ZM40.0348 100.988C40.0348 101.828 40.1514 102.551 40.3848 103.158C40.6181 103.765 40.9774 104.231 41.4628 104.558C41.9574 104.885 42.5781 105.048 43.3248 105.048C44.0808 105.048 44.6968 104.885 45.1728 104.558C45.6581 104.231 46.0174 103.765 46.2508 103.158C46.4841 102.551 46.6008 101.828 46.6008 100.988C46.6008 99.728 46.3394 98.7433 45.8168 98.034C45.2941 97.3153 44.4681 96.956 43.3388 96.956C42.5828 96.956 41.9574 97.1193 41.4628 97.446C40.9774 97.7633 40.6181 98.2253 40.3848 98.832C40.1514 99.4293 40.0348 100.148 40.0348 100.988ZM52.9043 96.004C53.7349 96.004 54.4163 96.1113 54.9483 96.326C55.4896 96.5313 55.8909 96.844 56.1523 97.264C56.4136 97.684 56.5443 98.2113 56.5443 98.846C56.5443 99.378 56.4463 99.8213 56.2503 100.176C56.0543 100.531 55.8023 100.815 55.4943 101.03C55.1956 101.235 54.8783 101.399 54.5423 101.52L57.2863 106H55.8163L53.3943 101.87H51.4063V106H50.1463V96.004H52.9043ZM52.8343 97.096H51.4063V100.806H52.9043C53.4456 100.806 53.8889 100.736 54.2343 100.596C54.5796 100.447 54.8316 100.232 54.9903 99.952C55.1583 99.672 55.2423 99.322 55.2423 98.902C55.2423 98.4633 55.1536 98.1133 54.9763 97.852C54.8083 97.5907 54.5469 97.3993 54.1923 97.278C53.8376 97.1567 53.3849 97.096 52.8343 97.096ZM59.9052 96.396C60.1386 96.424 60.3952 96.4473 60.6752 96.466C60.9552 96.4753 61.2072 96.48 61.4312 96.48H68.3332C68.5012 96.48 68.6786 96.48 68.8652 96.48C69.0612 96.4707 69.2292 96.4613 69.3692 96.452C69.3599 96.6107 69.3506 96.7927 69.3412 96.998C69.3319 97.194 69.3272 97.376 69.3272 97.544V104.768C69.3272 105.02 69.3319 105.281 69.3412 105.552C69.3599 105.823 69.3739 106.014 69.3832 106.126H68.1232C68.1326 106.014 68.1372 105.846 68.1372 105.622C68.1466 105.389 68.1512 105.146 68.1512 104.894V97.6H61.4452C61.1839 97.6 60.8992 97.6047 60.5912 97.614C60.2926 97.6233 60.0639 97.6327 59.9052 97.642V96.396ZM59.7232 104.124C59.9006 104.143 60.1292 104.161 60.4092 104.18C60.6986 104.199 60.9879 104.208 61.2772 104.208H68.7812V105.342H61.3052C61.0252 105.342 60.7359 105.347 60.4372 105.356C60.1479 105.365 59.9099 105.379 59.7232 105.398V104.124ZM72.9252 99.938C73.0652 99.9473 73.2379 99.9613 73.4432 99.98C73.6486 99.9893 73.8726 99.9987 74.1152 100.008C74.3672 100.008 74.6192 100.008 74.8712 100.008C75.0206 100.008 75.2492 100.008 75.5572 100.008C75.8746 100.008 76.2432 100.008 76.6632 100.008C77.0832 100.008 77.5266 100.008 77.9932 100.008C78.4692 100.008 78.9406 100.008 79.4072 100.008C79.8832 100.008 80.3312 100.008 80.7512 100.008C81.1806 100.008 81.5492 100.008 81.8572 100.008C82.1652 100.008 82.3939 100.008 82.5432 100.008C82.8979 100.008 83.2012 99.9987 83.4532 99.98C83.7052 99.9613 83.9059 99.9473 84.0552 99.938V101.31C83.9152 101.301 83.7052 101.287 83.4252 101.268C83.1546 101.249 82.8652 101.24 82.5572 101.24C82.4079 101.24 82.1746 101.24 81.8572 101.24C81.5399 101.24 81.1712 101.24 80.7512 101.24C80.3406 101.24 79.8972 101.24 79.4212 101.24C78.9452 101.24 78.4692 101.24 77.9932 101.24C77.5266 101.24 77.0832 101.24 76.6632 101.24C76.2526 101.24 75.8886 101.24 75.5712 101.24C75.2539 101.24 75.0206 101.24 74.8712 101.24C74.4886 101.24 74.1246 101.249 73.7792 101.268C73.4339 101.277 73.1492 101.291 72.9252 101.31V99.938ZM94.6812 95.92C94.8026 96.088 94.9426 96.298 95.1012 96.55C95.2599 96.7927 95.4139 97.0447 95.5632 97.306C95.7219 97.5673 95.8526 97.81 95.9552 98.034L95.1572 98.398C95.0452 98.1553 94.9192 97.9127 94.7792 97.67C94.6486 97.418 94.5086 97.1753 94.3592 96.942C94.2192 96.6993 94.0699 96.4753 93.9112 96.27L94.6812 95.92ZM96.3752 95.22C96.4966 95.3787 96.6366 95.5793 96.7952 95.822C96.9632 96.0647 97.1266 96.3167 97.2852 96.578C97.4439 96.8393 97.5792 97.0773 97.6912 97.292L96.9072 97.684C96.7859 97.4413 96.6552 97.1987 96.5152 96.956C96.3752 96.7133 96.2259 96.4753 96.0672 96.242C95.9179 96.0087 95.7639 95.7893 95.6052 95.584L96.3752 95.22ZM89.7672 104.95C89.7672 104.819 89.7672 104.558 89.7672 104.166C89.7672 103.774 89.7672 103.307 89.7672 102.766C89.7672 102.215 89.7672 101.637 89.7672 101.03C89.7672 100.423 89.7672 99.8353 89.7672 99.266C89.7672 98.6967 89.7672 98.1927 89.7672 97.754C89.7672 97.3153 89.7672 96.998 89.7672 96.802C89.7672 96.606 89.7579 96.368 89.7392 96.088C89.7299 95.808 89.7019 95.5607 89.6552 95.346H91.0412C91.0132 95.5607 90.9899 95.808 90.9712 96.088C90.9526 96.3587 90.9432 96.5967 90.9432 96.802C90.9432 97.166 90.9432 97.6047 90.9432 98.118C90.9432 98.622 90.9432 99.1633 90.9432 99.742C90.9432 100.311 90.9432 100.881 90.9432 101.45C90.9432 102.01 90.9432 102.537 90.9432 103.032C90.9432 103.517 90.9432 103.933 90.9432 104.278C90.9432 104.614 90.9432 104.838 90.9432 104.95C90.9432 105.09 90.9432 105.263 90.9432 105.468C90.9526 105.673 90.9666 105.874 90.9852 106.07C91.0039 106.275 91.0179 106.453 91.0272 106.602H89.6832C89.7112 106.378 89.7299 106.112 89.7392 105.804C89.7579 105.496 89.7672 105.211 89.7672 104.95ZM90.6912 99.014C91.1486 99.154 91.6572 99.322 92.2172 99.518C92.7772 99.7047 93.3419 99.9053 93.9112 100.12C94.4899 100.335 95.0359 100.554 95.5492 100.778C96.0719 100.993 96.5292 101.198 96.9212 101.394L96.4312 102.584C96.0299 102.369 95.5772 102.15 95.0732 101.926C94.5786 101.702 94.0652 101.483 93.5332 101.268C93.0012 101.053 92.4879 100.862 91.9932 100.694C91.5079 100.526 91.0739 100.381 90.6912 100.26V99.014ZM102.597 99.7568V96.212H103.672C103.997 96.212 104.26 96.2484 104.462 96.3212C104.669 96.394 104.817 96.506 104.907 96.6572C105.002 96.8084 105.05 97.0044 105.05 97.2452C105.05 97.458 104.991 97.6428 104.873 97.7996C104.756 97.9508 104.579 98.074 104.344 98.1692L105.344 99.7568H104.613L103.781 98.3372H103.227V99.7568H102.597ZM103.227 97.85H103.664C103.904 97.85 104.086 97.8024 104.21 97.7072C104.333 97.6064 104.394 97.458 104.394 97.262C104.394 97.0492 104.33 96.9036 104.201 96.8252C104.072 96.7468 103.885 96.7076 103.638 96.7076H103.227V97.85ZM103.697 101.512C103.216 101.512 102.762 101.42 102.336 101.235C101.911 101.056 101.536 100.807 101.211 100.488C100.892 100.163 100.64 99.7876 100.455 99.362C100.276 98.9364 100.186 98.4828 100.186 98.0012C100.186 97.514 100.276 97.0604 100.455 96.6404C100.64 96.2148 100.892 95.8424 101.211 95.5232C101.536 95.1984 101.911 94.9464 102.336 94.7672C102.762 94.5824 103.216 94.49 103.697 94.49C104.184 94.49 104.638 94.5824 105.058 94.7672C105.484 94.9464 105.856 95.1984 106.175 95.5232C106.5 95.8424 106.752 96.2148 106.931 96.6404C107.116 97.0604 107.208 97.514 107.208 98.0012C107.208 98.4828 107.116 98.9364 106.931 99.362C106.752 99.7876 106.5 100.163 106.175 100.488C105.856 100.807 105.484 101.056 105.058 101.235C104.638 101.42 104.184 101.512 103.697 101.512ZM103.697 100.958C104.106 100.958 104.49 100.882 104.848 100.731C105.206 100.58 105.52 100.37 105.789 100.101C106.063 99.8268 106.276 99.5104 106.427 99.152C106.578 98.7936 106.654 98.41 106.654 98.0012C106.654 97.5924 106.578 97.2088 106.427 96.8504C106.276 96.492 106.063 96.1784 105.789 95.9096C105.52 95.6352 105.206 95.4224 104.848 95.2712C104.49 95.12 104.106 95.0444 103.697 95.0444C103.288 95.0444 102.905 95.12 102.546 95.2712C102.188 95.4224 101.872 95.6352 101.597 95.9096C101.328 96.1784 101.118 96.492 100.967 96.8504C100.816 97.2088 100.74 97.5924 100.74 98.0012C100.74 98.41 100.816 98.7936 100.967 99.152C101.118 99.5104 101.328 99.8268 101.597 100.101C101.872 100.37 102.188 100.58 102.546 100.731C102.905 100.882 103.288 100.958 103.697 100.958ZM116.045 96.438C115.952 97.166 115.831 97.9267 115.681 98.72C115.541 99.5133 115.359 100.283 115.135 101.03C114.855 101.991 114.543 102.794 114.197 103.438C113.861 104.082 113.497 104.567 113.105 104.894C112.713 105.221 112.303 105.384 111.873 105.384C111.463 105.384 111.066 105.235 110.683 104.936C110.301 104.637 109.988 104.208 109.745 103.648C109.503 103.079 109.381 102.411 109.381 101.646C109.381 100.881 109.535 100.157 109.843 99.476C110.161 98.7947 110.595 98.1927 111.145 97.67C111.705 97.138 112.359 96.718 113.105 96.41C113.852 96.102 114.65 95.948 115.499 95.948C116.321 95.948 117.058 96.0833 117.711 96.354C118.374 96.6247 118.939 96.998 119.405 97.474C119.872 97.9407 120.231 98.4867 120.483 99.112C120.735 99.728 120.861 100.391 120.861 101.1C120.861 102.08 120.651 102.943 120.231 103.69C119.821 104.437 119.223 105.043 118.439 105.51C117.665 105.977 116.722 106.285 115.611 106.434L114.953 105.398C115.177 105.37 115.392 105.342 115.597 105.314C115.803 105.286 115.989 105.253 116.157 105.216C116.605 105.113 117.039 104.955 117.459 104.74C117.889 104.516 118.271 104.236 118.607 103.9C118.943 103.555 119.209 103.149 119.405 102.682C119.611 102.206 119.713 101.665 119.713 101.058C119.713 100.489 119.62 99.9613 119.433 99.476C119.247 98.9813 118.971 98.5473 118.607 98.174C118.243 97.8007 117.8 97.5067 117.277 97.292C116.755 97.0773 116.157 96.97 115.485 96.97C114.72 96.97 114.025 97.11 113.399 97.39C112.783 97.67 112.256 98.0387 111.817 98.496C111.388 98.944 111.057 99.4387 110.823 99.98C110.59 100.512 110.473 101.035 110.473 101.548C110.473 102.136 110.548 102.621 110.697 103.004C110.856 103.377 111.043 103.653 111.257 103.83C111.481 104.007 111.701 104.096 111.915 104.096C112.139 104.096 112.368 103.989 112.601 103.774C112.835 103.55 113.073 103.195 113.315 102.71C113.558 102.215 113.796 101.576 114.029 100.792C114.235 100.12 114.407 99.406 114.547 98.65C114.697 97.894 114.804 97.152 114.869 96.424L116.045 96.438ZM127.735 99.616H135.421V102.094H134.441V100.47H128.687V102.094H127.735V99.616ZM132.215 101.408H133.209V105.622C133.209 105.79 133.228 105.897 133.265 105.944C133.303 105.991 133.396 106.014 133.545 106.014C133.592 106.014 133.676 106.014 133.797 106.014C133.928 106.014 134.059 106.014 134.189 106.014C134.32 106.014 134.413 106.014 134.469 106.014C134.572 106.014 134.647 105.972 134.693 105.888C134.749 105.804 134.787 105.631 134.805 105.37C134.833 105.099 134.852 104.698 134.861 104.166C134.936 104.222 135.025 104.278 135.127 104.334C135.23 104.381 135.337 104.427 135.449 104.474C135.561 104.511 135.664 104.544 135.757 104.572C135.729 105.197 135.673 105.683 135.589 106.028C135.515 106.383 135.398 106.625 135.239 106.756C135.081 106.887 134.861 106.952 134.581 106.952C134.535 106.952 134.455 106.952 134.343 106.952C134.231 106.952 134.11 106.952 133.979 106.952C133.858 106.952 133.741 106.952 133.629 106.952C133.527 106.952 133.452 106.952 133.405 106.952C133.088 106.952 132.841 106.91 132.663 106.826C132.495 106.751 132.379 106.616 132.313 106.42C132.248 106.233 132.215 105.967 132.215 105.622V101.408ZM129.807 101.394H130.801C130.764 102.15 130.699 102.831 130.605 103.438C130.512 104.035 130.358 104.567 130.143 105.034C129.929 105.491 129.625 105.893 129.233 106.238C128.851 106.593 128.347 106.891 127.721 107.134C127.684 107.05 127.628 106.957 127.553 106.854C127.488 106.751 127.413 106.649 127.329 106.546C127.255 106.453 127.18 106.373 127.105 106.308C127.675 106.103 128.132 105.855 128.477 105.566C128.823 105.277 129.084 104.936 129.261 104.544C129.448 104.143 129.579 103.685 129.653 103.172C129.728 102.649 129.779 102.057 129.807 101.394ZM127.791 95.5H135.365V96.382H127.791V95.5ZM128.253 97.698H134.945V98.58H128.253V97.698ZM130.983 94.226H132.019V98.16H130.983V94.226ZM123.283 98.482H127.063V99.308H123.283V98.482ZM123.367 94.73H127.021V95.57H123.367V94.73ZM123.283 100.344H127.063V101.184H123.283V100.344ZM122.681 96.564H127.455V97.446H122.681V96.564ZM123.773 102.234H127.077V106.308H123.773V105.44H126.181V103.102H123.773V102.234ZM123.269 102.234H124.165V106.966H123.269V102.234ZM139.271 95.738C139.449 95.7473 139.631 95.7567 139.817 95.766C140.013 95.7753 140.181 95.78 140.321 95.78C140.508 95.78 140.746 95.7753 141.035 95.766C141.334 95.7567 141.642 95.7427 141.959 95.724C142.277 95.7053 142.575 95.6913 142.855 95.682C143.135 95.6633 143.345 95.6493 143.485 95.64C143.625 95.6213 143.751 95.6027 143.863 95.584C143.985 95.556 144.092 95.5233 144.185 95.486L144.885 96.06C144.82 96.1347 144.755 96.2093 144.689 96.284C144.633 96.3587 144.577 96.438 144.521 96.522C144.372 96.7647 144.195 97.11 143.989 97.558C143.784 97.9967 143.565 98.4773 143.331 99C143.107 99.5133 142.883 100.008 142.659 100.484C142.519 100.801 142.365 101.147 142.197 101.52C142.039 101.884 141.875 102.257 141.707 102.64C141.539 103.013 141.371 103.363 141.203 103.69C141.045 104.017 140.891 104.287 140.741 104.502C140.489 104.857 140.223 105.109 139.943 105.258C139.663 105.398 139.341 105.468 138.977 105.468C138.455 105.468 138.021 105.295 137.675 104.95C137.33 104.605 137.157 104.138 137.157 103.55C137.157 103.027 137.274 102.542 137.507 102.094C137.75 101.637 138.081 101.24 138.501 100.904C138.931 100.568 139.439 100.307 140.027 100.12C140.625 99.9333 141.278 99.84 141.987 99.84C142.771 99.84 143.527 99.9333 144.255 100.12C144.993 100.297 145.679 100.531 146.313 100.82C146.957 101.1 147.541 101.399 148.063 101.716C148.595 102.024 149.048 102.313 149.421 102.584L148.903 103.788C148.493 103.433 148.031 103.083 147.517 102.738C147.004 102.383 146.444 102.061 145.837 101.772C145.231 101.483 144.587 101.249 143.905 101.072C143.233 100.895 142.538 100.806 141.819 100.806C141.054 100.806 140.396 100.937 139.845 101.198C139.304 101.45 138.889 101.777 138.599 102.178C138.319 102.57 138.179 102.981 138.179 103.41C138.179 103.718 138.263 103.956 138.431 104.124C138.609 104.283 138.805 104.362 139.019 104.362C139.178 104.362 139.323 104.325 139.453 104.25C139.584 104.175 139.719 104.049 139.859 103.872C140.009 103.676 140.158 103.438 140.307 103.158C140.457 102.878 140.606 102.575 140.755 102.248C140.905 101.921 141.049 101.59 141.189 101.254C141.329 100.918 141.469 100.605 141.609 100.316C141.796 99.9053 141.983 99.4807 142.169 99.042C142.365 98.6033 142.557 98.1787 142.743 97.768C142.939 97.3573 143.117 96.984 143.275 96.648C143.135 96.6573 142.935 96.6667 142.673 96.676C142.421 96.6853 142.146 96.6993 141.847 96.718C141.549 96.7273 141.264 96.7413 140.993 96.76C140.732 96.7693 140.522 96.7787 140.363 96.788C140.214 96.7973 140.046 96.8113 139.859 96.83C139.673 96.8393 139.495 96.8533 139.327 96.872L139.271 95.738ZM148.021 98.804C147.975 99.7933 147.877 100.694 147.727 101.506C147.578 102.318 147.349 103.051 147.041 103.704C146.733 104.357 146.313 104.945 145.781 105.468C145.249 105.981 144.577 106.439 143.765 106.84L142.841 106.07C143.663 105.725 144.33 105.314 144.843 104.838C145.357 104.353 145.753 103.835 146.033 103.284C146.323 102.724 146.523 102.159 146.635 101.59C146.757 101.021 146.841 100.479 146.887 99.966C146.897 99.7513 146.901 99.532 146.901 99.308C146.911 99.084 146.906 98.874 146.887 98.678L148.021 98.804ZM157.303 96.172H162.483V97.194H157.303V96.172ZM150.821 95.108H157.653V96.102H150.821V95.108ZM152.459 97.964H156.085V98.916H152.459V97.964ZM152.459 100.876H156.085V101.828H152.459V100.876ZM162.161 96.172H162.357L162.539 96.13L163.211 96.312C162.987 98.1787 162.609 99.798 162.077 101.17C161.545 102.533 160.883 103.69 160.089 104.642C159.305 105.585 158.409 106.345 157.401 106.924C157.317 106.793 157.21 106.639 157.079 106.462C156.949 106.294 156.827 106.159 156.715 106.056C157.639 105.58 158.475 104.899 159.221 104.012C159.968 103.125 160.593 102.047 161.097 100.778C161.611 99.5087 161.965 98.0527 162.161 96.41V96.172ZM158.577 97.25C158.829 98.594 159.184 99.8447 159.641 101.002C160.099 102.159 160.668 103.177 161.349 104.054C162.04 104.922 162.866 105.603 163.827 106.098C163.753 106.163 163.669 106.247 163.575 106.35C163.482 106.453 163.393 106.555 163.309 106.658C163.225 106.77 163.155 106.873 163.099 106.966C162.082 106.397 161.214 105.65 160.495 104.726C159.786 103.793 159.193 102.715 158.717 101.492C158.251 100.26 157.868 98.9113 157.569 97.446L158.577 97.25ZM151.899 95.486H152.907V104.572H151.899V95.486ZM155.651 95.486H156.673V107.092H155.651V95.486ZM150.527 104.278C150.994 104.213 151.526 104.143 152.123 104.068C152.721 103.984 153.355 103.895 154.027 103.802C154.709 103.699 155.39 103.597 156.071 103.494L156.127 104.46C155.166 104.619 154.205 104.777 153.243 104.936C152.291 105.085 151.451 105.211 150.723 105.314L150.527 104.278ZM168.895 94.954C168.821 95.2153 168.746 95.5187 168.671 95.864C168.606 96.2 168.541 96.5547 168.475 96.928C168.419 97.292 168.368 97.642 168.321 97.978C168.284 98.314 168.256 98.6033 168.237 98.846C168.387 98.4913 168.583 98.1273 168.825 97.754C169.068 97.3807 169.357 97.04 169.693 96.732C170.029 96.4147 170.393 96.158 170.785 95.962C171.187 95.766 171.607 95.668 172.045 95.668C172.671 95.668 173.221 95.864 173.697 96.256C174.183 96.648 174.561 97.2033 174.831 97.922C175.102 98.6407 175.237 99.49 175.237 100.47C175.237 101.441 175.093 102.285 174.803 103.004C174.514 103.713 174.108 104.315 173.585 104.81C173.063 105.305 172.437 105.706 171.709 106.014C170.991 106.322 170.197 106.551 169.329 106.7L168.671 105.692C169.427 105.58 170.132 105.412 170.785 105.188C171.448 104.955 172.027 104.642 172.521 104.25C173.016 103.849 173.399 103.34 173.669 102.724C173.949 102.108 174.089 101.361 174.089 100.484C174.089 99.7467 174.005 99.0933 173.837 98.524C173.669 97.9453 173.422 97.4927 173.095 97.166C172.769 96.8393 172.358 96.676 171.863 96.676C171.425 96.676 171.005 96.816 170.603 97.096C170.202 97.376 169.833 97.74 169.497 98.188C169.171 98.6267 168.905 99.1027 168.699 99.616C168.494 100.12 168.368 100.601 168.321 101.058C168.284 101.329 168.265 101.595 168.265 101.856C168.275 102.117 168.303 102.425 168.349 102.78L167.271 102.864C167.234 102.603 167.197 102.281 167.159 101.898C167.131 101.515 167.117 101.095 167.117 100.638C167.117 100.311 167.131 99.9473 167.159 99.546C167.197 99.1353 167.234 98.7247 167.271 98.314C167.318 97.894 167.365 97.4927 167.411 97.11C167.467 96.7273 167.514 96.396 167.551 96.116C167.579 95.9013 167.603 95.696 167.621 95.5C167.64 95.2947 167.654 95.0987 167.663 94.912L168.895 94.954ZM184.533 96.55C184.916 96.606 185.359 96.6527 185.863 96.69C186.377 96.718 186.904 96.732 187.445 96.732C187.996 96.7227 188.519 96.704 189.013 96.676C189.517 96.6387 189.942 96.592 190.287 96.536V97.67C189.914 97.7073 189.475 97.74 188.971 97.768C188.477 97.7867 187.959 97.796 187.417 97.796C186.885 97.796 186.367 97.7867 185.863 97.768C185.359 97.74 184.916 97.7073 184.533 97.67V96.55ZM185.079 102.248C185.014 102.5 184.963 102.729 184.925 102.934C184.888 103.139 184.869 103.34 184.869 103.536C184.869 103.695 184.902 103.853 184.967 104.012C185.042 104.161 185.163 104.297 185.331 104.418C185.509 104.53 185.751 104.623 186.059 104.698C186.367 104.763 186.759 104.796 187.235 104.796C187.87 104.796 188.467 104.768 189.027 104.712C189.587 104.647 190.147 104.553 190.707 104.432L190.735 105.608C190.297 105.701 189.783 105.776 189.195 105.832C188.617 105.879 187.963 105.902 187.235 105.902C186.059 105.902 185.196 105.715 184.645 105.342C184.104 104.969 183.833 104.455 183.833 103.802C183.833 103.569 183.852 103.321 183.889 103.06C183.936 102.789 183.997 102.486 184.071 102.15L185.079 102.248ZM181.859 95.472C181.841 95.5467 181.813 95.6447 181.775 95.766C181.747 95.878 181.715 95.9947 181.677 96.116C181.649 96.228 181.626 96.326 181.607 96.41C181.561 96.6713 181.505 96.9747 181.439 97.32C181.374 97.656 181.309 98.02 181.243 98.412C181.187 98.7947 181.131 99.1867 181.075 99.588C181.029 99.98 180.987 100.363 180.949 100.736C180.921 101.109 180.907 101.455 180.907 101.772C180.907 102.117 180.917 102.444 180.935 102.752C180.963 103.06 180.996 103.387 181.033 103.732C181.117 103.517 181.206 103.289 181.299 103.046C181.393 102.803 181.486 102.565 181.579 102.332C181.682 102.089 181.771 101.875 181.845 101.688L182.433 102.136C182.312 102.472 182.181 102.841 182.041 103.242C181.901 103.643 181.775 104.031 181.663 104.404C181.561 104.768 181.486 105.057 181.439 105.272C181.421 105.375 181.402 105.487 181.383 105.608C181.365 105.729 181.36 105.827 181.369 105.902C181.379 105.977 181.383 106.056 181.383 106.14C181.393 106.233 181.402 106.317 181.411 106.392L180.403 106.462C180.263 105.967 180.142 105.333 180.039 104.558C179.937 103.774 179.885 102.911 179.885 101.968C179.885 101.455 179.909 100.932 179.955 100.4C180.002 99.8587 180.063 99.336 180.137 98.832C180.212 98.3187 180.282 97.852 180.347 97.432C180.422 97.0027 180.478 96.6433 180.515 96.354C180.543 96.186 180.567 96.018 180.585 95.85C180.604 95.6727 180.613 95.5093 180.613 95.36L181.859 95.472ZM196.643 95.794H205.617V96.76H196.643V95.794ZM198.029 99.014V101.114H204.147V99.014H198.029ZM197.049 98.132H205.155V102.01H197.049V98.132ZM197.931 102.29C198.37 103.027 198.967 103.662 199.723 104.194C200.489 104.726 201.38 105.16 202.397 105.496C203.424 105.832 204.544 106.065 205.757 106.196C205.683 106.271 205.603 106.364 205.519 106.476C205.435 106.588 205.361 106.7 205.295 106.812C205.23 106.933 205.174 107.045 205.127 107.148C203.886 106.961 202.747 106.672 201.711 106.28C200.675 105.897 199.765 105.403 198.981 104.796C198.197 104.18 197.553 103.443 197.049 102.584L197.931 102.29ZM200.535 94.296H201.557V100.484C201.557 101.025 201.529 101.562 201.473 102.094C201.417 102.626 201.301 103.139 201.123 103.634C200.946 104.129 200.68 104.595 200.325 105.034C199.971 105.473 199.504 105.874 198.925 106.238C198.356 106.602 197.637 106.91 196.769 107.162C196.723 107.087 196.662 106.994 196.587 106.882C196.513 106.779 196.438 106.672 196.363 106.56C196.289 106.448 196.209 106.359 196.125 106.294C196.965 106.079 197.656 105.818 198.197 105.51C198.739 105.202 199.163 104.857 199.471 104.474C199.789 104.082 200.022 103.671 200.171 103.242C200.321 102.803 200.419 102.351 200.465 101.884C200.512 101.417 200.535 100.951 200.535 100.484V94.296ZM196.041 94.212L197.021 94.52C196.704 95.304 196.331 96.0787 195.901 96.844C195.481 97.6093 195.024 98.328 194.529 99C194.044 99.672 193.545 100.269 193.031 100.792C192.994 100.708 192.938 100.601 192.863 100.47C192.798 100.339 192.728 100.209 192.653 100.078C192.579 99.9473 192.509 99.84 192.443 99.756C192.91 99.308 193.367 98.79 193.815 98.202C194.263 97.6047 194.679 96.97 195.061 96.298C195.444 95.6167 195.771 94.9213 196.041 94.212ZM194.571 97.866L195.551 96.872L195.579 96.886V107.176H194.571V97.866ZM208.893 95.22H217.951V96.228H208.893V95.22ZM208.893 98.482H217.923V99.476H208.893V98.482ZM208.809 101.828H217.951V102.822H208.809V101.828ZM208.291 95.22H209.327V100.302C209.327 100.834 209.304 101.403 209.257 102.01C209.211 102.617 209.122 103.233 208.991 103.858C208.87 104.474 208.679 105.067 208.417 105.636C208.165 106.205 207.829 106.723 207.409 107.19C207.363 107.115 207.288 107.031 207.185 106.938C207.083 106.854 206.98 106.77 206.877 106.686C206.775 106.602 206.681 106.541 206.597 106.504C206.989 106.065 207.297 105.589 207.521 105.076C207.745 104.563 207.913 104.035 208.025 103.494C208.137 102.943 208.207 102.397 208.235 101.856C208.273 101.315 208.291 100.797 208.291 100.302V95.22ZM217.531 95.22H218.567V105.692C218.567 106.028 218.516 106.285 218.413 106.462C218.32 106.639 218.157 106.775 217.923 106.868C217.69 106.952 217.363 107.003 216.943 107.022C216.523 107.041 215.982 107.045 215.319 107.036C215.291 106.905 215.24 106.737 215.165 106.532C215.1 106.336 215.03 106.168 214.955 106.028C215.282 106.037 215.595 106.042 215.893 106.042C216.201 106.051 216.467 106.051 216.691 106.042C216.915 106.042 217.069 106.042 217.153 106.042C217.293 106.033 217.391 106.005 217.447 105.958C217.503 105.911 217.531 105.823 217.531 105.692V95.22ZM212.687 95.598H213.751V106.994H212.687V95.598ZM224.909 95.094C224.872 95.3273 224.844 95.5653 224.825 95.808C224.807 96.0413 224.793 96.2747 224.783 96.508C224.765 96.9 224.746 97.3853 224.727 97.964C224.709 98.5427 224.69 99.1587 224.671 99.812C224.653 100.456 224.639 101.1 224.629 101.744C224.62 102.388 224.615 102.967 224.615 103.48C224.615 103.993 224.713 104.404 224.909 104.712C225.105 105.02 225.376 105.239 225.721 105.37C226.067 105.501 226.463 105.566 226.911 105.566C227.546 105.566 228.12 105.487 228.633 105.328C229.147 105.16 229.604 104.941 230.005 104.67C230.407 104.39 230.761 104.077 231.069 103.732C231.387 103.387 231.671 103.032 231.923 102.668L232.721 103.62C232.479 103.956 232.18 104.306 231.825 104.67C231.48 105.025 231.069 105.356 230.593 105.664C230.117 105.972 229.567 106.224 228.941 106.42C228.325 106.616 227.635 106.714 226.869 106.714C226.207 106.714 225.619 106.611 225.105 106.406C224.592 106.201 224.191 105.869 223.901 105.412C223.612 104.955 223.467 104.348 223.467 103.592C223.467 103.172 223.472 102.71 223.481 102.206C223.491 101.693 223.505 101.165 223.523 100.624C223.542 100.083 223.556 99.5553 223.565 99.042C223.575 98.5193 223.584 98.0387 223.593 97.6C223.603 97.1613 223.607 96.7973 223.607 96.508C223.607 96.2467 223.598 95.9947 223.579 95.752C223.561 95.5093 223.533 95.2853 223.495 95.08L224.909 95.094ZM242.171 94.884C242.153 95.0053 242.134 95.1407 242.115 95.29C242.106 95.4393 242.097 95.6167 242.087 95.822C242.087 95.962 242.083 96.172 242.073 96.452C242.073 96.732 242.073 97.0493 242.073 97.404C242.073 97.7493 242.073 98.0993 242.073 98.454C242.073 98.8087 242.073 99.1353 242.073 99.434C242.073 99.9007 242.083 100.391 242.101 100.904C242.12 101.417 242.143 101.917 242.171 102.402C242.199 102.887 242.223 103.331 242.241 103.732C242.26 104.133 242.269 104.451 242.269 104.684C242.269 105.011 242.19 105.323 242.031 105.622C241.882 105.921 241.625 106.163 241.261 106.35C240.907 106.546 240.421 106.644 239.805 106.644C238.797 106.644 238.027 106.467 237.495 106.112C236.963 105.767 236.697 105.258 236.697 104.586C236.697 104.157 236.823 103.783 237.075 103.466C237.337 103.149 237.71 102.901 238.195 102.724C238.681 102.537 239.259 102.444 239.931 102.444C240.669 102.444 241.359 102.533 242.003 102.71C242.657 102.878 243.254 103.093 243.795 103.354C244.337 103.615 244.817 103.891 245.237 104.18C245.657 104.46 246.003 104.712 246.273 104.936L245.629 105.93C245.312 105.631 244.943 105.333 244.523 105.034C244.113 104.735 243.66 104.46 243.165 104.208C242.68 103.956 242.153 103.755 241.583 103.606C241.023 103.447 240.426 103.368 239.791 103.368C239.119 103.368 238.606 103.48 238.251 103.704C237.906 103.928 237.733 104.203 237.733 104.53C237.733 104.735 237.799 104.927 237.929 105.104C238.06 105.272 238.27 105.407 238.559 105.51C238.849 105.613 239.222 105.664 239.679 105.664C239.95 105.664 240.197 105.631 240.421 105.566C240.645 105.491 240.823 105.365 240.953 105.188C241.093 105.011 241.163 104.763 241.163 104.446C241.163 104.175 241.154 103.825 241.135 103.396C241.126 102.957 241.112 102.495 241.093 102.01C241.075 101.515 241.056 101.039 241.037 100.582C241.028 100.125 241.023 99.742 241.023 99.434C241.023 99.1167 241.023 98.7947 241.023 98.468C241.023 98.132 241.023 97.8007 241.023 97.474C241.023 97.1473 241.023 96.8347 241.023 96.536C241.033 96.2373 241.037 95.9667 241.037 95.724C241.037 95.612 241.033 95.4673 241.023 95.29C241.014 95.1127 241 94.9773 240.981 94.884H242.171ZM236.809 96.41C237.043 96.4473 237.313 96.4847 237.621 96.522C237.929 96.5593 238.251 96.5967 238.587 96.634C238.933 96.662 239.259 96.6853 239.567 96.704C239.885 96.7133 240.16 96.718 240.393 96.718C241.28 96.718 242.185 96.6853 243.109 96.62C244.043 96.5547 244.962 96.4473 245.867 96.298L245.853 97.32C245.34 97.376 244.78 97.432 244.173 97.488C243.567 97.544 242.941 97.5907 242.297 97.628C241.663 97.6653 241.033 97.684 240.407 97.684C240.081 97.684 239.693 97.67 239.245 97.642C238.797 97.614 238.354 97.5813 237.915 97.544C237.486 97.5067 237.122 97.474 236.823 97.446L236.809 96.41ZM236.739 99.378C236.991 99.4153 237.271 99.4527 237.579 99.49C237.887 99.5273 238.205 99.5553 238.531 99.574C238.858 99.5927 239.171 99.6113 239.469 99.63C239.768 99.6393 240.034 99.644 240.267 99.644C240.949 99.644 241.607 99.63 242.241 99.602C242.885 99.5647 243.515 99.518 244.131 99.462C244.757 99.3967 245.373 99.3173 245.979 99.224L245.965 100.274C245.499 100.339 245.032 100.395 244.565 100.442C244.108 100.479 243.646 100.512 243.179 100.54C242.722 100.568 242.251 100.591 241.765 100.61C241.289 100.619 240.785 100.624 240.253 100.624C239.936 100.624 239.567 100.615 239.147 100.596C238.737 100.577 238.317 100.554 237.887 100.526C237.467 100.498 237.089 100.465 236.753 100.428L236.739 99.378ZM256.927 94.912C256.927 94.9587 256.918 95.0427 256.899 95.164C256.89 95.2853 256.881 95.4067 256.871 95.528C256.871 95.64 256.867 95.7287 256.857 95.794C256.848 95.9713 256.843 96.214 256.843 96.522C256.843 96.83 256.843 97.166 256.843 97.53C256.843 97.894 256.843 98.2627 256.843 98.636C256.853 99.0093 256.857 99.3593 256.857 99.686C256.867 100.013 256.871 100.288 256.871 100.512L255.793 99.98C255.793 99.8493 255.793 99.6533 255.793 99.392C255.793 99.1213 255.793 98.8133 255.793 98.468C255.793 98.1133 255.789 97.7633 255.779 97.418C255.779 97.0727 255.775 96.7553 255.765 96.466C255.756 96.1767 255.747 95.9527 255.737 95.794C255.728 95.6073 255.714 95.43 255.695 95.262C255.677 95.0847 255.663 94.968 255.653 94.912H256.927ZM249.493 96.858C249.876 96.858 250.31 96.8533 250.795 96.844C251.281 96.8253 251.794 96.8067 252.335 96.788C252.886 96.7693 253.441 96.7553 254.001 96.746C254.561 96.7367 255.098 96.7273 255.611 96.718C256.134 96.7087 256.615 96.704 257.053 96.704C257.473 96.704 257.893 96.704 258.313 96.704C258.733 96.704 259.125 96.704 259.489 96.704C259.863 96.704 260.189 96.7087 260.469 96.718C260.759 96.718 260.987 96.718 261.155 96.718L261.141 97.754C260.749 97.7353 260.222 97.7213 259.559 97.712C258.906 97.6933 258.066 97.684 257.039 97.684C256.433 97.684 255.798 97.6933 255.135 97.712C254.482 97.7213 253.824 97.7353 253.161 97.754C252.499 97.7727 251.855 97.8007 251.229 97.838C250.613 97.866 250.044 97.8987 249.521 97.936L249.493 96.858ZM256.843 100.932C256.843 101.548 256.75 102.066 256.563 102.486C256.386 102.906 256.134 103.219 255.807 103.424C255.49 103.629 255.117 103.732 254.687 103.732C254.398 103.732 254.113 103.685 253.833 103.592C253.563 103.489 253.315 103.34 253.091 103.144C252.877 102.939 252.704 102.691 252.573 102.402C252.452 102.103 252.391 101.767 252.391 101.394C252.391 100.927 252.503 100.512 252.727 100.148C252.951 99.784 253.25 99.4947 253.623 99.28C254.006 99.0653 254.417 98.958 254.855 98.958C255.406 98.958 255.859 99.084 256.213 99.336C256.577 99.5787 256.853 99.9147 257.039 100.344C257.226 100.764 257.319 101.245 257.319 101.786C257.319 102.253 257.249 102.729 257.109 103.214C256.979 103.699 256.755 104.166 256.437 104.614C256.129 105.062 255.705 105.473 255.163 105.846C254.631 106.21 253.955 106.513 253.133 106.756L252.195 105.832C252.83 105.683 253.399 105.491 253.903 105.258C254.407 105.025 254.832 104.74 255.177 104.404C255.523 104.068 255.784 103.676 255.961 103.228C256.148 102.78 256.241 102.267 256.241 101.688C256.241 101.053 256.106 100.596 255.835 100.316C255.565 100.036 255.238 99.896 254.855 99.896C254.613 99.896 254.384 99.9567 254.169 100.078C253.955 100.19 253.777 100.358 253.637 100.582C253.507 100.806 253.441 101.072 253.441 101.38C253.441 101.819 253.581 102.159 253.861 102.402C254.151 102.645 254.487 102.766 254.869 102.766C255.159 102.766 255.406 102.687 255.611 102.528C255.817 102.36 255.961 102.113 256.045 101.786C256.139 101.45 256.148 101.035 256.073 100.54L256.843 100.932Z" fill="#646464"/>
<rect x="152.5" y="136.5" width="145" height="51" rx="2.5" stroke="#FF0000" stroke-width="5"/>
</svg>
