<svg width="300" height="40" viewBox="0 0 300 40" fill="none" xmlns="http://www.w3.org/2000/svg">
<g clip-path="url(#clip0_187_3220)">
<rect x="1" y="20" width="296" height="20" fill="white"/>
<path d="M333.332 10C339.934 10 346.369 11.9912 352.571 15.7119L352.572 15.7129C357.478 18.6576 362.156 19.9999 366.669 20V30C360.062 29.9999 353.626 28.0089 347.426 24.2871V24.2861C342.516 21.3411 337.839 20 333.332 20C328.825 20 324.149 21.3418 319.242 24.2871L319.24 24.2881C313.035 28.0082 306.6 30 299.999 30C293.398 29.9999 286.964 28.008 280.759 24.2881L280.756 24.2871C275.849 21.3419 271.174 20 266.667 20C262.16 20 257.482 21.3422 252.571 24.2881L252.57 24.2871C246.37 28.0083 239.935 30 233.329 30C226.728 30 220.295 28.0083 214.096 24.2871V24.2861C209.186 21.3412 204.508 20 199.999 20C195.49 20.0001 190.812 21.3425 185.901 24.2881L185.9 24.2871C179.701 28.0077 173.27 30 166.669 30C160.062 29.9999 153.627 28.0087 147.427 24.2871C142.516 21.3416 137.839 20 133.332 20C128.825 20 124.149 21.3418 119.242 24.2871L119.24 24.2881C113.035 28.0082 106.6 30 99.999 30C93.3981 29.9999 86.9637 28.008 80.7588 24.2881L80.7559 24.2871C75.8492 21.3419 71.1742 20 66.667 20C62.1596 20 57.482 21.3422 52.5713 24.2881L52.5703 24.2871C46.3702 28.0083 39.9354 30 33.3291 30C26.7279 30 20.2952 28.0083 14.0957 24.2871V24.2861C9.1859 21.3412 4.5078 20 -0.000976562 20C-4.51021 20.0001 -9.18828 21.3425 -14.0986 24.2881L-14.0996 24.2871C-20.299 28.0079 -26.7314 30 -33.334 30V20C-28.8261 20 -24.1508 18.658 -19.2441 15.7129L-19.2432 15.7119C-13.0404 11.991 -6.60486 10.0001 -0.000976562 10C6.6029 10 13.0385 11.9911 19.2412 15.7119L19.2422 15.7129C24.1492 18.6583 28.8238 20 33.3291 20C37.8421 20 42.5198 18.6576 47.4258 15.7129L47.4268 15.7119C53.6294 11.9911 60.0644 10 66.667 10C73.2689 10 79.7012 11.9913 85.9004 15.7119L86.8193 16.2451C91.3995 18.8204 95.7751 19.9999 99.999 20C104.504 20 109.182 18.6584 114.096 15.7129C120.296 11.9915 126.729 10 133.332 10C139.934 10 146.369 11.9912 152.571 15.7119L152.572 15.7129C157.478 18.6576 162.156 19.9999 166.669 20C171.174 20 175.849 18.6583 180.756 15.7129L180.757 15.7119C186.96 11.991 193.395 10.0001 199.999 10C206.603 10 213.038 11.9911 219.241 15.7119L219.242 15.7129C224.149 18.6583 228.824 20 233.329 20C237.842 20 242.52 18.6576 247.426 15.7129L247.428 15.7119C253.63 11.9913 260.065 10 266.667 10C273.269 10 279.701 11.9913 285.9 15.7119L286.819 16.2451C291.399 18.8204 295.775 19.9999 299.999 20C304.504 20 309.182 18.6584 314.096 15.7129C320.296 11.9915 326.729 10 333.332 10Z" fill="white" stroke="black" stroke-width="0.5"/>
</g>
<defs>
<clipPath id="clip0_187_3220">
<rect width="298" height="40" fill="white"/>
</clipPath>
</defs>
</svg>
