<svg width="24" height="21" viewBox="0 0 51 45" fill="none" xmlns="http://www.w3.org/2000/svg">
<path d="M2.78516 42.0052L25.4352 2.78516L48.0752 42.0052H2.78516Z" fill="#EDE931"/>
<path d="M28.317 36.2452C28.317 37.8652 27.007 39.1752 25.387 39.1752C23.767 39.1752 22.457 37.8652 22.457 36.2452C22.457 34.6252 23.767 33.3152 25.387 33.3152C27.007 33.3152 28.317 34.6252 28.317 36.2452Z" fill="#040000"/>
<path d="M23.8365 29.935C23.9265 30.705 24.5865 31.315 25.3865 31.315C26.1865 31.315 26.8365 30.715 26.9365 29.935L28.6065 15.965C28.6165 15.835 28.6265 15.705 28.6265 15.585C28.6265 13.795 27.1765 12.345 25.3865 12.345C23.5965 12.345 22.1465 13.795 22.1465 15.585C22.1465 15.715 22.1465 15.845 22.1665 15.965L23.8365 29.935Z" fill="#040000"/>
<path d="M4.23532 41.145L25.3753 4.535L46.5153 41.145H4.23532ZM50.1153 40.055L28.1253 1.965C26.6153 -0.655 24.1353 -0.655 22.6253 1.965L0.645324 40.055C-0.864676 42.675 0.365324 44.815 3.39532 44.815H47.3753C50.4053 44.815 51.6353 42.675 50.1253 40.055H50.1153Z" fill="#040000"/>
</svg>
