<svg width="24" height="24" viewBox="0 0 48 48" fill="none" xmlns="http://www.w3.org/2000/svg">
<path d="M38.85 35.6C38.77 35.7 38.68 35.79 38.6 35.89L11.79 9.08C14.57 6.81 17.94 5.34 21.56 4.9C26.58 4.3 31.64 5.71 35.61 8.83C39.59 11.95 42.17 16.52 42.77 21.54C43.38 26.56 41.96 31.62 38.84 35.6M26.13 42.77C21.11 43.37 16.05 41.96 12.07 38.84C8.09001 35.72 5.51 31.14 4.91 26.12C4.3 21.1 5.72001 16.04 8.84001 12.06C8.92001 11.96 9.01001 11.87 9.09001 11.77L35.9 38.58C33.12 40.85 29.75 42.32 26.13 42.76V42.77ZM40.7 6.98C36.23 2.51 30.16 0 23.84 0C17.52 0 11.46 2.51 6.98001 6.98C2.51001 11.45 0 17.51 0 23.83C0 30.15 2.51001 36.21 6.98001 40.69C11.45 45.16 17.52 47.67 23.84 47.67C30.16 47.67 36.22 45.16 40.69 40.69C45.16 36.22 47.67 30.15 47.67 23.83C47.67 17.51 45.16 11.45 40.69 6.98H40.7Z" fill="#D11026"/>
</svg>
