<svg width="104" height="80" viewBox="0 0 104 80" fill="none" xmlns="http://www.w3.org/2000/svg">
<path d="M17.0327 22.7055C16.698 22.7055 16.395 22.5242 16.2367 22.2297L6.32681 3.74019C5.77501 2.74774 5.8519 0.5 7.76512 0.5H92.9419C94.8551 0.5 94.9365 2.74774 94.3847 3.74019L84.4703 22.2251C84.312 22.5197 84.0045 22.701 83.6743 22.701H17.0327V22.7055Z" fill="white" stroke="#999999" stroke-linecap="round" stroke-linejoin="round"/>
<path d="M77.5099 2.72949L70.6621 22.7734" stroke="#999999" stroke-width="0.5" stroke-linecap="round" stroke-linejoin="round"/>
<path d="M24.8945 2.81581L26.758 8.27655C26.862 8.63456 27.2646 8.87927 27.6355 8.87927H72.9557C73.3266 8.87927 73.7291 8.63456 73.8332 8.27655L75.7238 2.73877" stroke="#999999" stroke-width="2" stroke-miterlimit="10"/>
<path d="M23.0859 2.72949L29.9337 22.7734" stroke="#999999" stroke-width="0.5" stroke-linecap="round" stroke-linejoin="round"/>
<path d="M6.35742 2.77026H48.1678H52.424H94.2344" stroke="#999999" stroke-linecap="round" stroke-linejoin="round"/>
<path d="M72.7556 11.3579H27.8379" stroke="#999999" stroke-width="0.75" stroke-miterlimit="10"/>
<path d="M72.1105 13.1753H28.4863" stroke="#999999" stroke-width="0.75" stroke-miterlimit="10"/>
<path d="M71.0318 16.3384H29.5605" stroke="#999999" stroke-width="0.75" stroke-miterlimit="10"/>
<path d="M70.4219 18.1782H30.1719" stroke="#999999" stroke-width="0.75" stroke-miterlimit="10"/>
<path d="M69.8017 19.9907H30.791" stroke="#999999" stroke-width="0.75" stroke-miterlimit="10"/>
<path d="M86.1422 46.3073L1.76492 55.0462C1.03294 55.1232 0.5 54.5517 0.5 53.8133L0.512842 40.0148C0.512842 39.3791 1.43103 38.7499 2.06028 38.6792L85.8789 30.0431C86.6109 29.9661 87.253 30.5375 87.253 31.2759V45.0681C87.253 45.7037 86.7715 46.2367 86.1422 46.3009V46.3073Z" fill="white" stroke="#999999" stroke-miterlimit="10"/>
<path d="M3.33789 42.5832L81.3199 34.3259" stroke="#999999" stroke-miterlimit="10"/>
<path d="M3.33789 45.3572L81.3199 37.0999" stroke="#999999" stroke-miterlimit="10"/>
<path d="M3.33789 48.1308L81.3199 39.8735" stroke="#999999" stroke-miterlimit="10"/>
<path d="M3.33789 50.9047L81.3199 42.6538" stroke="#999999" stroke-miterlimit="10"/>
<path d="M82.0469 33.1702H80.5508V44.4196H82.0469V33.1702Z" fill="white"/>
<path d="M81.7246 33.4976V44.0985H80.8706V33.4976H81.7246ZM82.3667 32.8555H80.2285V44.7406H82.3667V32.8555Z" fill="#999999"/>
<path d="M84.6152 31.4238V45.216" stroke="#999999" stroke-width="0.5" stroke-linecap="round" stroke-linejoin="round"/>
<path d="M41.9219 36.4385L42.8015 36.3486V48.9272L41.9219 49.0171V36.4385Z" fill="white"/>
<path d="M42.4871 36.7017V48.6318L42.2495 48.6575V36.7274L42.4871 36.7017ZM43.1292 35.989L41.6074 36.1495V49.3766L43.1292 49.2161V35.989Z" fill="#999999"/>
<path d="M101.572 71.3811L23.1153 79.3944C22.7878 79.4265 22.4603 79.3238 22.2163 79.1119L7.01161 65.8013C6.27962 65.1592 6.68414 63.9971 7.66654 63.8943L86.1237 55.881C86.4512 55.8489 86.7787 55.9517 87.0227 56.1635L102.227 69.4741C102.959 70.1162 102.555 71.2784 101.572 71.3811Z" fill="white" stroke="#999999" stroke-miterlimit="10"/>
<path d="M89.4438 69.8529L27.3535 75.8372L22.7754 72.0553L84.5382 65.7756L89.4438 69.8529Z" stroke="#999999" stroke-width="0.75" stroke-linejoin="round"/>
<path d="M25.4141 74.187L86.7081 67.7019" stroke="#999999" stroke-width="0.5" stroke-miterlimit="10"/>
<path d="M101.72 71.2271L85.7636 57.3451C84.6078 56.2535 84.4473 56.1379 83.3301 56.2535" stroke="#999999" stroke-width="0.5" stroke-miterlimit="10"/>
</svg>
