<svg width="121" height="59" viewBox="0 0 121 59" fill="none" xmlns="http://www.w3.org/2000/svg">
<path d="M106.256 0.5H0.5V33.5194H106.256V0.5Z" fill="white" stroke="#999999" stroke-miterlimit="10"/>
<path d="M106.256 32.6021H0.5V41.7741H106.256V32.6021Z" fill="white" stroke="#999999" stroke-miterlimit="10"/>
<path d="M0.0839844 41.7742H106.673L104.407 44.5258H2.35005L0.0839844 41.7742Z" fill="#999999"/>
<path d="M106.256 0.5H0.5V33.5194H106.256V0.5Z" fill="white" stroke="#999999" stroke-miterlimit="10"/>
<path d="M106.256 32.6021H0.5V41.7741H106.256V32.6021Z" fill="white" stroke="#999999" stroke-miterlimit="10"/>
<path d="M0.0839844 41.7742H106.673L104.407 44.5258H2.35005L0.0839844 41.7742Z" fill="#999999"/>
<path d="M94.5948 7.45142H116.26C118.369 7.45142 120.083 9.15916 120.083 11.2683V54.6118C120.083 56.721 118.369 58.4288 116.26 58.4288H94.5948C92.4856 58.4288 90.7715 56.721 90.7715 54.6118V11.2683C90.7715 9.15916 92.4856 7.45142 94.5948 7.45142Z" fill="white"/>
<path d="M94.5928 7.45142H116.258C118.367 7.45142 120.082 9.15916 120.082 11.2683V54.6118C120.082 56.721 118.367 58.4288 116.258 58.4288H94.5928C92.4836 58.4288 90.7695 56.721 90.7695 54.6118V11.2683C90.7695 9.15916 92.4836 7.45142 94.5928 7.45142Z" stroke="#999999" stroke-miterlimit="10"/>
<path d="M98.4308 40.5357C99.8455 40.5357 100.992 39.3974 100.992 37.9932C100.992 36.589 99.8455 35.4507 98.4308 35.4507C97.016 35.4507 95.8691 36.589 95.8691 37.9932C95.8691 39.3974 97.016 40.5357 98.4308 40.5357Z" fill="#999999"/>
<path d="M112.448 40.5357C113.863 40.5357 115.01 39.3974 115.01 37.9932C115.01 36.589 113.863 35.4507 112.448 35.4507C111.034 35.4507 109.887 36.589 109.887 37.9932C109.887 39.3974 111.034 40.5357 112.448 40.5357Z" fill="#999999"/>
<path d="M96.5067 17.9526C96.6851 17.9526 96.8253 18.0928 96.8253 18.2713V31.6337C96.8253 31.8121 96.6851 31.9523 96.5067 31.9523H91.0903V17.9526H96.5067ZM96.5067 17.3154H90.4531V32.5895H96.5067C97.0356 32.5895 97.4625 32.1626 97.4625 31.6337V18.2713C97.4625 17.7424 97.0356 17.3154 96.5067 17.3154Z" fill="#999999"/>
<path d="M91.0898 21.1516H97.1434" stroke="#999999" stroke-width="0.6" stroke-miterlimit="10"/>
<path d="M91.0898 24.9749H97.1434" stroke="#999999" stroke-width="0.6" stroke-miterlimit="10"/>
<path d="M91.0898 28.7981H94.9004H97.1434" stroke="#999999" stroke-width="0.6" stroke-miterlimit="10"/>
</svg>
