<svg width="300" height="163" viewBox="0 0 300 163" fill="none" xmlns="http://www.w3.org/2000/svg">
<rect width="300" height="163" rx="10" fill="white"/>
<path d="M33.2357 26.148C33.1277 26.616 33.0197 27.114 32.9117 27.642C32.8037 28.17 32.7077 28.686 32.6237 29.19C32.5397 29.682 32.4737 30.138 32.4257 30.558H30.1937L30.0677 30.36C30.1757 29.928 30.3077 29.472 30.4637 28.992C30.6197 28.512 30.7877 28.026 30.9677 27.534C31.1597 27.042 31.3457 26.58 31.5257 26.148H33.2357ZM29.5277 26.148C29.4197 26.616 29.3117 27.114 29.2037 27.642C29.0957 28.17 28.9997 28.686 28.9157 29.19C28.8317 29.682 28.7597 30.138 28.6997 30.558H26.4857L26.3597 30.36C26.4677 29.928 26.5997 29.472 26.7557 28.992C26.9237 28.512 27.0977 28.026 27.2777 27.534C27.4577 27.042 27.6377 26.58 27.8177 26.148H29.5277ZM40.2066 39L37.0746 28.47H37.0026C37.0146 28.71 37.0326 29.052 37.0566 29.496C37.0806 29.928 37.0986 30.402 37.1106 30.918C37.1346 31.422 37.1466 31.896 37.1466 32.34V39H34.9866V26.148H38.2986L41.3586 36.246H41.4126L44.5266 26.148H47.8566V39H45.5886V32.232C45.5886 31.824 45.5946 31.38 45.6066 30.9C45.6186 30.408 45.6366 29.946 45.6606 29.514C45.6846 29.07 45.7026 28.728 45.7146 28.488H45.6426L42.4206 39H40.2066ZM49.3652 29.244H51.9212L53.6672 34.752C53.7512 34.98 53.8172 35.208 53.8652 35.436C53.9252 35.664 53.9732 35.892 54.0092 36.12C54.0572 36.348 54.0932 36.576 54.1172 36.804H54.1712C54.2192 36.504 54.2792 36.174 54.3512 35.814C54.4352 35.454 54.5312 35.1 54.6392 34.752L56.3492 29.244H58.8692L54.9992 40.278C54.7712 40.926 54.4832 41.478 54.1352 41.934C53.7992 42.39 53.3852 42.732 52.8932 42.96C52.4132 43.2 51.8372 43.32 51.1652 43.32C50.8892 43.32 50.6432 43.302 50.4272 43.266C50.2232 43.242 50.0432 43.212 49.8872 43.176V41.376C50.0072 41.4 50.1572 41.424 50.3372 41.448C50.5172 41.472 50.7032 41.484 50.8952 41.484C51.2432 41.484 51.5372 41.406 51.7772 41.25C52.0292 41.106 52.2392 40.902 52.4072 40.638C52.5752 40.386 52.7012 40.092 52.7852 39.756L53.0372 38.964L49.3652 29.244ZM65.607 39L62.475 28.47H62.403C62.415 28.71 62.433 29.052 62.457 29.496C62.481 29.928 62.499 30.402 62.511 30.918C62.535 31.422 62.547 31.896 62.547 32.34V39H60.387V26.148H63.699L66.759 36.246H66.813L69.927 26.148H73.257V39H70.989V32.232C70.989 31.824 70.995 31.38 71.007 30.9C71.019 30.408 71.037 29.946 71.061 29.514C71.085 29.07 71.103 28.728 71.115 28.488H71.043L67.821 39H65.607ZM86.0156 34.464C86.0156 35.352 85.8296 36.156 85.4576 36.876C85.0976 37.584 84.5456 38.148 83.8016 38.568C83.0696 38.976 82.1516 39.18 81.0476 39.18C79.4636 39.18 78.2516 38.748 77.4116 37.884C76.5836 37.008 76.1696 35.856 76.1696 34.428V26.148H78.5816V34.194C78.5816 35.238 78.7916 36.006 79.2116 36.498C79.6316 36.978 80.2616 37.218 81.1016 37.218C81.6896 37.218 82.1636 37.104 82.5236 36.876C82.8956 36.648 83.1656 36.306 83.3336 35.85C83.5016 35.382 83.5856 34.824 83.5856 34.176V26.148H86.0156V34.464ZM94.5319 26.346C94.4359 26.766 94.3039 27.222 94.1359 27.714C93.9799 28.194 93.8119 28.68 93.6319 29.172C93.4519 29.652 93.2659 30.114 93.0739 30.558H91.3459C91.4539 30.09 91.5619 29.598 91.6699 29.082C91.7899 28.554 91.8919 28.038 91.9759 27.534C92.0719 27.03 92.1439 26.568 92.1919 26.148H94.4239L94.5319 26.346ZM90.8239 26.346C90.7279 26.766 90.5959 27.222 90.4279 27.714C90.2719 28.194 90.0979 28.68 89.9059 29.172C89.7259 29.652 89.5459 30.114 89.3659 30.558H87.6559C87.7399 30.21 87.8179 29.844 87.8899 29.46C87.9739 29.076 88.0519 28.692 88.1239 28.308C88.2079 27.912 88.2799 27.534 88.3399 27.174C88.3999 26.802 88.4479 26.46 88.4839 26.148H90.6979L90.8239 26.346ZM102.907 24.906C102.859 25.134 102.805 25.386 102.745 25.662C102.685 25.926 102.631 26.172 102.583 26.4C102.535 26.664 102.475 26.964 102.403 27.3C102.331 27.624 102.259 27.954 102.187 28.29C102.127 28.614 102.061 28.932 101.989 29.244C101.869 29.76 101.719 30.36 101.539 31.044C101.359 31.728 101.149 32.466 100.909 33.258C100.669 34.038 100.399 34.824 100.099 35.616C99.7988 36.408 99.4808 37.182 99.1448 37.938C98.8088 38.682 98.4488 39.354 98.0648 39.954L95.7248 39.018C96.1448 38.454 96.5348 37.824 96.8948 37.128C97.2668 36.42 97.6028 35.7 97.9028 34.968C98.2028 34.224 98.4668 33.492 98.6948 32.772C98.9348 32.04 99.1388 31.362 99.3068 30.738C99.4868 30.114 99.6248 29.58 99.7208 29.136C99.8888 28.32 100.021 27.534 100.117 26.778C100.213 26.022 100.249 25.308 100.225 24.636L102.907 24.906ZM109.099 26.724C109.387 27.12 109.681 27.606 109.981 28.182C110.293 28.746 110.599 29.346 110.899 29.982C111.199 30.618 111.469 31.23 111.709 31.818C111.949 32.406 112.135 32.916 112.267 33.348L109.981 34.392C109.873 33.888 109.711 33.33 109.495 32.718C109.291 32.106 109.051 31.488 108.775 30.864C108.499 30.228 108.205 29.628 107.893 29.064C107.593 28.5 107.281 28.026 106.957 27.642L109.099 26.724ZM95.5988 28.596C95.9228 28.62 96.2408 28.632 96.5528 28.632C96.8768 28.62 97.2008 28.608 97.5248 28.596C97.8248 28.584 98.1848 28.566 98.6048 28.542C99.0248 28.506 99.4688 28.47 99.9368 28.434C100.417 28.398 100.897 28.362 101.377 28.326C101.857 28.278 102.301 28.242 102.709 28.218C103.117 28.194 103.453 28.182 103.717 28.182C104.365 28.182 104.929 28.29 105.409 28.506C105.889 28.71 106.267 29.064 106.543 29.568C106.831 30.072 106.975 30.756 106.975 31.62C106.975 32.328 106.945 33.096 106.885 33.924C106.825 34.752 106.717 35.544 106.561 36.3C106.417 37.056 106.213 37.698 105.949 38.226C105.661 38.85 105.265 39.282 104.761 39.522C104.269 39.762 103.681 39.882 102.997 39.882C102.661 39.882 102.295 39.852 101.899 39.792C101.503 39.744 101.149 39.69 100.837 39.63L100.459 37.254C100.687 37.314 100.939 37.374 101.215 37.434C101.503 37.494 101.773 37.542 102.025 37.578C102.289 37.614 102.499 37.632 102.655 37.632C102.955 37.632 103.219 37.578 103.447 37.47C103.675 37.35 103.861 37.146 104.005 36.858C104.173 36.51 104.311 36.06 104.419 35.508C104.527 34.956 104.605 34.362 104.653 33.726C104.713 33.078 104.743 32.46 104.743 31.872C104.743 31.392 104.671 31.038 104.527 30.81C104.395 30.582 104.197 30.432 103.933 30.36C103.681 30.276 103.369 30.234 102.997 30.234C102.721 30.234 102.349 30.258 101.881 30.306C101.413 30.342 100.909 30.39 100.369 30.45C99.8408 30.498 99.3488 30.552 98.8928 30.612C98.4368 30.672 98.0828 30.714 97.8308 30.738C97.5668 30.786 97.2308 30.84 96.8228 30.9C96.4268 30.948 96.0908 30.996 95.8148 31.044L95.5988 28.596ZM108.775 24.222C108.931 24.438 109.093 24.696 109.261 24.996C109.441 25.296 109.615 25.596 109.783 25.896C109.951 26.196 110.095 26.46 110.215 26.688L108.757 27.318C108.637 27.066 108.499 26.79 108.343 26.49C108.187 26.19 108.025 25.89 107.857 25.59C107.689 25.29 107.521 25.032 107.353 24.816L108.775 24.222ZM110.917 23.412C111.073 23.64 111.241 23.904 111.421 24.204C111.601 24.504 111.775 24.804 111.943 25.104C112.123 25.404 112.261 25.656 112.357 25.86L110.935 26.472C110.743 26.1 110.515 25.68 110.251 25.212C109.987 24.732 109.729 24.324 109.477 23.988L110.917 23.412ZM122.293 24.564C122.269 24.768 122.245 25.032 122.221 25.356C122.209 25.68 122.197 25.95 122.185 26.166C122.137 27.954 121.987 29.544 121.735 30.936C121.483 32.316 121.123 33.54 120.655 34.608C120.187 35.676 119.593 36.636 118.873 37.488C118.153 38.328 117.295 39.102 116.299 39.81L114.211 38.118C114.583 37.902 114.979 37.65 115.399 37.362C115.831 37.062 116.221 36.726 116.569 36.354C117.157 35.778 117.655 35.148 118.063 34.464C118.471 33.768 118.795 33.012 119.035 32.196C119.287 31.368 119.473 30.462 119.593 29.478C119.713 28.494 119.773 27.408 119.773 26.22C119.773 26.088 119.767 25.92 119.755 25.716C119.743 25.5 119.725 25.29 119.701 25.086C119.689 24.882 119.671 24.708 119.647 24.564H122.293ZM128.413 28.416C128.389 28.56 128.359 28.728 128.323 28.92C128.299 29.112 128.287 29.262 128.287 29.37C128.275 29.754 128.251 30.246 128.215 30.846C128.191 31.446 128.149 32.094 128.089 32.79C128.041 33.474 127.975 34.158 127.891 34.842C127.819 35.526 127.729 36.162 127.621 36.75C127.513 37.326 127.381 37.8 127.225 38.172C127.033 38.628 126.751 38.97 126.379 39.198C126.019 39.438 125.527 39.558 124.903 39.558C124.387 39.558 123.871 39.54 123.355 39.504C122.839 39.48 122.359 39.45 121.915 39.414L121.645 37.002C122.089 37.086 122.533 37.152 122.977 37.2C123.421 37.236 123.817 37.254 124.165 37.254C124.465 37.254 124.687 37.206 124.831 37.11C124.975 37.002 125.095 36.84 125.191 36.624C125.287 36.384 125.377 36.066 125.461 35.67C125.545 35.274 125.617 34.83 125.677 34.338C125.737 33.846 125.785 33.336 125.821 32.808C125.869 32.28 125.899 31.77 125.911 31.278C125.935 30.774 125.947 30.33 125.947 29.946H117.163C116.863 29.946 116.491 29.952 116.047 29.964C115.603 29.964 115.183 29.982 114.787 30.018V27.66C115.171 27.696 115.579 27.726 116.011 27.75C116.443 27.774 116.827 27.786 117.163 27.786H125.497C125.725 27.786 125.953 27.774 126.181 27.75C126.421 27.726 126.643 27.696 126.847 27.66L128.413 28.416ZM145.891 25.77C145.771 25.974 145.639 26.244 145.495 26.58C145.351 26.904 145.231 27.174 145.135 27.39C144.919 27.99 144.649 28.644 144.325 29.352C144.001 30.048 143.635 30.75 143.227 31.458C142.819 32.166 142.369 32.844 141.877 33.492C141.325 34.224 140.695 34.962 139.987 35.706C139.291 36.438 138.493 37.158 137.593 37.866C136.693 38.574 135.661 39.252 134.497 39.9L132.481 38.082C134.125 37.29 135.541 36.396 136.729 35.4C137.917 34.392 138.979 33.264 139.915 32.016C140.647 31.092 141.229 30.168 141.661 29.244C142.105 28.308 142.477 27.39 142.777 26.49C142.873 26.25 142.957 25.974 143.029 25.662C143.113 25.338 143.173 25.062 143.209 24.834L145.891 25.77ZM135.991 27.516C136.447 27.792 136.927 28.104 137.431 28.452C137.947 28.788 138.463 29.136 138.979 29.496C139.507 29.856 140.005 30.21 140.473 30.558C140.953 30.906 141.385 31.224 141.769 31.512C142.729 32.268 143.665 33.054 144.577 33.87C145.489 34.686 146.311 35.484 147.043 36.264L145.189 38.316C144.397 37.404 143.593 36.564 142.777 35.796C141.961 35.016 141.079 34.23 140.131 33.438C139.807 33.162 139.435 32.862 139.015 32.538C138.595 32.214 138.139 31.872 137.647 31.512C137.167 31.152 136.657 30.792 136.117 30.432C135.577 30.06 135.025 29.7 134.461 29.352L135.991 27.516ZM152.731 25.194C152.983 25.23 153.283 25.254 153.631 25.266C153.979 25.278 154.303 25.284 154.603 25.284C154.831 25.284 155.179 25.284 155.647 25.284C156.127 25.284 156.655 25.284 157.231 25.284C157.819 25.284 158.401 25.284 158.977 25.284C159.553 25.284 160.069 25.284 160.525 25.284C160.981 25.284 161.317 25.284 161.533 25.284C161.809 25.284 162.139 25.278 162.523 25.266C162.907 25.254 163.225 25.23 163.477 25.194V27.516C163.237 27.492 162.925 27.48 162.541 27.48C162.169 27.468 161.821 27.462 161.497 27.462C161.305 27.462 160.975 27.462 160.507 27.462C160.051 27.462 159.529 27.462 158.941 27.462C158.365 27.462 157.783 27.462 157.195 27.462C156.619 27.462 156.097 27.462 155.629 27.462C155.161 27.462 154.819 27.462 154.603 27.462C154.315 27.462 153.997 27.468 153.649 27.48C153.313 27.492 153.007 27.504 152.731 27.516V25.194ZM164.989 30.414C164.929 30.534 164.863 30.666 164.791 30.81C164.731 30.954 164.683 31.074 164.647 31.17C164.371 32.034 164.023 32.898 163.603 33.762C163.195 34.614 162.655 35.412 161.983 36.156C161.083 37.164 160.075 37.986 158.959 38.622C157.843 39.246 156.709 39.72 155.557 40.044L153.775 38.01C155.131 37.722 156.337 37.302 157.393 36.75C158.449 36.198 159.319 35.568 160.003 34.86C160.483 34.368 160.867 33.852 161.155 33.312C161.455 32.76 161.689 32.238 161.857 31.746C161.725 31.746 161.497 31.746 161.173 31.746C160.849 31.746 160.459 31.746 160.003 31.746C159.559 31.746 159.079 31.746 158.563 31.746C158.047 31.746 157.519 31.746 156.979 31.746C156.439 31.746 155.923 31.746 155.431 31.746C154.939 31.746 154.495 31.746 154.099 31.746C153.715 31.746 153.403 31.746 153.163 31.746C152.947 31.746 152.641 31.752 152.245 31.764C151.849 31.776 151.459 31.8 151.075 31.836V29.496C151.459 29.52 151.831 29.544 152.191 29.568C152.563 29.592 152.887 29.604 153.163 29.604C153.343 29.604 153.613 29.604 153.973 29.604C154.345 29.604 154.771 29.604 155.251 29.604C155.731 29.604 156.241 29.604 156.781 29.604C157.333 29.604 157.879 29.604 158.419 29.604C158.971 29.604 159.493 29.604 159.985 29.604C160.477 29.604 160.903 29.604 161.263 29.604C161.623 29.604 161.893 29.604 162.073 29.604C162.361 29.604 162.619 29.586 162.847 29.55C163.087 29.514 163.267 29.472 163.387 29.424L164.989 30.414ZM167.383 33.636C167.659 33.42 167.911 33.204 168.139 32.988C168.379 32.76 168.637 32.508 168.913 32.232C169.117 32.016 169.351 31.752 169.615 31.44C169.879 31.116 170.161 30.768 170.461 30.396C170.761 30.024 171.061 29.652 171.361 29.28C171.673 28.896 171.967 28.542 172.243 28.218C172.879 27.498 173.497 27.114 174.097 27.066C174.697 27.006 175.327 27.3 175.987 27.948C176.395 28.344 176.815 28.794 177.247 29.298C177.691 29.802 178.123 30.306 178.543 30.81C178.963 31.314 179.353 31.758 179.713 32.142C180.001 32.466 180.307 32.802 180.631 33.15C180.967 33.498 181.321 33.864 181.693 34.248C182.065 34.632 182.455 35.016 182.863 35.4C183.271 35.784 183.685 36.168 184.105 36.552L182.251 38.712C181.831 38.292 181.387 37.836 180.919 37.344C180.451 36.852 179.989 36.348 179.533 35.832C179.089 35.316 178.669 34.842 178.273 34.41C177.913 33.966 177.529 33.498 177.121 33.006C176.725 32.502 176.341 32.022 175.969 31.566C175.597 31.11 175.267 30.726 174.979 30.414C174.775 30.174 174.589 30.024 174.421 29.964C174.265 29.904 174.109 29.916 173.953 30C173.809 30.084 173.653 30.24 173.485 30.468C173.305 30.696 173.095 30.966 172.855 31.278C172.627 31.59 172.381 31.926 172.117 32.286C171.865 32.634 171.619 32.976 171.379 33.312C171.139 33.636 170.917 33.924 170.713 34.176C170.509 34.476 170.305 34.776 170.101 35.076C169.909 35.376 169.735 35.646 169.579 35.886L167.383 33.636ZM195.355 26.67C195.235 27.582 195.079 28.554 194.887 29.586C194.695 30.618 194.437 31.662 194.113 32.718C193.765 33.93 193.357 34.974 192.889 35.85C192.421 36.726 191.905 37.404 191.341 37.884C190.789 38.352 190.183 38.586 189.523 38.586C188.863 38.586 188.251 38.364 187.687 37.92C187.135 37.464 186.691 36.84 186.355 36.048C186.031 35.256 185.869 34.356 185.869 33.348C185.869 32.304 186.079 31.32 186.499 30.396C186.919 29.472 187.501 28.656 188.245 27.948C189.001 27.228 189.877 26.664 190.873 26.256C191.881 25.848 192.967 25.644 194.131 25.644C195.247 25.644 196.249 25.824 197.137 26.184C198.037 26.544 198.805 27.042 199.441 27.678C200.077 28.314 200.563 29.058 200.899 29.91C201.235 30.762 201.403 31.68 201.403 32.664C201.403 33.924 201.145 35.052 200.629 36.048C200.113 37.044 199.345 37.866 198.325 38.514C197.317 39.162 196.057 39.606 194.545 39.846L193.195 37.704C193.543 37.668 193.849 37.626 194.113 37.578C194.377 37.53 194.629 37.476 194.869 37.416C195.445 37.272 195.979 37.068 196.471 36.804C196.975 36.528 197.413 36.192 197.785 35.796C198.157 35.388 198.445 34.914 198.649 34.374C198.865 33.834 198.973 33.24 198.973 32.592C198.973 31.884 198.865 31.236 198.649 30.648C198.433 30.06 198.115 29.55 197.695 29.118C197.275 28.674 196.765 28.338 196.165 28.11C195.565 27.87 194.875 27.75 194.095 27.75C193.135 27.75 192.289 27.924 191.557 28.272C190.825 28.608 190.207 29.046 189.703 29.586C189.199 30.126 188.815 30.708 188.551 31.332C188.299 31.956 188.173 32.55 188.173 33.114C188.173 33.714 188.245 34.218 188.389 34.626C188.533 35.022 188.707 35.322 188.911 35.526C189.127 35.718 189.355 35.814 189.595 35.814C189.847 35.814 190.093 35.688 190.333 35.436C190.585 35.172 190.831 34.776 191.071 34.248C191.311 33.72 191.551 33.054 191.791 32.25C192.067 31.386 192.301 30.462 192.493 29.478C192.685 28.494 192.823 27.534 192.907 26.598L195.355 26.67ZM219.907 26.814C219.811 26.934 219.691 27.09 219.547 27.282C219.403 27.462 219.289 27.618 219.205 27.75C218.929 28.218 218.563 28.758 218.107 29.37C217.651 29.97 217.147 30.57 216.595 31.17C216.043 31.758 215.473 32.262 214.885 32.682L213.013 31.188C213.373 30.972 213.727 30.72 214.075 30.432C214.423 30.144 214.741 29.844 215.029 29.532C215.329 29.208 215.587 28.902 215.803 28.614C216.031 28.326 216.205 28.068 216.325 27.84C216.169 27.84 215.905 27.84 215.533 27.84C215.161 27.84 214.717 27.84 214.201 27.84C213.685 27.84 213.127 27.84 212.527 27.84C211.939 27.84 211.351 27.84 210.763 27.84C210.175 27.84 209.617 27.84 209.089 27.84C208.573 27.84 208.123 27.84 207.739 27.84C207.367 27.84 207.103 27.84 206.947 27.84C206.575 27.84 206.221 27.852 205.885 27.876C205.549 27.9 205.171 27.93 204.751 27.966V25.464C205.099 25.512 205.459 25.554 205.831 25.59C206.203 25.626 206.575 25.644 206.947 25.644C207.103 25.644 207.379 25.644 207.775 25.644C208.171 25.644 208.639 25.644 209.179 25.644C209.731 25.644 210.313 25.644 210.925 25.644C211.549 25.644 212.167 25.644 212.779 25.644C213.403 25.644 213.979 25.644 214.507 25.644C215.047 25.644 215.503 25.644 215.875 25.644C216.259 25.644 216.517 25.644 216.649 25.644C216.817 25.644 217.021 25.638 217.261 25.626C217.501 25.614 217.735 25.596 217.963 25.572C218.203 25.548 218.377 25.518 218.485 25.482L219.907 26.814ZM212.563 29.244C212.563 30.132 212.545 30.99 212.509 31.818C212.473 32.646 212.371 33.444 212.203 34.212C212.047 34.968 211.789 35.688 211.429 36.372C211.081 37.056 210.595 37.704 209.971 38.316C209.347 38.928 208.549 39.492 207.577 40.008L205.471 38.298C205.759 38.202 206.065 38.076 206.389 37.92C206.713 37.752 207.037 37.548 207.361 37.308C207.937 36.912 208.399 36.492 208.747 36.048C209.107 35.604 209.383 35.124 209.575 34.608C209.767 34.08 209.899 33.51 209.971 32.898C210.043 32.274 210.079 31.596 210.079 30.864C210.079 30.588 210.073 30.324 210.061 30.072C210.049 29.808 210.013 29.532 209.953 29.244H212.563ZM236.002 27.804C235.906 27.972 235.804 28.176 235.696 28.416C235.588 28.644 235.492 28.872 235.408 29.1C235.252 29.628 235.03 30.234 234.742 30.918C234.466 31.59 234.118 32.292 233.698 33.024C233.29 33.744 232.816 34.44 232.276 35.112C231.412 36.144 230.404 37.08 229.252 37.92C228.112 38.76 226.696 39.516 225.004 40.188L222.88 38.28C224.104 37.92 225.16 37.506 226.048 37.038C226.936 36.57 227.71 36.072 228.37 35.544C229.03 35.004 229.618 34.434 230.134 33.834C230.554 33.366 230.938 32.838 231.286 32.25C231.634 31.65 231.934 31.056 232.186 30.468C232.438 29.88 232.606 29.364 232.69 28.92H226.624L227.452 26.886C227.62 26.886 227.878 26.886 228.226 26.886C228.586 26.886 228.988 26.886 229.432 26.886C229.888 26.886 230.332 26.886 230.764 26.886C231.208 26.886 231.592 26.886 231.916 26.886C232.252 26.886 232.48 26.886 232.6 26.886C232.876 26.886 233.152 26.868 233.428 26.832C233.716 26.796 233.962 26.742 234.166 26.67L236.002 27.804ZM230.134 24.96C229.918 25.272 229.708 25.608 229.504 25.968C229.3 26.328 229.144 26.604 229.036 26.796C228.628 27.516 228.124 28.266 227.524 29.046C226.936 29.814 226.264 30.564 225.508 31.296C224.752 32.016 223.948 32.676 223.096 33.276L221.062 31.782C221.854 31.29 222.55 30.786 223.15 30.27C223.762 29.754 224.29 29.244 224.734 28.74C225.178 28.224 225.556 27.732 225.868 27.264C226.192 26.784 226.468 26.358 226.696 25.986C226.84 25.758 226.99 25.464 227.146 25.104C227.302 24.732 227.422 24.396 227.506 24.096L230.134 24.96ZM242.896 36.606C242.896 36.354 242.896 35.994 242.896 35.526C242.896 35.046 242.896 34.506 242.896 33.906C242.896 33.294 242.896 32.658 242.896 31.998C242.896 31.326 242.896 30.672 242.896 30.036C242.896 29.388 242.896 28.788 242.896 28.236C242.896 27.684 242.896 27.222 242.896 26.85C242.896 26.658 242.89 26.436 242.878 26.184C242.878 25.932 242.866 25.68 242.842 25.428C242.818 25.176 242.788 24.96 242.752 24.78H245.434C245.398 25.056 245.362 25.398 245.326 25.806C245.29 26.202 245.272 26.55 245.272 26.85C245.272 27.21 245.272 27.642 245.272 28.146C245.272 28.638 245.272 29.172 245.272 29.748C245.272 30.312 245.272 30.888 245.272 31.476C245.272 32.064 245.272 32.64 245.272 33.204C245.272 33.768 245.272 34.284 245.272 34.752C245.272 35.22 245.272 35.628 245.272 35.976C245.272 36.336 245.326 36.63 245.434 36.858C245.542 37.086 245.758 37.248 246.082 37.344C246.418 37.44 246.916 37.488 247.576 37.488C248.212 37.488 248.848 37.464 249.484 37.416C250.132 37.356 250.774 37.284 251.41 37.2C252.046 37.104 252.658 36.996 253.246 36.876L253.174 39.324C252.682 39.396 252.124 39.462 251.5 39.522C250.876 39.582 250.228 39.63 249.556 39.666C248.896 39.702 248.242 39.72 247.594 39.72C246.574 39.72 245.752 39.654 245.128 39.522C244.504 39.402 244.03 39.216 243.706 38.964C243.394 38.712 243.178 38.388 243.058 37.992C242.95 37.596 242.896 37.134 242.896 36.606ZM254.236 28.686C254.152 28.818 254.05 28.98 253.93 29.172C253.822 29.352 253.726 29.52 253.642 29.676C253.45 30.048 253.204 30.468 252.904 30.936C252.616 31.404 252.304 31.884 251.968 32.376C251.632 32.868 251.284 33.336 250.924 33.78C250.576 34.224 250.24 34.602 249.916 34.914L247.936 33.744C248.332 33.396 248.716 33 249.088 32.556C249.472 32.1 249.814 31.656 250.114 31.224C250.414 30.78 250.648 30.408 250.816 30.108C250.648 30.132 250.354 30.192 249.934 30.288C249.526 30.372 249.022 30.474 248.422 30.594C247.822 30.714 247.168 30.846 246.46 30.99C245.752 31.122 245.038 31.26 244.318 31.404C243.598 31.548 242.902 31.692 242.23 31.836C241.558 31.968 240.952 32.094 240.412 32.214C239.872 32.322 239.44 32.412 239.116 32.484L238.684 30.126C239.032 30.078 239.488 30.012 240.052 29.928C240.616 29.832 241.246 29.724 241.942 29.604C242.638 29.472 243.364 29.334 244.12 29.19C244.876 29.046 245.626 28.902 246.37 28.758C247.114 28.614 247.81 28.482 248.458 28.362C249.106 28.23 249.67 28.116 250.15 28.02C250.63 27.912 250.99 27.828 251.23 27.768C251.482 27.708 251.716 27.648 251.932 27.588C252.148 27.516 252.34 27.438 252.508 27.354L254.236 28.686ZM270.832 26.796C270.76 26.904 270.652 27.072 270.508 27.3C270.376 27.528 270.274 27.738 270.202 27.93C269.95 28.494 269.638 29.124 269.266 29.82C268.906 30.516 268.492 31.218 268.024 31.926C267.568 32.622 267.082 33.276 266.566 33.888C265.894 34.644 265.15 35.394 264.334 36.138C263.53 36.87 262.678 37.548 261.778 38.172C260.89 38.784 259.978 39.312 259.042 39.756L257.188 37.812C258.16 37.44 259.102 36.972 260.014 36.408C260.926 35.844 261.772 35.232 262.552 34.572C263.332 33.912 264.004 33.27 264.568 32.646C264.964 32.19 265.336 31.704 265.684 31.188C266.044 30.672 266.362 30.162 266.638 29.658C266.914 29.142 267.118 28.668 267.25 28.236C267.13 28.236 266.914 28.236 266.602 28.236C266.29 28.236 265.924 28.236 265.504 28.236C265.096 28.236 264.664 28.236 264.208 28.236C263.752 28.236 263.314 28.236 262.894 28.236C262.486 28.236 262.126 28.236 261.814 28.236C261.502 28.236 261.28 28.236 261.148 28.236C260.896 28.236 260.632 28.248 260.356 28.272C260.08 28.284 259.816 28.302 259.564 28.326C259.324 28.338 259.138 28.35 259.006 28.362V25.806C259.186 25.818 259.408 25.836 259.672 25.86C259.936 25.884 260.2 25.902 260.464 25.914C260.74 25.926 260.968 25.932 261.148 25.932C261.304 25.932 261.55 25.932 261.886 25.932C262.222 25.932 262.606 25.932 263.038 25.932C263.47 25.932 263.914 25.932 264.37 25.932C264.838 25.932 265.282 25.932 265.702 25.932C266.134 25.932 266.506 25.932 266.818 25.932C267.13 25.932 267.358 25.932 267.502 25.932C267.898 25.932 268.258 25.908 268.582 25.86C268.918 25.812 269.176 25.758 269.356 25.698L270.832 26.796ZM266.8 32.394C267.268 32.766 267.766 33.198 268.294 33.69C268.822 34.182 269.344 34.692 269.86 35.22C270.376 35.748 270.85 36.258 271.282 36.75C271.726 37.23 272.098 37.65 272.398 38.01L270.346 39.792C269.902 39.18 269.392 38.544 268.816 37.884C268.252 37.224 267.652 36.57 267.016 35.922C266.392 35.262 265.756 34.638 265.108 34.05L266.8 32.394ZM95.748 52.564C95.688 52.888 95.592 53.308 95.46 53.824C95.328 54.34 95.136 54.922 94.884 55.57C94.692 56.014 94.47 56.476 94.218 56.956C93.978 57.424 93.732 57.844 93.48 58.216C93.636 58.144 93.834 58.084 94.074 58.036C94.314 57.976 94.56 57.934 94.812 57.91C95.076 57.874 95.31 57.856 95.514 57.856C96.27 57.856 96.894 58.072 97.386 58.504C97.89 58.936 98.142 59.578 98.142 60.43C98.142 60.67 98.142 60.964 98.142 61.312C98.154 61.66 98.166 62.026 98.178 62.41C98.19 62.782 98.202 63.148 98.214 63.508C98.226 63.868 98.232 64.192 98.232 64.48H96.072C96.096 64.276 96.108 64.036 96.108 63.76C96.12 63.472 96.126 63.172 96.126 62.86C96.138 62.548 96.144 62.248 96.144 61.96C96.156 61.66 96.162 61.39 96.162 61.15C96.162 60.574 96.006 60.178 95.694 59.962C95.394 59.734 95.058 59.62 94.686 59.62C94.182 59.62 93.672 59.746 93.156 59.998C92.652 60.238 92.226 60.526 91.878 60.862C91.614 61.126 91.344 61.42 91.068 61.744C90.804 62.068 90.516 62.434 90.204 62.842L88.278 61.402C89.058 60.682 89.73 59.986 90.294 59.314C90.87 58.642 91.356 57.976 91.752 57.316C92.148 56.656 92.472 55.996 92.724 55.336C92.904 54.856 93.048 54.358 93.156 53.842C93.276 53.314 93.348 52.822 93.372 52.366L95.748 52.564ZM88.98 54.22C89.436 54.292 89.964 54.346 90.564 54.382C91.164 54.418 91.692 54.436 92.148 54.436C92.94 54.436 93.804 54.418 94.74 54.382C95.688 54.346 96.648 54.286 97.62 54.202C98.592 54.106 99.516 53.986 100.392 53.842L100.374 55.93C99.738 56.014 99.048 56.092 98.304 56.164C97.572 56.224 96.822 56.278 96.054 56.326C95.298 56.362 94.572 56.392 93.876 56.416C93.18 56.428 92.562 56.434 92.022 56.434C91.782 56.434 91.482 56.434 91.122 56.434C90.774 56.422 90.414 56.41 90.042 56.398C89.67 56.374 89.316 56.35 88.98 56.326V54.22ZM103.236 59.332C103.044 59.392 102.816 59.47 102.552 59.566C102.3 59.65 102.042 59.74 101.778 59.836C101.526 59.92 101.298 60.004 101.094 60.088C100.518 60.316 99.834 60.592 99.042 60.916C98.262 61.24 97.446 61.618 96.594 62.05C96.054 62.338 95.598 62.62 95.226 62.896C94.854 63.172 94.572 63.454 94.38 63.742C94.188 64.018 94.092 64.324 94.092 64.66C94.092 64.912 94.146 65.122 94.254 65.29C94.362 65.446 94.524 65.572 94.74 65.668C94.956 65.764 95.226 65.83 95.55 65.866C95.874 65.902 96.258 65.92 96.702 65.92C97.47 65.92 98.316 65.878 99.24 65.794C100.164 65.698 101.022 65.572 101.814 65.416L101.742 67.738C101.358 67.786 100.872 67.834 100.284 67.882C99.696 67.942 99.084 67.984 98.448 68.008C97.824 68.032 97.224 68.044 96.648 68.044C95.712 68.044 94.872 67.954 94.128 67.774C93.384 67.594 92.796 67.288 92.364 66.856C91.944 66.412 91.734 65.806 91.734 65.038C91.734 64.414 91.872 63.85 92.148 63.346C92.436 62.842 92.814 62.386 93.282 61.978C93.75 61.57 94.26 61.204 94.812 60.88C95.376 60.544 95.928 60.238 96.468 59.962C97.02 59.674 97.518 59.428 97.962 59.224C98.406 59.02 98.82 58.84 99.204 58.684C99.6 58.516 99.978 58.348 100.338 58.18C100.686 58.024 101.022 57.874 101.346 57.73C101.67 57.574 102 57.412 102.336 57.244L103.236 59.332ZM106.044 54.436H122.028V56.524H106.044V54.436ZM114.9 56.272C115.224 57.268 115.638 58.228 116.142 59.152C116.646 60.064 117.222 60.922 117.87 61.726C118.518 62.53 119.238 63.25 120.03 63.886C120.822 64.51 121.68 65.032 122.604 65.452C122.436 65.596 122.25 65.782 122.046 66.01C121.842 66.226 121.644 66.46 121.452 66.712C121.272 66.952 121.122 67.174 121.002 67.378C119.742 66.706 118.62 65.836 117.636 64.768C116.652 63.7 115.794 62.488 115.062 61.132C114.33 59.764 113.712 58.306 113.208 56.758L114.9 56.272ZM119.58 56.866L121.488 58.198C121.08 58.654 120.648 59.122 120.192 59.602C119.736 60.07 119.28 60.52 118.824 60.952C118.368 61.372 117.942 61.75 117.546 62.086L115.962 60.88C116.346 60.544 116.76 60.148 117.204 59.692C117.648 59.236 118.08 58.762 118.5 58.27C118.92 57.778 119.28 57.31 119.58 56.866ZM116.232 52.978L117.51 51.61C117.87 51.778 118.26 51.97 118.68 52.186C119.1 52.402 119.502 52.63 119.886 52.87C120.282 53.098 120.606 53.308 120.858 53.5L119.508 55.012C119.268 54.808 118.962 54.586 118.59 54.346C118.218 54.106 117.822 53.866 117.402 53.626C116.994 53.386 116.604 53.17 116.232 52.978ZM106.746 58.27L108.384 57.118C108.732 57.418 109.086 57.754 109.446 58.126C109.806 58.498 110.142 58.87 110.454 59.242C110.766 59.602 111.018 59.938 111.21 60.25L109.446 61.546C109.278 61.234 109.044 60.886 108.744 60.502C108.444 60.118 108.12 59.728 107.772 59.332C107.424 58.936 107.082 58.582 106.746 58.27ZM112.848 51.736H115.062V65.956C115.062 66.592 114.99 67.078 114.846 67.414C114.702 67.75 114.438 68.008 114.054 68.188C113.694 68.38 113.22 68.5 112.632 68.548C112.044 68.608 111.342 68.632 110.526 68.62C110.49 68.308 110.394 67.93 110.238 67.486C110.094 67.042 109.944 66.664 109.788 66.352C110.34 66.376 110.862 66.388 111.354 66.388C111.858 66.388 112.2 66.388 112.38 66.388C112.548 66.388 112.668 66.358 112.74 66.298C112.812 66.226 112.848 66.112 112.848 65.956V51.736ZM105.468 64.948C105.972 64.684 106.548 64.378 107.196 64.03C107.856 63.682 108.552 63.304 109.284 62.896C110.028 62.476 110.76 62.062 111.48 61.654L112.2 63.616C111.3 64.204 110.37 64.792 109.41 65.38C108.462 65.956 107.598 66.472 106.818 66.928L105.468 64.948ZM135.582 52.888C135.546 53.044 135.498 53.236 135.438 53.464C135.39 53.692 135.342 53.92 135.294 54.148C135.246 54.376 135.204 54.562 135.168 54.706C134.976 55.51 134.76 56.332 134.52 57.172C134.28 58 134.01 58.822 133.71 59.638C133.41 60.454 133.074 61.216 132.702 61.924C132.342 62.632 131.94 63.262 131.496 63.814C130.956 64.51 130.446 65.08 129.966 65.524C129.498 65.968 129.03 66.298 128.562 66.514C128.094 66.718 127.584 66.82 127.032 66.82C126.54 66.82 126.072 66.688 125.628 66.424C125.196 66.148 124.842 65.746 124.566 65.218C124.302 64.678 124.17 64.018 124.17 63.238C124.17 62.434 124.314 61.636 124.602 60.844C124.902 60.04 125.31 59.296 125.826 58.612C126.354 57.928 126.972 57.358 127.68 56.902C128.64 56.278 129.582 55.84 130.506 55.588C131.43 55.336 132.372 55.21 133.332 55.21C134.58 55.21 135.684 55.474 136.644 56.002C137.604 56.518 138.354 57.244 138.894 58.18C139.434 59.116 139.704 60.214 139.704 61.474C139.704 62.734 139.422 63.826 138.858 64.75C138.306 65.662 137.544 66.394 136.572 66.946C135.6 67.486 134.49 67.852 133.242 68.044L131.856 65.956C132.852 65.872 133.698 65.692 134.394 65.416C135.102 65.14 135.672 64.792 136.104 64.372C136.548 63.952 136.872 63.484 137.076 62.968C137.28 62.452 137.382 61.912 137.382 61.348C137.382 60.532 137.202 59.818 136.842 59.206C136.494 58.582 136.002 58.096 135.366 57.748C134.73 57.388 133.98 57.208 133.116 57.208C132.168 57.208 131.322 57.364 130.578 57.676C129.834 57.976 129.15 58.354 128.526 58.81C128.058 59.146 127.656 59.554 127.32 60.034C126.984 60.502 126.726 61 126.546 61.528C126.366 62.056 126.276 62.566 126.276 63.058C126.276 63.49 126.366 63.838 126.546 64.102C126.738 64.366 126.99 64.498 127.302 64.498C127.53 64.498 127.764 64.432 128.004 64.3C128.244 64.156 128.484 63.97 128.724 63.742C128.964 63.502 129.204 63.226 129.444 62.914C129.684 62.602 129.924 62.272 130.164 61.924C130.5 61.408 130.818 60.832 131.118 60.196C131.418 59.56 131.688 58.894 131.928 58.198C132.18 57.502 132.39 56.83 132.558 56.182C132.726 55.522 132.858 54.916 132.954 54.364C133.014 54.1 133.05 53.8 133.062 53.464C133.086 53.128 133.098 52.858 133.098 52.654L135.582 52.888ZM127.986 53.482C128.046 53.782 128.106 54.076 128.166 54.364C128.238 54.652 128.31 54.934 128.382 55.21C128.514 55.702 128.67 56.236 128.85 56.812C129.03 57.376 129.222 57.94 129.426 58.504C129.642 59.068 129.858 59.59 130.074 60.07C130.29 60.538 130.506 60.94 130.722 61.276C131.034 61.756 131.388 62.26 131.784 62.788C132.18 63.304 132.588 63.766 133.008 64.174L131.19 65.614C130.83 65.218 130.506 64.84 130.218 64.48C129.942 64.108 129.654 63.694 129.354 63.238C129.09 62.83 128.82 62.356 128.544 61.816C128.28 61.276 128.016 60.688 127.752 60.052C127.5 59.416 127.254 58.762 127.014 58.09C126.786 57.418 126.564 56.752 126.348 56.092C126.252 55.768 126.144 55.456 126.024 55.156C125.916 54.856 125.784 54.544 125.628 54.22L127.986 53.482ZM142.278 54.616C142.638 54.604 142.98 54.592 143.304 54.58C143.628 54.556 143.88 54.538 144.06 54.526C144.432 54.49 144.888 54.448 145.428 54.4C145.968 54.352 146.574 54.298 147.246 54.238C147.93 54.178 148.656 54.118 149.424 54.058C150.192 53.986 150.99 53.914 151.818 53.842C152.442 53.794 153.066 53.752 153.69 53.716C154.314 53.668 154.902 53.632 155.454 53.608C156.018 53.572 156.504 53.548 156.912 53.536L156.93 55.84C156.606 55.84 156.234 55.846 155.814 55.858C155.394 55.87 154.974 55.894 154.554 55.93C154.146 55.954 153.78 56.002 153.456 56.074C152.916 56.218 152.412 56.464 151.944 56.812C151.488 57.148 151.086 57.55 150.738 58.018C150.39 58.486 150.12 58.99 149.928 59.53C149.748 60.058 149.658 60.592 149.658 61.132C149.658 61.72 149.76 62.242 149.964 62.698C150.168 63.142 150.45 63.526 150.81 63.85C151.182 64.162 151.614 64.426 152.106 64.642C152.598 64.846 153.126 65.002 153.69 65.11C154.266 65.218 154.86 65.29 155.472 65.326L154.626 67.792C153.87 67.744 153.132 67.624 152.412 67.432C151.704 67.24 151.038 66.976 150.414 66.64C149.802 66.304 149.262 65.896 148.794 65.416C148.326 64.924 147.96 64.366 147.696 63.742C147.432 63.106 147.3 62.398 147.3 61.618C147.3 60.742 147.438 59.944 147.714 59.224C147.99 58.504 148.332 57.874 148.74 57.334C149.148 56.782 149.556 56.356 149.964 56.056C149.628 56.092 149.22 56.14 148.74 56.2C148.272 56.248 147.762 56.308 147.21 56.38C146.67 56.44 146.118 56.506 145.554 56.578C144.99 56.65 144.444 56.734 143.916 56.83C143.4 56.914 142.932 56.998 142.512 57.082L142.278 54.616ZM163.68 54.13C163.632 54.346 163.59 54.592 163.554 54.868C163.53 55.144 163.506 55.414 163.482 55.678C163.47 55.942 163.464 56.158 163.464 56.326C163.452 56.722 163.446 57.13 163.446 57.55C163.458 57.97 163.47 58.402 163.482 58.846C163.506 59.278 163.536 59.71 163.572 60.142C163.656 61.006 163.776 61.768 163.932 62.428C164.088 63.088 164.292 63.604 164.544 63.976C164.796 64.336 165.114 64.516 165.498 64.516C165.702 64.516 165.9 64.402 166.092 64.174C166.296 63.946 166.476 63.652 166.632 63.292C166.8 62.92 166.944 62.53 167.064 62.122C167.196 61.714 167.31 61.33 167.406 60.97L169.206 63.166C168.81 64.21 168.414 65.044 168.018 65.668C167.634 66.28 167.232 66.724 166.812 67C166.392 67.264 165.936 67.396 165.444 67.396C164.796 67.396 164.178 67.18 163.59 66.748C163.014 66.316 162.522 65.62 162.114 64.66C161.706 63.688 161.418 62.398 161.25 60.79C161.19 60.238 161.142 59.656 161.106 59.044C161.082 58.432 161.064 57.85 161.052 57.298C161.052 56.746 161.052 56.29 161.052 55.93C161.052 55.678 161.04 55.378 161.016 55.03C160.992 54.682 160.956 54.37 160.908 54.094L163.68 54.13ZM172.68 54.544C173.016 54.952 173.34 55.45 173.652 56.038C173.964 56.626 174.252 57.256 174.516 57.928C174.78 58.6 175.014 59.29 175.218 59.998C175.422 60.694 175.584 61.378 175.704 62.05C175.836 62.71 175.92 63.316 175.956 63.868L173.58 64.786C173.52 64.054 173.412 63.256 173.256 62.392C173.1 61.528 172.89 60.658 172.626 59.782C172.362 58.906 172.044 58.078 171.672 57.298C171.312 56.518 170.886 55.846 170.394 55.282L172.68 54.544ZM187.746 52.438C187.722 52.618 187.698 52.822 187.674 53.05C187.662 53.266 187.65 53.488 187.638 53.716C187.626 53.956 187.614 54.28 187.602 54.688C187.59 55.084 187.584 55.522 187.584 56.002C187.584 56.482 187.584 56.956 187.584 57.424C187.584 57.892 187.584 58.318 187.584 58.702C187.584 59.206 187.596 59.77 187.62 60.394C187.644 61.006 187.674 61.63 187.71 62.266C187.758 62.89 187.794 63.478 187.818 64.03C187.854 64.57 187.872 65.02 187.872 65.38C187.872 65.884 187.74 66.346 187.476 66.766C187.212 67.174 186.816 67.498 186.288 67.738C185.772 67.978 185.118 68.098 184.326 68.098C182.886 68.098 181.794 67.834 181.05 67.306C180.306 66.778 179.934 66.04 179.934 65.092C179.934 64.48 180.108 63.946 180.456 63.49C180.816 63.022 181.326 62.656 181.986 62.392C182.658 62.128 183.456 61.996 184.38 61.996C185.364 61.996 186.282 62.104 187.134 62.32C187.998 62.524 188.784 62.794 189.492 63.13C190.2 63.466 190.83 63.82 191.382 64.192C191.934 64.564 192.402 64.9 192.786 65.2L191.49 67.216C191.058 66.808 190.572 66.406 190.032 66.01C189.504 65.614 188.922 65.254 188.286 64.93C187.662 64.606 186.996 64.348 186.288 64.156C185.592 63.952 184.854 63.85 184.074 63.85C183.45 63.85 182.964 63.958 182.616 64.174C182.28 64.39 182.112 64.654 182.112 64.966C182.112 65.194 182.184 65.392 182.328 65.56C182.472 65.728 182.682 65.854 182.958 65.938C183.234 66.022 183.582 66.064 184.002 66.064C184.326 66.064 184.602 66.028 184.83 65.956C185.07 65.884 185.256 65.752 185.388 65.56C185.52 65.368 185.586 65.098 185.586 64.75C185.586 64.486 185.574 64.108 185.55 63.616C185.538 63.124 185.52 62.584 185.496 61.996C185.472 61.396 185.448 60.808 185.424 60.232C185.4 59.656 185.388 59.146 185.388 58.702C185.388 58.27 185.388 57.82 185.388 57.352C185.4 56.872 185.406 56.398 185.406 55.93C185.406 55.462 185.406 55.036 185.406 54.652C185.418 54.256 185.424 53.932 185.424 53.68C185.424 53.512 185.412 53.308 185.388 53.068C185.376 52.816 185.352 52.606 185.316 52.438H187.746ZM180.276 54.13C180.6 54.178 180.96 54.226 181.356 54.274C181.752 54.322 182.154 54.37 182.562 54.418C182.982 54.454 183.378 54.484 183.75 54.508C184.122 54.52 184.446 54.526 184.722 54.526C185.946 54.526 187.164 54.49 188.376 54.418C189.6 54.334 190.866 54.184 192.174 53.968L192.156 56.038C191.544 56.122 190.836 56.2 190.032 56.272C189.228 56.344 188.37 56.404 187.458 56.452C186.558 56.488 185.652 56.506 184.74 56.506C184.368 56.506 183.906 56.494 183.354 56.47C182.814 56.434 182.274 56.392 181.734 56.344C181.194 56.284 180.726 56.23 180.33 56.182L180.276 54.13ZM180.186 58.018C180.474 58.066 180.816 58.114 181.212 58.162C181.608 58.21 182.01 58.246 182.418 58.27C182.838 58.294 183.234 58.318 183.606 58.342C183.978 58.354 184.284 58.36 184.524 58.36C185.64 58.36 186.648 58.336 187.548 58.288C188.46 58.24 189.312 58.18 190.104 58.108C190.896 58.036 191.658 57.952 192.39 57.856L192.372 59.98C191.748 60.052 191.142 60.112 190.554 60.16C189.978 60.208 189.384 60.25 188.772 60.286C188.172 60.322 187.524 60.346 186.828 60.358C186.132 60.37 185.352 60.376 184.488 60.376C184.14 60.376 183.708 60.37 183.192 60.358C182.676 60.334 182.148 60.304 181.608 60.268C181.08 60.232 180.612 60.19 180.204 60.142L180.186 58.018ZM206.754 52.492C206.742 52.588 206.724 52.744 206.7 52.96C206.688 53.164 206.676 53.374 206.664 53.59C206.652 53.794 206.64 53.944 206.628 54.04C206.616 54.28 206.61 54.604 206.61 55.012C206.61 55.408 206.61 55.852 206.61 56.344C206.61 56.836 206.61 57.334 206.61 57.838C206.622 58.33 206.628 58.798 206.628 59.242C206.64 59.674 206.646 60.034 206.646 60.322L204.396 59.566C204.396 59.338 204.396 59.038 204.396 58.666C204.396 58.282 204.396 57.868 204.396 57.424C204.396 56.968 204.39 56.518 204.378 56.074C204.378 55.63 204.372 55.228 204.36 54.868C204.348 54.508 204.336 54.238 204.324 54.058C204.3 53.686 204.27 53.362 204.234 53.086C204.198 52.798 204.168 52.6 204.144 52.492H206.754ZM196.584 54.724C197.112 54.724 197.712 54.718 198.384 54.706C199.056 54.694 199.758 54.682 200.49 54.67C201.222 54.658 201.942 54.646 202.65 54.634C203.358 54.622 204.024 54.616 204.648 54.616C205.272 54.604 205.812 54.598 206.268 54.598C206.724 54.598 207.222 54.598 207.762 54.598C208.302 54.586 208.836 54.58 209.364 54.58C209.892 54.58 210.372 54.58 210.804 54.58C211.248 54.58 211.59 54.58 211.83 54.58L211.812 56.704C211.248 56.68 210.504 56.662 209.58 56.65C208.656 56.626 207.528 56.614 206.196 56.614C205.38 56.614 204.552 56.626 203.712 56.65C202.872 56.662 202.038 56.68 201.21 56.704C200.382 56.728 199.584 56.758 198.816 56.794C198.048 56.818 197.322 56.854 196.638 56.902L196.584 54.724ZM206.322 60.052C206.322 61.036 206.202 61.852 205.962 62.5C205.734 63.148 205.386 63.64 204.918 63.976C204.45 64.3 203.868 64.462 203.172 64.462C202.836 64.462 202.482 64.39 202.11 64.246C201.75 64.102 201.414 63.892 201.102 63.616C200.79 63.34 200.538 62.998 200.346 62.59C200.166 62.182 200.076 61.702 200.076 61.15C200.076 60.466 200.238 59.878 200.562 59.386C200.886 58.882 201.318 58.492 201.858 58.216C202.41 57.928 203.016 57.784 203.676 57.784C204.468 57.784 205.128 57.964 205.656 58.324C206.196 58.672 206.598 59.146 206.862 59.746C207.138 60.346 207.276 61.024 207.276 61.78C207.276 62.368 207.18 62.98 206.988 63.616C206.796 64.252 206.478 64.876 206.034 65.488C205.602 66.088 205.014 66.634 204.27 67.126C203.538 67.618 202.62 68.02 201.516 68.332L199.59 66.424C200.358 66.268 201.072 66.064 201.732 65.812C202.392 65.56 202.968 65.242 203.46 64.858C203.964 64.474 204.354 64 204.63 63.436C204.918 62.872 205.062 62.194 205.062 61.402C205.062 60.826 204.918 60.394 204.63 60.106C204.354 59.818 204.018 59.674 203.622 59.674C203.394 59.674 203.172 59.728 202.956 59.836C202.74 59.944 202.566 60.106 202.434 60.322C202.302 60.538 202.236 60.802 202.236 61.114C202.236 61.522 202.374 61.852 202.65 62.104C202.938 62.344 203.262 62.464 203.622 62.464C203.91 62.464 204.162 62.374 204.378 62.194C204.606 62.014 204.756 61.714 204.828 61.294C204.9 60.874 204.84 60.31 204.648 59.602L206.322 60.052Z" fill="black"/>
<path d="M35.86 132.02H43.9V133.76H35.86V132.02ZM33.6 138.14H44.32V139.94H33.6V138.14ZM38.06 132.76H39.96V147.66H38.06V132.76ZM35.9 129.06L37.78 129.44C37.5533 130.4 37.2733 131.347 36.94 132.28C36.62 133.213 36.2533 134.08 35.84 134.88C35.44 135.667 35.0067 136.367 34.54 136.98C34.42 136.873 34.26 136.753 34.06 136.62C33.86 136.487 33.6533 136.36 33.44 136.24C33.2267 136.107 33.04 136 32.88 135.92C33.3467 135.373 33.7733 134.733 34.16 134C34.5467 133.267 34.8867 132.48 35.18 131.64C35.4733 130.8 35.7133 129.94 35.9 129.06ZM26.66 135.2H33V136.66H26.66V135.2ZM26.76 129.78H33.02V131.26H26.76V129.78ZM26.66 137.9H33V139.36H26.66V137.9ZM25.7 132.44H33.76V133.96H25.7V132.44ZM27.52 140.64H32.94V146.58H27.52V145.06H31.26V142.16H27.52V140.64ZM26.62 140.64H28.28V147.44H26.62V140.64ZM59.64 131.04H61.62V145.14C61.62 145.753 61.5333 146.227 61.36 146.56C61.1867 146.893 60.8867 147.14 60.46 147.3C60.02 147.473 59.44 147.573 58.72 147.6C58 147.64 57.14 147.66 56.14 147.66C56.1 147.46 56.0333 147.233 55.94 146.98C55.86 146.74 55.7667 146.493 55.66 146.24C55.5533 146 55.4467 145.793 55.34 145.62C55.86 145.647 56.3667 145.667 56.86 145.68C57.3667 145.68 57.8133 145.68 58.2 145.68C58.6 145.68 58.88 145.68 59.04 145.68C59.2533 145.667 59.4067 145.627 59.5 145.56C59.5933 145.48 59.64 145.333 59.64 145.12V131.04ZM48.02 135.04H49.86V144.22H48.02V135.04ZM48.8 135.04H56.36V142.64H48.8V140.84H54.48V136.84H48.8V135.04ZM46.04 130.5H64.02V132.4H46.04V130.5ZM72.08 130.3C72.0267 130.66 71.98 131.047 71.94 131.46C71.9 131.86 71.8733 132.24 71.86 132.6C71.8333 133.147 71.8067 133.827 71.78 134.64C71.7533 135.44 71.7267 136.293 71.7 137.2C71.6733 138.093 71.6533 138.98 71.64 139.86C71.6267 140.727 71.62 141.507 71.62 142.2C71.62 142.907 71.7467 143.467 72 143.88C72.2667 144.293 72.6333 144.593 73.1 144.78C73.5667 144.953 74.0867 145.04 74.66 145.04C75.54 145.04 76.3333 144.927 77.04 144.7C77.7467 144.473 78.38 144.167 78.94 143.78C79.5133 143.393 80.0267 142.953 80.48 142.46C80.9333 141.967 81.34 141.453 81.7 140.92L83.12 142.66C82.7867 143.14 82.3667 143.64 81.86 144.16C81.3533 144.68 80.7467 145.167 80.04 145.62C79.3467 146.073 78.5467 146.44 77.64 146.72C76.7467 147 75.74 147.14 74.62 147.14C73.6067 147.14 72.72 146.987 71.96 146.68C71.2 146.373 70.6067 145.88 70.18 145.2C69.7533 144.52 69.54 143.627 69.54 142.52C69.54 141.947 69.5467 141.3 69.56 140.58C69.5733 139.86 69.5867 139.12 69.6 138.36C69.6267 137.587 69.6467 136.833 69.66 136.1C69.6867 135.367 69.7067 134.693 69.72 134.08C69.7333 133.467 69.74 132.973 69.74 132.6C69.74 132.173 69.72 131.767 69.68 131.38C69.6533 130.98 69.6 130.613 69.52 130.28L72.08 130.3ZM86.82 133.18C87.22 133.22 87.64 133.253 88.08 133.28C88.5333 133.293 88.96 133.3 89.36 133.3C90.1333 133.3 90.92 133.267 91.72 133.2C92.5333 133.12 93.3333 133.007 94.12 132.86C94.92 132.7 95.68 132.507 96.4 132.28L96.46 134.12C95.8467 134.293 95.1467 134.453 94.36 134.6C93.5733 134.747 92.7533 134.867 91.9 134.96C91.0467 135.053 90.2 135.1 89.36 135.1C88.9867 135.1 88.5933 135.093 88.18 135.08C87.7667 135.067 87.36 135.053 86.96 135.04L86.82 133.18ZM94.2 130.02C94.12 130.353 94.0133 130.773 93.88 131.28C93.76 131.787 93.62 132.32 93.46 132.88C93.3133 133.44 93.16 133.98 93 134.5C92.68 135.46 92.28 136.48 91.8 137.56C91.32 138.627 90.8 139.667 90.24 140.68C89.68 141.693 89.1133 142.58 88.54 143.34L86.62 142.36C87.0733 141.813 87.52 141.207 87.96 140.54C88.4 139.86 88.8133 139.16 89.2 138.44C89.6 137.707 89.96 137 90.28 136.32C90.6 135.627 90.86 134.993 91.06 134.42C91.2867 133.753 91.4933 133 91.68 132.16C91.8667 131.32 91.9733 130.533 92 129.8L94.2 130.02ZM98.9 136.22C98.8867 136.633 98.88 137.027 98.88 137.4C98.88 137.773 98.8867 138.16 98.9 138.56C98.9133 138.867 98.9267 139.267 98.94 139.76C98.9667 140.24 98.9933 140.753 99.02 141.3C99.0467 141.847 99.0667 142.367 99.08 142.86C99.1067 143.353 99.12 143.753 99.12 144.06C99.12 144.62 98.9933 145.133 98.74 145.6C98.5 146.067 98.1133 146.44 97.58 146.72C97.0467 147 96.34 147.14 95.46 147.14C94.6867 147.14 93.98 147.027 93.34 146.8C92.7133 146.573 92.2067 146.233 91.82 145.78C91.4467 145.327 91.26 144.753 91.26 144.06C91.26 143.433 91.4333 142.88 91.78 142.4C92.14 141.92 92.6333 141.547 93.26 141.28C93.8867 141 94.6133 140.86 95.44 140.86C96.5867 140.86 97.64 141.027 98.6 141.36C99.56 141.68 100.42 142.087 101.18 142.58C101.953 143.06 102.62 143.547 103.18 144.04L102.12 145.74C101.733 145.393 101.307 145.033 100.84 144.66C100.373 144.273 99.8533 143.92 99.28 143.6C98.72 143.267 98.1067 142.993 97.44 142.78C96.7867 142.567 96.0867 142.46 95.34 142.46C94.6733 142.46 94.1333 142.593 93.72 142.86C93.32 143.127 93.12 143.467 93.12 143.88C93.12 144.307 93.2933 144.653 93.64 144.92C94 145.187 94.52 145.32 95.2 145.32C95.7067 145.32 96.1067 145.24 96.4 145.08C96.7067 144.907 96.92 144.673 97.04 144.38C97.16 144.087 97.22 143.76 97.22 143.4C97.22 143.053 97.2067 142.587 97.18 142C97.1667 141.413 97.14 140.78 97.1 140.1C97.0733 139.42 97.04 138.74 97 138.06C96.9733 137.367 96.9533 136.753 96.94 136.22H98.9ZM102.66 136.98C102.287 136.673 101.82 136.347 101.26 136C100.7 135.64 100.127 135.3 99.54 134.98C98.9533 134.647 98.4333 134.38 97.98 134.18L99 132.64C99.36 132.8 99.7667 132.993 100.22 133.22C100.673 133.447 101.127 133.687 101.58 133.94C102.033 134.193 102.453 134.447 102.84 134.7C103.227 134.94 103.547 135.147 103.8 135.32L102.66 136.98ZM109.78 131.9C109.74 132.087 109.707 132.313 109.68 132.58C109.653 132.847 109.627 133.113 109.6 133.38C109.587 133.647 109.58 133.873 109.58 134.06C109.58 134.473 109.58 134.933 109.58 135.44C109.593 135.947 109.607 136.467 109.62 137C109.633 137.52 109.667 138.04 109.72 138.56C109.827 139.613 109.987 140.533 110.2 141.32C110.413 142.107 110.687 142.72 111.02 143.16C111.353 143.6 111.74 143.82 112.18 143.82C112.433 143.82 112.673 143.7 112.9 143.46C113.127 143.22 113.34 142.9 113.54 142.5C113.74 142.1 113.92 141.667 114.08 141.2C114.253 140.72 114.4 140.26 114.52 139.82L116.1 141.68C115.673 142.813 115.247 143.72 114.82 144.4C114.407 145.067 113.98 145.547 113.54 145.84C113.1 146.133 112.633 146.28 112.14 146.28C111.473 146.28 110.833 146.053 110.22 145.6C109.62 145.133 109.1 144.373 108.66 143.32C108.22 142.267 107.907 140.86 107.72 139.1C107.653 138.513 107.6 137.88 107.56 137.2C107.533 136.52 107.513 135.873 107.5 135.26C107.5 134.647 107.5 134.14 107.5 133.74C107.5 133.487 107.487 133.18 107.46 132.82C107.447 132.447 107.407 132.127 107.34 131.86L109.78 131.9ZM120.02 132.4C120.38 132.867 120.727 133.413 121.06 134.04C121.407 134.653 121.72 135.32 122 136.04C122.28 136.76 122.527 137.493 122.74 138.24C122.967 138.987 123.153 139.727 123.3 140.46C123.447 141.193 123.547 141.887 123.6 142.54L121.54 143.34C121.46 142.473 121.327 141.567 121.14 140.62C120.953 139.673 120.713 138.74 120.42 137.82C120.127 136.887 119.78 136.013 119.38 135.2C118.993 134.373 118.547 133.66 118.04 133.06L120.02 132.4Z" fill="#0872ED"/>
<path d="M217.86 146.28C216.607 146.28 215.494 145.967 214.52 145.34C213.56 144.713 212.807 143.827 212.26 142.68C211.714 141.52 211.44 140.153 211.44 138.58C211.44 136.993 211.714 135.64 212.26 134.52C212.807 133.387 213.56 132.52 214.52 131.92C215.494 131.307 216.607 131 217.86 131C219.127 131 220.24 131.307 221.2 131.92C222.16 132.52 222.914 133.387 223.46 134.52C224.007 135.64 224.28 136.993 224.28 138.58C224.28 140.153 224.007 141.52 223.46 142.68C222.914 143.827 222.16 144.713 221.2 145.34C220.24 145.967 219.127 146.28 217.86 146.28ZM217.86 144.24C218.674 144.24 219.38 144.007 219.98 143.54C220.594 143.073 221.067 142.42 221.4 141.58C221.734 140.727 221.9 139.727 221.9 138.58C221.9 137.433 221.734 136.447 221.4 135.62C221.067 134.78 220.594 134.14 219.98 133.7C219.38 133.247 218.674 133.02 217.86 133.02C217.047 133.02 216.334 133.247 215.72 133.7C215.12 134.14 214.654 134.78 214.32 135.62C214 136.447 213.84 137.433 213.84 138.58C213.84 139.727 214 140.727 214.32 141.58C214.654 142.42 215.12 143.073 215.72 143.54C216.334 144.007 217.047 144.24 217.86 144.24ZM227.338 146V131.26H229.658V138.24H229.718L235.298 131.26H237.918L233.338 136.96L238.658 146H236.078L231.938 138.8L229.658 141.56V146H227.338Z" fill="#0872ED"/>
<line y1="112.5" x2="300" y2="112.5" stroke="#C8C8C8"/>
<path d="M150 113C150 132.526 150 143.474 150 163" stroke="#C8C8C8"/>
<g clip-path="url(#clip0_158_3180)">
<path d="M42.2201 90.704C42.2201 91.4 42.1241 92.032 41.9321 92.6C41.7481 93.168 41.4721 93.648 41.1041 94.04C40.7361 94.432 40.2761 94.72 39.7241 94.904L41.7761 97.04H40.2281L38.5721 95.108C38.5241 95.108 38.4721 95.108 38.4161 95.108C38.3681 95.116 38.3201 95.12 38.2721 95.12C37.6001 95.12 37.0161 95.016 36.5201 94.808C36.0241 94.592 35.6121 94.292 35.2841 93.908C34.9561 93.516 34.7121 93.048 34.5521 92.504C34.3921 91.96 34.3121 91.356 34.3121 90.692C34.3121 89.812 34.4561 89.044 34.7441 88.388C35.0321 87.732 35.4681 87.22 36.0521 86.852C36.6441 86.484 37.3881 86.3 38.2841 86.3C39.1401 86.3 39.8601 86.484 40.4441 86.852C41.0281 87.212 41.4681 87.724 41.7641 88.388C42.0681 89.044 42.2201 89.816 42.2201 90.704ZM35.4521 90.704C35.4521 91.424 35.5521 92.044 35.7521 92.564C35.9521 93.084 36.2601 93.484 36.6761 93.764C37.1001 94.044 37.6321 94.184 38.2721 94.184C38.9201 94.184 39.4481 94.044 39.8561 93.764C40.2721 93.484 40.5801 93.084 40.7801 92.564C40.9801 92.044 41.0801 91.424 41.0801 90.704C41.0801 89.624 40.8561 88.78 40.4081 88.172C39.9601 87.556 39.2521 87.248 38.2841 87.248C37.6361 87.248 37.1001 87.388 36.6761 87.668C36.2601 87.94 35.9521 88.336 35.7521 88.856C35.5521 89.368 35.4521 89.984 35.4521 90.704ZM46.4831 86.432C47.1951 86.432 47.7791 86.524 48.2351 86.708C48.6991 86.884 49.0431 87.152 49.2671 87.512C49.4911 87.872 49.6031 88.324 49.6031 88.868C49.6031 89.324 49.5191 89.704 49.3511 90.008C49.1831 90.312 48.9671 90.556 48.7031 90.74C48.4471 90.916 48.1751 91.056 47.8871 91.16L50.2391 95H48.9791L46.9031 91.46H45.1991V95H44.1191V86.432H46.4831ZM46.4231 87.368H45.1991V90.548H46.4831C46.9471 90.548 47.3271 90.488 47.6231 90.368C47.9191 90.24 48.1351 90.056 48.2711 89.816C48.4151 89.576 48.4871 89.276 48.4871 88.916C48.4871 88.54 48.4111 88.24 48.2591 88.016C48.1151 87.792 47.8911 87.628 47.5871 87.524C47.2831 87.42 46.8951 87.368 46.4231 87.368ZM52.4839 86.768C52.6839 86.792 52.9039 86.812 53.1439 86.828C53.3839 86.836 53.5999 86.84 53.7919 86.84H59.7079C59.8519 86.84 60.0039 86.84 60.1639 86.84C60.3319 86.832 60.4759 86.824 60.5959 86.816C60.5879 86.952 60.5799 87.108 60.5719 87.284C60.5639 87.452 60.5599 87.608 60.5599 87.752V93.944C60.5599 94.16 60.5639 94.384 60.5719 94.616C60.5879 94.848 60.5999 95.012 60.6079 95.108H59.5279C59.5359 95.012 59.5399 94.868 59.5399 94.676C59.5479 94.476 59.5519 94.268 59.5519 94.052V87.8H53.8039C53.5799 87.8 53.3359 87.804 53.0719 87.812C52.8159 87.82 52.6199 87.828 52.4839 87.836V86.768ZM52.3279 93.392C52.4799 93.408 52.6759 93.424 52.9159 93.44C53.1639 93.456 53.4119 93.464 53.6599 93.464H60.0919V94.436H53.6839C53.4439 94.436 53.1959 94.44 52.9399 94.448C52.6919 94.456 52.4879 94.468 52.3279 94.484V93.392ZM63.6439 89.804C63.7639 89.812 63.9119 89.824 64.0879 89.84C64.2639 89.848 64.4559 89.856 64.6639 89.864C64.8799 89.864 65.0959 89.864 65.3119 89.864C65.4399 89.864 65.6359 89.864 65.8999 89.864C66.1719 89.864 66.4879 89.864 66.8479 89.864C67.2079 89.864 67.5879 89.864 67.9879 89.864C68.3959 89.864 68.7999 89.864 69.1999 89.864C69.6079 89.864 69.9919 89.864 70.3519 89.864C70.7199 89.864 71.0359 89.864 71.2999 89.864C71.5639 89.864 71.7599 89.864 71.8879 89.864C72.1919 89.864 72.4519 89.856 72.6679 89.84C72.8839 89.824 73.0559 89.812 73.1839 89.804V90.98C73.0639 90.972 72.8839 90.96 72.6439 90.944C72.4119 90.928 72.1639 90.92 71.8999 90.92C71.7719 90.92 71.5719 90.92 71.2999 90.92C71.0279 90.92 70.7119 90.92 70.3519 90.92C69.9999 90.92 69.6199 90.92 69.2119 90.92C68.8039 90.92 68.3959 90.92 67.9879 90.92C67.5879 90.92 67.2079 90.92 66.8479 90.92C66.4959 90.92 66.1839 90.92 65.9119 90.92C65.6399 90.92 65.4399 90.92 65.3119 90.92C64.9839 90.92 64.6719 90.928 64.3759 90.944C64.0799 90.952 63.8359 90.964 63.6439 90.98V89.804ZM82.2919 86.36C82.3959 86.504 82.5159 86.684 82.6519 86.9C82.7879 87.108 82.9199 87.324 83.0479 87.548C83.1839 87.772 83.2959 87.98 83.3839 88.172L82.6999 88.484C82.6039 88.276 82.4959 88.068 82.3759 87.86C82.2639 87.644 82.1439 87.436 82.0159 87.236C81.8959 87.028 81.7679 86.836 81.6319 86.66L82.2919 86.36ZM83.7439 85.76C83.8479 85.896 83.9679 86.068 84.1039 86.276C84.2479 86.484 84.3879 86.7 84.5239 86.924C84.6599 87.148 84.7759 87.352 84.8719 87.536L84.1999 87.872C84.0959 87.664 83.9839 87.456 83.8639 87.248C83.7439 87.04 83.6159 86.836 83.4799 86.636C83.3519 86.436 83.2199 86.248 83.0839 86.072L83.7439 85.76ZM78.0799 94.1C78.0799 93.988 78.0799 93.764 78.0799 93.428C78.0799 93.092 78.0799 92.692 78.0799 92.228C78.0799 91.756 78.0799 91.26 78.0799 90.74C78.0799 90.22 78.0799 89.716 78.0799 89.228C78.0799 88.74 78.0799 88.308 78.0799 87.932C78.0799 87.556 78.0799 87.284 78.0799 87.116C78.0799 86.948 78.0719 86.744 78.0559 86.504C78.0479 86.264 78.0239 86.052 77.9839 85.868H79.1719C79.1479 86.052 79.1279 86.264 79.1119 86.504C79.0959 86.736 79.0879 86.94 79.0879 87.116C79.0879 87.428 79.0879 87.804 79.0879 88.244C79.0879 88.676 79.0879 89.14 79.0879 89.636C79.0879 90.124 79.0879 90.612 79.0879 91.1C79.0879 91.58 79.0879 92.032 79.0879 92.456C79.0879 92.872 79.0879 93.228 79.0879 93.524C79.0879 93.812 79.0879 94.004 79.0879 94.1C79.0879 94.22 79.0879 94.368 79.0879 94.544C79.0959 94.72 79.1079 94.892 79.1239 95.06C79.1399 95.236 79.1519 95.388 79.1599 95.516H78.0079C78.0319 95.324 78.0479 95.096 78.0559 94.832C78.0719 94.568 78.0799 94.324 78.0799 94.1ZM78.8719 89.012C79.2639 89.132 79.6999 89.276 80.1799 89.444C80.6599 89.604 81.1439 89.776 81.6319 89.96C82.1279 90.144 82.5959 90.332 83.0359 90.524C83.4839 90.708 83.8759 90.884 84.2119 91.052L83.7919 92.072C83.4479 91.888 83.0599 91.7 82.6279 91.508C82.2039 91.316 81.7639 91.128 81.3079 90.944C80.8519 90.76 80.4119 90.596 79.9879 90.452C79.5719 90.308 79.1999 90.184 78.8719 90.08V89.012ZM90.4039 93.248L91.4959 88.112H92.7679C93.3119 88.112 93.7199 88.22 93.9919 88.436C94.2719 88.644 94.4119 88.98 94.4119 89.444C94.4119 89.676 94.3759 89.884 94.3039 90.068C94.2399 90.244 94.1479 90.4 94.0279 90.536C93.8999 90.672 93.7519 90.784 93.5839 90.872C93.4239 90.952 93.2239 91.024 92.9839 91.088L93.0919 90.824L94.0159 93.248H93.1399L92.4079 91.172H91.6519L91.2199 93.248H90.4039ZM91.7959 90.512H92.4559C92.6319 90.512 92.7919 90.488 92.9359 90.44C93.0799 90.392 93.1999 90.32 93.2959 90.224C93.3839 90.136 93.4519 90.016 93.4999 89.864C93.5559 89.712 93.5839 89.56 93.5839 89.408C93.5839 89.152 93.5079 88.98 93.3559 88.892C93.2119 88.796 92.9879 88.748 92.6839 88.748H92.1919L91.7959 90.512ZM92.4199 95.66C91.7399 95.66 91.0999 95.532 90.4999 95.276C89.8999 95.02 89.3719 94.668 88.9159 94.22C88.4679 93.764 88.1159 93.236 87.8599 92.636C87.6039 92.036 87.4759 91.396 87.4759 90.716C87.4759 90.028 87.6039 89.388 87.8599 88.796C88.1159 88.196 88.4679 87.672 88.9159 87.224C89.3719 86.768 89.8999 86.412 90.4999 86.156C91.0999 85.9 91.7399 85.772 92.4199 85.772C93.1079 85.772 93.7479 85.9 94.3399 86.156C94.9399 86.412 95.4639 86.768 95.9119 87.224C96.3679 87.672 96.7239 88.196 96.9799 88.796C97.2359 89.388 97.3639 90.028 97.3639 90.716C97.3639 91.396 97.2359 92.036 96.9799 92.636C96.7239 93.236 96.3679 93.764 95.9119 94.22C95.4639 94.668 94.9399 95.02 94.3399 95.276C93.7479 95.532 93.1079 95.66 92.4199 95.66ZM92.4199 94.988C93.0119 94.988 93.5639 94.88 94.0759 94.664C94.5959 94.44 95.0519 94.132 95.4439 93.74C95.8359 93.348 96.1399 92.896 96.3559 92.384C96.5799 91.864 96.6919 91.308 96.6919 90.716C96.6919 90.124 96.5799 89.572 96.3559 89.06C96.1399 88.54 95.8359 88.084 95.4439 87.692C95.0519 87.3 94.5959 86.996 94.0759 86.78C93.5639 86.556 93.0119 86.444 92.4199 86.444C91.8279 86.444 91.2719 86.556 90.7519 86.78C90.2399 86.996 89.7879 87.3 89.3959 87.692C89.0039 88.084 88.6959 88.54 88.4719 89.06C88.2559 89.572 88.1479 90.124 88.1479 90.716C88.1479 91.308 88.2559 91.864 88.4719 92.384C88.6959 92.896 89.0039 93.348 89.3959 93.74C89.7879 94.132 90.2399 94.44 90.7519 94.664C91.2719 94.88 91.8279 94.988 92.4199 94.988ZM100.484 86.768C100.684 86.792 100.904 86.812 101.144 86.828C101.384 86.836 101.6 86.84 101.792 86.84H107.708C107.852 86.84 108.004 86.84 108.164 86.84C108.332 86.832 108.476 86.824 108.596 86.816C108.588 86.952 108.58 87.108 108.572 87.284C108.564 87.452 108.56 87.608 108.56 87.752V93.944C108.56 94.16 108.564 94.384 108.572 94.616C108.588 94.848 108.6 95.012 108.608 95.108H107.528C107.536 95.012 107.54 94.868 107.54 94.676C107.548 94.476 107.552 94.268 107.552 94.052V87.8H101.804C101.58 87.8 101.336 87.804 101.072 87.812C100.816 87.82 100.62 87.828 100.484 87.836V86.768ZM100.328 93.392C100.48 93.408 100.676 93.424 100.916 93.44C101.164 93.456 101.412 93.464 101.66 93.464H108.092V94.436H101.684C101.444 94.436 101.196 94.44 100.94 94.448C100.692 94.456 100.488 94.468 100.328 94.484V93.392ZM111.644 89.804C111.764 89.812 111.912 89.824 112.088 89.84C112.264 89.848 112.456 89.856 112.664 89.864C112.88 89.864 113.096 89.864 113.312 89.864C113.44 89.864 113.636 89.864 113.9 89.864C114.172 89.864 114.488 89.864 114.848 89.864C115.208 89.864 115.588 89.864 115.988 89.864C116.396 89.864 116.8 89.864 117.2 89.864C117.608 89.864 117.992 89.864 118.352 89.864C118.72 89.864 119.036 89.864 119.3 89.864C119.564 89.864 119.76 89.864 119.888 89.864C120.192 89.864 120.452 89.856 120.668 89.84C120.884 89.824 121.056 89.812 121.184 89.804V90.98C121.064 90.972 120.884 90.96 120.644 90.944C120.412 90.928 120.164 90.92 119.9 90.92C119.772 90.92 119.572 90.92 119.3 90.92C119.028 90.92 118.712 90.92 118.352 90.92C118 90.92 117.62 90.92 117.212 90.92C116.804 90.92 116.396 90.92 115.988 90.92C115.588 90.92 115.208 90.92 114.848 90.92C114.496 90.92 114.184 90.92 113.912 90.92C113.64 90.92 113.44 90.92 113.312 90.92C112.984 90.92 112.672 90.928 112.376 90.944C112.08 90.952 111.836 90.964 111.644 90.98V89.804ZM130.292 86.36C130.396 86.504 130.516 86.684 130.652 86.9C130.788 87.108 130.92 87.324 131.048 87.548C131.184 87.772 131.296 87.98 131.384 88.172L130.7 88.484C130.604 88.276 130.496 88.068 130.376 87.86C130.264 87.644 130.144 87.436 130.016 87.236C129.896 87.028 129.768 86.836 129.632 86.66L130.292 86.36ZM131.744 85.76C131.848 85.896 131.968 86.068 132.104 86.276C132.248 86.484 132.388 86.7 132.524 86.924C132.66 87.148 132.776 87.352 132.872 87.536L132.2 87.872C132.096 87.664 131.984 87.456 131.864 87.248C131.744 87.04 131.616 86.836 131.48 86.636C131.352 86.436 131.22 86.248 131.084 86.072L131.744 85.76ZM126.08 94.1C126.08 93.988 126.08 93.764 126.08 93.428C126.08 93.092 126.08 92.692 126.08 92.228C126.08 91.756 126.08 91.26 126.08 90.74C126.08 90.22 126.08 89.716 126.08 89.228C126.08 88.74 126.08 88.308 126.08 87.932C126.08 87.556 126.08 87.284 126.08 87.116C126.08 86.948 126.072 86.744 126.056 86.504C126.048 86.264 126.024 86.052 125.984 85.868H127.172C127.148 86.052 127.128 86.264 127.112 86.504C127.096 86.736 127.088 86.94 127.088 87.116C127.088 87.428 127.088 87.804 127.088 88.244C127.088 88.676 127.088 89.14 127.088 89.636C127.088 90.124 127.088 90.612 127.088 91.1C127.088 91.58 127.088 92.032 127.088 92.456C127.088 92.872 127.088 93.228 127.088 93.524C127.088 93.812 127.088 94.004 127.088 94.1C127.088 94.22 127.088 94.368 127.088 94.544C127.096 94.72 127.108 94.892 127.124 95.06C127.14 95.236 127.152 95.388 127.16 95.516H126.008C126.032 95.324 126.048 95.096 126.056 94.832C126.072 94.568 126.08 94.324 126.08 94.1ZM126.872 89.012C127.264 89.132 127.7 89.276 128.18 89.444C128.66 89.604 129.144 89.776 129.632 89.96C130.128 90.144 130.596 90.332 131.036 90.524C131.484 90.708 131.876 90.884 132.212 91.052L131.792 92.072C131.448 91.888 131.06 91.7 130.628 91.508C130.204 91.316 129.764 91.128 129.308 90.944C128.852 90.76 128.412 90.596 127.988 90.452C127.572 90.308 127.2 90.184 126.872 90.08V89.012ZM141.188 86.804C141.108 87.428 141.004 88.08 140.876 88.76C140.756 89.44 140.6 90.1 140.408 90.74C140.168 91.564 139.9 92.252 139.604 92.804C139.316 93.356 139.004 93.772 138.668 94.052C138.332 94.332 137.98 94.472 137.612 94.472C137.26 94.472 136.92 94.344 136.592 94.088C136.264 93.832 135.996 93.464 135.788 92.984C135.58 92.496 135.476 91.924 135.476 91.268C135.476 90.612 135.608 89.992 135.872 89.408C136.144 88.824 136.516 88.308 136.988 87.86C137.468 87.404 138.028 87.044 138.668 86.78C139.308 86.516 139.992 86.384 140.72 86.384C141.424 86.384 142.056 86.5 142.616 86.732C143.184 86.964 143.668 87.284 144.068 87.692C144.468 88.092 144.776 88.56 144.992 89.096C145.208 89.624 145.316 90.192 145.316 90.8C145.316 91.64 145.136 92.38 144.776 93.02C144.424 93.66 143.912 94.18 143.24 94.58C142.576 94.98 141.768 95.244 140.816 95.372L140.252 94.484C140.444 94.46 140.628 94.436 140.804 94.412C140.98 94.388 141.14 94.36 141.284 94.328C141.668 94.24 142.04 94.104 142.4 93.92C142.768 93.728 143.096 93.488 143.384 93.2C143.672 92.904 143.9 92.556 144.068 92.156C144.244 91.748 144.332 91.284 144.332 90.764C144.332 90.276 144.252 89.824 144.092 89.408C143.932 88.984 143.696 88.612 143.384 88.292C143.072 87.972 142.692 87.72 142.244 87.536C141.796 87.352 141.284 87.26 140.708 87.26C140.052 87.26 139.456 87.38 138.92 87.62C138.392 87.86 137.94 88.176 137.564 88.568C137.196 88.952 136.912 89.376 136.712 89.84C136.512 90.296 136.412 90.744 136.412 91.184C136.412 91.688 136.476 92.104 136.604 92.432C136.74 92.752 136.9 92.988 137.084 93.14C137.276 93.292 137.464 93.368 137.648 93.368C137.84 93.368 138.036 93.276 138.236 93.092C138.436 92.9 138.64 92.596 138.848 92.18C139.056 91.756 139.26 91.208 139.46 90.536C139.636 89.96 139.784 89.348 139.904 88.7C140.032 88.052 140.124 87.416 140.18 86.792L141.188 86.804ZM151.208 89.528H157.796V91.652H156.956V90.26H152.024V91.652H151.208V89.528ZM155.048 91.064H155.9V94.676C155.9 94.82 155.916 94.912 155.948 94.952C155.98 94.992 156.06 95.012 156.188 95.012C156.228 95.012 156.3 95.012 156.404 95.012C156.516 95.012 156.628 95.012 156.74 95.012C156.852 95.012 156.932 95.012 156.98 95.012C157.068 95.012 157.132 94.976 157.172 94.904C157.22 94.832 157.252 94.684 157.268 94.46C157.292 94.228 157.308 93.884 157.316 93.428C157.38 93.476 157.456 93.524 157.544 93.572C157.632 93.612 157.724 93.652 157.82 93.692C157.916 93.724 158.004 93.752 158.084 93.776C158.06 94.312 158.012 94.728 157.94 95.024C157.876 95.328 157.776 95.536 157.64 95.648C157.504 95.76 157.316 95.816 157.076 95.816C157.036 95.816 156.968 95.816 156.872 95.816C156.776 95.816 156.672 95.816 156.56 95.816C156.456 95.816 156.356 95.816 156.26 95.816C156.172 95.816 156.108 95.816 156.068 95.816C155.796 95.816 155.584 95.78 155.432 95.708C155.288 95.644 155.188 95.528 155.132 95.36C155.076 95.2 155.048 94.972 155.048 94.676V91.064ZM152.984 91.052H153.836C153.804 91.7 153.748 92.284 153.668 92.804C153.588 93.316 153.456 93.772 153.272 94.172C153.088 94.564 152.828 94.908 152.492 95.204C152.164 95.508 151.732 95.764 151.196 95.972C151.164 95.9 151.116 95.82 151.052 95.732C150.996 95.644 150.932 95.556 150.86 95.468C150.796 95.388 150.732 95.32 150.668 95.264C151.156 95.088 151.548 94.876 151.844 94.628C152.14 94.38 152.364 94.088 152.516 93.752C152.676 93.408 152.788 93.016 152.852 92.576C152.916 92.128 152.96 91.62 152.984 91.052ZM151.256 86H157.748V86.756H151.256V86ZM151.652 87.884H157.388V88.64H151.652V87.884ZM153.992 84.908H154.88V88.28H153.992V84.908ZM147.392 88.556H150.632V89.264H147.392V88.556ZM147.464 85.34H150.596V86.06H147.464V85.34ZM147.392 90.152H150.632V90.872H147.392V90.152ZM146.876 86.912H150.968V87.668H146.876V86.912ZM147.812 91.772H150.644V95.264H147.812V94.52H149.876V92.516H147.812V91.772ZM147.38 91.772H148.148V95.828H147.38V91.772ZM161.096 86.204C161.248 86.212 161.404 86.22 161.564 86.228C161.732 86.236 161.876 86.24 161.996 86.24C162.156 86.24 162.36 86.236 162.608 86.228C162.864 86.22 163.128 86.208 163.4 86.192C163.672 86.176 163.928 86.164 164.168 86.156C164.408 86.14 164.588 86.128 164.708 86.12C164.828 86.104 164.936 86.088 165.032 86.072C165.136 86.048 165.228 86.02 165.308 85.988L165.908 86.48C165.852 86.544 165.796 86.608 165.74 86.672C165.692 86.736 165.644 86.804 165.596 86.876C165.468 87.084 165.316 87.38 165.14 87.764C164.964 88.14 164.776 88.552 164.576 89C164.384 89.44 164.192 89.864 164 90.272C163.88 90.544 163.748 90.84 163.604 91.16C163.468 91.472 163.328 91.792 163.184 92.12C163.04 92.44 162.896 92.74 162.752 93.02C162.616 93.3 162.484 93.532 162.356 93.716C162.14 94.02 161.912 94.236 161.672 94.364C161.432 94.484 161.156 94.544 160.844 94.544C160.396 94.544 160.024 94.396 159.728 94.1C159.432 93.804 159.284 93.404 159.284 92.9C159.284 92.452 159.384 92.036 159.584 91.652C159.792 91.26 160.076 90.92 160.436 90.632C160.804 90.344 161.24 90.12 161.744 89.96C162.256 89.8 162.816 89.72 163.424 89.72C164.096 89.72 164.744 89.8 165.368 89.96C166 90.112 166.588 90.312 167.132 90.56C167.684 90.8 168.184 91.056 168.632 91.328C169.088 91.592 169.476 91.84 169.796 92.072L169.352 93.104C169 92.8 168.604 92.5 168.164 92.204C167.724 91.9 167.244 91.624 166.724 91.376C166.204 91.128 165.652 90.928 165.068 90.776C164.492 90.624 163.896 90.548 163.28 90.548C162.624 90.548 162.06 90.66 161.588 90.884C161.124 91.1 160.768 91.38 160.52 91.724C160.28 92.06 160.16 92.412 160.16 92.78C160.16 93.044 160.232 93.248 160.376 93.392C160.528 93.528 160.696 93.596 160.88 93.596C161.016 93.596 161.14 93.564 161.252 93.5C161.364 93.436 161.48 93.328 161.6 93.176C161.728 93.008 161.856 92.804 161.984 92.564C162.112 92.324 162.24 92.064 162.368 91.784C162.496 91.504 162.62 91.22 162.74 90.932C162.86 90.644 162.98 90.376 163.1 90.128C163.26 89.776 163.42 89.412 163.58 89.036C163.748 88.66 163.912 88.296 164.072 87.944C164.24 87.592 164.392 87.272 164.528 86.984C164.408 86.992 164.236 87 164.012 87.008C163.796 87.016 163.56 87.028 163.304 87.044C163.048 87.052 162.804 87.064 162.572 87.08C162.348 87.088 162.168 87.096 162.032 87.104C161.904 87.112 161.76 87.124 161.6 87.14C161.44 87.148 161.288 87.16 161.144 87.176L161.096 86.204ZM168.596 88.832C168.556 89.68 168.472 90.452 168.344 91.148C168.216 91.844 168.02 92.472 167.756 93.032C167.492 93.592 167.132 94.096 166.676 94.544C166.22 94.984 165.644 95.376 164.948 95.72L164.156 95.06C164.86 94.764 165.432 94.412 165.872 94.004C166.312 93.588 166.652 93.144 166.892 92.672C167.14 92.192 167.312 91.708 167.408 91.22C167.512 90.732 167.584 90.268 167.624 89.828C167.632 89.644 167.636 89.456 167.636 89.264C167.644 89.072 167.64 88.892 167.624 88.724L168.596 88.832ZM176.552 86.576H180.992V87.452H176.552V86.576ZM170.996 85.664H176.852V86.516H170.996V85.664ZM172.4 88.112H175.508V88.928H172.4V88.112ZM172.4 90.608H175.508V91.424H172.4V90.608ZM180.716 86.576H180.884L181.04 86.54L181.616 86.696C181.424 88.296 181.1 89.684 180.644 90.86C180.188 92.028 179.62 93.02 178.94 93.836C178.268 94.644 177.5 95.296 176.636 95.792C176.564 95.68 176.472 95.548 176.36 95.396C176.248 95.252 176.144 95.136 176.048 95.048C176.84 94.64 177.556 94.056 178.196 93.296C178.836 92.536 179.372 91.612 179.804 90.524C180.244 89.436 180.548 88.188 180.716 86.78V86.576ZM177.644 87.5C177.86 88.652 178.164 89.724 178.556 90.716C178.948 91.708 179.436 92.58 180.02 93.332C180.612 94.076 181.32 94.66 182.144 95.084C182.08 95.14 182.008 95.212 181.928 95.3C181.848 95.388 181.772 95.476 181.7 95.564C181.628 95.66 181.568 95.748 181.52 95.828C180.648 95.34 179.904 94.7 179.288 93.908C178.68 93.108 178.172 92.184 177.764 91.136C177.364 90.08 177.036 88.924 176.78 87.668L177.644 87.5ZM171.92 85.988H172.784V93.776H171.92V85.988ZM175.136 85.988H176.012V95.936H175.136V85.988ZM170.744 93.524C171.144 93.468 171.6 93.408 172.112 93.344C172.624 93.272 173.168 93.196 173.744 93.116C174.328 93.028 174.912 92.94 175.496 92.852L175.544 93.68C174.72 93.816 173.896 93.952 173.072 94.088C172.256 94.216 171.536 94.324 170.912 94.412L170.744 93.524ZM186.488 85.532C186.424 85.756 186.36 86.016 186.296 86.312C186.24 86.6 186.184 86.904 186.128 87.224C186.08 87.536 186.036 87.836 185.996 88.124C185.964 88.412 185.94 88.66 185.924 88.868C186.052 88.564 186.22 88.252 186.428 87.932C186.636 87.612 186.884 87.32 187.172 87.056C187.46 86.784 187.772 86.564 188.108 86.396C188.452 86.228 188.812 86.144 189.188 86.144C189.724 86.144 190.196 86.312 190.604 86.648C191.02 86.984 191.344 87.46 191.576 88.076C191.808 88.692 191.924 89.42 191.924 90.26C191.924 91.092 191.8 91.816 191.552 92.432C191.304 93.04 190.956 93.556 190.508 93.98C190.06 94.404 189.524 94.748 188.9 95.012C188.284 95.276 187.604 95.472 186.86 95.6L186.296 94.736C186.944 94.64 187.548 94.496 188.108 94.304C188.676 94.104 189.172 93.836 189.596 93.5C190.02 93.156 190.348 92.72 190.58 92.192C190.82 91.664 190.94 91.024 190.94 90.272C190.94 89.64 190.868 89.08 190.724 88.592C190.58 88.096 190.368 87.708 190.088 87.428C189.808 87.148 189.456 87.008 189.032 87.008C188.656 87.008 188.296 87.128 187.952 87.368C187.608 87.608 187.292 87.92 187.004 88.304C186.724 88.68 186.496 89.088 186.32 89.528C186.144 89.96 186.036 90.372 185.996 90.764C185.964 90.996 185.948 91.224 185.948 91.448C185.956 91.672 185.98 91.936 186.02 92.24L185.096 92.312C185.064 92.088 185.032 91.812 185 91.484C184.976 91.156 184.964 90.796 184.964 90.404C184.964 90.124 184.976 89.812 185 89.468C185.032 89.116 185.064 88.764 185.096 88.412C185.136 88.052 185.176 87.708 185.216 87.38C185.264 87.052 185.304 86.768 185.336 86.528C185.36 86.344 185.38 86.168 185.396 86C185.412 85.824 185.424 85.656 185.432 85.496L186.488 85.532ZM199.892 86.9C200.22 86.948 200.6 86.988 201.032 87.02C201.472 87.044 201.924 87.056 202.388 87.056C202.86 87.048 203.308 87.032 203.732 87.008C204.164 86.976 204.528 86.936 204.824 86.888V87.86C204.504 87.892 204.128 87.92 203.696 87.944C203.272 87.96 202.828 87.968 202.364 87.968C201.908 87.968 201.464 87.96 201.032 87.944C200.6 87.92 200.22 87.892 199.892 87.86V86.9ZM200.36 91.784C200.304 92 200.26 92.196 200.228 92.372C200.196 92.548 200.18 92.72 200.18 92.888C200.18 93.024 200.208 93.16 200.264 93.296C200.328 93.424 200.432 93.54 200.576 93.644C200.728 93.74 200.936 93.82 201.2 93.884C201.464 93.94 201.8 93.968 202.208 93.968C202.752 93.968 203.264 93.944 203.744 93.896C204.224 93.84 204.704 93.76 205.184 93.656L205.208 94.664C204.832 94.744 204.392 94.808 203.888 94.856C203.392 94.896 202.832 94.916 202.208 94.916C201.2 94.916 200.46 94.756 199.988 94.436C199.524 94.116 199.292 93.676 199.292 93.116C199.292 92.916 199.308 92.704 199.34 92.48C199.38 92.248 199.432 91.988 199.496 91.7L200.36 91.784ZM197.6 85.976C197.584 86.04 197.56 86.124 197.528 86.228C197.504 86.324 197.476 86.424 197.444 86.528C197.42 86.624 197.4 86.708 197.384 86.78C197.344 87.004 197.296 87.264 197.24 87.56C197.184 87.848 197.128 88.16 197.072 88.496C197.024 88.824 196.976 89.16 196.928 89.504C196.888 89.84 196.852 90.168 196.82 90.488C196.796 90.808 196.784 91.104 196.784 91.376C196.784 91.672 196.792 91.952 196.808 92.216C196.832 92.48 196.86 92.76 196.892 93.056C196.964 92.872 197.04 92.676 197.12 92.468C197.2 92.26 197.28 92.056 197.36 91.856C197.448 91.648 197.524 91.464 197.588 91.304L198.092 91.688C197.988 91.976 197.876 92.292 197.756 92.636C197.636 92.98 197.528 93.312 197.432 93.632C197.344 93.944 197.28 94.192 197.24 94.376C197.224 94.464 197.208 94.56 197.192 94.664C197.176 94.768 197.172 94.852 197.18 94.916C197.188 94.98 197.192 95.048 197.192 95.12C197.2 95.2 197.208 95.272 197.216 95.336L196.352 95.396C196.232 94.972 196.128 94.428 196.04 93.764C195.952 93.092 195.908 92.352 195.908 91.544C195.908 91.104 195.928 90.656 195.968 90.2C196.008 89.736 196.06 89.288 196.124 88.856C196.188 88.416 196.248 88.016 196.304 87.656C196.368 87.288 196.416 86.98 196.448 86.732C196.472 86.588 196.492 86.444 196.508 86.3C196.524 86.148 196.532 86.008 196.532 85.88L197.6 85.976ZM210.272 86.252H217.964V87.08H210.272V86.252ZM211.46 89.012V90.812H216.704V89.012H211.46ZM210.62 88.256H217.568V91.58H210.62V88.256ZM211.376 91.82C211.752 92.452 212.264 92.996 212.912 93.452C213.568 93.908 214.332 94.28 215.204 94.568C216.084 94.856 217.044 95.056 218.084 95.168C218.02 95.232 217.952 95.312 217.88 95.408C217.808 95.504 217.744 95.6 217.688 95.696C217.632 95.8 217.584 95.896 217.544 95.984C216.48 95.824 215.504 95.576 214.616 95.24C213.728 94.912 212.948 94.488 212.276 93.968C211.604 93.44 211.052 92.808 210.62 92.072L211.376 91.82ZM213.608 84.968H214.484V90.272C214.484 90.736 214.46 91.196 214.412 91.652C214.364 92.108 214.264 92.548 214.112 92.972C213.96 93.396 213.732 93.796 213.428 94.172C213.124 94.548 212.724 94.892 212.228 95.204C211.74 95.516 211.124 95.78 210.38 95.996C210.34 95.932 210.288 95.852 210.224 95.756C210.16 95.668 210.096 95.576 210.032 95.48C209.968 95.384 209.9 95.308 209.828 95.252C210.548 95.068 211.14 94.844 211.604 94.58C212.068 94.316 212.432 94.02 212.696 93.692C212.968 93.356 213.168 93.004 213.296 92.636C213.424 92.26 213.508 91.872 213.548 91.472C213.588 91.072 213.608 90.672 213.608 90.272V84.968ZM209.756 84.896L210.596 85.16C210.324 85.832 210.004 86.496 209.636 87.152C209.276 87.808 208.884 88.424 208.46 89C208.044 89.576 207.616 90.088 207.176 90.536C207.144 90.464 207.096 90.372 207.032 90.26C206.976 90.148 206.916 90.036 206.852 89.924C206.788 89.812 206.728 89.72 206.672 89.648C207.072 89.264 207.464 88.82 207.848 88.316C208.232 87.804 208.588 87.26 208.916 86.684C209.244 86.1 209.524 85.504 209.756 84.896ZM208.496 88.028L209.336 87.176L209.36 87.188V96.008H208.496V88.028ZM220.772 85.76H228.536V86.624H220.772V85.76ZM220.772 88.556H228.512V89.408H220.772V88.556ZM220.7 91.424H228.536V92.276H220.7V91.424ZM220.256 85.76H221.144V90.116C221.144 90.572 221.124 91.06 221.084 91.58C221.044 92.1 220.968 92.628 220.856 93.164C220.752 93.692 220.588 94.2 220.364 94.688C220.148 95.176 219.86 95.62 219.5 96.02C219.46 95.956 219.396 95.884 219.308 95.804C219.22 95.732 219.132 95.66 219.044 95.588C218.956 95.516 218.876 95.464 218.804 95.432C219.14 95.056 219.404 94.648 219.596 94.208C219.788 93.768 219.932 93.316 220.028 92.852C220.124 92.38 220.184 91.912 220.208 91.448C220.24 90.984 220.256 90.54 220.256 90.116V85.76ZM228.176 85.76H229.064V94.736C229.064 95.024 229.02 95.244 228.932 95.396C228.852 95.548 228.712 95.664 228.512 95.744C228.312 95.816 228.032 95.86 227.672 95.876C227.312 95.892 226.848 95.896 226.28 95.888C226.256 95.776 226.212 95.632 226.148 95.456C226.092 95.288 226.032 95.144 225.968 95.024C226.248 95.032 226.516 95.036 226.772 95.036C227.036 95.044 227.264 95.044 227.456 95.036C227.648 95.036 227.78 95.036 227.852 95.036C227.972 95.028 228.056 95.004 228.104 94.964C228.152 94.924 228.176 94.848 228.176 94.736V85.76ZM224.024 86.084H224.936V95.852H224.024V86.084ZM234.5 85.652C234.468 85.852 234.444 86.056 234.428 86.264C234.412 86.464 234.4 86.664 234.392 86.864C234.376 87.2 234.36 87.616 234.344 88.112C234.328 88.608 234.312 89.136 234.296 89.696C234.28 90.248 234.268 90.8 234.26 91.352C234.252 91.904 234.248 92.4 234.248 92.84C234.248 93.28 234.332 93.632 234.5 93.896C234.668 94.16 234.9 94.348 235.196 94.46C235.492 94.572 235.832 94.628 236.216 94.628C236.76 94.628 237.252 94.56 237.692 94.424C238.132 94.28 238.524 94.092 238.868 93.86C239.212 93.62 239.516 93.352 239.78 93.056C240.052 92.76 240.296 92.456 240.512 92.144L241.196 92.96C240.988 93.248 240.732 93.548 240.428 93.86C240.132 94.164 239.78 94.448 239.372 94.712C238.964 94.976 238.492 95.192 237.956 95.36C237.428 95.528 236.836 95.612 236.18 95.612C235.612 95.612 235.108 95.524 234.668 95.348C234.228 95.172 233.884 94.888 233.636 94.496C233.388 94.104 233.264 93.584 233.264 92.936C233.264 92.576 233.268 92.18 233.276 91.748C233.284 91.308 233.296 90.856 233.312 90.392C233.328 89.928 233.34 89.476 233.348 89.036C233.356 88.588 233.364 88.176 233.372 87.8C233.38 87.424 233.384 87.112 233.384 86.864C233.384 86.64 233.376 86.424 233.36 86.216C233.344 86.008 233.32 85.816 233.288 85.64L234.5 85.652ZM249.296 85.472C249.28 85.576 249.264 85.692 249.248 85.82C249.24 85.948 249.232 86.1 249.224 86.276C249.224 86.396 249.22 86.576 249.212 86.816C249.212 87.056 249.212 87.328 249.212 87.632C249.212 87.928 249.212 88.228 249.212 88.532C249.212 88.836 249.212 89.116 249.212 89.372C249.212 89.772 249.22 90.192 249.236 90.632C249.252 91.072 249.272 91.5 249.296 91.916C249.32 92.332 249.34 92.712 249.356 93.056C249.372 93.4 249.38 93.672 249.38 93.872C249.38 94.152 249.312 94.42 249.176 94.676C249.048 94.932 248.828 95.14 248.516 95.3C248.212 95.468 247.796 95.552 247.268 95.552C246.404 95.552 245.744 95.4 245.288 95.096C244.832 94.8 244.604 94.364 244.604 93.788C244.604 93.42 244.712 93.1 244.928 92.828C245.152 92.556 245.472 92.344 245.888 92.192C246.304 92.032 246.8 91.952 247.376 91.952C248.008 91.952 248.6 92.028 249.152 92.18C249.712 92.324 250.224 92.508 250.688 92.732C251.152 92.956 251.564 93.192 251.924 93.44C252.284 93.68 252.58 93.896 252.812 94.088L252.26 94.94C251.988 94.684 251.672 94.428 251.312 94.172C250.96 93.916 250.572 93.68 250.148 93.464C249.732 93.248 249.28 93.076 248.792 92.948C248.312 92.812 247.8 92.744 247.256 92.744C246.68 92.744 246.24 92.84 245.936 93.032C245.64 93.224 245.492 93.46 245.492 93.74C245.492 93.916 245.548 94.08 245.66 94.232C245.772 94.376 245.952 94.492 246.2 94.58C246.448 94.668 246.768 94.712 247.16 94.712C247.392 94.712 247.604 94.684 247.796 94.628C247.988 94.564 248.14 94.456 248.252 94.304C248.372 94.152 248.432 93.94 248.432 93.668C248.432 93.436 248.424 93.136 248.408 92.768C248.4 92.392 248.388 91.996 248.372 91.58C248.356 91.156 248.34 90.748 248.324 90.356C248.316 89.964 248.312 89.636 248.312 89.372C248.312 89.1 248.312 88.824 248.312 88.544C248.312 88.256 248.312 87.972 248.312 87.692C248.312 87.412 248.312 87.144 248.312 86.888C248.32 86.632 248.324 86.4 248.324 86.192C248.324 86.096 248.32 85.972 248.312 85.82C248.304 85.668 248.292 85.552 248.276 85.472H249.296ZM244.7 86.78C244.9 86.812 245.132 86.844 245.396 86.876C245.66 86.908 245.936 86.94 246.224 86.972C246.52 86.996 246.8 87.016 247.064 87.032C247.336 87.04 247.572 87.044 247.772 87.044C248.532 87.044 249.308 87.016 250.1 86.96C250.9 86.904 251.688 86.812 252.464 86.684L252.452 87.56C252.012 87.608 251.532 87.656 251.012 87.704C250.492 87.752 249.956 87.792 249.404 87.824C248.86 87.856 248.32 87.872 247.784 87.872C247.504 87.872 247.172 87.86 246.788 87.836C246.404 87.812 246.024 87.784 245.648 87.752C245.28 87.72 244.968 87.692 244.712 87.668L244.7 86.78ZM244.64 89.324C244.856 89.356 245.096 89.388 245.36 89.42C245.624 89.452 245.896 89.476 246.176 89.492C246.456 89.508 246.724 89.524 246.98 89.54C247.236 89.548 247.464 89.552 247.664 89.552C248.248 89.552 248.812 89.54 249.356 89.516C249.908 89.484 250.448 89.444 250.976 89.396C251.512 89.34 252.04 89.272 252.56 89.192L252.548 90.092C252.148 90.148 251.748 90.196 251.348 90.236C250.956 90.268 250.56 90.296 250.16 90.32C249.768 90.344 249.364 90.364 248.948 90.38C248.54 90.388 248.108 90.392 247.652 90.392C247.38 90.392 247.064 90.384 246.704 90.368C246.352 90.352 245.992 90.332 245.624 90.308C245.264 90.284 244.94 90.256 244.652 90.224L244.64 89.324ZM261.944 85.496C261.944 85.536 261.936 85.608 261.92 85.712C261.912 85.816 261.904 85.92 261.896 86.024C261.896 86.12 261.892 86.196 261.884 86.252C261.876 86.404 261.872 86.612 261.872 86.876C261.872 87.14 261.872 87.428 261.872 87.74C261.872 88.052 261.872 88.368 261.872 88.688C261.88 89.008 261.884 89.308 261.884 89.588C261.892 89.868 261.896 90.104 261.896 90.296L260.972 89.84C260.972 89.728 260.972 89.56 260.972 89.336C260.972 89.104 260.972 88.84 260.972 88.544C260.972 88.24 260.968 87.94 260.96 87.644C260.96 87.348 260.956 87.076 260.948 86.828C260.94 86.58 260.932 86.388 260.924 86.252C260.916 86.092 260.904 85.94 260.888 85.796C260.872 85.644 260.86 85.544 260.852 85.496H261.944ZM255.572 87.164C255.9 87.164 256.272 87.16 256.688 87.152C257.104 87.136 257.544 87.12 258.008 87.104C258.48 87.088 258.956 87.076 259.436 87.068C259.916 87.06 260.376 87.052 260.816 87.044C261.264 87.036 261.676 87.032 262.052 87.032C262.412 87.032 262.772 87.032 263.132 87.032C263.492 87.032 263.828 87.032 264.14 87.032C264.46 87.032 264.74 87.036 264.98 87.044C265.228 87.044 265.424 87.044 265.568 87.044L265.556 87.932C265.22 87.916 264.768 87.904 264.2 87.896C263.64 87.88 262.92 87.872 262.04 87.872C261.52 87.872 260.976 87.88 260.408 87.896C259.848 87.904 259.284 87.916 258.716 87.932C258.148 87.948 257.596 87.972 257.06 88.004C256.532 88.028 256.044 88.056 255.596 88.088L255.572 87.164ZM261.872 90.656C261.872 91.184 261.792 91.628 261.632 91.988C261.48 92.348 261.264 92.616 260.984 92.792C260.712 92.968 260.392 93.056 260.024 93.056C259.776 93.056 259.532 93.016 259.292 92.936C259.06 92.848 258.848 92.72 258.656 92.552C258.472 92.376 258.324 92.164 258.212 91.916C258.108 91.66 258.056 91.372 258.056 91.052C258.056 90.652 258.152 90.296 258.344 89.984C258.536 89.672 258.792 89.424 259.112 89.24C259.44 89.056 259.792 88.964 260.168 88.964C260.64 88.964 261.028 89.072 261.332 89.288C261.644 89.496 261.88 89.784 262.04 90.152C262.2 90.512 262.28 90.924 262.28 91.388C262.28 91.788 262.22 92.196 262.1 92.612C261.988 93.028 261.796 93.428 261.524 93.812C261.26 94.196 260.896 94.548 260.432 94.868C259.976 95.18 259.396 95.44 258.692 95.648L257.888 94.856C258.432 94.728 258.92 94.564 259.352 94.364C259.784 94.164 260.148 93.92 260.444 93.632C260.74 93.344 260.964 93.008 261.116 92.624C261.276 92.24 261.356 91.8 261.356 91.304C261.356 90.76 261.24 90.368 261.008 90.128C260.776 89.888 260.496 89.768 260.168 89.768C259.96 89.768 259.764 89.82 259.58 89.924C259.396 90.02 259.244 90.164 259.124 90.356C259.012 90.548 258.956 90.776 258.956 91.04C258.956 91.416 259.076 91.708 259.316 91.916C259.564 92.124 259.852 92.228 260.18 92.228C260.428 92.228 260.64 92.16 260.816 92.024C260.992 91.88 261.116 91.668 261.188 91.388C261.268 91.1 261.276 90.744 261.212 90.32L261.872 90.656Z" fill="#646464"/>
</g>
<defs>
<clipPath id="clip0_158_3180">
<rect width="284" height="16" fill="white" transform="translate(8 82)"/>
</clipPath>
</defs>
</svg>
